<svg width="140" height="140" viewBox="0 0 140 140" fill="none" xmlns="http://www.w3.org/2000/svg">
<rect width="140" height="140" rx="30" fill="#D3F500"/>
<path d="M108.306 114.965C108.386 115.081 108.357 115.217 108.361 115.341C108.361 115.887 108.361 116.433 108.361 116.979C108.327 116.996 108.294 116.988 108.294 116.959C108.277 116.293 108.244 115.627 108.311 114.961L108.306 114.965Z" fill="#FCE196"/>
<path d="M13.0837 113.679C13.1843 113.939 13.1843 114.2 13.0795 114.46C12.9748 114.2 12.9748 113.939 13.0837 113.679Z" fill="#FCE196"/>
<path d="M121.89 112.463C121.781 112.202 121.785 111.946 121.881 111.681C121.995 111.942 121.99 112.198 121.89 112.463Z" fill="#FCE196"/>
<path d="M13.1719 109.084C13.264 109.228 13.264 109.373 13.1635 109.518C13.0671 109.373 13.0713 109.228 13.1719 109.084Z" fill="#FCE196"/>
<path d="M60.4959 97.8997C60.5922 98.0403 60.5964 98.185 60.5042 98.3339C60.4037 98.1933 60.4037 98.0486 60.4959 97.8997Z" fill="#FCE196"/>
<path d="M74.3772 102.755C74.285 102.611 74.285 102.466 74.3814 102.321C74.4778 102.466 74.4778 102.611 74.3772 102.755Z" fill="#FCE196"/>
<path d="M108.18 105.791C108.277 105.936 108.277 106.081 108.189 106.226C108.088 106.081 108.088 105.936 108.18 105.791Z" fill="#FCE196"/>
<path d="M74.5488 96.601C74.4608 96.4852 74.465 96.3693 74.5572 96.2535C74.6494 96.3735 74.6494 96.4852 74.5488 96.601Z" fill="#FCE196"/>
<path d="M60.5842 101.022C60.6764 101.138 60.6806 101.254 60.5884 101.37C60.4921 101.254 60.4921 101.138 60.5842 101.022Z" fill="#FCE196"/>
<path d="M26.9522 101.283C26.8642 101.167 26.8642 101.051 26.9606 100.936C27.0527 101.051 27.0486 101.167 26.9522 101.283Z" fill="#FCE196"/>
<path d="M74.4651 99.1157C74.3813 99.0288 74.3855 98.942 74.4693 98.8551C74.5531 98.942 74.5531 99.0288 74.4651 99.1157Z" fill="#FCE196"/>
<path d="M121.802 108.476C121.718 108.389 121.714 108.302 121.798 108.215C121.886 108.302 121.89 108.389 121.802 108.476Z" fill="#FCE196"/>
<path d="M106.618 78.9939C106.731 79.1635 106.698 79.3455 106.681 79.5274C106.563 79.362 106.601 79.1759 106.618 78.9939Z" fill="#FCE196"/>
<path d="M106.706 79.9492C106.819 80.1188 106.781 80.3008 106.769 80.4828C106.651 80.3173 106.689 80.1312 106.706 79.9492Z" fill="#FCE196"/>
<path d="M27.0401 99.0289C26.9605 98.9379 26.9647 98.851 27.0485 98.7683C27.1323 98.8593 27.1323 98.9462 27.0401 99.0289Z" fill="#FCE196"/>
<path d="M108.093 102.755C108.177 102.842 108.181 102.929 108.097 103.016C108.009 102.929 108.005 102.842 108.093 102.755Z" fill="#FCE196"/>
<path d="M26.8684 103.885C26.7846 103.798 26.7888 103.711 26.8726 103.624C26.9564 103.711 26.9522 103.798 26.8684 103.885Z" fill="#FCE196"/>
<path d="M121.626 103.88C121.542 103.798 121.538 103.711 121.622 103.62C121.71 103.703 121.714 103.789 121.626 103.88Z" fill="#FCE196"/>
<path d="M121.714 105.961C121.63 105.874 121.626 105.791 121.71 105.7C121.798 105.787 121.802 105.87 121.714 105.961Z" fill="#FCE196"/>
<path d="M74.3224 105.539C74.2763 105.386 74.2596 105.229 74.3434 105.08C74.3853 105.233 74.4062 105.39 74.3224 105.539Z" fill="#FCE196"/>
<path d="M107.833 96.1667C107.904 96.2205 107.904 96.2784 107.837 96.3405C107.766 96.2867 107.757 96.2288 107.833 96.1667Z" fill="#FCE196"/>
<path d="M107.657 92.7876C107.728 92.8414 107.728 92.8993 107.665 92.9613C107.59 92.9075 107.586 92.8496 107.657 92.7876Z" fill="#FCE196"/>
<path d="M28.1255 81.616C28.092 81.4878 28.0795 81.3637 28.1716 81.2521C28.1968 81.3803 28.2135 81.5044 28.1255 81.616Z" fill="#FCE196"/>
<path d="M60.0602 88.3661C60.1314 88.4199 60.1356 88.4778 60.0685 88.5398C59.9973 88.486 59.9889 88.4281 60.0602 88.3661Z" fill="#FCE196"/>
<path d="M121.186 96.4273C121.115 96.3735 121.111 96.3156 121.178 96.2535C121.253 96.3073 121.257 96.3652 121.186 96.4273Z" fill="#FCE196"/>
<path d="M27.2162 95.1285C27.1492 95.0665 27.1534 95.0086 27.2246 94.9548C27.2958 95.0169 27.2916 95.0748 27.2162 95.1285Z" fill="#FCE196"/>
<path d="M26.7803 107.177C26.7132 107.119 26.7132 107.061 26.7803 107.003C26.8515 107.061 26.8515 107.119 26.7803 107.177Z" fill="#FCE196"/>
<path d="M106.882 81.9429C106.974 82.0545 106.961 82.1828 106.928 82.3068C106.836 82.1952 106.857 82.067 106.882 81.9429Z" fill="#FCE196"/>
<path d="M107.745 94.4337C107.816 94.4875 107.816 94.5454 107.753 94.6074C107.678 94.5537 107.674 94.4958 107.745 94.4337Z" fill="#FCE196"/>
<path d="M107.481 89.8386C107.552 89.8924 107.556 89.9503 107.489 90.0123C107.414 89.9586 107.41 89.9007 107.481 89.8386Z" fill="#FCE196"/>
<path d="M107.921 98.1603C107.992 98.214 107.992 98.272 107.925 98.334C107.849 98.2802 107.845 98.2223 107.921 98.1603Z" fill="#FCE196"/>
<path d="M74.6411 94.26C74.5741 94.2021 74.5741 94.1442 74.6411 94.0863C74.7123 94.1442 74.7081 94.2021 74.6411 94.26Z" fill="#FCE196"/>
<path d="M60.1481 89.9254C60.2193 89.9792 60.2235 90.0371 60.1565 90.0991C60.081 90.0454 60.0768 89.9875 60.1481 89.9254Z" fill="#FCE196"/>
<path d="M74.8129 90.6202C74.7458 90.5582 74.75 90.5003 74.8171 90.4465C74.8883 90.5086 74.8841 90.5665 74.8129 90.6202Z" fill="#FCE196"/>
<path d="M60.4123 95.6455C60.4793 95.7034 60.4877 95.7572 60.4165 95.8192C60.3411 95.7655 60.3411 95.7075 60.4123 95.6455Z" fill="#FCE196"/>
<path d="M13.1341 110.978C13.1802 111.106 13.1928 111.23 13.1132 111.35C13.0713 111.222 13.0587 111.098 13.1341 110.978Z" fill="#FCE196"/>
<path d="M75.8057 77.021C75.7764 76.8927 75.7639 76.7687 75.856 76.657C75.877 76.7852 75.8979 76.9093 75.8057 77.021Z" fill="#FCE196"/>
<path d="M60.3243 93.4783C60.3955 93.5362 60.3955 93.5941 60.3285 93.652C60.2573 93.5941 60.2531 93.5403 60.3243 93.4783Z" fill="#FCE196"/>
<path d="M121.45 100.414C121.383 100.361 121.374 100.303 121.441 100.241C121.517 100.294 121.521 100.352 121.45 100.414Z" fill="#FCE196"/>
<path d="M14.2068 91.5674C14.2319 91.6956 14.2487 91.8197 14.1607 91.9355C14.1272 91.8073 14.1146 91.6832 14.2068 91.5674Z" fill="#FCE196"/>
<path d="M108.009 100.328C108.076 100.386 108.08 100.443 108.013 100.501C107.942 100.443 107.938 100.386 108.009 100.328Z" fill="#FCE196"/>
<path d="M27.3041 93.4783C27.2371 93.4162 27.2413 93.3583 27.3125 93.3046C27.3837 93.3666 27.3795 93.4245 27.3041 93.4783Z" fill="#FCE196"/>
<path d="M27.392 91.919C27.325 91.8569 27.3292 91.799 27.4004 91.7452C27.4716 91.8073 27.4674 91.8652 27.392 91.919Z" fill="#FCE196"/>
<path d="M13.5194 100.762C13.5907 100.82 13.5823 100.878 13.5152 100.936C13.444 100.878 13.4482 100.82 13.5194 100.762Z" fill="#FCE196"/>
<path d="M13.4357 102.321C13.5028 102.383 13.4986 102.441 13.4274 102.495C13.3561 102.433 13.3603 102.375 13.4357 102.321Z" fill="#FCE196"/>
<path d="M121.538 102.061C121.467 102.003 121.463 101.945 121.534 101.887C121.605 101.945 121.609 101.999 121.538 102.061Z" fill="#FCE196"/>
<path d="M74.7291 92.3533C74.6579 92.2954 74.6621 92.2375 74.7333 92.1796C74.8045 92.2375 74.8003 92.2954 74.7291 92.3533Z" fill="#FCE196"/>
<path d="M59.7081 83.163C59.7794 83.2167 59.7835 83.2746 59.7165 83.3367C59.6411 83.2829 59.6369 83.225 59.7081 83.163Z" fill="#FCE196"/>
<path d="M58.845 73.7948C58.9246 73.8775 58.9246 73.9727 58.8869 74.0761C58.8115 73.9933 58.8199 73.8941 58.845 73.7948Z" fill="#FCE196"/>
<path d="M106.354 76.3096C106.434 76.3923 106.434 76.4874 106.396 76.5908C106.325 76.5081 106.329 76.4088 106.354 76.3096Z" fill="#FCE196"/>
<path d="M108.223 107.942C108.29 108.033 108.285 108.128 108.243 108.227C108.176 108.136 108.181 108.041 108.223 107.942Z" fill="#FCE196"/>
<path d="M105.935 72.4878C106.006 72.5747 106.002 72.6698 105.977 72.769C105.893 72.6863 105.893 72.5912 105.935 72.4878Z" fill="#FCE196"/>
<path d="M106.467 77.4263C106.534 77.5131 106.526 77.6083 106.505 77.7075C106.421 77.6248 106.425 77.5297 106.467 77.4263Z" fill="#FCE196"/>
<path d="M26.7259 109.7C26.684 109.601 26.6798 109.505 26.7426 109.414C26.7845 109.514 26.7887 109.609 26.7259 109.7Z" fill="#FCE196"/>
<path d="M76.2331 72.9428C76.2121 72.8435 76.2038 72.7484 76.275 72.6615C76.3169 72.7608 76.3127 72.86 76.2331 72.9428Z" fill="#FCE196"/>
<path d="M60.6216 103.26C60.6886 103.351 60.6844 103.446 60.6383 103.545C60.5713 103.454 60.5755 103.359 60.6216 103.26Z" fill="#FCE196"/>
<path d="M120.381 87.419C120.302 87.3362 120.297 87.2411 120.344 87.1418C120.411 87.2287 120.406 87.3238 120.381 87.419Z" fill="#FCE196"/>
<path d="M26.99 100.079C26.9522 99.9802 26.9439 99.8851 27.0151 99.7941C27.0528 99.8933 27.0612 99.9885 26.99 100.079Z" fill="#FCE196"/>
<path d="M13.2219 107.599C13.2638 107.698 13.268 107.793 13.1967 107.884C13.1548 107.785 13.1506 107.69 13.2219 107.599Z" fill="#FCE196"/>
<path d="M60.5335 99.4467C60.6006 99.5376 60.5964 99.6328 60.5545 99.732C60.4875 99.6411 60.4917 99.5459 60.5335 99.4467Z" fill="#FCE196"/>
<path d="M107.954 99.0991C108.026 99.1901 108.022 99.2852 107.984 99.3845C107.913 99.2976 107.917 99.1984 107.954 99.0991Z" fill="#FCE196"/>
<path d="M121.852 110.052C121.785 109.961 121.789 109.865 121.831 109.766C121.898 109.857 121.894 109.952 121.852 110.052Z" fill="#FCE196"/>
<path d="M58.4934 70.6721C58.573 70.7548 58.573 70.85 58.5395 70.9492C58.4641 70.8665 58.4683 70.7714 58.4934 70.6721Z" fill="#FCE196"/>
<path d="M58.7782 73.1827C58.8495 73.2696 58.8453 73.3647 58.8201 73.464C58.7405 73.3813 58.7363 73.2861 58.7782 73.1827Z" fill="#FCE196"/>
<path d="M106.291 75.6932C106.358 75.7801 106.354 75.8752 106.333 75.9745C106.249 75.8918 106.249 75.7966 106.291 75.6932Z" fill="#FCE196"/>
<path d="M106.027 73.2654C106.098 73.3522 106.09 73.4474 106.069 73.5466C105.99 73.4639 105.985 73.3688 106.027 73.2654Z" fill="#FCE196"/>
<path d="M27.0695 97.999C27.036 97.8997 27.0318 97.8046 27.0989 97.7136C27.1366 97.8129 27.145 97.908 27.0695 97.999Z" fill="#FCE196"/>
<path d="M75.9858 75.2011C75.9523 75.1018 75.9523 75.0067 76.0277 74.9198C76.0528 75.0191 76.0612 75.1142 75.9858 75.2011Z" fill="#FCE196"/>
<path d="M28.7414 75.2011C28.7079 75.1018 28.7079 75.0067 28.7875 74.9198C28.8126 75.0191 28.8168 75.1142 28.7414 75.2011Z" fill="#FCE196"/>
<path d="M28.8962 73.8072C28.8752 73.708 28.8668 73.6129 28.9381 73.526C28.98 73.6253 28.98 73.7204 28.8962 73.8072Z" fill="#FCE196"/>
<path d="M74.5823 95.3974C74.5446 95.2982 74.5404 95.2031 74.6074 95.1121C74.6451 95.2113 74.6493 95.3064 74.5823 95.3974Z" fill="#FCE196"/>
<path d="M28.8127 74.589C28.7917 74.4897 28.7833 74.3946 28.8546 74.3077C28.8965 74.4111 28.8923 74.5063 28.8127 74.589Z" fill="#FCE196"/>
<path d="M76.078 74.3325C76.0402 74.2333 76.0444 74.1381 76.1198 74.0554C76.145 74.1547 76.1492 74.2498 76.078 74.3325Z" fill="#FCE196"/>
<path d="M58.6945 72.401C58.7657 72.4879 58.7574 72.583 58.7364 72.6823C58.6526 72.5995 58.6526 72.5044 58.6945 72.401Z" fill="#FCE196"/>
<path d="M13.5738 99.9678C13.6074 100.038 13.6032 100.104 13.5487 100.166C13.5152 100.096 13.5194 100.03 13.5738 99.9678Z" fill="#FCE196"/>
<path d="M75.0223 86.902C74.9888 86.8317 74.9972 86.7655 75.0516 86.7035C75.0851 86.7738 75.0768 86.84 75.0223 86.902Z" fill="#FCE196"/>
<path d="M107.783 95.2858C107.833 95.3478 107.841 95.414 107.808 95.4843C107.749 95.4264 107.745 95.3561 107.783 95.2858Z" fill="#FCE196"/>
<path d="M60.45 96.7582C60.5003 96.8202 60.5045 96.8864 60.471 96.9567C60.4165 96.8947 60.4123 96.8285 60.45 96.7582Z" fill="#FCE196"/>
<path d="M121.241 97.0476C121.186 96.9897 121.178 96.9194 121.211 96.8491C121.266 96.907 121.274 96.9773 121.241 97.0476Z" fill="#FCE196"/>
<path d="M107.867 97.1056C107.917 97.1676 107.925 97.2338 107.892 97.3041C107.837 97.2421 107.833 97.1759 107.867 97.1056Z" fill="#FCE196"/>
<path d="M60.3618 94.504C60.4121 94.5661 60.4163 94.6322 60.387 94.7026C60.3283 94.6405 60.3241 94.5743 60.3618 94.504Z" fill="#FCE196"/>
<path d="M74.4987 97.8252C74.4652 97.7549 74.4694 97.6887 74.5197 97.6267C74.5574 97.697 74.5532 97.7632 74.4987 97.8252Z" fill="#FCE196"/>
<path d="M28.0372 82.6542C28.0078 82.5839 28.0162 82.5177 28.0707 82.4557C28.1042 82.5301 28.0958 82.5963 28.0372 82.6542Z" fill="#FCE196"/>
<path d="M121.329 98.3464C121.274 98.2843 121.266 98.2181 121.303 98.1478C121.358 98.2099 121.362 98.276 121.329 98.3464Z" fill="#FCE196"/>
<path d="M27.2499 94.2724C27.2163 94.2021 27.2205 94.1359 27.275 94.0739C27.3085 94.1442 27.3043 94.2103 27.2499 94.2724Z" fill="#FCE196"/>
<path d="M107.69 93.5527C107.745 93.6148 107.749 93.681 107.715 93.7513C107.661 93.6892 107.657 93.623 107.69 93.5527Z" fill="#FCE196"/>
<path d="M121.416 99.7361C121.362 99.6741 121.354 99.6079 121.391 99.5376C121.446 99.5996 121.45 99.6658 121.416 99.7361Z" fill="#FCE196"/>
<path d="M74.4147 100.774C74.377 100.704 74.3812 100.638 74.4315 100.576C74.4692 100.646 74.465 100.712 74.4147 100.774Z" fill="#FCE196"/>
<path d="M75.282 83.1753C75.2527 83.105 75.2611 83.0388 75.3113 82.9768C75.3449 83.0513 75.3365 83.1174 75.282 83.1753Z" fill="#FCE196"/>
<path d="M74.6745 93.3169C74.641 93.2466 74.6452 93.1804 74.6954 93.1184C74.7332 93.1887 74.7248 93.2549 74.6745 93.3169Z" fill="#FCE196"/>
<path d="M121.504 101.209C121.45 101.146 121.446 101.08 121.479 101.01C121.534 101.072 121.538 101.138 121.504 101.209Z" fill="#FCE196"/>
<path d="M13.4859 101.531C13.5237 101.601 13.5153 101.668 13.4608 101.73C13.4273 101.659 13.4315 101.593 13.4859 101.531Z" fill="#FCE196"/>
<path d="M60.2697 92.5105C60.32 92.5725 60.3284 92.6387 60.2949 92.709C60.2404 92.647 60.232 92.5808 60.2697 92.5105Z" fill="#FCE196"/>
<path d="M27.3335 92.709C27.3041 92.6387 27.3083 92.5725 27.3628 92.5105C27.4005 92.5849 27.3921 92.6511 27.3335 92.709Z" fill="#FCE196"/>
<path d="M120.892 92.6263C120.838 92.5684 120.83 92.5022 120.859 92.4277C120.913 92.4856 120.922 92.5518 120.892 92.6263Z" fill="#FCE196"/>
<path d="M108.047 101.527C108.097 101.589 108.101 101.655 108.068 101.726C108.013 101.664 108.009 101.597 108.047 101.527Z" fill="#FCE196"/>
<path d="M107.602 91.9934C107.657 92.0513 107.661 92.1216 107.632 92.1919C107.577 92.134 107.569 92.0637 107.602 91.9934Z" fill="#FCE196"/>
<path d="M59.7421 83.7585C59.7966 83.8164 59.8008 83.8826 59.7714 83.9571C59.7128 83.8992 59.7044 83.833 59.7421 83.7585Z" fill="#FCE196"/>
<path d="M121.588 102.855C121.538 102.793 121.53 102.726 121.563 102.656C121.618 102.718 121.622 102.784 121.588 102.855Z" fill="#FCE196"/>
<path d="M13.3981 103.264C13.4358 103.334 13.4274 103.401 13.3771 103.463C13.3436 103.392 13.3478 103.326 13.3981 103.264Z" fill="#FCE196"/>
<path d="M74.7584 91.4971C74.7249 91.4268 74.7333 91.3606 74.7835 91.2986C74.8171 91.3689 74.8129 91.4351 74.7584 91.4971Z" fill="#FCE196"/>
<path d="M107.514 90.5168C107.569 90.5748 107.573 90.6451 107.544 90.7154C107.489 90.6575 107.481 90.5872 107.514 90.5168Z" fill="#FCE196"/>
<path d="M108.134 104.302C108.185 104.364 108.189 104.431 108.151 104.501C108.101 104.439 108.097 104.373 108.134 104.302Z" fill="#FCE196"/>
<path d="M121.68 104.848C121.626 104.786 121.622 104.72 121.659 104.65C121.71 104.712 121.714 104.778 121.68 104.848Z" fill="#FCE196"/>
<path d="M27.8616 84.8216C27.8323 84.7513 27.8406 84.6851 27.8909 84.623C27.9244 84.6975 27.9161 84.7637 27.8616 84.8216Z" fill="#FCE196"/>
<path d="M26.8141 105.539C26.7764 105.469 26.7806 105.402 26.8309 105.34C26.8686 105.411 26.8644 105.477 26.8141 105.539Z" fill="#FCE196"/>
<path d="M74.846 89.851C74.8125 89.7807 74.8209 89.7145 74.8753 89.6525C74.9089 89.7228 74.9047 89.789 74.846 89.851Z" fill="#FCE196"/>
<path d="M107.427 89.1313C107.481 89.1893 107.485 89.2596 107.456 89.3299C107.401 89.272 107.393 89.2017 107.427 89.1313Z" fill="#FCE196"/>
<path d="M59.8297 84.9705C59.8841 85.0284 59.8883 85.0945 59.859 85.169C59.8003 85.1111 59.7961 85.0449 59.8297 84.9705Z" fill="#FCE196"/>
<path d="M60.0936 89.1313C60.148 89.1934 60.1522 89.2596 60.1229 89.3299C60.0684 89.272 60.0601 89.2017 60.0936 89.1313Z" fill="#FCE196"/>
<path d="M121.764 107.102C121.714 107.04 121.706 106.974 121.748 106.904C121.798 106.966 121.802 107.032 121.764 107.102Z" fill="#FCE196"/>
<path d="M75.1062 85.6032C75.0769 85.5329 75.0853 85.4667 75.1356 85.4047C75.1691 85.4791 75.1649 85.5453 75.1062 85.6032Z" fill="#FCE196"/>
<path d="M107.163 85.4047C107.217 85.4626 107.221 85.5287 107.192 85.6032C107.133 85.5453 107.129 85.4791 107.163 85.4047Z" fill="#FCE196"/>
<path d="M27.5974 88.4612C27.5681 88.3909 27.5765 88.3247 27.6268 88.2627C27.6603 88.3371 27.6561 88.4033 27.5974 88.4612Z" fill="#FCE196"/>
<path d="M44.4407 23.0166C44.3779 23.0786 44.315 23.0703 44.2563 23.0083C44.3192 23.0083 44.3779 23.0124 44.4407 23.0166Z" fill="#FCE196"/>
<path d="M107.338 87.8325C107.393 87.8904 107.397 87.9607 107.368 88.031C107.313 87.9731 107.305 87.907 107.338 87.8325Z" fill="#FCE196"/>
<path d="M60.0059 87.6588C60.0604 87.7167 60.0646 87.787 60.0352 87.8573C59.9766 87.7994 59.9724 87.7333 60.0059 87.6588Z" fill="#FCE196"/>
<path d="M59.918 86.2692C59.9725 86.3271 59.9767 86.3974 59.9474 86.4677C59.8887 86.4098 59.8845 86.3436 59.918 86.2692Z" fill="#FCE196"/>
<path d="M27.1659 96.0054C27.1324 95.9351 27.1366 95.8689 27.191 95.8069C27.2245 95.8772 27.2203 95.9434 27.1659 96.0054Z" fill="#FCE196"/>
<path d="M42.8612 23.0206C42.8277 23.0579 42.7941 23.0703 42.748 23.0372C42.7816 23.0082 42.8193 23 42.8612 23.0206Z" fill="#FCE196"/>
<path d="M14.5417 88.1801C14.5669 88.2256 14.5543 88.2628 14.5166 88.2959C14.4956 88.2504 14.504 88.2131 14.5417 88.1801Z" fill="#FCE196"/>
<path d="M107.288 86.9681C107.288 87.0012 107.293 87.0343 107.297 87.0715C107.284 87.0467 107.272 87.026 107.263 87.0012C107.263 86.993 107.28 86.9805 107.288 86.9681Z" fill="#FCE196"/>
<path d="M27.6855 87.1626C27.6646 87.1171 27.673 87.0798 27.7107 87.0468C27.7358 87.0922 27.7232 87.1295 27.6855 87.1626Z" fill="#FCE196"/>
<path d="M14.6509 87.146C14.6467 87.1832 14.6425 87.2204 14.6342 87.2577C14.63 87.2329 14.6216 87.2039 14.6216 87.1791C14.6216 87.1667 14.6383 87.1584 14.6509 87.146Z" fill="#FCE196"/>
<path d="M107.25 86.6166C107.263 86.6414 107.28 86.6662 107.288 86.691C107.288 86.7034 107.28 86.7158 107.275 86.7324C107.242 86.6993 107.229 86.6621 107.254 86.6166H107.25Z" fill="#FCE196"/>
<path d="M27.6726 87.419C27.6726 87.3859 27.6726 87.3486 27.6768 87.3156C27.6852 87.3404 27.6978 87.3652 27.6978 87.39C27.6978 87.3983 27.681 87.4107 27.6685 87.419H27.6726Z" fill="#FCE196"/>
<path d="M59.9849 87.3156C59.9974 87.3404 60.01 87.361 60.0142 87.3859C60.0142 87.3941 59.9974 87.4065 59.9891 87.419C59.9891 87.3859 59.9891 87.3486 59.9849 87.3156Z" fill="#FCE196"/>
<path d="M107.322 87.5762C107.368 87.6093 107.372 87.6465 107.33 87.6837C107.33 87.6465 107.326 87.6134 107.322 87.5762Z" fill="#FCE196"/>
<path d="M120.243 86.2154C120.239 86.1782 120.235 86.141 120.227 86.1079C120.239 86.1327 120.256 86.1575 120.264 86.1824C120.264 86.1906 120.252 86.2072 120.243 86.2196V86.2154Z" fill="#FCE196"/>
<path d="M74.9718 87.9442C74.9299 87.907 74.9341 87.8698 74.9802 87.8367C74.9802 87.8739 74.976 87.907 74.9718 87.9442Z" fill="#FCE196"/>
<path d="M27.7773 85.9506C27.7564 85.9052 27.7648 85.8679 27.8025 85.8348C27.8276 85.8803 27.815 85.9176 27.7773 85.9506Z" fill="#FCE196"/>
<path d="M120.453 88.0352C120.419 88.0022 120.407 87.9649 120.428 87.9194C120.44 87.9442 120.457 87.9691 120.465 87.9939C120.465 88.0063 120.457 88.0228 120.453 88.0352Z" fill="#FCE196"/>
<path d="M27.6352 88.1179C27.5891 88.0807 27.5974 88.0435 27.6435 88.0104C27.6435 88.0476 27.6393 88.0848 27.6352 88.1179Z" fill="#FCE196"/>
<path d="M107.2 85.7562C107.2 85.7893 107.204 85.8224 107.208 85.8596C107.196 85.8348 107.183 85.8141 107.175 85.7893C107.175 85.781 107.192 85.7686 107.2 85.7562Z" fill="#FCE196"/>
<path d="M75.0933 85.8596C75.0933 85.8265 75.0975 85.7893 75.1016 85.7562C75.11 85.781 75.1226 85.8059 75.1226 85.8307C75.1226 85.8389 75.1058 85.8514 75.0933 85.8596Z" fill="#FCE196"/>
<path d="M43.1164 23.0083C43.0871 23.0455 43.0535 23.0455 43.02 23.0083C43.0535 23.0083 43.0829 23.0083 43.1164 23.0083Z" fill="#FCE196"/>
<path d="M107.376 88.1841C107.376 88.2172 107.376 88.2544 107.38 88.2875C107.368 88.2627 107.355 88.242 107.351 88.2172C107.351 88.2089 107.368 88.1965 107.376 88.1841Z" fill="#FCE196"/>
<path d="M120.193 85.6902C120.155 85.6571 120.143 85.6198 120.168 85.5743C120.18 85.5992 120.197 85.624 120.206 85.6488C120.206 85.6612 120.197 85.6736 120.197 85.6902H120.193Z" fill="#FCE196"/>
<path d="M59.8674 85.322C59.8674 85.3551 59.8716 85.3923 59.8758 85.4254C59.8632 85.4006 59.8507 85.3799 59.8423 85.3551C59.8423 85.3468 59.859 85.3344 59.8674 85.322Z" fill="#FCE196"/>
<path d="M27.585 88.7177C27.585 88.6846 27.5892 88.6473 27.5933 88.6143C27.6017 88.6391 27.6101 88.6639 27.6143 88.6887C27.6143 88.697 27.5975 88.7094 27.585 88.7177Z" fill="#FCE196"/>
<path d="M120.541 88.8997C120.507 88.8667 120.495 88.8294 120.516 88.7839C120.528 88.8088 120.545 88.8336 120.553 88.8584C120.553 88.8708 120.545 88.8832 120.541 88.8997Z" fill="#FCE196"/>
<path d="M107.41 88.8749C107.456 88.908 107.46 88.9452 107.418 88.9824C107.418 88.9452 107.414 88.9121 107.41 88.8749Z" fill="#FCE196"/>
<path d="M14.4494 89.0444C14.4746 89.0899 14.462 89.1272 14.4243 89.1602C14.4034 89.1148 14.4117 89.0775 14.4494 89.0444Z" fill="#FCE196"/>
<path d="M107.146 85.1483C107.192 85.1814 107.196 85.2145 107.154 85.2559C107.154 85.2186 107.15 85.1855 107.146 85.1483Z" fill="#FCE196"/>
<path d="M27.8447 85.078C27.8447 85.0449 27.8489 85.0118 27.8531 84.9746C27.8615 84.9994 27.8699 85.0242 27.8741 85.0491C27.8741 85.0573 27.8573 85.0697 27.8447 85.078Z" fill="#FCE196"/>
<path d="M120.587 89.5035C120.587 89.4705 120.582 89.4332 120.578 89.4001C120.591 89.425 120.603 89.4456 120.612 89.4705C120.612 89.4787 120.595 89.4911 120.587 89.5035Z" fill="#FCE196"/>
<path d="M107.468 89.5697C107.468 89.6028 107.473 89.6359 107.477 89.669C107.464 89.6441 107.452 89.6235 107.443 89.5986C107.443 89.5904 107.46 89.578 107.468 89.5656V89.5697Z" fill="#FCE196"/>
<path d="M27.5134 89.7641C27.4924 89.7186 27.5008 89.6814 27.5343 89.6483C27.5595 89.6938 27.5469 89.731 27.5134 89.7641Z" fill="#FCE196"/>
<path d="M59.813 84.714C59.8591 84.7471 59.8633 84.7843 59.8214 84.8215C59.8214 84.7843 59.8172 84.7512 59.813 84.714Z" fill="#FCE196"/>
<path d="M120.629 89.7683C120.595 89.7352 120.583 89.698 120.604 89.6525C120.616 89.6773 120.633 89.7021 120.641 89.7269C120.641 89.7393 120.633 89.7559 120.629 89.7683Z" fill="#FCE196"/>
<path d="M107.116 84.6313L107.125 84.7306C107.112 84.7058 107.1 84.6851 107.091 84.6603C107.091 84.652 107.108 84.6396 107.116 84.6272V84.6313Z" fill="#FCE196"/>
<path d="M14.366 89.913C14.3911 89.9585 14.3785 89.9957 14.3408 90.0288C14.3199 89.9833 14.3282 89.9461 14.366 89.913Z" fill="#FCE196"/>
<path d="M75.1772 84.6437C75.1772 84.6106 75.1814 84.5775 75.1856 84.5444C75.194 84.5692 75.2024 84.5899 75.2066 84.6147C75.2066 84.623 75.1898 84.6354 75.1772 84.6437Z" fill="#FCE196"/>
<path d="M27.4927 90.1033C27.4927 90.0702 27.4969 90.0371 27.5011 90.004C27.5094 90.0288 27.5178 90.0537 27.522 90.0785C27.522 90.0867 27.5052 90.0992 27.4927 90.1074V90.1033Z" fill="#FCE196"/>
<path d="M107.074 84.2756C107.108 84.3087 107.12 84.3459 107.095 84.3914C107.083 84.3666 107.066 84.3418 107.058 84.317C107.058 84.3046 107.066 84.2922 107.07 84.2756H107.074Z" fill="#FCE196"/>
<path d="M75.1982 84.3045C75.1773 84.259 75.1857 84.2218 75.2234 84.1887C75.2443 84.2342 75.2359 84.2714 75.1982 84.3045Z" fill="#FCE196"/>
<path d="M120.713 90.6368C120.7 90.612 120.683 90.5872 120.675 90.5624C120.675 90.55 120.683 90.5334 120.687 90.521C120.725 90.5541 120.733 90.5913 120.713 90.6368Z" fill="#FCE196"/>
<path d="M60.1862 90.7775C60.1988 90.8023 60.2113 90.8271 60.2197 90.8561C60.2197 90.8685 60.2113 90.8809 60.203 90.8974C60.1904 90.8726 60.1778 90.8478 60.1694 90.8188C60.1694 90.8064 60.1778 90.794 60.1862 90.7775Z" fill="#FCE196"/>
<path d="M120.733 90.885C120.721 90.8602 120.708 90.8395 120.704 90.8147C120.704 90.8064 120.721 90.794 120.729 90.7816C120.729 90.8147 120.733 90.8519 120.738 90.885H120.733Z" fill="#FCE196"/>
<path d="M14.2697 90.8643C14.2948 90.9098 14.2822 90.947 14.2487 90.9801C14.2278 90.9346 14.2362 90.8973 14.2697 90.8643Z" fill="#FCE196"/>
<path d="M107.552 90.9553C107.552 90.9884 107.556 91.0215 107.56 91.0587C107.548 91.0339 107.535 91.0132 107.527 90.9884C107.527 90.9801 107.544 90.9677 107.552 90.9553Z" fill="#FCE196"/>
<path d="M27.4254 91.1538C27.4002 91.1083 27.4128 91.0711 27.4463 91.038C27.4715 91.0835 27.4589 91.1207 27.4254 91.1538Z" fill="#FCE196"/>
<path d="M59.7795 84.1101C59.7795 84.1432 59.7837 84.1763 59.7879 84.2135C59.7753 84.1887 59.7628 84.168 59.7544 84.1432C59.7544 84.1349 59.7712 84.1225 59.7795 84.1101Z" fill="#FCE196"/>
<path d="M120.801 91.5881C120.767 91.555 120.754 91.5178 120.775 91.4723C120.809 91.5054 120.821 91.5426 120.801 91.5881Z" fill="#FCE196"/>
<path d="M107.058 84.0233C107.104 84.0564 107.108 84.0895 107.066 84.1309C107.066 84.0936 107.062 84.0605 107.058 84.0233Z" fill="#FCE196"/>
<path d="M27.9326 83.9489C27.9326 83.9158 27.9368 83.8827 27.941 83.8455C27.9494 83.8703 27.9578 83.8951 27.9619 83.9199C27.9619 83.9282 27.9452 83.9406 27.9326 83.9489Z" fill="#FCE196"/>
<path d="M120.821 91.8405C120.809 91.8156 120.796 91.795 120.792 91.7701C120.792 91.7619 120.809 91.7495 120.817 91.7371C120.817 91.7701 120.821 91.8074 120.826 91.8405H120.821Z" fill="#FCE196"/>
<path d="M27.9492 83.6965C27.9283 83.651 27.9408 83.6138 27.9743 83.5807C27.9995 83.6262 27.9869 83.6634 27.9492 83.6965Z" fill="#FCE196"/>
<path d="M107.024 83.5022C107.024 83.5353 107.028 83.5684 107.033 83.6056C107.02 83.5808 107.007 83.5601 106.999 83.5353C106.999 83.527 107.016 83.5146 107.024 83.5022Z" fill="#FCE196"/>
<path d="M59.7251 83.5022C59.7712 83.5353 59.7754 83.5725 59.7335 83.6097C59.7335 83.5725 59.7293 83.5394 59.7251 83.5022Z" fill="#FCE196"/>
<path d="M14.123 92.5187C14.123 92.5518 14.1188 92.589 14.1146 92.6221C14.0685 92.5849 14.0727 92.5476 14.123 92.5187Z" fill="#FCE196"/>
<path d="M75.2651 83.4318C75.2651 83.3987 75.2693 83.3656 75.2735 83.3325C75.2819 83.3573 75.2903 83.3822 75.2945 83.407C75.2945 83.4152 75.2777 83.4276 75.2651 83.4359V83.4318Z" fill="#FCE196"/>
<path d="M27.9872 83.4359C27.9411 83.3945 27.9495 83.3615 27.9956 83.3284C27.9956 83.3656 27.9914 83.4028 27.9872 83.4359Z" fill="#FCE196"/>
<path d="M14.1017 92.771C14.1268 92.8165 14.1143 92.8537 14.0766 92.8868C14.0514 92.8413 14.064 92.8041 14.1017 92.771Z" fill="#FCE196"/>
<path d="M106.991 83.2333C107.003 83.2581 107.02 83.2829 107.028 83.3077C107.028 83.3201 107.02 83.3367 107.016 83.3491C106.978 83.316 106.97 83.2788 106.991 83.2333Z" fill="#FCE196"/>
<path d="M14.064 93.0358C14.0724 93.0606 14.0808 93.0854 14.085 93.1102C14.085 93.1185 14.0682 93.1309 14.0557 93.1392C14.0557 93.1061 14.0599 93.0689 14.064 93.0358Z" fill="#FCE196"/>
<path d="M106.97 82.981C107.016 83.014 107.024 83.0513 106.978 83.0885C106.978 83.0513 106.974 83.014 106.97 82.981Z" fill="#FCE196"/>
<path d="M59.6916 82.8942C59.6916 82.9273 59.6958 82.9645 59.7 82.9976C59.6875 82.9727 59.6749 82.9521 59.6665 82.9273C59.6665 82.919 59.6833 82.9066 59.6916 82.8942Z" fill="#FCE196"/>
<path d="M15.1493 82.89C15.1702 82.9355 15.1577 82.9727 15.12 83.0058C15.099 82.9603 15.1116 82.9231 15.1493 82.89Z" fill="#FCE196"/>
<path d="M120.976 93.5816C120.964 93.5568 120.947 93.532 120.938 93.5072C120.938 93.4948 120.947 93.4782 120.951 93.4658C120.985 93.4989 120.997 93.5361 120.976 93.5816Z" fill="#FCE196"/>
<path d="M75.3197 82.828C75.2736 82.7908 75.282 82.7535 75.3281 82.7205C75.3281 82.7577 75.3239 82.7908 75.3197 82.828Z" fill="#FCE196"/>
<path d="M27.2874 93.8381C27.2413 93.8009 27.2455 93.7637 27.2916 93.7306C27.2916 93.7678 27.2916 93.8009 27.2874 93.8381Z" fill="#FCE196"/>
<path d="M14.0137 93.8134C14.0389 93.8589 14.0263 93.8961 13.9928 93.9292C13.9676 93.8837 13.9802 93.8464 14.0137 93.8134Z" fill="#FCE196"/>
<path d="M13.9762 94.078C13.9845 94.1028 13.9929 94.1276 13.9971 94.1524C13.9971 94.1607 13.9803 94.1731 13.9678 94.1814C13.9678 94.1483 13.972 94.1111 13.9762 94.078Z" fill="#FCE196"/>
<path d="M59.6582 82.6294C59.6708 82.6542 59.6875 82.679 59.6959 82.7038C59.6959 82.7163 59.6875 82.7328 59.6833 82.7452C59.6456 82.7121 59.6372 82.6749 59.6582 82.6294Z" fill="#FCE196"/>
<path d="M106.94 82.464C106.94 82.4971 106.944 82.5302 106.949 82.5632C106.936 82.5426 106.923 82.5177 106.915 82.4929C106.915 82.4847 106.932 82.4722 106.94 82.4598V82.464Z" fill="#FCE196"/>
<path d="M59.6372 82.373C59.6833 82.4061 59.6917 82.4434 59.6456 82.4806C59.6456 82.4434 59.6414 82.4061 59.6372 82.373Z" fill="#FCE196"/>
<path d="M15.2416 82.1952C15.2625 82.2407 15.2499 82.2779 15.2122 82.311C15.1913 82.2655 15.2039 82.2283 15.2416 82.1952Z" fill="#FCE196"/>
<path d="M13.9468 94.5991C13.9468 94.6322 13.9426 94.6694 13.9384 94.7025C13.93 94.6777 13.9217 94.6529 13.9175 94.6281C13.9175 94.6198 13.9342 94.6074 13.9468 94.5991Z" fill="#FCE196"/>
<path d="M121.068 94.7066C121.035 94.6735 121.022 94.6363 121.047 94.5908C121.06 94.6156 121.073 94.6405 121.081 94.6653C121.081 94.6777 121.073 94.6901 121.068 94.7066Z" fill="#FCE196"/>
<path d="M121.085 94.959C121.073 94.9342 121.06 94.9135 121.056 94.8887C121.056 94.8804 121.073 94.868 121.081 94.8556C121.081 94.8887 121.081 94.9259 121.085 94.959Z" fill="#FCE196"/>
<path d="M13.9175 94.9384C13.9469 94.9839 13.9343 95.0211 13.8966 95.0542C13.8714 95.0128 13.884 94.9714 13.9175 94.9384Z" fill="#FCE196"/>
<path d="M75.3739 81.9635C75.3488 81.918 75.3613 81.8807 75.3991 81.8477C75.4242 81.8932 75.4116 81.9304 75.3739 81.9635Z" fill="#FCE196"/>
<path d="M59.6038 81.7692C59.6038 81.8023 59.6079 81.8395 59.6121 81.8726C59.5996 81.8477 59.587 81.8271 59.5786 81.8023C59.5786 81.794 59.5954 81.7816 59.6038 81.7692Z" fill="#FCE196"/>
<path d="M13.8883 95.203C13.8966 95.2278 13.9092 95.2526 13.9092 95.2774C13.9092 95.2857 13.8925 95.2981 13.8799 95.3064C13.8799 95.2733 13.8799 95.2361 13.8841 95.203H13.8883Z" fill="#FCE196"/>
<path d="M75.4118 81.703C75.3699 81.6658 75.3741 81.6285 75.4202 81.5955C75.4202 81.6327 75.416 81.6658 75.4118 81.703Z" fill="#FCE196"/>
<path d="M59.5703 81.5002C59.5829 81.5251 59.5996 81.5499 59.608 81.5747C59.608 81.5871 59.5996 81.6036 59.5954 81.6161C59.5577 81.583 59.5494 81.5457 59.5703 81.5002Z" fill="#FCE196"/>
<path d="M121.152 95.8358C121.119 95.8027 121.106 95.7655 121.131 95.72C121.144 95.7448 121.157 95.7696 121.165 95.7944C121.165 95.8068 121.157 95.8192 121.152 95.8358Z" fill="#FCE196"/>
<path d="M15.3339 81.5044C15.3548 81.5499 15.3422 81.5871 15.3045 81.6202C15.2836 81.5747 15.2961 81.5375 15.3339 81.5044Z" fill="#FCE196"/>
<path d="M27.7274 86.8151C27.6814 86.7778 27.6897 86.7406 27.7358 86.7075C27.7358 86.7447 27.7316 86.7778 27.7274 86.8151Z" fill="#FCE196"/>
<path d="M13.8335 96.0675C13.8587 96.113 13.8503 96.1502 13.8126 96.1833C13.7874 96.1378 13.8 96.1006 13.8335 96.0675Z" fill="#FCE196"/>
<path d="M106.852 81.4217C106.852 81.4548 106.856 81.4879 106.861 81.521C106.848 81.4962 106.836 81.4755 106.827 81.4507C106.827 81.4424 106.844 81.43 106.852 81.4176V81.4217Z" fill="#FCE196"/>
<path d="M59.5493 81.248C59.5954 81.2811 59.6038 81.3142 59.5577 81.3556C59.5577 81.3184 59.5535 81.2853 59.5493 81.248Z" fill="#FCE196"/>
<path d="M106.815 81.1528C106.828 81.1776 106.844 81.2025 106.853 81.2273C106.853 81.2397 106.844 81.2562 106.84 81.2686C106.802 81.2356 106.794 81.1983 106.815 81.1528Z" fill="#FCE196"/>
<path d="M121.202 96.6962C121.202 96.6631 121.202 96.6259 121.198 96.5928C121.244 96.6259 121.249 96.659 121.202 96.6962Z" fill="#FCE196"/>
<path d="M75.4414 81.1776C75.4414 81.1445 75.4456 81.1114 75.4498 81.0742C75.4582 81.099 75.4665 81.1238 75.4707 81.1487C75.4707 81.1569 75.454 81.1693 75.4414 81.1776Z" fill="#FCE196"/>
<path d="M106.794 80.9005C106.84 80.9336 106.848 80.9667 106.802 81.008C106.802 80.9708 106.798 80.9377 106.794 80.9005Z" fill="#FCE196"/>
<path d="M13.771 96.9402C13.771 96.9733 13.7668 97.0105 13.7626 97.0436C13.7543 97.0188 13.7417 96.994 13.7417 96.9691C13.7417 96.9609 13.7585 96.9485 13.771 96.9402Z" fill="#FCE196"/>
<path d="M75.458 80.9212C75.4371 80.8757 75.4454 80.8385 75.4831 80.8054C75.5083 80.8509 75.4957 80.8881 75.458 80.9212Z" fill="#FCE196"/>
<path d="M13.7458 97.2793C13.7709 97.3248 13.7625 97.362 13.7248 97.3951C13.6997 97.3496 13.7081 97.3124 13.7458 97.2793Z" fill="#FCE196"/>
<path d="M59.5198 80.7268C59.5198 80.7599 59.524 80.793 59.5281 80.8261C59.5156 80.8012 59.503 80.7806 59.4946 80.7557C59.4946 80.7475 59.5114 80.7351 59.5198 80.7227V80.7268Z" fill="#FCE196"/>
<path d="M28.1968 80.8302C28.1968 80.7971 28.201 80.764 28.2052 80.7268C28.2135 80.7516 28.2219 80.7764 28.2261 80.8013C28.2261 80.8095 28.2093 80.8219 28.1968 80.8302Z" fill="#FCE196"/>
<path d="M75.4958 80.6648C75.4539 80.6234 75.4581 80.5903 75.5041 80.5573C75.5041 80.5945 75.5 80.6276 75.4958 80.6648Z" fill="#FCE196"/>
<path d="M59.4819 80.4622C59.4945 80.487 59.5113 80.5118 59.5196 80.5366C59.5196 80.549 59.5113 80.5656 59.5071 80.578C59.4694 80.5449 59.461 80.5077 59.4819 80.4622Z" fill="#FCE196"/>
<path d="M28.2173 80.578C28.1963 80.5325 28.2047 80.4952 28.2424 80.4622C28.2634 80.5077 28.255 80.5449 28.2173 80.578Z" fill="#FCE196"/>
<path d="M13.6827 98.2389C13.6827 98.272 13.6827 98.3092 13.6785 98.3423C13.6325 98.3051 13.6366 98.272 13.6827 98.2389Z" fill="#FCE196"/>
<path d="M121.345 98.6028C121.333 98.578 121.32 98.5573 121.316 98.5325C121.316 98.5242 121.333 98.5118 121.341 98.4994C121.341 98.5325 121.341 98.5697 121.345 98.6028Z" fill="#FCE196"/>
<path d="M13.6618 98.5822C13.6869 98.6276 13.6785 98.6649 13.6408 98.698C13.6157 98.6525 13.6241 98.6152 13.6618 98.5822Z" fill="#FCE196"/>
<path d="M59.4609 80.2098C59.507 80.2429 59.5154 80.276 59.4693 80.3174C59.4693 80.2801 59.4651 80.2471 59.4609 80.2098Z" fill="#FCE196"/>
<path d="M75.5293 80.1354C75.5293 80.1023 75.5335 80.0692 75.5377 80.0361C75.5461 80.0609 75.5544 80.0858 75.5586 80.1106C75.5586 80.1189 75.5419 80.1313 75.5293 80.1395V80.1354Z" fill="#FCE196"/>
<path d="M75.5459 79.8831C75.5249 79.8376 75.5375 79.8004 75.571 79.7673C75.592 79.8128 75.5836 79.8501 75.5459 79.8831Z" fill="#FCE196"/>
<path d="M28.2803 79.8748C28.2803 79.8417 28.2845 79.8086 28.2887 79.7755C28.297 79.8003 28.3054 79.8251 28.3096 79.85C28.3096 79.8582 28.2928 79.8706 28.2803 79.8789V79.8748Z" fill="#FCE196"/>
<path d="M59.4319 79.6887C59.4319 79.7218 59.4361 79.7549 59.4403 79.7921C59.4277 79.7673 59.4151 79.7466 59.4067 79.7218C59.4067 79.7135 59.4235 79.7011 59.4319 79.6887Z" fill="#FCE196"/>
<path d="M75.5837 79.6225C75.5418 79.5812 75.546 79.5481 75.592 79.515C75.592 79.5522 75.5878 79.5853 75.5837 79.6225Z" fill="#FCE196"/>
<path d="M28.3013 79.6225C28.2803 79.577 28.2929 79.5398 28.3264 79.5067C28.3473 79.5522 28.3348 79.5894 28.3013 79.6225Z" fill="#FCE196"/>
<path d="M59.394 79.4198C59.4066 79.4446 59.4234 79.4694 59.4317 79.4942C59.4317 79.5067 59.4234 79.5232 59.4192 79.5356C59.3815 79.5025 59.3731 79.4653 59.394 79.4198Z" fill="#FCE196"/>
<path d="M59.373 79.1676C59.4191 79.2007 59.4233 79.2338 59.3814 79.2751C59.3814 79.2379 59.3772 79.2048 59.373 79.1676Z" fill="#FCE196"/>
<path d="M75.6172 79.0973C75.6172 79.0642 75.6214 79.027 75.6256 78.9939C75.6339 79.0187 75.6423 79.0435 75.6465 79.0683C75.6465 79.0766 75.6298 79.089 75.6172 79.0973Z" fill="#FCE196"/>
<path d="M28.3726 78.9235C28.3726 78.8904 28.3767 78.8573 28.3809 78.8201C28.3893 78.8449 28.3977 78.8697 28.4019 78.8945C28.4019 78.9028 28.3851 78.9152 28.3726 78.9235Z" fill="#FCE196"/>
<path d="M75.6381 78.8449C75.6129 78.7994 75.6255 78.7622 75.6632 78.7291C75.6842 78.7746 75.6758 78.8118 75.6381 78.8449Z" fill="#FCE196"/>
<path d="M28.3935 78.6712C28.3726 78.6257 28.381 78.5885 28.4187 78.5554C28.4396 78.6009 28.4271 78.6381 28.3935 78.6712Z" fill="#FCE196"/>
<path d="M59.3104 78.4645C59.323 78.4893 59.3398 78.5141 59.3482 78.5389C59.3482 78.5513 59.3398 78.5679 59.3356 78.5803C59.2979 78.5472 59.2853 78.51 59.3104 78.4645Z" fill="#FCE196"/>
<path d="M106.551 78.2948C106.563 78.3196 106.58 78.3444 106.588 78.3692C106.588 78.3817 106.58 78.3982 106.576 78.4106C106.538 78.3775 106.53 78.3403 106.551 78.2948Z" fill="#FCE196"/>
<path d="M106.53 78.0426C106.576 78.0757 106.58 78.1088 106.538 78.1501C106.538 78.1129 106.534 78.0798 106.53 78.0426Z" fill="#FCE196"/>
<path d="M75.7051 78.1419C75.7051 78.1088 75.7093 78.0757 75.7135 78.0385C75.7218 78.0633 75.7302 78.0881 75.7344 78.1129C75.7344 78.1212 75.7176 78.1336 75.7051 78.1419Z" fill="#FCE196"/>
<path d="M75.7261 77.8895C75.7051 77.844 75.7135 77.8068 75.7512 77.7737C75.7722 77.8192 75.7638 77.8564 75.7261 77.8895Z" fill="#FCE196"/>
<path d="M28.477 77.8027C28.4561 77.7572 28.4687 77.72 28.5022 77.6869C28.5231 77.7324 28.5147 77.7696 28.477 77.8027Z" fill="#FCE196"/>
<path d="M26.9018 102.507C26.8767 102.466 26.8851 102.425 26.9186 102.391C26.9479 102.433 26.9395 102.474 26.9018 102.507Z" fill="#FCE196"/>
<path d="M59.2226 77.5132C59.2351 77.538 59.2519 77.5628 59.2603 77.5876C59.2603 77.6 59.2519 77.6166 59.2477 77.629C59.21 77.5959 59.1974 77.5587 59.2226 77.5132Z" fill="#FCE196"/>
<path d="M28.5148 77.5421C28.4729 77.5049 28.4771 77.4677 28.5232 77.4346C28.5232 77.4718 28.519 77.5049 28.5148 77.5421Z" fill="#FCE196"/>
<path d="M59.1973 77.2609C59.2434 77.294 59.2517 77.327 59.2056 77.3684C59.2056 77.3312 59.1973 77.2981 59.1973 77.2609Z" fill="#FCE196"/>
<path d="M59.1677 76.8265C59.1677 76.8596 59.1719 76.8927 59.1761 76.9258C59.1635 76.9051 59.151 76.8803 59.1426 76.8555C59.1426 76.8472 59.1593 76.8348 59.1677 76.8224V76.8265Z" fill="#FCE196"/>
<path d="M106.412 76.7397C106.412 76.7728 106.417 76.8059 106.421 76.8431C106.408 76.8183 106.396 76.7977 106.387 76.7728C106.387 76.7646 106.404 76.7522 106.412 76.7397Z" fill="#FCE196"/>
<path d="M59.1304 76.5619C59.1429 76.5867 59.1597 76.6115 59.1681 76.6363C59.1681 76.6487 59.1597 76.6653 59.1555 76.6777C59.1178 76.6446 59.1094 76.6074 59.1304 76.5619Z" fill="#FCE196"/>
<path d="M75.8979 76.0697C75.877 76.0242 75.8896 75.9869 75.9231 75.9539C75.944 75.9994 75.9315 76.0366 75.8979 76.0697Z" fill="#FCE196"/>
<path d="M28.6489 76.0697C28.628 76.0242 28.6405 75.9869 28.6741 75.9539C28.695 75.9994 28.6824 76.0366 28.6489 76.0697Z" fill="#FCE196"/>
<path d="M59.0424 75.6932C59.0549 75.7181 59.0717 75.7429 59.0801 75.7677C59.0801 75.7801 59.0717 75.7966 59.0675 75.809C59.0298 75.776 59.0172 75.7387 59.0424 75.6932Z" fill="#FCE196"/>
<path d="M13.3102 105.258C13.3395 105.299 13.3269 105.341 13.2934 105.374C13.2683 105.332 13.2767 105.291 13.3102 105.258Z" fill="#FCE196"/>
<path d="M106.266 75.4409C106.312 75.474 106.316 75.5071 106.274 75.5485C106.274 75.5112 106.27 75.4781 106.266 75.4409Z" fill="#FCE196"/>
<path d="M106.199 74.8247C106.211 74.8495 106.228 74.8743 106.236 74.8992C106.236 74.9116 106.228 74.9281 106.224 74.9405C106.186 74.9074 106.178 74.8702 106.199 74.8247Z" fill="#FCE196"/>
<path d="M58.954 74.8247C58.9666 74.8495 58.9833 74.8743 58.9917 74.8992C58.9917 74.9116 58.9833 74.9281 58.9791 74.9405C58.9414 74.9074 58.9289 74.8702 58.954 74.8247Z" fill="#FCE196"/>
<path d="M106.115 74.0471C106.128 74.0719 106.144 74.0968 106.153 74.1216C106.153 74.134 106.144 74.1505 106.14 74.1629C106.103 74.1298 106.09 74.0926 106.115 74.0471Z" fill="#FCE196"/>
<path d="M76.1616 73.5549C76.1407 73.5094 76.1532 73.4722 76.1867 73.4391C76.2077 73.4846 76.1951 73.5218 76.1616 73.5549Z" fill="#FCE196"/>
<path d="M29.001 72.8601C28.98 72.8146 28.9926 72.7774 29.0261 72.7443C29.0471 72.7898 29.0345 72.827 29.001 72.8601Z" fill="#FCE196"/>
<path d="M29.0892 72.0825C29.0682 72.037 29.0808 71.9998 29.1185 71.9667C29.1395 72.0122 29.1269 72.0494 29.0892 72.0825Z" fill="#FCE196"/>
<path d="M76.3335 71.9957C76.3125 71.9502 76.3251 71.913 76.3586 71.8799C76.3796 71.9254 76.367 71.9626 76.3335 71.9957Z" fill="#FCE196"/>
<path d="M105.847 71.7062C105.859 71.731 105.876 71.7558 105.885 71.7806C105.885 71.793 105.876 71.8096 105.872 71.822C105.834 71.7889 105.822 71.7517 105.843 71.7062H105.847Z" fill="#FCE196"/>
<path d="M58.6022 71.6193C58.6147 71.6441 58.6315 71.6689 58.6399 71.6937C58.6399 71.7061 58.6315 71.7227 58.6273 71.7351C58.5896 71.702 58.577 71.6648 58.598 71.6193H58.6022Z" fill="#FCE196"/>
<path d="M76.4256 71.214C76.4047 71.1685 76.4172 71.1312 76.4549 71.0981C76.4759 71.1436 76.4633 71.1809 76.4256 71.214Z" fill="#FCE196"/>
<path d="M105.763 71.0112C105.776 71.036 105.793 71.0609 105.801 71.0857C105.801 71.0981 105.793 71.1146 105.793 71.127C105.755 71.094 105.742 71.0567 105.767 71.0112H105.763Z" fill="#FCE196"/>
<path d="M58.4303 70.1427C58.4429 70.1675 58.4596 70.1923 58.468 70.2171C58.468 70.2296 58.4596 70.2461 58.4554 70.2585C58.4177 70.2254 58.4052 70.1882 58.4261 70.1427H58.4303Z" fill="#FCE196"/>
<path d="M29.4408 69.2203C29.4198 69.1748 29.4324 69.1376 29.4701 69.1045C29.491 69.15 29.4785 69.1872 29.4408 69.2203Z" fill="#FCE196"/>
<path d="M58.0745 67.3716C58.0871 67.3964 58.1039 67.4212 58.1123 67.446C58.1123 67.4584 58.1039 67.475 58.1039 67.4874C58.0662 67.4543 58.0536 67.4171 58.0745 67.3716Z" fill="#FCE196"/>
<path d="M76.9495 67.0531C76.9286 67.0076 76.9412 66.9703 76.9789 66.9373C76.9998 66.9828 76.9873 67.02 76.9495 67.0531Z" fill="#FCE196"/>
<path d="M91.4004 29.7046C91.4381 29.7046 91.4758 29.7046 91.5135 29.7087C91.4758 29.7501 91.4381 29.7501 91.4004 29.7046Z" fill="#FCE196"/>
<path d="M91.1362 29.7086C91.1739 29.7086 91.2116 29.7086 91.2494 29.7086C91.2116 29.7541 91.1739 29.7541 91.1362 29.7086Z" fill="#FCE196"/>
<path d="M92.0371 23.0166C92.0036 23.0538 91.97 23.0497 91.9365 23.0125C91.97 23.0125 92.0036 23.0125 92.0371 23.0166Z" fill="#FCE196"/>
<path d="M44.7088 23.0496C44.6627 23.0786 44.625 23.062 44.5957 23.0289C44.6376 23.0083 44.6795 23.0207 44.7088 23.0496Z" fill="#FCE196"/>
<path d="M121.89 116.975C121.898 116.942 121.911 116.905 121.919 116.872C121.961 116.921 121.957 116.959 121.89 116.975Z" fill="#FCE196"/>
<path d="M74.9342 88.2917C74.909 88.2462 74.9216 88.209 74.9551 88.1759C74.9803 88.2214 74.9677 88.2586 74.9342 88.2917Z" fill="#FCE196"/>
<path d="M60.0476 88.0973C60.0476 88.1304 60.0518 88.1635 60.056 88.1965C60.0434 88.1717 60.0308 88.151 60.0225 88.1262C60.0225 88.118 60.0392 88.1055 60.0476 88.0931V88.0973Z" fill="#FCE196"/>
<path d="M121.169 96.0881C121.156 96.0633 121.144 96.0426 121.14 96.0178C121.14 96.0096 121.156 95.9971 121.165 95.9847C121.165 96.0178 121.165 96.0551 121.169 96.0881Z" fill="#FCE196"/>
<path d="M125.979 113.228C126 113.273 125.987 113.311 125.95 113.344C125.929 113.298 125.941 113.261 125.979 113.228Z" fill="#FCE196"/>
<path d="M125.958 114.01C125.971 114.034 125.988 114.059 125.996 114.084C125.996 114.097 125.988 114.113 125.988 114.125C125.95 114.092 125.937 114.055 125.958 114.01Z" fill="#FCE196"/>
<g clip-path="url(#clip0_608_3677)">
<path d="M88.496 45.3441C89.8555 45.8253 91.2149 46.3065 92.5743 46.7877C97.1893 48.426 101.804 50.0624 106.417 51.7063C106.921 51.8861 107.602 51.961 107.857 52.3279C108.113 52.6968 107.948 53.369 107.951 53.9082C107.957 55.1608 107.94 56.4152 107.961 57.6678C107.966 58.0404 107.846 58.2295 107.508 58.3906C106.404 58.9204 105.322 59.4915 104.103 60.1131C105 60.4445 105.782 60.7441 106.573 61.0231C107.95 61.508 107.953 61.5042 107.951 62.9759C107.951 64.397 107.931 65.82 107.953 67.2411C107.961 67.6661 107.847 67.9095 107.45 68.1098C102.954 70.3697 98.4782 72.6708 93.9746 74.9158C92.2827 75.7583 90.5389 76.4923 88.808 77.2524C88.4422 77.4135 88.0355 77.4753 87.4839 77.6269C88.0392 77.8347 88.457 77.9939 88.8749 78.1455C95.0109 80.3774 101.147 82.6129 107.288 84.8279C107.771 85.002 107.938 85.2286 107.925 85.7491C107.881 87.4136 107.883 89.0781 107.892 90.7426C107.894 91.1096 107.786 91.3118 107.454 91.4803C102.018 94.2214 96.5969 96.9981 91.1499 99.7167C88.6372 100.971 85.9703 101.51 83.1605 101.1C82.8484 101.055 82.5123 101.046 82.2393 100.911C81.6562 100.623 81.3646 100.872 81.0229 101.338C77.9456 105.527 74.0177 108.629 69.3303 110.838C65.5918 112.602 61.9407 114.555 58.2505 116.424C57.2737 116.918 56.3061 117.431 55.3163 117.897C55.0915 118.002 54.7628 118.03 54.5307 117.949C49.7318 116.277 44.9385 114.587 40.1452 112.898C37.5917 111.999 35.0418 111.089 32.4789 110.217C32.0741 110.078 31.9979 109.88 32.0016 109.5C32.0202 107.779 32.0239 106.058 32.0016 104.336C31.9961 103.924 32.1224 103.714 32.4938 103.529C36.0781 101.729 39.6549 99.9133 43.2262 98.0897C45.2765 97.0449 47.3287 96.002 49.353 94.9104C50.0475 94.536 50.6641 94.0136 51.4515 93.4669C50.6548 93.1804 50.0048 92.9445 49.353 92.7123C43.7407 90.7239 38.1302 88.7317 32.5142 86.7564C32.1409 86.6254 31.9998 86.4568 32.0054 86.0449C32.0314 84.3242 32.0295 82.6036 32.0128 80.8829C32.0091 80.5272 32.1261 80.3455 32.4474 80.2089C33.5765 79.7314 34.6945 79.2315 35.8162 78.7372C35.9815 78.6642 36.1412 78.5799 36.3994 78.4545C35.1235 78.0032 33.9479 77.5633 32.7556 77.1757C32.2338 77.0053 31.9812 76.7881 32.0072 76.1627C32.0685 74.6873 32.0406 73.2082 32.0202 71.7309C32.0146 71.3434 32.1335 71.1262 32.4845 70.9483C36.9082 68.724 41.3171 66.4641 45.7482 64.2566C47.4884 63.3897 49.2712 62.6089 51.0541 61.8319C51.5574 61.6128 52.122 61.5379 52.6587 61.3975C52.8295 60.9425 52.6735 60.7272 52.2315 60.5718C48.7271 59.3548 45.2301 58.1191 41.7331 56.8833C38.6558 55.7955 35.5841 54.6964 32.5031 53.6217C32.1595 53.5019 32.0444 53.3409 32.0481 52.987C32.0648 51.3974 32.0722 49.8078 32.0555 48.2163C32.0518 47.8662 32.2189 47.722 32.4864 47.5872C36.2285 45.6961 39.9651 43.7901 43.7128 41.9084C45.8355 40.843 47.936 39.7159 50.1218 38.8003C52.7125 37.7144 55.4203 37.4279 58.1763 38.2592C58.3193 38.3023 58.6034 38.1207 58.7204 37.9653C60.1077 36.1304 61.6268 34.4228 63.341 32.8931C65.1573 31.2717 67.1853 29.9835 69.3451 28.8751C74.365 26.3006 79.3663 23.6868 84.3843 21.1086C84.6257 20.9851 84.999 20.9589 85.2572 21.0469C91.07 23.0165 96.8755 25.0106 102.683 26.999C104.297 27.5513 105.91 28.1093 107.532 28.6429C107.872 28.7553 107.987 28.9144 107.981 29.2795C107.961 30.9253 107.957 32.5729 107.981 34.2187C107.987 34.6344 107.851 34.8422 107.483 35.0276C102.081 37.7574 96.6786 40.4873 91.3003 43.264C90.29 43.7845 89.3819 44.5035 88.4273 45.1326C88.4515 45.2018 88.4756 45.2711 88.5016 45.3404L88.496 45.3441ZM106.118 29.6746C105.842 29.5641 105.689 29.4967 105.533 29.4424C98.8682 27.1656 92.1992 24.8964 85.5376 22.6065C85.0937 22.4548 84.7502 22.4754 84.3397 22.6908C79.851 25.0368 75.379 27.4147 70.8494 29.6783C67.488 31.3578 64.446 33.4305 61.9481 36.2689C61.2201 37.0965 60.5348 37.9634 59.7846 38.8659C61.6547 39.5212 63.4023 40.1334 65.1498 40.7438C70.3127 42.5487 75.4774 44.348 80.6366 46.1623C80.9727 46.2803 81.1863 46.2503 81.3627 45.9339C81.4426 45.7879 81.5596 45.6643 81.6617 45.5295C84.1317 42.3016 86.9936 39.4987 90.5927 37.5833C94.0489 35.7447 97.5682 34.024 101.058 32.249C102.707 31.4102 104.356 30.5714 106.118 29.6746ZM34.4772 104.124C35.4504 104.465 36.2805 104.757 37.1088 105.049C42.9848 107.116 48.859 109.187 54.7424 111.233C55.0321 111.335 55.45 111.306 55.7248 111.168C59.4595 109.303 63.1924 107.431 66.8993 105.512C69.0053 104.42 71.1243 103.332 73.1263 102.066C74.8404 100.982 76.2036 99.4527 77.4293 97.8144C74.3446 93.7365 74.4263 89.0744 74.885 84.2681C74.651 84.416 74.4876 84.5265 74.3186 84.6276C73.3491 85.2136 72.4094 85.8558 71.4047 86.3707C66.4368 88.9171 61.4504 91.4241 56.477 93.9574C54.9708 94.7232 54.9727 94.755 53.396 94.1428C53.0394 94.0042 52.837 94.1016 52.5547 94.3038C51.4088 95.1239 50.3001 96.0263 49.0632 96.6817C45.4084 98.6176 41.6997 100.449 38.0132 102.321C36.8804 102.896 35.7494 103.476 34.4754 104.124H34.4772ZM75.6743 45.9414C75.4644 45.844 75.4013 45.8085 75.3344 45.7841C69.9989 43.9174 64.6651 42.0413 59.3221 40.1971C58.2245 39.8189 57.1028 39.4163 55.9625 39.2759C53.5947 38.9857 51.3605 39.6335 49.2527 40.6876C44.842 42.8914 40.4461 45.1307 36.0465 47.3588C35.5729 47.5984 35.1068 47.8512 34.5292 48.1564C36.4792 48.8267 38.3141 49.4502 40.1452 50.0849C45.1168 51.813 50.0865 53.5487 55.0618 55.2656C55.2587 55.333 55.541 55.3218 55.7248 55.2282C59.9963 53.075 64.2584 50.8993 68.528 48.7405C70.7751 47.604 72.9759 46.3402 75.6724 45.9395L75.6743 45.9414ZM34.4289 71.5662C35.1421 71.8189 35.7271 72.0305 36.3158 72.2365C42.4369 74.3915 48.5562 76.5503 54.683 78.6848C54.9745 78.7859 55.3924 78.7634 55.6673 78.6267C61.5656 75.6647 67.4527 72.6765 73.273 69.7275C73.2637 69.7238 73.1151 69.6564 72.961 69.6021C71.1076 68.9505 69.2523 68.3008 67.397 67.6492C62.8507 66.0521 58.3044 64.4494 53.7525 62.8636C53.4907 62.7718 53.1527 62.7381 52.8945 62.8186C51.6781 63.2006 50.4171 63.5095 49.2787 64.0656C45.2635 66.0297 41.2929 68.0855 37.3057 70.1057C36.3864 70.572 35.4671 71.0363 34.4271 71.5624L34.4289 71.5662ZM54.1537 61.3582C54.1518 61.4069 54.1481 61.4556 54.1463 61.5061C61.0734 63.9383 68.0006 66.3704 74.9946 68.8269C74.1013 62.9647 75.1933 57.4956 77.6262 52.195C77.2102 52.1332 76.9037 52.0677 76.5936 52.0452C74.9779 51.9216 73.4587 52.3148 72.0269 53.0282C67.098 55.4828 62.1914 57.9861 57.2477 60.4071C56.2894 60.8751 55.4407 61.8506 54.1555 61.3563L54.1537 61.3582ZM106.02 53.0525C104.484 52.5152 103.05 52.0209 101.622 51.5135C96.9405 49.849 92.2623 48.1751 87.5767 46.5274C87.3929 46.4619 87.053 46.5424 86.9193 46.6828C86.3176 47.3157 85.7679 47.9991 85.1885 48.6544C84.9916 48.8772 85.0027 49.0401 85.1959 49.2742C86.1857 50.4687 86.8227 51.8524 87.2666 53.3315C88.0206 55.8442 88.002 58.4186 87.8572 61.0025C87.8256 61.566 87.7476 62.1277 87.6919 62.6763C93.5902 59.0908 99.8952 56.3946 106.018 53.0525H106.02ZM87.7755 79.2558C88.0187 81.9295 87.9482 84.4778 87.4932 87.011C87.0382 89.5481 86.2043 91.969 85.1847 94.3731C87.1775 94.7026 88.9659 94.3075 90.6577 93.4594C94.918 91.3249 99.1635 89.1642 103.414 87.0092C104.18 86.6216 104.939 86.2209 105.777 85.7865C99.7336 83.594 93.8 81.4409 87.7755 79.2558ZM34.4828 80.8323C34.6369 80.9185 34.6945 80.9634 34.7576 80.9859C41.3728 83.3057 47.9861 85.6274 54.6087 87.9229C54.9133 88.0277 55.3553 87.9847 55.6468 87.8386C60.1448 85.5825 64.615 83.2739 69.1186 81.0289C71.323 79.9299 73.4569 78.7466 75.21 76.9753C75.6836 76.496 76.1386 75.998 76.6512 75.4531C75.5424 75.3464 74.2164 75.4625 73.1634 75.9512C70.8271 77.0353 68.5169 78.1811 66.2121 79.3364C62.6613 81.1169 59.129 82.935 55.5744 84.7099C55.2828 84.856 54.8557 84.8803 54.5381 84.7905C53.578 84.5152 52.6383 84.1595 51.6948 83.83C47.3547 82.3077 43.0164 80.7837 38.6744 79.2671C38.5072 79.209 38.2862 79.1454 38.1414 79.2072C36.9398 79.7221 35.7512 80.265 34.4791 80.8342L34.4828 80.8323ZM54.6105 116.498C54.6105 115.405 54.5715 114.379 54.6254 113.36C54.6533 112.821 54.4471 112.615 53.9791 112.452C48.0251 110.376 42.0785 108.283 36.1301 106.195C35.2294 105.879 34.3249 105.573 33.3629 105.244C33.3629 106.341 33.4001 107.352 33.3481 108.358C33.3202 108.908 33.5189 109.118 34.0185 109.29C39.6958 111.26 45.3638 113.256 51.0337 115.244C52.2 115.654 53.3681 116.062 54.6068 116.497L54.6105 116.498ZM33.3852 81.8677C33.3852 83.0174 33.3982 84.0734 33.3778 85.1312C33.3722 85.4682 33.4781 85.6274 33.7994 85.7341C35.0121 86.1385 36.2155 86.571 37.4208 86.9979C42.9217 88.9489 48.4225 90.9018 53.9253 92.8527C54.1407 92.9295 54.3635 92.98 54.6495 93.0606C54.6495 91.9746 54.6328 90.9673 54.6588 89.9618C54.67 89.5593 54.5363 89.3833 54.1518 89.2466C48.1607 87.1253 42.1751 84.9852 36.1876 82.8526C35.2869 82.5324 34.3825 82.2179 33.3834 81.8677H33.3852ZM33.4632 49.2779C33.4632 50.2253 33.4948 51.0473 33.4521 51.8673C33.4261 52.3504 33.6136 52.5564 34.0426 52.708C40.7525 55.0747 47.4587 57.4544 54.1667 59.8285C54.3283 59.8865 54.4973 59.9221 54.7145 59.9839C54.7145 58.9204 54.7313 57.9487 54.6978 56.9807C54.6923 56.8234 54.4935 56.5969 54.3338 56.5369C53.2938 56.1419 52.2427 55.7805 51.1934 55.4173C46.2571 53.706 41.3208 51.9965 36.3826 50.2871C35.4429 49.9613 34.5014 49.6393 33.4651 49.2817L33.4632 49.2779ZM33.4038 72.7177C33.4038 73.6501 33.4316 74.4514 33.3926 75.249C33.3704 75.7321 33.4744 76.0148 33.9944 76.1159C34.3899 76.1927 34.7651 76.3781 35.1495 76.5129C41.0051 78.5855 46.8625 80.6582 52.7181 82.729C53.3347 82.9462 53.9568 83.1484 54.6663 83.3881C54.6663 82.5043 54.6235 81.7367 54.6793 80.9784C54.7238 80.3755 54.514 80.1021 53.9438 79.9055C48.4077 77.9845 42.8827 76.0354 37.3539 74.0957C36.0799 73.6482 34.8059 73.2063 33.4019 72.7177H33.4038ZM85.9926 71.0663C86.1876 71.085 86.2916 71.1018 86.3937 71.1056C88.0336 71.1505 89.5416 70.6562 90.9809 69.9279C95.5198 67.638 100.051 65.3332 104.584 63.0339C105.017 62.8149 105.444 62.5865 105.977 62.3075C104.822 61.8899 103.803 61.4968 102.764 61.1597C102.519 61.0792 102.174 61.1054 101.942 61.2196C99.91 62.2232 97.882 63.2362 95.8782 64.2903C93.761 65.4043 91.629 66.5015 89.5806 67.7335C88.2026 68.5611 87.0865 69.75 85.9926 71.0644V71.0663ZM81.4853 55.5034C80.0423 59.5158 79.4406 63.5451 81.1436 67.6305C82.5792 63.6237 83.2199 59.5963 81.4853 55.5034ZM81.5076 78.7484C79.7767 82.1692 79.6189 89.4601 81.2104 91.0497C82.5476 87.0073 83.1419 82.9874 81.5076 78.7484Z" fill="black"/>
</g>
<defs>
<clipPath id="clip0_608_3677">
<rect width="76" height="97" fill="white" transform="translate(32 21)"/>
</clipPath>
</defs>
</svg>
