<svg width="140" height="140" viewBox="0 0 140 140" fill="none" xmlns="http://www.w3.org/2000/svg">
<rect width="140" height="140" rx="30" fill="white"/>
<path d="M59.1408 98.2012C61.0299 98.2778 62.9227 98.3046 64.8062 98.4478C66.3096 98.5624 67.6677 99.0889 68.494 100.456C69.133 101.514 69.3212 102.702 69.3109 103.918C69.2951 105.791 68.8116 107.573 68.1447 109.304C67.3352 111.408 66.291 113.395 64.9934 115.248C63.5896 117.251 61.8794 118.921 59.6205 119.956C57.9857 120.705 56.2317 120.927 54.4507 120.945C51.8909 120.97 49.3321 120.969 46.7723 120.978C46.2246 120.98 46.1463 120.849 46.328 120.342C46.6559 119.431 46.981 118.517 47.2763 117.595C47.7457 116.127 48.639 115.662 50.0177 115.598C51.767 115.516 53.5248 115.51 55.2741 115.578C57.2033 115.654 58.6489 114.842 59.8366 113.433C61.1761 111.845 62.0033 110.001 62.5128 108.014C62.7131 107.232 62.8686 106.42 62.8929 105.617C62.9301 104.365 62.1914 103.697 60.9283 103.687C60.1375 103.682 59.3457 103.698 58.5549 103.672C58.077 103.656 57.8264 103.837 57.6746 104.296C57.0244 106.269 56.3491 108.232 55.6654 110.195C55.5452 110.54 55.3729 110.876 55.1735 111.185C54.7078 111.905 54.0352 112.305 53.1596 112.317C51.9962 112.331 50.8327 112.338 49.6693 112.333C49.2222 112.331 49.1495 112.203 49.2902 111.792C50.4499 108.416 51.6068 105.039 52.7684 101.663C53.1093 100.674 53.4707 99.6922 53.8061 98.7C53.9309 98.3305 54.1917 98.2695 54.5299 98.2705C56.0659 98.2769 57.601 98.2732 59.1371 98.2732C59.138 98.2492 59.1389 98.2252 59.1399 98.2021L59.1408 98.2012Z" fill="black"/>
<path d="M95.0381 107.724C95.1759 107.626 95.3333 107.545 95.4479 107.424C97.595 105.142 99.7356 102.855 101.88 100.571C102.493 99.9176 103.093 99.2506 103.742 98.6354C103.953 98.4349 104.3 98.2723 104.587 98.2686C106.541 98.24 108.496 98.2575 110.451 98.264C110.596 98.264 110.742 98.2917 111 98.3167C110.847 98.5153 110.776 98.6446 110.671 98.7379C107.865 101.252 105.054 103.761 102.246 106.273C101.636 106.818 101.038 107.376 100.423 107.916C100.156 108.15 100.082 108.402 100.205 108.737C101.388 111.959 102.566 115.184 103.747 118.407C104.001 119.101 104.265 119.791 104.512 120.486C104.648 120.869 104.561 120.975 104.125 120.976C102.946 120.98 101.764 120.929 100.589 120.994C99.1814 121.071 98.3523 120.365 97.9164 119.155C97.3528 117.593 96.8675 116.003 96.3515 114.424C96.1177 113.707 95.8969 112.985 95.6612 112.269C95.4861 111.734 95.3194 111.688 94.8825 112.05C94.2994 112.532 93.6958 112.993 93.1518 113.516C92.8742 113.783 92.6366 114.137 92.5053 114.497C91.7974 116.434 91.1155 118.381 90.4551 120.335C90.2902 120.822 90.048 121.006 89.5152 120.992C88.0266 120.955 86.5372 120.983 85.0477 120.981C84.4832 120.98 84.4357 120.881 84.6229 120.348C85.3942 118.156 86.1543 115.961 86.9182 113.766C88.239 109.973 89.5608 106.18 90.8817 102.387C91.2869 101.224 91.7014 100.064 92.0852 98.895C92.2436 98.4118 92.496 98.2289 93.0344 98.2455C94.4605 98.288 95.8885 98.2575 97.3156 98.252C98.0421 98.2492 98.0943 98.3342 97.854 99.0234C96.8964 101.771 95.9481 104.52 94.9999 107.27C94.9579 107.391 94.9579 107.526 94.9384 107.654C94.9719 107.677 95.0055 107.7 95.039 107.724L95.0381 107.724Z" fill="black"/>
<path d="M46.5551 98.2668C47.9356 98.2668 49.3161 98.2649 50.6966 98.2677C51.1381 98.2677 51.2667 98.4414 51.1251 98.8395C50.7739 99.8252 50.4227 100.811 50.0622 101.793C49.5825 103.097 48.7572 103.683 47.3562 103.692C45.5566 103.704 43.7541 103.769 41.9591 103.678C40.1324 103.586 38.8311 104.412 37.7711 105.736C36.3394 107.526 35.4563 109.561 35.3157 111.853C35.2728 112.556 35.3939 113.303 35.6091 113.978C35.9221 114.96 36.7017 115.507 37.7478 115.541C39.2354 115.588 40.7277 115.535 42.2134 115.602C42.7518 115.626 43.3126 115.801 43.8044 116.032C44.5124 116.365 44.8058 117.003 44.6036 117.766C44.3438 118.745 44.0066 119.706 43.6628 120.661C43.6097 120.808 43.3405 120.971 43.171 120.971C40.751 120.972 38.3272 121.031 35.9137 120.906C33.6483 120.788 31.6614 119.954 30.2772 118.042C29.1696 116.511 28.8902 114.779 29.0355 112.952C29.2814 109.868 30.2977 107.03 31.9865 104.447C34.6897 100.313 38.5843 98.3102 43.5315 98.276C44.5394 98.2686 45.5482 98.2751 46.5561 98.2751V98.2659L46.5551 98.2668Z" fill="black"/>
<path d="M76.4063 112.355C74.2983 112.355 72.1903 112.355 70.0824 112.355C69.5393 112.355 69.4573 112.246 69.6241 111.714C69.951 110.673 70.277 109.631 70.6217 108.596C70.8611 107.877 71.3567 107.372 72.0907 107.176C72.6086 107.037 73.1554 106.943 73.6901 106.94C77.689 106.919 81.6889 106.925 85.6878 106.925C86.3138 106.925 86.3669 107.011 86.1712 107.605C85.8592 108.555 85.5192 109.497 85.2574 110.46C84.9221 111.694 84.0381 112.242 82.8672 112.276C80.7154 112.339 78.5599 112.294 76.4054 112.294C76.4054 112.315 76.4054 112.335 76.4054 112.355H76.4063Z" fill="black"/>
<path d="M79.2613 103.699C77.1523 103.699 75.0434 103.698 72.9345 103.699C72.4734 103.699 72.3681 103.571 72.5023 103.147C72.7892 102.237 73.077 101.328 73.3649 100.419C73.8399 98.9208 74.5441 98.3536 76.1398 98.3213C78.4024 98.276 80.6669 98.2816 82.9304 98.2733C84.8065 98.2668 86.6834 98.2705 88.5595 98.2714C89.1696 98.2714 89.259 98.4201 89.0616 98.9994C88.7346 99.9601 88.3955 100.918 88.1226 101.894C87.8534 102.857 87.2004 103.366 86.2755 103.561C85.7948 103.663 85.2918 103.684 84.7981 103.688C82.9528 103.701 81.1075 103.693 79.2622 103.693V103.698L79.2613 103.699Z" fill="black"/>
<path d="M73.3362 120.974C71.2581 120.974 69.1799 120.976 67.1017 120.974C66.4692 120.974 66.4226 120.888 66.6136 120.307C66.935 119.328 67.2368 118.342 67.5451 117.358C67.8404 116.414 68.4757 115.838 69.4621 115.708C70.1347 115.619 70.8184 115.578 71.4975 115.575C75.2346 115.555 78.9718 115.554 82.7099 115.543C83.1859 115.542 83.2996 115.673 83.1599 116.133C82.8599 117.118 82.56 118.105 82.2451 119.086C81.8604 120.284 81.0668 120.911 79.7114 120.938C77.5876 120.982 75.4629 120.949 73.3381 120.949C73.3381 120.957 73.3381 120.966 73.3381 120.973L73.3362 120.974Z" fill="black"/>
<path d="M69.9993 87.3763C89.0387 87.3763 104.473 72.0697 104.473 53.1881C104.473 34.3066 89.0387 19 69.9993 19C50.9599 19 35.5254 34.3066 35.5254 53.1881C35.5254 72.0697 50.9599 87.3763 69.9993 87.3763Z" fill="url(#paint0_radial_589_2731)"/>
<path d="M55.4765 52.7419C51.4664 47.2796 49.1656 43.0893 48.7623 40.3125C48.7278 40.0751 48.956 39.8866 49.1852 39.9633C61.6915 44.1637 78.5228 44.0972 100.366 43.4801C100.882 43.6492 101.154 43.9189 100.682 44.4944C78.4781 49.9493 61.4949 61.0088 50.125 77.9481C50.0105 78.119 49.7413 78.0276 49.7552 77.8225C50.2881 70.0517 52.2749 62.3178 55.6805 54.62C55.9534 54.0029 55.8771 53.2869 55.4774 52.7419H55.4765Z" fill="white"/>
<path d="M92.4446 43.6779C74.204 49.4949 59.843 59.8357 50.2188 73.3709C50.5392 71.0614 51.221 67.7626 51.8554 65.274C59.7899 54.6062 69.2987 46.6339 83.0225 43.7721L92.4437 43.6788L92.4446 43.6779Z" fill="#D8D8D8"/>
<path d="M51.9804 47.5059C47.9703 42.0436 45.6695 37.8534 45.2662 35.0765C45.2317 34.8391 45.4599 34.6506 45.6891 34.7273C58.1954 38.9277 75.0267 38.8612 96.8694 38.2441C97.3855 38.4132 97.6575 38.6829 97.1861 39.2584C74.982 44.7134 57.9988 55.7728 46.6289 72.7122C46.5144 72.8831 46.2452 72.7916 46.2591 72.5866C46.792 64.8157 48.7789 57.0818 52.1844 49.384C52.4573 48.7669 52.381 48.051 51.9814 47.5059H51.9804Z" fill="white"/>
<defs>
<radialGradient id="paint0_radial_589_2731" cx="0" cy="0" r="1" gradientUnits="userSpaceOnUse" gradientTransform="translate(60.7188 42.7808) scale(34.7478 34.4597)">
<stop offset="0.37" stop-color="#AEC920"/>
<stop offset="1" stop-color="#3E9631"/>
</radialGradient>
</defs>
</svg>
