<svg width="140" height="140" viewBox="0 0 140 140" fill="none" xmlns="http://www.w3.org/2000/svg">
<rect width="140" height="140" rx="30" fill="white"/>
<mask id="mask0_1642_18720" style="mask-type:luminance" maskUnits="userSpaceOnUse" x="11" y="54" width="118" height="32">
<path d="M11 54H128.527V86H11V54Z" fill="white"/>
</mask>
<g mask="url(#mask0_1642_18720)">
<path d="M51.6429 71.728C52.1456 71.1142 53.0329 71.2329 53.8096 70.9961C55.1664 70.583 57.2831 69.4996 57.2249 67.5977C57.1737 65.9389 55.7162 64.9614 54.0115 64.6804C52.8095 69.2041 50.7912 73.2308 48.8648 77.1651C48.2812 78.3555 47.7093 80.1097 46.1965 80.2487C45.4495 79.5395 45.702 78.5132 45.8184 77.7841C46.1581 75.6518 47.0634 73.3396 47.8565 71.4842C48.973 68.873 50.5142 66.4288 52.0712 64.5588C51.3683 64.5838 50.9296 64.6903 50.4106 64.3319C49.9557 62.1385 52.0485 61.673 53.4873 61.5741C56.817 61.3454 60.1718 63.4289 60.0898 67.1956C60.0211 70.2461 57.0335 72.2476 54.2093 72.4989C53.4186 72.5699 52.1974 72.6764 51.6418 71.7274M100.502 69.0208C101.01 67.9322 101.345 66.9495 101.888 65.6055C102.126 65.0138 103.47 62.3101 102.194 61.968C102.162 61.9606 102.129 61.9606 102.097 61.968C99.9303 62.6371 98.3781 67.2049 97.0329 69.0993C95.3788 69.0551 93.3634 68.9102 93.4489 70.2473C93.5175 71.3376 94.9674 71.5523 95.807 72.0858C95.4969 73.15 93.6473 77.4106 95.2258 78.5056C96.8822 79.6535 97.7445 76.9772 98.1191 75.8531C98.5887 74.4393 98.9383 73.1825 99.4818 72.1155C100.786 72.0131 102.228 71.522 103.297 71.5057C103.011 72.7537 102.379 74.4934 103.062 76.1044C104.274 76.9597 105.178 76.0265 105.6 75.1625C106.271 73.7917 106.372 71.3498 106.871 70.2496C107.652 69.7353 108.873 69.6765 109.062 68.5542C108.613 68.073 107.917 68.5681 107.324 68.5396C107.486 67.6419 107.894 66.6918 108.178 65.7644C108.456 64.8474 109.005 63.7245 108.339 62.7686C106.987 63.0205 106.41 64.3721 105.835 65.4246C105.202 66.5836 104.693 67.8333 104.07 68.9434C102.867 68.9574 101.79 69.0958 100.501 69.022M66.8732 62.3258C65.4023 61.7975 62.9773 63.0647 62.1936 64.3203C61.6903 65.1255 61.517 66.7075 62.4898 67.0007C63.7116 67.3696 64.6361 65.8266 65.1551 65.2029C65.9516 64.2476 66.6463 63.5895 66.8714 62.3258M123.347 64.6048C122.152 64.2615 121.657 65.2669 120.957 66.1897C120.392 66.9326 120.048 67.6814 119.724 67.785C118.928 68.0439 117.677 67.2265 116.994 67.4412C116.765 67.5139 116.391 67.8554 116.382 68.2935C116.357 69.438 117.619 69.6131 118.635 70.0227C118.184 71.0979 117.596 72.4134 117.281 73.8673C116.99 75.2055 116.667 77.1703 117.346 78.5777C118.176 78.43 118.373 77.3431 118.65 76.6607C119.612 74.3043 120.512 71.8577 121.712 69.8336C123.598 69.694 125.544 69.1121 127.035 68.699C127.57 68.5524 128.332 68.6118 128.524 67.9613C128.136 67.4557 127.38 67.6332 126.76 67.6279C125.294 67.6058 123.708 67.7198 122.711 67.7006C123.061 66.8884 124.072 65.8947 123.347 64.6054M83.7494 72.3133C84.1072 70.7028 85.425 70.0849 86.9308 69.662C87.3398 69.6812 86.7545 70.1408 86.7929 70.4108C86.694 70.7052 86.5526 70.9513 86.5765 71.3708C85.6415 71.6966 84.9875 72.3052 83.7494 72.3133ZM76.1311 73.7504C77.009 72.8777 77.7258 72.0265 78.726 70.9873C79.4003 70.2857 81.2138 69.0772 80.6931 67.5756C80.4104 66.7616 79.121 66.5934 78.2053 66.5923C76.8938 66.5911 75.2263 67.0385 73.8876 66.985C73.414 66.9664 72.9869 66.5446 72.6233 66.8675C71.4032 69.6759 75.2583 69.4892 77.1493 69.2605C75.7791 70.8884 73.3651 71.8828 72.1712 73.7161C71.8588 74.1932 71.4637 74.9524 71.7453 75.7449C72.2544 76.1917 72.8362 75.8845 73.3948 75.863C75.9303 75.7774 78.8359 76.6938 80.7239 75.7117C81.1085 75.5116 81.3482 75.1427 81.7218 74.8593C84.0316 75.6751 85.6746 74.2281 87.0221 73.4042C87.8378 74.6127 91.167 74.6924 91.4428 73.1191C90.9168 72.137 89.4733 72.6909 89.2057 71.6029C88.9276 70.4765 90.68 68.859 89.585 67.6448C89.158 67.323 88.6896 67.8211 88.4255 67.6343C85.1138 67.177 81.6613 69.1628 80.8229 71.856C80.5971 72.5693 80.7589 73.4804 80.8933 74.1041C79.4853 74.7488 77.6688 73.9779 76.1317 73.7492M62.6695 68.0724C62.2186 67.8461 62.0272 67.9974 61.8154 68.2796C60.4586 70.0867 57.3703 72.9004 57.6508 75.8467C57.7509 76.9004 58.3024 78.238 59.5347 77.79C59.8983 77.4368 59.7511 76.962 59.9222 76.5082C60.9084 73.8522 63.7645 71.9875 62.6707 68.0724M71.8099 68.8963C70.6951 68.457 68.8141 68.7404 67.1565 68.6449C65.6729 68.5577 63.7354 67.9625 63.8314 69.3664C63.9431 71.0304 66.9779 70.8547 68.5657 70.6883C67.4486 71.8263 66.1255 72.93 64.8613 74.0861C63.7587 75.095 61.7503 76.2912 62.2983 78.5597C63.5376 79.3318 65.0061 78.555 66.6399 78.4864C69.7189 78.3613 72.3452 79.3743 75.2787 79.0932C76.4249 78.9815 78.221 78.5603 78.1314 77.1872C77.4809 76.7665 76.9293 77.2064 76.3027 77.2797C73.2912 77.6311 70.4543 75.7833 67.0326 76.0247C67.9141 75.0164 69.0736 74.007 70.0854 72.9446C71.0047 71.9811 72.3749 70.761 71.8087 68.8951M110.311 74.882C110.703 73.6224 111.189 70.7121 109.578 70.2717C109.028 70.1216 108.271 70.295 107.869 70.686C107.87 71.3469 108.535 71.2096 108.537 71.8705C108.124 73.2151 106.391 75.7228 107.875 77.218C109.206 78.562 111.39 76.9475 112.062 76.3953C112.574 75.9776 113.015 75.4103 113.431 75.3364C113.59 77.054 114.19 78.2397 115.6 78.4573C116.018 77.9575 115.66 77.3885 115.664 76.7456C115.67 75.7228 115.99 74.5417 116.196 73.5398C116.413 72.4809 116.962 71.3155 116.244 70.3287C115.406 70.1251 115.051 70.8966 114.682 71.3847C113.504 72.9364 112.225 74.1332 110.309 74.8832" fill="black"/>
<path d="M12.6878 74.7593C12.7128 75.2812 12.7343 75.6675 12.8076 76.0492C12.8425 76.2342 12.7302 76.6461 12.2724 76.5554C12.0181 76.5042 11.7633 76.3959 11.5695 76.215C11.3641 76.0259 11.2571 75.7542 11.1844 75.4802C11.0249 74.8495 10.6764 72.9597 11.7412 72.9842C11.9809 72.9906 12.1857 73.1034 12.3317 73.3042C12.615 73.7004 12.6616 74.2729 12.6866 74.7599M41.7711 66.8658C41.7711 66.8658 40.746 57.4996 33.4348 54.9658C29.3569 53.5491 27.3222 53.9767 24.8262 54.4573C21.8945 55.0217 18.3739 56.3936 15.843 58.7686C14.115 60.3895 12.3713 62.8425 11.7051 65.9296C11.3444 67.6029 11.303 69.214 11.5794 70.9641C11.6812 71.5988 12.4975 72.1894 12.5057 71.1532C12.5988 59.632 21.2178 57.4898 21.5209 57.4223C21.6275 57.4021 21.7332 57.3771 21.8374 57.3472C21.973 57.3129 22.1289 57.285 22.2546 57.3065C22.3302 57.321 22.3989 57.4793 22.2796 57.5392C21.5878 57.9011 18.9051 58.9024 17.4447 60.3098C15.9669 61.7423 14.0254 64.041 13.4191 68.0108C13.3156 68.6944 13.2143 72.2057 13.5116 74.6767C13.6827 76.098 14.5653 78.0221 15.1541 78.85C16.7355 81.0743 19.4671 82.9676 20.956 83.5482C21.9038 83.9177 23.0529 84.0294 23.6376 84.1795C23.8436 84.2342 23.818 84.5129 23.6102 84.5478C22.6648 84.7142 20.3841 84.1388 18.4961 83.1188C17.0793 82.3532 16.1048 81.2983 15.1483 80.1644C14.0981 78.9152 13.5378 77.6125 13.1468 77.701C12.5057 77.8452 13.0502 79.3522 13.3342 79.9346C14.3035 81.9244 16.2456 83.6524 17.2102 84.2307C20.2322 86.0442 23.2885 86.0873 24.6761 85.9564C30.6165 85.406 34.2674 82.2671 35.8878 79.8106C36.835 78.37 38.9574 75.3341 38.9062 70.8983C38.9004 70.1914 38.9574 65.278 37.4924 62.718C37.162 62.1338 36.1606 59.7431 32.3893 57.7027C32.0978 57.5439 30.8079 56.83 29.7537 56.798C29.308 56.784 28.4126 56.7456 28.4969 56.165C28.5563 55.7577 30.7544 56.2947 30.9848 56.3651C32.5714 56.8457 34.6002 58.1833 36.0047 59.3632C40.3701 63.0287 39.932 70.7983 39.932 70.7983C39.7458 79.063 35.3566 82.5591 32.199 84.6263C32.1374 84.6665 31.9122 84.9836 31.9849 85.1069C32.0606 85.232 32.2107 85.2175 32.362 85.2023C33.5739 85.0691 34.7538 84.0771 35.7633 83.2079C40.9717 78.7162 41.2382 75.2102 41.5273 73.8883C41.9521 71.9631 41.9724 68.0818 41.7711 66.8669" fill="#DA1A31"/>
<path d="M33.8212 69.0865C33.6889 69.031 33.5568 68.9747 33.425 68.9178C33.0282 68.7398 32.0496 68.4564 31.2647 68.2278C30.8301 68.1015 30.3786 67.9718 30.2954 67.9334C30.2099 67.7926 30.0208 66.889 29.9277 66.4497C29.8812 66.2228 29.8445 66.0448 29.823 65.9662C29.7508 65.6899 29.6612 65.5369 29.4174 65.5648L29.3977 65.5654C29.3116 65.5793 28.1468 65.9046 26.239 66.4381C24.9566 66.7977 23.6318 67.1689 23.5475 67.1846C23.4404 67.2009 23.3788 67.2654 22.545 68.7002C22.2954 69.1313 21.9847 69.6672 21.9353 69.7265C21.9062 69.7481 21.7293 69.8377 21.5425 69.9325C21.0113 70.203 20.0252 70.7075 19.1809 71.2398C18.2471 71.8304 16.4505 73.0842 16.3161 73.3635C16.2649 73.4676 16.2637 73.5747 16.3114 73.6585C16.3754 73.7702 16.5168 73.8249 16.6908 73.8057C16.7286 73.801 16.767 73.794 16.806 73.7824C16.9852 73.7318 22.6666 72.4832 25.9271 71.8915C26.7417 71.7437 27.7703 71.5971 28.9834 71.4569C31.9687 71.1124 34.9761 70.9245 35.1507 70.9437C35.327 70.967 35.505 70.8878 35.6278 70.7342C35.728 70.6086 35.7806 70.4516 35.7761 70.2909C35.7668 69.9697 35.1379 69.6457 33.8212 69.0836" fill="white"/>
<path d="M121.04 76.4338C120.991 76.4894 120.93 76.5338 120.862 76.5639C120.794 76.594 120.721 76.6092 120.646 76.6083C120.571 76.609 120.496 76.5933 120.427 76.5621C120.358 76.531 120.297 76.4852 120.248 76.428C120.14 76.3076 120.082 76.1504 120.086 75.9887C120.086 75.8147 120.144 75.6588 120.261 75.5384C120.31 75.4854 120.369 75.4431 120.435 75.4143C120.502 75.3854 120.573 75.3706 120.645 75.3708C120.801 75.3708 120.933 75.4313 121.042 75.5517C121.151 75.6716 121.206 75.8182 121.206 75.9881C121.207 76.165 121.15 76.3133 121.039 76.4338M120.317 75.6326C120.228 75.7306 120.18 75.8588 120.182 75.991C120.182 76.1289 120.226 76.2563 120.318 76.3541C120.407 76.4541 120.516 76.5042 120.645 76.5042C120.707 76.5044 120.768 76.491 120.825 76.4649C120.881 76.4387 120.931 76.4005 120.971 76.3529C121.061 76.2534 121.109 76.1237 121.107 75.9898C121.109 75.8576 121.061 75.7293 120.972 75.6314C120.932 75.5828 120.882 75.5437 120.825 75.5169C120.769 75.49 120.706 75.4762 120.644 75.4763C120.581 75.4764 120.519 75.4905 120.462 75.5175C120.405 75.5445 120.355 75.5839 120.315 75.6326M120.399 76.3337V75.6495H120.571C120.648 75.6495 120.691 75.6495 120.7 75.6506C120.743 75.6529 120.786 75.6653 120.823 75.6867C120.879 75.7199 120.905 75.774 120.905 75.8496C120.905 75.9078 120.89 75.9485 120.862 75.9747C120.832 76.0003 120.794 76.0161 120.755 76.0201C120.787 76.0252 120.817 76.039 120.843 76.0602C120.878 76.0928 120.898 76.144 120.898 76.2127V76.2726C120.898 76.2796 120.898 76.2866 120.9 76.2918L120.904 76.3116L120.91 76.3308H120.755C120.749 76.2993 120.745 76.2674 120.745 76.2354C120.745 76.2069 120.742 76.1785 120.734 76.151C120.731 76.1396 120.725 76.1291 120.717 76.1203C120.709 76.1115 120.699 76.1045 120.688 76.0998C120.67 76.093 120.651 76.0891 120.632 76.0882H120.562V76.3285H120.399V76.3331V76.3337ZM120.696 75.7868C120.666 75.7753 120.633 75.7702 120.601 75.7717H120.562V75.9706H120.624C120.656 75.9726 120.688 75.9638 120.714 75.9456C120.734 75.9299 120.746 75.9014 120.746 75.8648C120.746 75.8275 120.73 75.8008 120.697 75.7862" fill="black"/>
</g>
</svg>
