<svg width="140" height="140" viewBox="0 0 140 140" fill="none" xmlns="http://www.w3.org/2000/svg">
<rect width="140" height="140" rx="30" fill="#0155A5"/>
<path d="M74.2923 114.952C73.135 113.553 72.5481 111.715 72.5481 109.493C72.5481 107.271 73.1084 105.376 74.2123 104.033C75.4163 102.565 77.1872 101.821 79.4818 101.821H79.6586V98.0153H79.4818C75.9032 98.0153 73.1417 99.1263 71.274 101.315C69.5731 103.296 68.7126 106.057 68.7126 109.523C68.7126 112.988 69.6498 115.623 71.4941 117.703C73.4352 119.889 76.14 121 79.5385 121H79.7153V117.194H79.5385C77.2973 117.194 75.533 116.44 74.2957 114.952H74.2923ZM60.6616 114.952C59.5043 113.553 58.9173 111.718 58.9173 109.493C58.9173 107.267 59.4776 105.376 60.5816 104.033C61.7855 102.565 63.5565 101.821 65.8511 101.821H66.0278V98.0153H65.8511C62.2725 98.0153 59.511 99.1263 57.6433 101.315C55.9424 103.296 55.0819 106.057 55.0819 109.523C55.0819 112.988 56.0191 115.623 57.8634 117.703C59.8045 119.889 62.5093 121 65.9078 121H66.0845V117.194H65.9078C63.6666 117.194 61.9023 116.44 60.6649 114.952H60.6616ZM73.1884 77.8974V88.4887H77.2573V66.5588H73.1884V74.1973H70.9739C70.06 74.1973 69.3797 73.9922 68.9494 73.5855C68.6393 73.2978 68.4858 72.9143 68.4858 72.4083V66.5621H64.417V72.825C64.417 74.2667 64.9939 75.4869 66.1279 76.4557C67.2485 77.4147 68.6226 77.9007 70.2168 77.9007H73.1884V77.8974ZM112.123 97.4961L111.836 97.7937C111.836 97.7937 104.265 105.631 103.705 106.213V98.5443H100.15V120.349H103.705V111.391C103.795 111.298 108.347 106.517 108.861 105.978C108.891 106.761 109.378 120.349 109.378 120.349H113L112.123 97.4994V97.4961ZM85.4984 88.4887H89.5673V70.2028H92.9958V66.5588H82.1232V70.2028H85.4984V88.4887ZM94.8702 97.7904C94.8702 97.7904 87.2994 105.627 86.7391 106.209V98.541H83.1838V120.345H86.7391V111.387C86.8291 111.295 91.3816 106.513 91.8952 105.974C91.9252 106.758 92.4088 120.345 92.4088 120.345H96.0308L95.1536 97.4961L94.8668 97.7937L94.8702 97.7904ZM102.191 70.2028H103.665C104.712 70.2028 105.436 70.5136 105.873 71.1584C106.223 71.6908 106.473 72.7258 106.633 74.141H102.094C102.104 73.698 102.181 70.6294 102.194 70.2061L102.191 70.2028ZM102.021 77.785C102.461 77.785 106.687 77.785 107.1 77.785C107.147 78.2314 108.241 88.4887 108.241 88.4887H112.34L110.462 72.4546C110.462 70.3516 109.808 68.7677 108.518 67.7691C107.49 66.9655 106.083 66.5555 104.335 66.5555H98.3054L97.5583 88.4854H101.627C101.627 88.4854 102.004 78.2612 102.021 77.7817V77.785ZM31.0922 70.2028H36.1316V88.4887H40.2005V66.5588H27.0233V88.4887H31.0922V70.2028ZM32.9966 110.442C32.7064 111.001 32.3662 111.282 31.986 111.282C31.6058 111.282 31.309 111.04 31.0422 110.541C30.7587 110.012 30.6153 109.238 30.6153 108.236V101.821H30.7654C31.6058 101.821 32.2462 102.281 32.7264 103.227C33.22 104.202 33.4702 105.76 33.4702 107.863C33.4702 108.977 33.3134 109.847 32.9999 110.445L32.9966 110.442ZM30.772 98.5708H27V120.325H30.612V114.003C31.3123 114.612 32.0728 114.975 32.9099 114.975C34.1105 114.975 35.1144 114.344 35.8882 113.104C36.752 111.708 37.1922 109.638 37.1922 106.953C37.1922 105.085 36.842 103.412 36.1483 101.983C35.0577 99.7215 33.2501 98.5708 30.772 98.5708ZM54.9819 83.122C54.4516 84.5406 53.7078 85.2316 52.7039 85.2316C51.7001 85.2316 51.0164 84.5306 50.4861 83.0922C49.9324 81.5877 49.6523 79.6797 49.6523 77.4213C49.6523 75.1628 49.9291 73.1953 50.4727 71.7503C50.993 70.3681 51.7201 69.6969 52.7039 69.6969C53.8079 69.6969 54.5916 70.3747 55.1019 71.7768C55.5755 73.0631 55.8156 74.9413 55.8156 77.3618C55.8156 79.7822 55.5355 81.6373 54.9819 83.122ZM58.1236 85.602C59.3309 83.5353 59.9445 80.7643 59.9445 77.3618C59.9445 73.9592 59.3109 71.2477 58.0635 69.1777C56.7895 67.0681 54.9819 66 52.6973 66C50.4127 66 48.8052 67.078 47.5712 69.1976C46.3638 71.2708 45.7535 74.0253 45.7535 77.3915C45.7535 80.7577 46.3405 83.6841 47.4945 85.7475C48.6784 87.8605 50.426 88.9318 52.6973 88.9318C54.9685 88.9318 56.8295 87.8109 58.1236 85.5987V85.602ZM47.9347 115.088C47.4578 116.523 46.7574 117.247 45.8536 117.247C44.9497 117.247 44.3027 116.51 43.8258 115.055C43.3289 113.54 43.0787 111.622 43.0787 109.347C43.0787 107.072 43.3255 105.095 43.8158 103.64C44.2827 102.245 44.9698 101.537 45.8569 101.537C46.8641 101.537 47.5812 102.235 48.0481 103.666C48.475 104.963 48.6884 106.854 48.6884 109.284C48.6884 111.715 48.4383 113.586 47.938 115.081L47.9347 115.088ZM50.6228 101.157C49.4889 99.0701 47.888 98.012 45.8569 98.012C43.9325 98.012 42.4017 99.0767 41.3078 101.173C40.2338 103.237 39.6869 105.974 39.6869 109.314C39.6869 112.654 40.2105 115.57 41.2377 117.621C42.285 119.71 43.8391 120.769 45.8569 120.769C47.8747 120.769 49.5289 119.661 50.6762 117.472C51.7501 115.422 52.2971 112.667 52.2971 109.284C52.2971 105.902 51.7334 103.203 50.6228 101.153V101.157Z" fill="white"/>
<path d="M59.3904 27.3115C59.8067 28.2269 60.4899 29.1635 62.3492 30.4295C62.7655 30.7128 63.2246 31.3024 62.8741 32.131C62.5236 32.9596 61.867 34.1371 62.2602 34.5939C62.6552 35.0525 64.0573 35.2915 65.196 34.8347C65.196 34.8347 65.4379 35.5535 65.8543 36.0121C65.8543 36.0121 65.6568 36.4052 65.0002 36.2086C65.0002 36.2086 65.2422 36.7965 64.9131 37.4286C64.9131 37.4286 64.1462 37.2976 63.8171 36.5999C63.8171 36.5999 63.511 37.1471 62.8972 37.3418C62.8972 37.3418 62.3919 37.0815 62.5022 36.0776C62.5022 36.0776 62.1304 36.9718 60.9899 37.124C60.9899 37.124 60.3333 36.2954 61.1874 35.1835C61.1874 35.1835 60.5735 35.7306 59.4562 35.4685C59.4562 35.4685 59.28 34.902 60.2889 34.1158C60.2889 34.1158 59.1484 34.0733 58.7107 33.1137C58.7107 33.1137 59.1929 32.5241 60.376 32.6569C60.376 32.6569 59.28 32.4161 59.0399 31.1076C59.0399 31.1076 59.828 30.6065 61.0788 31.4121C61.0788 31.4121 60.86 30.9978 60.3333 30.5835C59.8067 30.1692 59.1715 29.013 59.3904 27.3132V27.3115Z" fill="white"/>
<path d="M63.9755 40.4634C63.8101 40.2439 63.6855 40.0261 63.593 39.8136C63.7887 41.4 63.8599 42.4695 64.721 43.4982C64.721 43.4982 65.2406 42.8094 64.9061 41.1398C64.762 41.0973 64.6001 41.0318 64.4417 40.9255C64.4417 40.9255 64.6374 41.6037 64.5164 42.2871C64.5164 42.2871 64.2051 42.0622 63.9755 40.4634Z" fill="white"/>
<path d="M62.4864 40.2987C62.385 40.1695 62.1857 39.8968 62.0825 39.702C62.0096 40.6227 61.7658 43.0484 62.5825 43.8062C62.5825 43.8062 63.1412 43.399 63.3405 39.8632C63.2212 40.0615 63.0149 40.2704 62.9134 40.3855C62.9134 40.3855 63.0487 41.508 62.6448 42.2995C62.6448 42.2995 62.2391 41.9932 62.4882 40.2987H62.4864Z" fill="white"/>
<path d="M60.5417 42.1525C61.2285 41.3345 61.4331 38.8858 61.4331 38.8858C61.5274 38.822 61.6235 38.753 61.7178 38.6786C61.7587 38.6467 61.7961 38.6149 61.8316 38.5795C61.8316 38.668 61.8352 38.7601 61.8423 38.8539C61.7427 40.327 61.627 41.848 61.1644 42.604C60.7107 43.3441 59.8798 43.7301 59.8798 43.7301C59.0988 42.3473 60.0417 40.4917 60.8317 39.2027C60.9296 39.1655 61.0274 39.1213 61.1271 39.0699C60.8495 40.0632 60.3246 41.2424 60.5399 42.156L60.5417 42.1525Z" fill="white"/>
<path d="M58.6039 37.8996C58.5986 38.0589 58.6289 38.1864 58.6502 38.2537C58.6591 38.2803 58.6698 38.3157 58.6876 38.3529C58.0328 38.9938 57.5489 39.6029 56.5792 40.9432C55.6077 42.2853 54.0723 42.3384 54.0723 42.3384C54.2199 41.2531 54.5171 40.3943 55.3373 39.4683C56.1593 38.5423 57.2108 37.6977 57.9848 37.1365C58.184 37.2285 58.442 37.287 58.7712 37.248C58.7961 37.2445 58.821 37.2427 58.8477 37.2374C58.7427 37.372 58.6805 37.5065 58.6466 37.6322C58.0613 37.9669 56.3639 38.8238 55.6753 40.2049C55.6753 40.2049 56.75 39.8703 58.6057 37.8978L58.6039 37.8996Z" fill="white"/>
<path d="M57.3872 36.5468L57.4512 36.4317C57.4726 36.3946 57.4957 36.3591 57.5206 36.3273C56.889 36.5716 54.6383 37.4179 53.9106 37.7915C53.1829 38.1687 52.1296 39.0221 51.5566 40.7537C51.5566 40.7537 53.0743 40.8901 54.3269 39.8578C55.5795 38.8238 57.0402 37.3843 57.6629 36.9257C57.6007 36.8673 57.5526 36.8124 57.5188 36.7664C57.5188 36.7664 55.8232 38.2607 54.0298 38.907C54.0298 38.907 54.4141 38.2147 55.1222 37.7119C55.9851 37.101 56.631 36.8956 57.3854 36.5486L57.3872 36.5468Z" fill="white"/>
<path d="M56.1007 35.527C56.1238 35.4668 56.1505 35.4101 56.1754 35.3552C55.4335 35.5057 53.5778 35.727 52.7469 35.9802C51.9177 36.2334 50.4196 36.8372 49.53 38.5246C49.53 38.5246 50.836 38.9265 53.3002 37.7721C55.7644 36.6176 56.5366 36.3804 57.0063 36.2565C56.6309 36.2281 56.3658 36.1024 56.227 36.0174C55.2449 36.4512 53.93 36.9682 52.6259 37.0019C52.6259 37.0019 53.27 36.5486 53.9461 36.2671C54.6809 35.9608 55.4869 35.6828 56.1007 35.527Z" fill="white"/>
<path d="M56.1611 34.3106C56.4031 34.4239 56.5881 34.4806 56.903 34.5142C56.7322 34.624 56.5667 34.7657 56.4226 34.9534C55.5544 35.203 54.0741 35.4757 51.633 35.651C49.1901 35.8263 47.8877 35.3783 47.8877 35.3783C48.7399 34.8613 50.0957 34.3354 51.0138 34.1584C51.9301 33.9813 54.3392 34.0008 55.396 33.8574C55.4085 33.868 55.5366 33.9724 55.743 34.0982C54.8551 34.1778 52.962 34.2664 51.9852 34.7586C51.9852 34.7586 53.7894 34.9994 56.1629 34.3106H56.1611Z" fill="white"/>
<path d="M55.9798 32.9154C56.1025 32.8428 56.252 32.7719 56.4317 32.7029C55.1969 32.3293 53.4978 31.7362 50.9446 31.5697C49.0693 31.4475 47.7171 31.5538 47.0178 31.7344C47.0178 31.7344 48.7223 32.9313 50.6741 33.3527C52.6242 33.7759 54.2094 33.5067 55.3659 33.5156C55.4424 33.4023 55.5278 33.2748 55.6648 33.1473C54.3109 33.1562 52.0584 32.8056 51.2506 32.54C51.2506 32.54 53.2149 32.131 55.978 32.9136L55.9798 32.9154Z" fill="white"/>
<path d="M55.9726 31.4688C55.9797 31.5024 56.1221 32.1965 56.9298 32.5807C55.1951 31.8229 51.7737 31.3873 49.9375 30.6278C47.4519 29.6008 47 28.3172 47 28.3172C49.1493 28.2605 50.8876 28.7846 52.2274 29.1918C53.7966 29.6717 56.1843 30.5569 57.0224 30.9288C56.7092 30.9412 56.3658 31.0315 56.0758 31.2227C54.9069 30.7765 54.3642 30.5888 53.3038 30.2931C52.4676 30.0612 51.8484 30.0134 51.3271 29.9638C51.3271 29.9638 52.0619 30.4489 53.2753 30.8349C54.4763 31.2174 54.9976 31.2811 55.9726 31.4653V31.4688Z" fill="white"/>
<path d="M55.841 29.5814C55.9122 29.7036 56.1168 29.9975 56.1969 30.1144C53.4515 29.6558 50.4322 27.5895 49.4999 26.3111C48.5658 25.031 48.8327 23.117 48.8327 23.117C49.7365 23.2994 51.7043 24.9885 52.2132 25.4949C52.722 26.0013 54.2628 27.4921 55.3268 28.3243L55.6613 29.2857C54.7486 28.5562 53.6632 27.74 52.9889 27.2336C52.4694 26.8423 51.6919 26.2934 50.9197 26.0296C50.9197 26.0296 51.6314 26.9539 52.2061 27.4018C52.8697 27.9241 53.5458 28.3774 54.0992 28.6802C54.592 28.9493 54.8447 29.1016 55.841 29.5814Z" fill="white"/>
<path d="M63.5841 37.2268C63.6677 37.1559 63.7389 37.0833 63.7994 37.0161C63.9275 37.1754 64.3492 37.703 64.5573 38.2271C64.7157 38.6769 64.8847 39.2859 64.9683 39.6365C65.052 39.9853 65.3028 40.7095 65.4541 40.9591C65.4541 40.9591 64.7851 41.0424 64.2904 40.4687C63.8029 39.9021 63.6375 39.3355 63.5627 38.7512C63.5022 38.2944 63.5218 37.6623 63.5841 37.225V37.2268Z" fill="white"/>
<path d="M62.5289 37.3153C62.6534 37.48 62.7727 37.549 62.7851 37.5543L62.8741 37.6004L62.9702 37.5703C63.052 37.5437 63.1285 37.5118 63.2014 37.4764C63.2975 37.7456 63.3367 37.8766 63.3616 38.105C63.3936 38.4078 63.4541 38.8876 63.3384 39.2789C63.1997 39.7552 62.9114 40.0455 62.7531 40.2297C62.7531 40.2297 62.3172 39.7499 62.1908 39.355C62.0592 38.9407 62.0129 38.4591 62.1748 37.9669C62.262 37.7013 62.4044 37.4534 62.5289 37.3135V37.3153Z" fill="white"/>
<path d="M61.0219 37.3596C61.4685 37.2994 61.8084 37.1382 62.0628 36.9523C62.1197 37.1099 62.2069 37.3206 62.1429 37.6198C62.077 37.9191 61.8689 38.2502 61.5699 38.491C61.1198 38.8486 60.5149 39.1868 59.8477 39.0823C59.8477 39.0823 59.6946 38.5848 61.0219 37.3596Z" fill="white"/>
<path d="M60.5168 36.5292C60.5701 36.9718 60.7836 37.2498 60.8014 37.271C60.6449 37.457 60.0826 38.4202 58.9083 38.2573C58.9083 38.2573 58.5899 37.6021 59.3727 37.0816C59.9029 36.7292 60.1538 36.6567 60.5185 36.5292H60.5168Z" fill="white"/>
<path d="M60.62 35.7076C60.3068 35.7855 59.8994 35.8174 59.4012 35.6987L59.266 35.6686L59.2268 35.5376C58.6237 36.028 57.9067 36.1077 57.6611 36.5486C57.6611 36.5486 57.9618 37.1046 58.7447 37.0107C59.5258 36.9187 60.1147 36.5539 60.5328 36.0316C60.5488 35.9519 60.5826 35.8067 60.62 35.7058V35.7076Z" fill="white"/>
<path d="M59.2659 35.0188C59.378 34.8559 59.4545 34.601 59.6876 34.3442C59.1716 34.2557 58.7037 34.2486 58.097 34.3637C57.3764 34.5 56.6398 34.6682 56.2715 35.7607C56.2715 35.7607 56.7359 36.1538 57.5757 35.982C58.2891 35.8368 58.9101 35.5305 59.2659 35.0188Z" fill="white"/>
<path d="M58.9598 33.8343C58.7766 33.6785 58.6129 33.4749 58.4919 33.2111L58.4296 33.0747C57.8051 32.8198 57.1539 32.6905 56.517 32.9278C55.88 33.165 55.711 33.4395 55.5491 33.675C55.5491 33.675 56.2554 34.2628 57.0685 34.2858C57.8816 34.3088 58.6325 34.0769 58.9598 33.8343Z" fill="white"/>
<path d="M59.1484 32.556C59.2552 32.5152 59.378 32.4781 59.515 32.4497C59.2374 32.2072 58.9652 31.8389 58.8335 31.2847C58.5435 31.352 57.8621 31.352 57.5614 31.2387C57.2625 31.1253 56.6718 31.1165 56.2109 31.421C56.2109 31.421 56.364 32.2231 57.4066 32.4975C58.3869 32.756 58.7517 32.6888 59.1484 32.5542V32.556Z" fill="white"/>
<path d="M58.7731 30.9907L58.9101 30.904C58.9278 30.8916 59.1627 30.7499 59.5613 30.7198C59.225 30.4702 58.4279 29.8045 57.8603 29.4857C57.2429 29.1405 56.2181 28.6837 55.6968 28.6164C55.6968 28.6164 56.1861 29.8948 56.7554 30.41C57.3461 30.9447 57.7607 31.143 58.7731 30.9925V30.9907Z" fill="white"/>
<path d="M59.8263 30.403C59.5772 30.0789 59.3797 29.6345 59.2356 29.1104C59.1164 28.6819 58.8495 27.6214 58.6876 27.3469C58.5275 27.0707 57.951 26.1093 56.8247 25.8118C56.8247 25.8118 56.5258 27.0636 57.0916 28.0569C57.5809 28.9103 58.5808 29.8116 59.8263 30.4047V30.403Z" fill="white"/>
<path d="M66.0751 36.2299C66.2157 36.368 66.3224 36.4477 66.5733 36.5717C66.5733 36.5717 66.9327 37.2551 66.4986 38.0784C66.0626 38.9035 65.6943 39.7445 65.52 40.212C65.52 40.212 65.2851 40.1783 65.0254 38.8876C64.8492 38.0129 64.6268 37.7951 64.3955 37.4959C64.6464 37.6234 64.8528 37.6623 64.8688 37.6641L65.0431 37.6942L65.1232 37.5402C65.278 37.2427 65.3243 36.9559 65.3243 36.7186C65.3243 36.6407 65.3189 36.5663 65.3118 36.5008C65.7157 36.5097 65.931 36.3078 66.0128 36.2034C66.0199 36.1928 66.0271 36.1857 66.0324 36.1768L66.0751 36.2317V36.2299Z" fill="white"/>
<path d="M56.5081 26.3377C56.5045 26.4563 56.5028 26.5909 56.5081 26.7325L56.5312 27.0406C55.8676 26.196 55.0705 25.1779 54.3108 24.2395C53.7894 23.5968 53.3518 23.2073 52.8607 22.8939C53.2735 24.0855 54.0101 25.0363 54.5332 25.509C55.0545 25.9836 55.8106 26.7839 56.5472 27.2725L56.6184 27.5133C56.6753 27.7347 56.7625 27.9613 56.8853 28.1755C57.0579 28.4765 57.2838 28.774 57.5507 29.0591C57.3354 28.9546 57.0899 28.8413 56.8426 28.7368L56.6149 28.643C54.5883 27.5735 52.576 25.3585 51.7629 23.8146C50.9498 22.2724 51.2879 20.4824 51.5031 19.5227C52.423 20.3 53.7485 21.828 54.325 22.6602C55.0349 23.68 55.9441 25.1266 56.5081 26.3023V26.3377Z" fill="white"/>
<path d="M84.94 32.9154C84.8173 32.8428 84.6696 32.7719 84.4863 32.7029C85.7229 32.3293 87.4203 31.7362 89.9735 31.5697C91.847 31.4475 93.1992 31.5538 93.8984 31.7344C93.8984 31.7344 92.1939 32.9313 90.2421 33.3527C88.2921 33.7759 86.7086 33.5067 85.5503 33.5156C85.4738 33.4023 85.3884 33.2748 85.2532 33.1473C86.6072 33.1562 88.8597 32.8056 89.6657 32.54C89.6657 32.54 87.7014 32.131 84.94 32.9136V32.9154Z" fill="white"/>
<path d="M84.9455 31.4688C84.9401 31.5024 84.796 32.1965 83.9883 32.5807C85.723 31.8229 89.1427 31.3873 90.9806 30.6278C93.4662 29.6008 93.9181 28.3172 93.9181 28.3172C91.7706 28.2605 90.0287 28.7846 88.6907 29.1918C87.1215 29.6717 84.732 30.5569 83.8958 30.9288C84.2089 30.9412 84.5523 31.0315 84.8405 31.2227C86.0112 30.7765 86.5521 30.5888 87.6125 30.2931C88.4488 30.0612 89.068 30.0134 89.5893 29.9638C89.5893 29.9638 88.8527 30.4489 87.641 30.8349C86.4383 31.2174 85.9205 31.2811 84.9437 31.4653L84.9455 31.4688Z" fill="white"/>
<path d="M85.077 29.5814C85.0059 29.7036 84.8013 29.9975 84.7212 30.1144C87.4665 29.6558 90.4859 27.5895 91.4182 26.3111C92.3505 25.031 92.0854 23.117 92.0854 23.117C91.1798 23.2994 89.2137 24.9885 88.7049 25.4949C88.196 26.0013 86.6552 27.4921 85.5912 28.3243L85.2567 29.2857C86.1695 28.5562 87.253 27.74 87.9291 27.2336C88.4487 26.8423 89.2262 26.2934 90.0002 26.0296C90.0002 26.0296 89.2867 26.9539 88.7138 27.4018C88.0501 27.9241 87.3776 28.3774 86.8207 28.6802C86.3296 28.9493 86.0752 29.1016 85.077 29.5814Z" fill="white"/>
<path d="M84.4117 26.3377C84.4152 26.4563 84.4188 26.5909 84.4135 26.7325L84.3903 27.0406C85.054 26.196 85.8511 25.1779 86.6108 24.2395C87.1321 23.5968 87.5698 23.2073 88.0591 22.8939C87.6481 24.0855 86.9115 25.0363 86.3884 25.509C85.8671 25.9836 85.1109 26.7839 84.3743 27.2725L84.3032 27.5133C84.2462 27.7347 84.159 27.9613 84.0363 28.1755C83.8637 28.4765 83.6377 28.774 83.3708 29.0591C83.5844 28.9546 83.8317 28.8413 84.079 28.7368L84.3067 28.643C86.3333 27.5735 88.3456 25.3585 89.1587 23.8146C89.9718 22.2724 89.6355 20.4824 89.4184 19.5227C88.4986 20.3 87.173 21.828 86.5948 22.6602C85.8849 23.68 84.9757 25.1266 84.4117 26.3023V26.3377Z" fill="white"/>
<path d="M59.0986 38.5175C58.2624 39.3497 56.5009 41.2141 56.6664 43.2396C56.6664 43.2396 58.3033 42.7297 58.9758 41.5363C59.6484 40.343 60.0665 39.594 60.3494 39.3249C60.1661 39.3497 59.9847 39.3497 59.8085 39.3213L59.6608 39.2965C59.2463 40.0473 58.4225 41.2814 57.6824 41.7099C57.6824 41.7099 57.4938 40.7112 59.6697 38.6892C59.7018 38.6078 59.7445 38.5122 59.805 38.4077C59.6057 38.4785 59.3779 38.521 59.1235 38.5139H59.0968L59.0986 38.5175Z" fill="white"/>
<path d="M81.5293 27.3115C81.113 28.2269 80.4298 29.1635 78.5705 30.4295C78.1542 30.7128 77.6951 31.3024 78.0456 32.131C78.3961 32.9596 79.0527 34.1371 78.6577 34.5939C78.2627 35.0525 76.8607 35.2915 75.722 34.8347C75.722 34.8347 75.4818 35.5535 75.0654 36.0121C75.0654 36.0121 75.2629 36.4052 75.9195 36.2086C75.9195 36.2086 75.6775 36.7965 76.0066 37.4286C76.0066 37.4286 76.7735 37.2976 77.1026 36.5999C77.1026 36.5999 77.4087 37.1471 78.0225 37.3418C78.0225 37.3418 78.526 37.0815 78.4175 36.0776C78.4175 36.0776 78.7893 36.9718 79.928 37.124C79.928 37.124 80.5864 36.2954 79.7323 35.1835C79.7323 35.1835 80.3462 35.7306 81.4635 35.4685C81.4635 35.4685 81.6379 34.902 80.6308 34.1158C80.6308 34.1158 81.7695 34.0733 82.209 33.1137C82.209 33.1137 81.7268 32.5241 80.5437 32.6569C80.5437 32.6569 81.6379 32.4161 81.8799 31.1076C81.8799 31.1076 81.0917 30.6065 79.8426 31.4121C79.8426 31.4121 80.0615 30.9978 80.5864 30.5835C81.113 30.1692 81.7482 29.013 81.5293 27.3132V27.3115Z" fill="white"/>
<path d="M76.9425 40.4634C77.108 40.2439 77.2325 40.0261 77.3232 39.8136C77.1293 41.4 77.0564 42.4695 76.1952 43.4982C76.1952 43.4982 75.6757 42.8094 76.012 41.1398C76.1561 41.0973 76.318 41.0318 76.4746 40.9255C76.4746 40.9255 76.2771 41.6037 76.3998 42.2871C76.3998 42.2871 76.7112 42.0622 76.9407 40.4634H76.9425Z" fill="white"/>
<path d="M78.4318 40.2987C78.535 40.1695 78.7325 39.8968 78.8374 39.702C78.9086 40.6227 79.1524 43.0484 78.3375 43.8062C78.3375 43.8062 77.777 43.399 77.5813 39.8632C77.6987 40.0615 77.9069 40.2704 78.0065 40.3855C78.0065 40.3855 77.8713 41.508 78.2752 42.2995C78.2752 42.2995 78.6809 41.9932 78.4318 40.2987Z" fill="white"/>
<path d="M80.3781 42.1525C79.6914 41.3345 79.485 38.8858 79.485 38.8858C79.3907 38.822 79.2946 38.753 79.2003 38.6786C79.1612 38.6467 79.122 38.6149 79.0864 38.5795C79.0864 38.668 79.0846 38.7601 79.074 38.8539C79.1736 40.327 79.291 41.848 79.7536 42.604C80.2056 43.3441 81.0382 43.7301 81.0382 43.7301C81.8193 42.3473 80.8763 40.4917 80.0864 39.2027C79.9867 39.1655 79.8889 39.1213 79.7892 39.0699C80.0668 40.0632 80.5917 41.2424 80.3764 42.156L80.3781 42.1525Z" fill="white"/>
<path d="M82.3141 37.8996C82.3194 38.0589 82.2892 38.1864 82.2678 38.2537C82.2589 38.2803 82.25 38.3157 82.2322 38.3529C82.8852 38.9938 83.3709 39.6029 84.3406 40.9432C85.3121 42.2853 86.8475 42.3384 86.8475 42.3384C86.6981 41.2531 86.4027 40.3943 85.5807 39.4683C84.7587 38.5423 83.7054 37.6977 82.9332 37.1365C82.734 37.2285 82.4742 37.287 82.1468 37.248C82.1219 37.2445 82.0952 37.2427 82.0703 37.2374C82.1735 37.372 82.2358 37.5065 82.2714 37.6322C82.8567 37.9669 84.5559 38.8238 85.2427 40.2049C85.2427 40.2049 84.168 39.8703 82.3123 37.8978L82.3141 37.8996Z" fill="white"/>
<path d="M83.5327 36.5468L83.4686 36.4317C83.4473 36.3946 83.4242 36.3591 83.401 36.3273C84.0309 36.5716 86.2834 37.4179 87.0111 37.7915C87.7388 38.1687 88.7921 39.0221 89.365 40.7537C89.365 40.7537 87.8473 40.8901 86.593 39.8578C85.3386 38.8238 83.8796 37.3843 83.2551 36.9257C83.3192 36.8673 83.3654 36.8124 83.401 36.7664C83.401 36.7664 85.0966 38.2607 86.8883 38.907C86.8883 38.907 86.504 38.2147 85.7959 37.7119C84.9329 37.101 84.2889 36.8956 83.5327 36.5486V36.5468Z" fill="white"/>
<path d="M84.819 35.527C84.7941 35.4668 84.7692 35.4101 84.7425 35.3552C85.4862 35.5057 87.342 35.727 88.1711 35.9802C89.0002 36.2334 90.5001 36.8372 91.3897 38.5246C91.3897 38.5246 90.0837 38.9265 87.6177 37.7721C85.1535 36.6176 84.3849 36.3804 83.9116 36.2565C84.287 36.2281 84.5521 36.1024 84.6909 36.0174C85.6748 36.4512 86.9879 36.9682 88.2921 37.0019C88.2921 37.0019 87.648 36.5486 86.9719 36.2671C86.2388 35.9608 85.4311 35.6828 84.8173 35.527H84.819Z" fill="white"/>
<path d="M84.7568 34.3106C84.5149 34.4239 84.3298 34.4806 84.0149 34.5142C84.1875 34.624 84.3512 34.7657 84.4971 34.9534C85.3653 35.203 86.8439 35.4757 89.2867 35.651C91.7296 35.8263 93.032 35.3783 93.032 35.3783C92.1815 34.8613 90.824 34.3354 89.9077 34.1584C88.9896 33.9813 86.5787 34.0008 85.5237 33.8574C85.5112 33.868 85.3831 33.9724 85.1767 34.0982C86.0646 34.1778 87.9576 34.2664 88.9344 34.7586C88.9344 34.7586 87.1321 34.9994 84.7586 34.3106H84.7568Z" fill="white"/>
<path d="M77.3357 37.2268C77.2521 37.1559 77.1809 37.0833 77.1204 37.0161C76.9923 37.1754 76.5707 37.703 76.3643 38.2271C76.2041 38.6769 76.0369 39.2859 75.9533 39.6365C75.8696 39.9853 75.6188 40.7095 75.4675 40.9591C75.4675 40.9591 76.1383 41.0424 76.6311 40.4687C77.1169 39.9021 77.2841 39.3355 77.3588 38.7512C77.4176 38.2944 77.3998 37.6623 77.3375 37.225L77.3357 37.2268Z" fill="white"/>
<path d="M78.3871 37.3153C78.2643 37.48 78.1433 37.549 78.1327 37.5543L78.0437 37.6004L77.9476 37.5703C77.864 37.5437 77.7893 37.5118 77.7163 37.4764C77.622 37.7456 77.5811 37.8766 77.5562 38.105C77.5242 38.4078 77.4619 38.8876 77.5776 39.2789C77.7181 39.7552 78.0028 40.0455 78.1611 40.2297C78.1611 40.2297 78.5988 39.7499 78.7252 39.355C78.8568 38.9407 78.9031 38.4591 78.7412 37.9669C78.654 37.7013 78.5116 37.4534 78.3853 37.3135L78.3871 37.3153Z" fill="white"/>
<path d="M79.8979 37.3596C79.4513 37.2994 79.1097 37.1382 78.8553 36.9523C78.7983 37.1099 78.7111 37.3206 78.777 37.6198C78.841 37.9191 79.0492 38.2502 79.3499 38.491C79.7982 38.8486 80.405 39.1868 81.0704 39.0823C81.0704 39.0823 81.2234 38.5848 79.8961 37.3596H79.8979Z" fill="white"/>
<path d="M80.4013 36.5292C80.3479 36.9718 80.1344 37.2498 80.1184 37.271C80.275 37.457 80.8372 38.4202 82.0115 38.2573C82.0115 38.2573 82.3282 37.6021 81.5471 37.0816C81.0151 36.7292 80.7661 36.6567 80.4031 36.5292H80.4013Z" fill="white"/>
<path d="M80.2982 35.7076C80.6113 35.7855 81.0187 35.8174 81.5169 35.6987L81.6504 35.6686L81.6913 35.5376C82.2927 36.028 83.0097 36.1077 83.2552 36.5486C83.2552 36.5486 82.9545 37.1046 82.1735 37.0107C81.3924 36.9187 80.8035 36.5539 80.3853 36.0316C80.3693 35.9519 80.3355 35.8067 80.2964 35.7058L80.2982 35.7076Z" fill="white"/>
<path d="M81.6539 35.0188C81.5401 34.8559 81.4653 34.601 81.2305 34.3442C81.7482 34.2557 82.2162 34.2486 82.8211 34.3637C83.5435 34.5 84.2783 34.6682 84.6466 35.7607C84.6466 35.7607 84.1822 36.1538 83.3424 35.982C82.6289 35.8368 82.008 35.5305 81.6539 35.0188Z" fill="white"/>
<path d="M81.958 33.8343C82.1395 33.6785 82.305 33.4749 82.4259 33.2111L82.4882 33.0747C83.1145 32.8198 83.7657 32.6905 84.4009 32.9278C85.0396 33.165 85.2069 33.4395 85.3688 33.675C85.3688 33.675 84.6624 34.2628 83.8493 34.2858C83.0362 34.3088 82.2854 34.0769 81.9598 33.8343H81.958Z" fill="white"/>
<path d="M81.7695 32.556C81.6627 32.5152 81.5417 32.4781 81.4065 32.4497C81.6841 32.2072 81.9545 31.8389 82.0879 31.2847C82.3797 31.352 83.0612 31.352 83.3601 31.2387C83.659 31.1253 84.2497 31.1165 84.7087 31.421C84.7087 31.421 84.5575 32.2231 83.5113 32.4975C82.531 32.756 82.168 32.6888 81.7677 32.5542L81.7695 32.556Z" fill="white"/>
<path d="M82.1449 30.9907L82.0079 30.904C81.9901 30.8916 81.7552 30.7499 81.3567 30.7198C81.693 30.4702 82.4901 29.8045 83.0594 29.4857C83.675 29.1405 84.7016 28.6837 85.2229 28.6164C85.2229 28.6164 84.7336 29.8948 84.1643 30.41C83.5736 30.9447 83.159 31.143 82.1449 30.9925V30.9907Z" fill="white"/>
<path d="M81.0916 30.403C81.3406 30.0789 81.5399 29.6345 81.684 29.1104C81.8015 28.6819 82.0719 27.6214 82.232 27.3469C82.3922 27.0707 82.9686 26.1093 84.0949 25.8118C84.0949 25.8118 84.3938 27.0636 83.828 28.0569C83.3369 28.9103 82.337 29.8116 81.0916 30.4047V30.403Z" fill="white"/>
<path d="M74.843 36.2299C74.6988 36.368 74.5956 36.4477 74.3448 36.5717C74.3448 36.5717 73.9854 37.2551 74.4195 38.0784C74.8536 38.9035 75.2237 39.7445 75.3981 40.212C75.3981 40.212 75.6312 40.1783 75.8909 38.8876C76.0671 38.0129 76.2895 37.7951 76.5208 37.4959C76.2699 37.6234 76.0635 37.6623 76.0457 37.6641L75.8713 37.6942L75.7913 37.5402C75.6365 37.2427 75.5902 36.9559 75.5902 36.7186C75.5902 36.6407 75.5956 36.5663 75.6027 36.5008C75.197 36.5097 74.9835 36.3078 74.8999 36.2034C74.8928 36.1928 74.8874 36.1857 74.8803 36.1768L74.8394 36.2317L74.843 36.2299Z" fill="white"/>
<path d="M81.8212 38.5175C82.6556 39.3497 84.4171 41.2141 84.2516 43.2396C84.2516 43.2396 82.6147 42.7297 81.9422 41.5363C81.2696 40.343 80.8533 39.594 80.5686 39.3249C80.7519 39.3497 80.9316 39.3497 81.1095 39.3213L81.2572 39.2965C81.6717 40.0473 82.4937 41.2814 83.2357 41.7099C83.2357 41.7099 83.4243 40.7112 81.2483 38.6892C81.2162 38.6078 81.1718 38.5122 81.113 38.4077C81.3105 38.4785 81.5383 38.521 81.7945 38.5139H81.8212V38.5175Z" fill="white"/>
<path d="M69.1814 22.3751C69.1814 22.2264 69.7543 22.1042 70.4589 22.1042C71.1634 22.1042 71.7364 22.2264 71.7364 22.3751C71.7364 22.5238 71.1652 22.646 70.4589 22.646C69.7525 22.646 69.1814 22.5256 69.1814 22.3751Z" fill="white"/>
<path d="M64.8438 23.8394C64.8438 23.758 65.2121 23.6907 65.6675 23.6907C66.123 23.6907 66.4895 23.7562 66.4895 23.8394C66.4895 23.9226 66.1212 23.9881 65.6675 23.9881C65.2138 23.9881 64.8438 23.9226 64.8438 23.8394Z" fill="white"/>
<path d="M70.7098 22.9718C70.7098 23.1099 70.5977 23.2215 70.459 23.2215C70.3202 23.2215 70.2063 23.1099 70.2063 22.9718C70.2063 22.8337 70.3184 22.7222 70.459 22.7222C70.5995 22.7222 70.7098 22.8337 70.7098 22.9718Z" fill="white"/>
<path d="M69.089 22.1113C68.6637 21.1021 68.3791 20.3584 68.3915 20.1088C68.3986 19.9565 68.5801 19.8449 68.7491 19.7936C68.9182 19.7405 69.0694 19.7316 69.1815 19.8166C69.4021 19.9848 69.6085 21.3482 69.685 21.913C69.4697 21.9555 69.3398 21.982 69.089 22.1113Z" fill="white"/>
<path d="M69.8665 21.8917C69.9733 21.8811 70.0854 21.874 70.1975 21.8705C70.1299 21.3304 69.9413 20.4292 69.8309 20.0733C69.7206 19.7192 69.5783 19.4625 69.3452 19.3987C69.3452 19.3987 69.5267 19.8945 69.6263 20.4062C69.726 20.9179 69.8025 21.4084 69.8665 21.8935V21.8917Z" fill="white"/>
<path d="M68.5197 23.6995C68.9876 23.5879 69.468 23.0904 69.468 23.0904C68.7118 23.2002 68.5197 23.6995 68.5197 23.6995ZM69.2224 23.6535C68.5695 24.0341 67.8364 23.9739 67.8364 23.9739C67.977 23.7172 68.1104 23.4799 68.5197 23.1878C68.9289 22.8974 69.5961 22.8231 69.8576 22.8602C69.7989 23.055 69.5302 23.4729 69.2207 23.6535H69.2224Z" fill="white"/>
<path d="M66.7832 24.7229V24.6698C66.1391 24.7512 65.3794 24.7158 65.3794 24.7158C65.4203 24.9548 65.5199 25.1354 65.689 25.2452C65.7299 24.7264 66.7832 24.7211 66.7832 24.7211V24.7229ZM64.6499 24.0359C64.6499 24.0359 65.4612 24.3387 66.2761 24.2979C67.0892 24.2572 68.5855 24.2395 69.0713 24.0076C69.0713 24.0076 68.9912 24.3103 68.6051 24.4856C68.6051 24.4856 68.8097 24.4856 69.009 24.6591C69.009 24.6591 68.8916 24.9088 68.5482 25.0434C68.5482 25.0434 69.1673 25.6843 69.8292 25.6383C69.8292 25.6383 69.525 26.0154 68.8471 25.8702C68.1692 25.725 67.9521 25.3479 67.8347 25.2009C67.8347 25.2009 67.9237 25.5621 67.881 25.7073C67.881 25.7073 67.5821 25.6896 67.349 25.3975C67.349 25.3975 67.5198 25.6879 67.5536 25.934C67.5536 25.934 67.3686 25.957 67.0323 25.7587C67.0323 25.7587 67.1034 25.9393 67.1141 26.1482C67.1141 26.1482 66.3295 25.8986 65.9505 25.5427C65.9505 25.5427 65.9452 25.787 65.963 25.9269C65.963 25.9269 64.746 25.8047 64.6535 24.0341L64.6499 24.0359Z" fill="white"/>
<path d="M64.4614 24.1599C64.4898 24.5441 64.5895 24.9212 64.7247 25.1903C64.7247 25.1903 64.2443 24.8309 64.1286 24.5281C64.0112 24.2254 63.9827 24.0164 64.4614 24.1616V24.1599Z" fill="white"/>
<path d="M63.5022 25.6135C63.6125 25.6135 63.7015 25.525 63.7015 25.417C63.7015 25.309 63.6125 25.2187 63.5022 25.2187C63.3919 25.2187 63.3029 25.3072 63.3029 25.417C63.3029 25.5267 63.3919 25.6135 63.5022 25.6135ZM64.6729 25.3815C64.9932 25.5267 65.2797 25.8702 65.2797 25.8702C64.7939 25.9818 64.5786 26.1199 64.5786 26.1199C63.6481 25.4683 62.883 26.1252 62.883 26.1252C62.3813 25.8401 62.2817 25.1478 62.5325 24.7813C62.7834 24.4148 63.351 24.4786 63.6196 24.5423C63.7887 25.0788 64.3847 25.2523 64.6729 25.3815Z" fill="white"/>
<path d="M65.3846 25.9924C65.3846 25.9924 65.7244 26.4404 65.97 26.6387C65.97 26.6387 64.7192 26.6281 64.4025 27.7046C64.4025 27.7046 63.9701 27.0459 64.2851 26.6157C64.6267 26.15 64.9398 26.0916 65.3846 25.9924Z" fill="white"/>
<path d="M66.76 26.2598C66.76 26.2598 67.1639 26.3766 67.2973 26.4103C67.2973 26.4103 67.3045 26.1783 67.292 26.0668C67.4148 26.0951 67.566 26.1376 67.6959 26.1482C67.6959 26.1482 68.0998 27.0441 68.4147 27.4053C68.4147 27.4053 68.4325 27.6036 68.2563 27.9064C68.2563 27.9064 68.0286 27.377 67.6194 26.9521C67.3881 26.7113 67.2386 26.5909 66.76 26.2598Z" fill="white"/>
<path d="M65.6943 26.0685C65.8242 26.104 66.4683 26.304 66.7814 26.5289C67.1729 26.8069 67.4433 27.1274 67.4006 27.6798C67.4006 27.6798 67.0857 27.2442 66.7352 27.0459C66.4576 26.8901 65.9577 26.4528 65.6943 26.0685Z" fill="white"/>
<path d="M65.7049 22.0157C65.8241 22.0157 66.0554 22.0723 66.0554 22.2618C66.0554 22.4512 65.7565 22.9151 65.6764 23.1205H65.6693C65.5875 22.9151 65.2886 22.453 65.2886 22.2618C65.2886 22.0706 65.5217 22.0157 65.6391 22.0157H65.7049Z" fill="white"/>
<path d="M65.4434 23.5047C65.3865 23.2356 65.2798 22.538 65.1125 22.3839C64.9542 22.237 64.7211 22.2228 64.6054 22.2299C64.488 22.237 64.3652 22.3574 64.4133 22.5132C64.4613 22.6708 64.9791 23.4445 65.0467 23.5419C65.1677 23.5224 65.1428 23.5277 65.4417 23.5047H65.4434Z" fill="white"/>
<path d="M65.9006 23.5047C65.9593 23.2356 66.0643 22.538 66.2316 22.3839C66.3881 22.237 66.623 22.2228 66.7386 22.2299C66.8561 22.237 66.9806 22.3574 66.9308 22.5132C66.8828 22.6708 66.3632 23.4445 66.2974 23.5419C66.1764 23.5224 66.2013 23.5277 65.9024 23.5047H65.9006Z" fill="white"/>
<path d="M66.2351 21.0773H65.8312V20.6329H65.5038V21.0773H65.0981V21.357H65.5038V21.8811H65.8312V21.357H66.2351V21.0773Z" fill="white"/>
<path d="M61.3387 23.9439C61.3387 23.8589 61.3458 23.7739 61.3565 23.6889C61.3885 23.4729 61.3903 23.287 61.3654 23.1347C61.0754 23.2445 60.8779 23.3153 60.4775 23.958C60.4775 23.958 61.1163 23.5667 61.3369 23.9439H61.3387Z" fill="white"/>
<path d="M61.8974 24.9637C61.9045 24.8044 62.0095 24.2998 62.1429 23.9439C62.3066 23.5083 62.2141 22.8744 62.0166 22.4902C61.8262 22.1202 61.723 21.7714 61.7568 21.3854C61.7568 21.3854 61.3778 21.5111 61.1608 21.6439C61.1252 22.0901 61.3867 22.5345 61.5113 22.7894C61.6589 23.0904 61.6287 23.48 61.5949 23.719C61.5397 24.1245 61.6234 24.5583 61.8974 24.962V24.9637Z" fill="white"/>
<path d="M61.9401 21.5554C61.9259 21.5058 61.9259 21.3659 61.9526 21.3092C61.9526 21.3092 62.5469 20.732 63.0486 20.6329C63.3653 20.5691 63.561 20.709 63.6518 20.7869C63.6518 20.7869 63.4756 20.7657 63.2087 20.9817C62.9418 21.1977 62.6109 21.458 62.3583 21.5235C62.1109 21.589 62.0576 21.5677 61.9384 21.5536L61.9401 21.5554Z" fill="white"/>
<path d="M63.7015 20.8294C63.9275 21.0525 64.1143 21.288 64.1107 21.4916C64.1072 21.7041 63.8598 22.2335 63.73 22.4371C63.6001 22.6407 63.4097 22.9045 63.4328 23.2268C63.4435 23.3879 63.5556 23.5526 63.689 23.6889C63.689 23.6889 62.9613 23.5172 62.8724 23.0692C62.7941 22.669 62.9649 22.3875 63.0823 22.1662C63.1909 21.959 63.5271 21.4721 63.6125 21.2685C63.689 21.0844 63.73 20.9321 63.7015 20.8294Z" fill="white"/>
<path d="M67.9609 25.8791C68.1068 26.3908 68.3541 26.8724 68.5979 27.2513C68.8167 27.5948 68.9573 28.1561 68.936 28.3473C68.936 28.3473 69.2651 27.6249 69.0961 27.1132C68.9662 26.7183 68.6121 26.1287 67.9609 25.8791Z" fill="white"/>
<path d="M68.783 26.0473C68.783 26.0473 69.2811 26.0544 69.516 26.2084C69.8167 26.4067 70.1031 26.837 70.2117 27.354C70.2117 27.354 69.7064 27.2672 69.4573 27.0194C69.2082 26.7715 68.9004 26.3996 68.783 26.0473Z" fill="white"/>
<path d="M66.1942 26.945C66.0981 26.9539 65.8419 27.0105 65.7156 27.0477C65.7156 27.0477 66.1426 27.1716 66.3543 27.3469C66.5358 27.4957 66.6924 27.7258 66.7653 28.1136C66.8685 28.6536 67.1888 29.2379 67.2849 29.4132L67.324 29.4043C67.2635 29.0325 67.4984 28.2588 67.5588 28.149C67.5588 28.149 67.2226 27.9365 67.0678 27.7188C66.9539 27.5576 66.7529 27.2885 66.196 26.945H66.1942Z" fill="white"/>
<path d="M68.4095 28.1065C68.534 28.3916 68.8632 28.8944 68.7084 29.4203C68.5536 29.9461 68.2102 30.1728 67.9967 30.6172C67.9967 30.6172 67.8276 29.8133 67.865 29.1936C67.9006 28.5739 68.1283 28.3331 68.4077 28.1065H68.4095Z" fill="white"/>
<path d="M69.3684 28.1277C69.3684 28.1277 69.8648 29.0874 69.9556 29.4645C70.0427 29.8364 69.9627 30.0842 69.7936 30.3109C69.6246 30.5375 69.3399 30.7783 69.0766 31.2528C69.0766 31.2528 68.7688 30.8509 68.7315 30.6402C68.6959 30.4277 68.7546 29.9249 68.8204 29.7124C68.8862 29.5017 69.1496 28.8218 69.3702 28.1295L69.3684 28.1277Z" fill="white"/>
<path d="M69.6246 31.1909C69.5142 31.3077 68.9342 32.0018 68.8559 32.2054C68.7776 32.409 68.6442 32.7915 68.8239 33.0571C69.0054 33.3226 69.4182 33.7476 69.7811 33.9282C69.7811 33.9282 69.3897 33.3191 69.4288 32.818C69.4537 32.4993 69.7028 32.2143 69.7491 32.0177C69.7971 31.823 69.7651 31.4954 69.6246 31.1909Z" fill="white"/>
<path d="M68.4876 30.8066C68.5766 30.9306 68.7331 31.228 68.7527 31.5202C68.7741 31.8052 68.7278 32.0372 68.5695 32.4586C68.3702 32.988 68.0624 33.5794 67.92 33.845C67.92 33.845 67.646 33.4572 67.4966 33.1102C67.4966 33.1102 67.9236 32.5294 68.1051 32.1186C68.3168 31.6353 68.4058 31.1873 68.4876 30.8066Z" fill="white"/>
<path d="M68.2883 30.5818C68.2883 30.5818 68.105 31.9469 67.2972 32.9614C66.751 33.6484 66.3062 33.8857 66.0126 33.8857C65.5696 33.8857 65.1248 33.5174 64.9736 33.0978C64.8241 32.6764 64.8704 32.023 65.1586 31.7929C65.1586 31.7929 65.4255 32.6126 65.9931 32.6427C66.6354 32.6782 67.4627 31.9628 68.2883 30.5836V30.5818Z" fill="white"/>
<path d="M67.6266 30.0117C67.6942 30.256 67.7155 30.6314 67.6266 30.9837C67.559 31.2511 67.3953 31.6034 67.0786 31.7999C66.8064 31.9699 66.1623 32.0106 65.9167 31.4051C65.9167 31.4051 67.091 31.4936 67.6248 30.0117H67.6266Z" fill="white"/>
<path d="M69.5497 35.5181C69.7098 35.9289 70.2863 36.4477 70.2827 36.7682C70.2721 37.618 69.9002 38.1386 69.8113 38.4183C69.8113 38.4183 69.128 37.8783 69.0053 37.2586C68.9448 36.9417 69.0159 35.9891 69.5497 35.5181Z" fill="white"/>
<path d="M68.7847 36.1184C68.8648 35.8988 69.1156 35.2986 69.4074 35.0879C69.4074 35.0879 69.7811 33.9972 68.5836 33.3279C68.5836 33.3279 68.0926 33.9777 67.9609 34.5868C67.8293 35.1977 68.4822 35.566 68.7847 36.1166V36.1184Z" fill="white"/>
<path d="M67.2885 33.3687C67.0964 33.5971 66.8242 33.9175 66.6142 34.0185C66.6142 34.0185 66.5431 34.5054 66.584 34.8276C66.6445 35.3074 66.9558 35.7979 67.0875 36.1591C67.0875 36.1591 67.6106 35.4792 67.6711 35.079C67.7316 34.6789 67.7209 34.3496 67.7405 34.1583C67.7405 34.1583 67.4487 33.6874 67.2885 33.3687Z" fill="white"/>
<path d="M65.9096 35.7005C65.7619 35.4774 65.2815 34.6524 65.2744 34.0521C65.2744 34.0521 65.8651 34.3637 66.3597 34.1353C66.3597 34.1353 66.4256 34.9144 66.3295 35.1782C66.253 35.3925 66.1498 35.5199 65.9114 35.7005H65.9096Z" fill="white"/>
<path d="M66.0465 35.867C66.1425 35.7837 66.3774 35.5677 66.4735 35.4544C66.4735 35.4544 66.8649 36.168 66.9307 36.3769C66.9307 36.3769 66.735 36.4265 66.5197 36.2706C66.3044 36.1148 66.2564 36.0759 66.0447 35.867H66.0465Z" fill="white"/>
<path d="M67.8596 35.4491C67.8115 35.6297 67.1781 36.5044 67.0696 36.6124C67.0696 36.6124 67.1194 36.9293 67.3543 37.3861C67.5891 37.8412 67.9147 38.1599 68.0873 38.321C68.0873 38.321 68.4769 37.6428 68.5944 37.3436C68.726 37.0019 68.7118 36.6655 68.6531 36.5415C68.5214 36.2476 68.0624 35.8227 67.8596 35.4509V35.4491Z" fill="white"/>
<path d="M68.8097 37.7385C68.9485 38.02 69.372 38.4821 69.436 38.8469C69.4876 39.1337 69.4414 39.3692 69.3631 39.5657C69.2848 39.764 69.0321 40.1482 68.8631 40.4404C68.8631 40.4404 68.2867 39.8986 68.1585 39.5108C68.0625 39.2187 68.0981 38.8026 68.2368 38.5459C68.3756 38.2873 68.6763 38.0058 68.808 37.7367L68.8097 37.7385Z" fill="white"/>
<path d="M67.1728 37.6605C67.324 37.9845 67.6799 38.3103 67.7635 38.5954C67.8596 38.9318 67.8898 39.146 67.7279 39.5373C67.582 39.8826 67.4076 40.0827 67.3472 40.2916C67.3472 40.2916 66.8774 39.6878 66.8009 39.4346C66.7227 39.1832 66.6977 38.7689 66.7938 38.5051C66.8917 38.2413 67.0589 37.8978 67.1746 37.6605H67.1728Z" fill="white"/>
<path d="M69.4841 39.9623C69.4841 39.9623 68.6763 40.9326 68.6959 41.4478C68.719 42.0888 69.1478 42.5155 69.2083 42.9103C69.2083 42.9103 69.6318 42.434 69.7919 42.1135C69.9734 41.7523 70.1104 41.4478 70.0641 41.0406C70.0143 40.6333 69.9058 40.3695 69.4841 39.9623Z" fill="white"/>
<path d="M67.9966 39.8649C68.1229 40.0508 68.4859 40.6847 68.3827 41.0636C68.2813 41.4407 67.8827 41.9737 67.7511 42.2021C67.7511 42.2021 67.4308 41.5488 67.3597 41.2495C67.2885 40.9503 67.3543 40.4652 67.9984 39.8649H67.9966Z" fill="white"/>
<path d="M76.0725 23.8394C76.0725 23.758 75.7042 23.6907 75.2505 23.6907C74.7968 23.6907 74.4285 23.7562 74.4285 23.8394C74.4285 23.9226 74.7968 23.9881 75.2505 23.9881C75.7042 23.9881 76.0725 23.9226 76.0725 23.8394Z" fill="white"/>
<path d="M70.4661 21.3252C70.5195 20.9586 70.9465 20.1778 70.9465 19.8361C70.9465 19.567 70.7277 19.3492 70.459 19.3492C70.1904 19.3492 69.9697 19.567 69.9697 19.8361C69.9697 20.1778 70.3967 20.9586 70.4501 21.3252H70.4661Z" fill="white"/>
<path d="M71.8289 22.1113C72.256 21.1021 72.5389 20.3584 72.5264 20.1088C72.5175 19.9565 72.3396 19.8449 72.1688 19.7936C71.998 19.7405 71.8485 19.7316 71.7364 19.8166C71.514 19.9848 71.3094 21.3482 71.2329 21.913C71.45 21.9555 71.5799 21.982 71.8289 22.1113Z" fill="white"/>
<path d="M71.0533 21.8917C70.9447 21.8811 70.8344 21.874 70.7241 21.8705C70.7917 21.3304 70.9768 20.4292 71.0889 20.0733C71.201 19.7192 71.3415 19.4625 71.5746 19.3987C71.5746 19.3987 71.3931 19.8945 71.2935 20.4062C71.1938 20.9179 71.1191 21.4084 71.0533 21.8935V21.8917Z" fill="white"/>
<path d="M71.4517 23.0886C71.4517 23.0886 71.9303 23.588 72.4001 23.6977C72.4001 23.6977 72.2061 23.1967 71.4517 23.0886ZM71.0603 22.8585C71.3218 22.8213 71.9891 22.8957 72.4001 23.186C72.8093 23.4782 72.9427 23.7154 73.0833 23.9722C73.0833 23.9722 72.3502 24.0324 71.6973 23.6517C71.3895 23.4711 71.1208 23.0532 71.0603 22.8585Z" fill="white"/>
<path d="M75.2291 25.247C75.3999 25.1372 75.4977 24.9548 75.5369 24.7176C75.5369 24.7176 74.7771 24.753 74.1348 24.6715V24.7247C74.1348 24.7247 75.1863 24.73 75.2273 25.2487L75.2291 25.247ZM74.9586 25.9287C74.9782 25.7888 74.9711 25.5444 74.9711 25.5444C74.5903 25.8986 73.8075 26.15 73.8075 26.15C73.8199 25.941 73.8893 25.7604 73.8893 25.7604C73.5566 25.9588 73.368 25.9357 73.368 25.9357C73.4036 25.6914 73.5726 25.3992 73.5726 25.3992C73.3395 25.6896 73.0406 25.7091 73.0406 25.7091C72.9997 25.5639 73.0869 25.2027 73.0869 25.2027C72.9694 25.3479 72.7524 25.7268 72.0745 25.872C71.3948 26.0172 71.0906 25.64 71.0906 25.64C71.7524 25.6861 72.3716 25.0451 72.3716 25.0451C72.0264 24.9106 71.909 24.6609 71.909 24.6609C72.1083 24.4874 72.3129 24.4874 72.3129 24.4874C71.9268 24.3121 71.845 24.0093 71.845 24.0093C72.3307 24.2413 73.827 24.259 74.6401 24.2997C75.4532 24.3404 76.2663 24.0377 76.2663 24.0377C76.172 25.8065 74.9568 25.9304 74.9568 25.9304L74.9586 25.9287Z" fill="white"/>
<path d="M76.4567 24.1599C76.4282 24.5441 76.3286 24.9212 76.1934 25.1903C76.1934 25.1903 76.672 24.8309 76.7894 24.5281C76.9068 24.2254 76.9371 24.0164 76.4567 24.1616V24.1599Z" fill="white"/>
<path d="M77.6151 25.417C77.6151 25.3072 77.5262 25.2187 77.4159 25.2187C77.3056 25.2187 77.2184 25.3072 77.2184 25.417C77.2184 25.5267 77.3091 25.6135 77.4159 25.6135C77.5226 25.6135 77.6151 25.525 77.6151 25.417ZM77.2984 24.5423C77.5689 24.4786 78.1347 24.4148 78.3855 24.7813C78.6382 25.1478 78.5386 25.8401 78.0368 26.1252C78.0368 26.1252 77.27 25.4683 76.3412 26.1199C76.3412 26.1199 76.1242 25.98 75.6384 25.8702C75.6384 25.8702 75.9249 25.5267 76.2469 25.3815C76.5334 25.2523 77.1294 25.0788 77.2984 24.5423Z" fill="white"/>
<path d="M75.5333 25.9924C75.5333 25.9924 75.1935 26.4404 74.9497 26.6387C74.9497 26.6387 76.2005 26.6281 76.5172 27.7046C76.5172 27.7046 76.9496 27.0459 76.6329 26.6157C76.293 26.15 75.9781 26.0916 75.5333 25.9924Z" fill="white"/>
<path d="M74.1581 26.2598C74.1581 26.2598 73.7542 26.3766 73.6208 26.4103C73.6208 26.4103 73.6137 26.1783 73.6261 26.0668C73.5034 26.0951 73.3503 26.1376 73.2222 26.1482C73.2222 26.1482 72.8184 27.0441 72.5034 27.4053C72.5034 27.4053 72.4856 27.6036 72.6618 27.9064C72.6618 27.9064 72.8895 27.377 73.2987 26.9521C73.53 26.7113 73.6795 26.5909 74.1581 26.2598Z" fill="white"/>
<path d="M75.2239 26.0685C75.094 26.104 74.4481 26.304 74.1368 26.5289C73.7453 26.8069 73.4749 27.1274 73.5158 27.6798C73.5158 27.6798 73.8325 27.2442 74.183 27.0459C74.4624 26.8901 74.9605 26.4528 75.2256 26.0685H75.2239Z" fill="white"/>
<path d="M75.2148 22.0157C75.0956 22.0157 74.8625 22.0723 74.8625 22.2618C74.8625 22.4512 75.1632 22.9151 75.2433 23.1205H75.2504C75.3305 22.9151 75.6312 22.453 75.6312 22.2618C75.6312 22.0706 75.3999 22.0157 75.2789 22.0157H75.2148Z" fill="white"/>
<path d="M75.4763 23.5047C75.5333 23.2356 75.6382 22.538 75.8073 22.3839C75.9656 22.237 76.1969 22.2228 76.3143 22.2299C76.4318 22.237 76.5545 22.3574 76.5065 22.5132C76.4584 22.6708 75.9389 23.4445 75.8713 23.5419C75.7503 23.5224 75.7752 23.5277 75.4763 23.5047Z" fill="white"/>
<path d="M75.0175 23.5047C74.9623 23.2356 74.8556 22.538 74.6883 22.3839C74.53 22.237 74.2969 22.2228 74.1794 22.2299C74.0638 22.237 73.9392 22.3574 73.9891 22.5132C74.0371 22.6708 74.5549 23.4445 74.6242 23.5419C74.7452 23.5224 74.7203 23.5277 75.0192 23.5047H75.0175Z" fill="white"/>
<path d="M74.6846 21.0773H75.0867V20.6329H75.414V21.0773H75.8179V21.357H75.414V21.8811H75.0867V21.357H74.6846V21.0773Z" fill="white"/>
<path d="M69.8328 18.4462H70.2349V18H70.5622V18.4462H70.9679V18.7259H70.5622V19.25H70.2349V18.7259H69.8328V18.4462Z" fill="white"/>
<path d="M79.5793 23.9439C79.5793 23.8589 79.5722 23.7739 79.5615 23.6889C79.5313 23.4729 79.5277 23.287 79.5526 23.1347C79.8426 23.2445 80.0401 23.3153 80.4387 23.958C80.4387 23.958 79.8017 23.5667 79.5793 23.9439Z" fill="white"/>
<path d="M79.0207 24.9637C79.0136 24.8044 78.9086 24.2998 78.7751 23.9439C78.6115 23.5083 78.704 22.8744 78.9015 22.4902C79.0919 22.1202 79.1968 21.7714 79.1612 21.3854C79.1612 21.3854 79.5402 21.5111 79.7573 21.6439C79.7929 22.0901 79.5313 22.5345 79.4068 22.7894C79.2591 23.0904 79.2893 23.48 79.3232 23.719C79.3783 24.1245 79.2947 24.5583 79.0207 24.962V24.9637Z" fill="white"/>
<path d="M78.9798 21.5554C78.994 21.5058 78.994 21.3659 78.9655 21.3092C78.9655 21.3092 78.3712 20.732 77.8713 20.6329C77.5546 20.5691 77.3589 20.709 77.2664 20.7869C77.2664 20.7869 77.4425 20.7657 77.7076 20.9817C77.9745 21.1977 78.3054 21.458 78.5581 21.5235C78.8054 21.589 78.8605 21.5677 78.9798 21.5536V21.5554Z" fill="white"/>
<path d="M77.2164 20.8294C76.9922 21.0525 76.8036 21.288 76.8072 21.4916C76.8125 21.7041 77.0563 22.2335 77.1879 22.4371C77.3178 22.6407 77.5082 22.9045 77.4851 23.2268C77.4726 23.3879 77.3623 23.5526 77.2289 23.6889C77.2289 23.6889 77.9583 23.5172 78.0473 23.0692C78.1256 22.669 77.9548 22.3875 77.8373 22.1662C77.727 21.959 77.3925 21.4721 77.3071 21.2685C77.2306 21.0844 77.1897 20.9321 77.2164 20.8294Z" fill="white"/>
<path d="M72.9588 25.8791C72.8129 26.3908 72.5638 26.8724 72.32 27.2513C72.0994 27.5948 71.9606 28.1561 71.982 28.3473C71.982 28.3473 71.651 27.6249 71.8201 27.1132C71.9499 26.7183 72.3022 26.1287 72.957 25.8791H72.9588Z" fill="white"/>
<path d="M72.135 26.0473C72.135 26.0473 71.6368 26.0544 71.402 26.2084C71.1031 26.4067 70.8148 26.837 70.7063 27.354C70.7063 27.354 71.2134 27.2672 71.4607 27.0194C71.7098 26.7715 72.0194 26.3996 72.135 26.0473Z" fill="white"/>
<path d="M74.7256 26.945C74.8199 26.9539 75.0761 27.0105 75.2007 27.0477C75.2007 27.0477 74.7755 27.1716 74.5637 27.3469C74.3823 27.4957 74.2257 27.7258 74.1527 28.1136C74.0495 28.6536 73.7275 29.2379 73.6314 29.4132L73.5923 29.4043C73.651 29.0325 73.4161 28.2588 73.3574 28.149C73.3574 28.149 73.6955 27.9365 73.8503 27.7188C73.9624 27.5576 74.1652 27.2885 74.7221 26.945H74.7256Z" fill="white"/>
<path d="M72.5104 28.1065C72.3858 28.3916 72.0567 28.8944 72.2097 29.4203C72.3645 29.9461 72.7097 30.1728 72.9214 30.6172C72.9214 30.6172 73.0904 29.8133 73.053 29.1936C73.0157 28.5739 72.7897 28.3331 72.5104 28.1065Z" fill="white"/>
<path d="M70.4662 29.5778C70.4875 29.2715 71.2045 28.5297 71.169 28.1277C71.1316 27.7258 70.5961 27.4408 70.4626 27.3841H70.4555C70.3238 27.4425 69.7865 27.7276 69.7509 28.1277C69.7136 28.5297 70.4306 29.2715 70.4519 29.5778H70.4662Z" fill="white"/>
<path d="M71.5498 28.1277C71.5498 28.1277 71.0534 29.0874 70.9626 29.4645C70.8754 29.8364 70.9555 30.0842 71.1245 30.3109C71.2918 30.5375 71.5782 30.7783 71.8433 31.2528C71.8433 31.2528 72.1511 30.8509 72.1885 30.6402C72.2241 30.4277 72.1672 29.9249 72.0995 29.7124C72.0337 29.5017 71.7704 28.8218 71.5498 28.1295V28.1277Z" fill="white"/>
<path d="M70.4643 31.8389C70.6921 31.6441 70.8931 31.3537 70.9572 31.182C71.0194 31.0103 71.0372 30.7588 70.886 30.5676C70.7063 30.3374 70.4786 30.0825 70.4625 29.8718H70.4519C70.4359 30.0807 70.2099 30.3374 70.0302 30.5676C69.879 30.7588 69.8967 31.012 69.9608 31.182C70.0231 31.3537 70.2277 31.6423 70.4554 31.8389H70.4643Z" fill="white"/>
<path d="M71.2952 31.1909C71.4037 31.3077 71.9837 32.0018 72.0638 32.2054C72.1421 32.409 72.2755 32.7915 72.094 33.0571C71.9143 33.3226 71.5016 33.7476 71.1404 33.9282C71.1404 33.9282 71.5318 33.3191 71.4927 32.818C71.4678 32.4993 71.2187 32.2143 71.1706 32.0177C71.1226 31.823 71.1564 31.4954 71.2952 31.1909Z" fill="white"/>
<path d="M72.4321 30.8066C72.3431 30.9306 72.1865 31.228 72.1652 31.5202C72.1438 31.8052 72.1919 32.0372 72.3502 32.4586C72.5477 32.988 72.8555 33.5794 72.9996 33.845C72.9996 33.845 73.2719 33.4572 73.4213 33.1102C73.4213 33.1102 72.9943 32.5294 72.8128 32.1186C72.6011 31.6353 72.5121 31.1873 72.4303 30.8066H72.4321Z" fill="white"/>
<path d="M72.6296 30.5818C72.6296 30.5818 72.8129 31.9469 73.6207 32.9614C74.1669 33.6484 74.6117 33.8857 74.9053 33.8857C75.3501 33.8857 75.7931 33.5174 75.9443 33.0978C76.0938 32.6764 76.0475 32.023 75.7593 31.7929C75.7593 31.7929 75.4924 32.6126 74.9248 32.6427C74.2825 32.6782 73.4552 31.9628 72.6296 30.5836V30.5818Z" fill="white"/>
<path d="M73.2934 30.0117C73.2257 30.256 73.2044 30.6314 73.2934 30.9837C73.361 31.2511 73.5247 31.6034 73.8396 31.7999C74.1136 31.9699 74.7541 32.0106 75.0014 31.4051C75.0014 31.4051 73.8271 31.4936 73.2934 30.0117Z" fill="white"/>
<path d="M70.4589 34.0663C70.6262 33.9866 70.7667 33.9282 70.9571 33.6378C71.1066 33.4094 71.2489 32.988 71.1688 32.6888C71.0692 32.317 70.8664 32.1682 70.7454 31.938C70.6458 32.0301 70.5853 32.1009 70.4625 32.1718H70.4554C70.3344 32.1009 70.2703 32.0301 70.1689 31.938C70.0479 32.17 69.8469 32.3187 69.7472 32.6888C69.669 32.988 69.8095 33.4094 69.959 33.6378C70.1494 33.9282 70.2899 33.9866 70.4572 34.0663H70.4589Z" fill="white"/>
<path d="M70.4589 36.3681C70.539 36.0069 71.3005 35.3075 71.2293 34.9268C71.1243 34.3567 70.756 34.4771 70.4643 34.2363H70.4589C70.1671 34.4771 69.7935 34.3567 69.6903 34.9268C69.6209 35.3075 70.3753 36.0069 70.4571 36.3681H70.4607H70.4589Z" fill="white"/>
<path d="M71.3701 35.5181C71.2082 35.9289 70.6317 36.4477 70.6353 36.7682C70.6442 37.618 71.0178 38.1386 71.1068 38.4183C71.1068 38.4183 71.79 37.8783 71.911 37.2586C71.9715 36.9417 71.9021 35.9891 71.3701 35.5181Z" fill="white"/>
<path d="M72.1332 36.1184C72.0532 35.8988 71.8023 35.2986 71.5105 35.0879C71.5105 35.0879 71.1386 33.9972 72.3343 33.3279C72.3343 33.3279 72.8271 33.9777 72.9588 34.5868C73.0887 35.1977 72.4375 35.566 72.1332 36.1166V36.1184Z" fill="white"/>
<path d="M73.6313 33.3687C73.8217 33.5971 74.0939 33.9175 74.3056 34.0185C74.3056 34.0185 74.375 34.5054 74.3359 34.8276C74.2754 35.3074 73.964 35.7979 73.8341 36.1591C73.8341 36.1591 73.311 35.4792 73.2505 35.079C73.1901 34.6789 73.2007 34.3496 73.1812 34.1583C73.1812 34.1583 73.4729 33.6874 73.6331 33.3687H73.6313Z" fill="white"/>
<path d="M75.0084 35.7005C75.1561 35.4774 75.6383 34.6524 75.6436 34.0521C75.6436 34.0521 75.0529 34.3637 74.5583 34.1353C74.5583 34.1353 74.4925 34.9144 74.5903 35.1782C74.6668 35.3925 74.7682 35.5199 75.0084 35.7005Z" fill="white"/>
<path d="M74.8734 35.867C74.7755 35.7837 74.5406 35.5677 74.4446 35.4544C74.4446 35.4544 74.0531 36.168 73.9873 36.3769C73.9873 36.3769 74.183 36.4265 74.3983 36.2706C74.6136 36.1148 74.6616 36.0759 74.8734 35.867Z" fill="white"/>
<path d="M73.0603 35.4491C73.1084 35.6297 73.7418 36.5044 73.8485 36.6124C73.8485 36.6124 73.8005 36.9293 73.5656 37.3861C73.3308 37.8412 73.007 38.1599 72.8308 38.321C72.8308 38.321 72.4412 37.6428 72.3237 37.3436C72.1921 37.0019 72.2081 36.6655 72.2632 36.5415C72.3949 36.2476 72.8539 35.8227 73.0586 35.4509L73.0603 35.4491Z" fill="white"/>
<path d="M70.4643 40.6263C70.5248 40.3855 70.8895 40.1022 71.0425 39.6861C71.1333 39.44 71.1297 39.1514 71.0301 38.9531C70.9162 38.7247 70.507 38.1634 70.459 38.0005C70.4091 38.1634 70.0035 38.7247 69.8896 38.9531C69.7917 39.1496 69.7864 39.4382 69.8789 39.6861C70.0302 40.1022 70.3949 40.3855 70.4554 40.6263H70.4661H70.4643Z" fill="white"/>
<path d="M72.1083 37.7385C71.9696 38.02 71.5479 38.4821 71.4821 38.8469C71.4305 39.1337 71.4767 39.3692 71.5532 39.5657C71.6315 39.764 71.8859 40.1482 72.0532 40.4404C72.0532 40.4404 72.6297 39.8986 72.756 39.5108C72.8538 39.2187 72.8183 38.8026 72.6795 38.5459C72.5389 38.2873 72.24 38.0058 72.1066 37.7367L72.1083 37.7385Z" fill="white"/>
<path d="M73.7471 37.6605C73.5958 37.9845 73.2382 38.3103 73.1564 38.5954C73.0603 38.9318 73.03 39.146 73.1919 39.5373C73.3361 39.8826 73.5104 40.0827 73.5709 40.2916C73.5709 40.2916 74.0406 39.6878 74.1189 39.4346C74.199 39.1832 74.2221 38.7689 74.126 38.5051C74.0282 38.2413 73.8609 37.8978 73.7453 37.6605H73.7471Z" fill="white"/>
<path d="M70.4591 45.2652C70.4893 44.9695 71.1032 44.0541 71.1334 43.0839C71.1494 42.5987 70.7117 41.8374 70.4644 41.5505H70.452C70.2047 41.8391 69.7705 42.5987 69.7848 43.0839C69.815 44.0559 70.4271 44.9695 70.4573 45.2652H70.4591Z" fill="white"/>
<path d="M71.434 39.9623C71.434 39.9623 72.2418 40.9326 72.224 41.4478C72.2009 42.0888 71.7721 42.5155 71.7116 42.9103C71.7116 42.9103 71.2881 42.434 71.128 42.1135C70.9483 41.7523 70.8095 41.4478 70.8594 41.0406C70.9074 40.6333 71.0159 40.3695 71.4358 39.9623H71.434Z" fill="white"/>
<path d="M72.9215 39.8649C72.7934 40.0508 72.434 40.6847 72.5354 41.0636C72.6386 41.4407 73.0353 41.9737 73.1688 42.2021C73.1688 42.2021 73.4873 41.5488 73.5602 41.2495C73.6314 40.9503 73.5656 40.4652 72.9215 39.8649Z" fill="white"/>
<path d="M71.0123 46.8233C71.0603 46.0691 71.4909 45.6158 71.5656 45.2245C71.6492 44.7942 71.6208 44.3799 71.2845 43.8824C71.0123 44.8102 70.7116 45.4883 70.4767 45.9557C70.4714 45.9681 70.4661 45.9805 70.4589 45.9947C70.4536 45.9805 70.4483 45.9681 70.4429 45.9557C70.2081 45.4883 69.9056 44.8119 69.6352 43.8824C69.2989 44.3799 69.2686 44.7925 69.3523 45.2245C69.4288 45.6176 69.8593 46.0691 69.9056 46.8233C69.9536 47.5794 69.0996 47.868 69.0996 47.868C69.3878 47.9707 69.717 48.0167 70.2365 47.5245C70.3326 47.4342 70.4056 47.3368 70.4589 47.2341C70.5141 47.3368 70.5853 47.4359 70.6813 47.5245C71.2027 48.0149 71.53 47.9689 71.8183 47.868C71.8183 47.868 70.9642 47.5794 71.0123 46.8233Z" fill="white"/>
<path d="M68.3223 41.8037C68.413 42.0852 68.6781 42.6058 68.7119 42.7669C68.776 43.0661 68.6906 43.4291 68.1408 43.8133C68.1408 43.8133 67.7849 43.5672 67.6444 43.2414C67.5127 42.9369 67.591 42.7226 67.7262 42.5651C67.8614 42.4057 68.1835 42.041 68.3205 41.8037H68.3223Z" fill="white"/>
<path d="M69.475 42.9192C69.475 43.0715 69.3611 43.9249 69.1174 44.3498C68.7758 44.9447 68.2705 45.3892 67.831 45.3892C67.4218 45.3892 67.3364 45.1484 67.1335 45.0474C67.1335 45.0474 67.2367 44.5304 67.6958 44.3941C68.2598 44.2277 69.1245 43.5531 69.475 42.9192Z" fill="white"/>
<path d="M68.0036 44.0081C67.9093 43.9355 67.8257 43.8859 67.7118 43.7549C67.7118 43.7549 67.2759 43.916 66.9183 44.155C66.5607 44.3941 66.2084 44.8013 66.0198 45.0155C66.0198 45.0155 66.5571 45.1536 66.8969 44.9996C66.8969 44.9996 67.0215 44.4897 67.4022 44.2613C67.4876 44.2117 67.7545 44.1338 68.0036 44.0063V44.0081Z" fill="white"/>
<path d="M67.5572 43.5707C67.4753 43.4432 67.3045 43.206 67.3419 42.8342C67.3419 42.8342 66.5893 43.3069 66.3615 43.4893C66.1338 43.6717 65.6658 44.155 65.5591 44.3144C65.5591 44.3144 66.1284 44.1922 66.5661 44.0452C67.0465 43.8859 67.3792 43.6717 67.5554 43.569L67.5572 43.5707Z" fill="white"/>
<path d="M66.2814 44.3834C65.8758 44.5268 64.9613 44.6738 64.5805 44.7871C64.1962 44.9004 63.9204 45.097 63.5557 45.4936C63.5557 45.4936 64.1161 45.6494 64.4168 45.7432C64.4168 45.7432 64.8936 45.4192 65.4167 45.2191C65.7566 45.0899 65.922 44.734 66.2832 44.3817L66.2814 44.3834Z" fill="white"/>
<path d="M65.4309 47.0641C65.5181 46.9685 65.6284 46.8569 65.543 46.6321C65.4825 46.4674 65.1516 46.285 64.9523 46.1894C64.625 46.0354 63.7176 45.7928 63.4204 45.7061C63.4204 45.7061 63.2728 45.8778 63.1945 46.0602C63.1589 46.131 63.2051 46.2036 63.3332 46.2248C63.5859 46.2673 64.1944 46.1558 64.3421 46.2496C64.5022 46.3541 64.447 46.494 64.447 46.6303C64.447 46.6303 64.7246 46.4621 64.899 46.501C65.1427 46.5542 65.2904 46.6657 65.4292 47.0641H65.4309Z" fill="white"/>
<path d="M64.623 45.807C64.6889 45.8283 65.0429 45.9363 65.3881 46.154C65.3881 46.154 65.5411 46.0938 65.6159 45.954C65.6888 45.8194 66.0002 45.3626 66.2848 45.3024C66.2848 45.3024 66.0429 45.2794 65.9041 45.2351C65.9041 45.2351 65.6087 45.3112 65.3988 45.3945C65.1888 45.4794 64.9273 45.6087 64.623 45.8052V45.807Z" fill="white"/>
<path d="M66.9664 45.2316C66.9112 45.2581 66.8187 45.3006 66.607 45.3095C66.607 45.3095 65.8063 45.8619 65.7138 46.4108C65.6337 46.8818 65.8828 47.1066 66.002 47.1668C66.1248 47.227 66.6817 47.4554 67.0447 46.7118C67.0447 46.7118 66.4255 46.9136 66.2582 46.6179C66.0892 46.3222 66.3614 45.8902 66.5305 45.7663C66.7511 45.6016 67.1479 45.4901 67.3898 45.5343C67.3898 45.5343 67.1959 45.3502 66.9664 45.2333V45.2316Z" fill="white"/>
<path d="M61.7319 51.5419C61.8298 51.1382 61.9365 50.7115 62.1233 50.3202C62.4845 49.5606 63.3706 47.5333 65.2174 47.1756C65.3918 47.142 65.0181 46.7153 64.8527 46.7365C64.6872 46.7578 64.3581 46.9685 64.2122 47.0641C64.2122 47.0641 64.2122 46.6321 64.2086 46.5542C64.2033 46.4763 64.1357 46.4479 64.0627 46.4515C63.9933 46.4515 63.545 46.4479 63.4044 46.6108C62.9845 47.0942 62.2728 48.4009 61.8707 49.3712C61.4668 50.3414 61.191 50.6371 60.7676 50.4884C60.3423 50.3414 60.0897 49.8563 59.3478 50.0033C59.0933 50.0528 58.8069 50.2246 58.5845 50.4778C58.6467 50.5964 58.725 50.7398 59.072 50.7398C59.4189 50.7398 60.0772 50.885 60.4473 51.14C60.8156 51.3949 61.2035 51.4817 61.7355 51.5383L61.7319 51.5419Z" fill="white"/>
<path d="M69.105 45.2617C69.1459 45.5733 69.2972 45.869 69.4662 46.1735C69.4662 46.1735 68.9039 48.755 66.8703 48.9551C66.8703 48.9551 66.9112 48.4204 67.5144 48.0114C68.1175 47.6041 69.0178 46.972 68.952 46.0124C68.952 46.0124 68.7919 46.046 68.5036 46.4055C68.2136 46.7649 67.5802 47.8042 66.5999 47.8131C66.5999 47.8131 66.744 47.3262 67.1781 47.0446C67.614 46.7649 68.1673 46.4055 68.4164 45.9734C68.6638 45.5414 68.9306 45.3431 69.105 45.2634V45.2617Z" fill="white"/>
<path d="M68.146 54.6652L69.3826 56.3898L70.3202 54.729L69.9875 54.1376C69.7437 54.5749 69.4804 55.0459 69.331 55.3026C69.2171 55.1433 68.9039 54.7077 68.4965 54.1376L68.146 54.667V54.6652Z" fill="white"/>
<path d="M67.8294 53.2063C66.6248 51.526 65.1339 49.4455 64.9844 49.2366L65.4523 48.902L63.9756 48.3407L64.0041 49.9378L64.5022 49.5819L67.4807 53.7374L67.8294 53.208V53.2063Z" fill="white"/>
<path d="M57.6557 43.7691C58.0205 43.3742 58.6379 43.7142 59.2606 44.2861C59.8851 44.8562 60.2783 45.4405 59.9136 45.8353C59.5773 46.2001 58.9315 45.8902 58.3069 45.3201C57.6842 44.75 57.291 44.1639 57.6557 43.7708V43.7691Z" fill="white"/>
<path d="M58.6627 50.7859C58.6431 50.7699 58.6235 50.7522 58.604 50.7363C58.273 50.4477 58.0844 50.0033 58.0844 49.5181C58.0844 48.585 58.8477 47.8254 59.7854 47.8254C60.723 47.8254 61.4845 48.585 61.4845 49.5181C61.4845 49.6438 61.4596 49.851 61.4596 49.851C61.5379 49.7058 61.8172 49.0613 61.8742 48.9445C61.6215 48.0326 60.78 47.3633 59.7854 47.3633C58.9296 47.3633 58.1876 47.8591 57.8371 48.5762C57.9706 47.7228 58.3976 46.9543 58.7 46.671C59.0612 46.3311 59.6768 46.2231 59.6768 46.2231C59.2747 46.2868 58.741 46.0407 58.1467 45.4971C57.5827 44.9801 57.2891 44.5286 57.2731 44.1515C57.3105 44.6844 57.2927 44.9837 57.1414 45.4139C56.9351 46.0053 56.3728 47.0924 56.5721 48.3194C56.6842 48.994 57.1735 49.998 57.9955 50.8177C58.1698 51.0019 58.2374 51.2745 58.257 51.4162C58.257 51.4162 59.4705 51.4162 59.7569 51.441C59.7569 51.441 60.0451 51.4162 60.0398 51.2374C60.0345 51.0585 59.8761 51.0125 59.732 51.0125C59.5879 51.0125 58.9865 51.0267 58.6627 50.7876V50.7859Z" fill="white"/>
<path d="M65.3616 51.1949C64.5823 51.4764 63.8065 51.6234 63.0682 51.7367C62.5878 51.8093 62.1198 51.8341 61.6697 51.8128C61.6768 51.8872 61.6768 51.9863 61.6323 52.0589C61.6323 52.0589 61.7231 52.1634 61.7231 52.2803C62.1803 52.298 62.6554 52.2714 63.1411 52.197C63.9471 52.0749 64.794 51.9102 65.6463 51.5915L65.3616 51.1967V51.1949Z" fill="white"/>
<path d="M66.6391 51.1365C67.6728 50.5734 68.6816 49.7076 69.5908 48.323L69.7545 48.0521C69.5072 48.1619 69.1869 48.0858 69.1869 48.0858C69.1727 48.1088 69.1318 48.1708 69.1122 48.2044C68.2635 49.4527 67.3241 50.237 66.3633 50.7505L66.6408 51.1365H66.6391Z" fill="white"/>
<path d="M59.8229 51.5773C59.6806 51.5543 59.2268 51.5649 58.9546 51.6074C58.6575 51.6534 58.3177 51.7154 58.2821 51.8783C58.2483 52.0341 58.3568 52.1988 58.5063 52.4343C58.6006 52.5795 58.8194 52.4962 58.944 52.4502C59.0685 52.4042 59.766 52.0324 59.878 51.9084C59.9901 51.7862 60.0382 51.6127 59.8229 51.5773Z" fill="white"/>
<path d="M60.5364 52.0377C60.4616 51.9899 60.2784 51.9208 60.0898 51.9916C59.9012 52.0625 59.2126 52.4662 59.1664 52.6556C59.1201 52.8433 59.2144 52.9407 59.3212 52.9832C59.4279 53.0257 59.5578 53.0646 59.6521 53.0735C59.8247 53.0876 59.9937 52.9867 60.0809 52.8805C60.1698 52.7725 60.4919 52.3847 60.5381 52.298C60.5844 52.2112 60.6111 52.0837 60.5381 52.0377H60.5364Z" fill="white"/>
<path d="M60.6199 52.4626C60.5221 52.5742 60.2409 52.9106 60.2089 52.9655C60.1769 53.0204 60.2249 53.1071 60.3139 53.0983C60.3993 53.0894 60.8726 53.0398 61.1466 52.8539C61.4188 52.6698 61.6003 52.3121 61.4135 52.1829C61.2266 52.0519 60.9366 52.1103 60.6199 52.4626Z" fill="white"/>
<path d="M60.773 51.4357C60.684 51.4144 60.3264 51.3224 60.2481 51.441C60.152 51.588 60.2214 51.7455 60.499 51.8783C60.7766 52.0111 61.3014 52.1174 61.4046 51.974C61.5078 51.8288 61.3655 51.5862 60.773 51.4357Z" fill="white"/>
<path d="M72.594 41.8037C72.5033 42.0852 72.2382 42.6058 72.2044 42.7669C72.1403 43.0661 72.2275 43.4291 72.7755 43.8133C72.7755 43.8133 73.1313 43.5672 73.2719 43.2414C73.4036 42.9369 73.3253 42.7226 73.1883 42.5651C73.0513 42.4057 72.731 42.041 72.594 41.8037Z" fill="white"/>
<path d="M71.4412 42.9192C71.4412 43.0715 71.555 43.9249 71.8006 44.3498C72.1422 44.9447 72.6457 45.3892 73.0869 45.3892C73.4962 45.3892 73.5816 45.1484 73.7844 45.0474C73.7844 45.0474 73.6812 44.5304 73.2222 44.3941C72.6599 44.2277 71.7952 43.5531 71.4429 42.9192H71.4412Z" fill="white"/>
<path d="M72.9127 44.0081C73.0087 43.9355 73.0888 43.8859 73.2045 43.7549C73.2045 43.7549 73.6404 43.916 73.9962 44.155C74.3538 44.3941 74.7061 44.8013 74.8947 45.0155C74.8947 45.0155 74.3592 45.1536 74.0176 44.9996C74.0176 44.9996 73.893 44.4897 73.5105 44.2613C73.4269 44.2117 73.16 44.1338 72.9109 44.0063L72.9127 44.0081Z" fill="white"/>
<path d="M73.3591 43.5707C73.441 43.4432 73.6118 43.206 73.5744 42.8342C73.5744 42.8342 74.3288 43.3069 74.5548 43.4893C74.7825 43.6717 75.2522 44.155 75.3572 44.3144C75.3572 44.3144 74.7861 44.1922 74.3484 44.0452C73.8662 43.8859 73.5371 43.6717 73.3591 43.569V43.5707Z" fill="white"/>
<path d="M74.6367 44.3834C75.0424 44.5268 75.9551 44.6738 76.3377 44.7871C76.7202 44.9004 76.9978 45.097 77.3643 45.4936C77.3643 45.4936 76.8038 45.6494 76.5031 45.7432C76.5031 45.7432 76.0263 45.4192 75.5032 45.2191C75.1634 45.0899 74.9997 44.734 74.6367 44.3817V44.3834Z" fill="white"/>
<path d="M75.4854 47.0641C75.4 46.9685 75.2897 46.8569 75.3733 46.6321C75.4338 46.4674 75.7647 46.285 75.9658 46.1894C76.2931 46.0354 77.2023 45.7928 77.4959 45.7061C77.4959 45.7061 77.6436 45.8778 77.7219 46.0602C77.7574 46.131 77.7112 46.2036 77.5831 46.2248C77.3304 46.2673 76.7202 46.1558 76.5743 46.2496C76.4141 46.3541 76.4693 46.494 76.4693 46.6303C76.4693 46.6303 76.1917 46.4621 76.0156 46.501C75.7718 46.5542 75.6242 46.6657 75.4854 47.0641Z" fill="white"/>
<path d="M76.2949 45.807C76.2291 45.8283 75.875 45.9363 75.5281 46.154C75.5281 46.154 75.3751 46.0938 75.3003 45.954C75.2274 45.8194 74.916 45.3626 74.6313 45.3024C74.6313 45.3024 74.8715 45.2794 75.0121 45.2351C75.0121 45.2351 75.3074 45.3112 75.5174 45.3945C75.7273 45.4794 75.9889 45.6087 76.2931 45.8052L76.2949 45.807Z" fill="white"/>
<path d="M73.9515 45.2316C74.0067 45.2581 74.0974 45.3006 74.3092 45.3095C74.3092 45.3095 75.1098 45.8619 75.2041 46.4108C75.2842 46.8818 75.0369 47.1066 74.9159 47.1668C74.7931 47.227 74.2362 47.4554 73.875 46.7118C73.875 46.7118 74.4924 46.9136 74.6614 46.6179C74.8305 46.3222 74.5582 45.8902 74.3892 45.7663C74.1686 45.6016 73.7718 45.4901 73.5281 45.5343C73.5281 45.5343 73.722 45.3502 73.9533 45.2333L73.9515 45.2316Z" fill="white"/>
<path d="M79.1843 51.5419C79.0864 51.1382 78.9797 50.7115 78.7929 50.3202C78.4335 49.5606 77.5474 47.5333 75.7006 47.1756C75.5262 47.142 75.8999 46.7153 76.0635 46.7365C76.2308 46.7578 76.5599 46.9685 76.7058 47.0641C76.7058 47.0641 76.7058 46.6321 76.7094 46.5542C76.713 46.4763 76.7824 46.4479 76.8553 46.4515C76.9265 46.4515 77.373 46.4479 77.5136 46.6108C77.9353 47.0942 78.6452 48.4009 79.0473 49.3712C79.4512 50.3414 79.727 50.6371 80.1504 50.4884C80.5757 50.3414 80.8301 49.8563 81.5702 50.0033C81.8265 50.0528 82.1093 50.2246 82.3335 50.4778C82.2713 50.5964 82.193 50.7398 81.8478 50.7398C81.5026 50.7398 80.8408 50.885 80.4725 51.14C80.1042 51.3949 79.7163 51.4817 79.1843 51.5383V51.5419Z" fill="white"/>
<path d="M71.8111 45.2617C71.772 45.5733 71.619 45.869 71.45 46.1735C71.45 46.1735 72.0122 48.755 74.0441 48.9551C74.0441 48.9551 74.0031 48.4204 73.4018 48.0114C72.7986 47.6041 71.8983 46.972 71.9624 46.0124C71.9624 46.0124 72.1225 46.046 72.4125 46.4055C72.7025 46.7649 73.3359 47.8042 74.3163 47.8131C74.3163 47.8131 74.1722 47.3262 73.738 47.0446C73.3039 46.7649 72.7488 46.4055 72.5015 45.9734C72.2506 45.5414 71.9873 45.3431 71.8094 45.2634L71.8111 45.2617Z" fill="white"/>
<path d="M70.4627 47.7653C70.5801 48.1105 71.3505 49.1888 71.6868 49.4969C72.0231 49.805 72.8451 50.6212 73.281 51.0302C73.281 51.0302 72.0337 50.7221 71.3327 50.0883C71.3327 50.0883 70.8328 50.3786 70.468 50.3786H70.4484C70.0837 50.3786 69.5855 50.0883 69.5855 50.0883C68.8845 50.7221 67.6355 51.0302 67.6355 51.0302C68.0732 50.6212 68.8934 49.805 69.2297 49.4969C69.566 49.1888 70.3364 48.1105 70.4556 47.7653H70.4627Z" fill="white"/>
<path d="M70.4661 50.6301C70.7419 50.6301 71.0052 50.5203 71.1493 50.4583C71.0052 50.7664 70.7241 51.2462 70.4607 51.4463H70.4554C70.1903 51.2462 69.9127 50.7664 69.7668 50.4583C69.9127 50.5221 70.1725 50.6301 70.4483 50.6301H70.4661Z" fill="white"/>
<path d="M71.5337 56.388L76.4159 49.5801L76.9141 49.936L76.9425 48.3389L75.4658 48.9002L75.9337 49.2348C75.6953 49.5695 72.0443 54.6599 71.5853 55.3009L69.3737 51.3153L69.1015 51.7278L67.1337 54.6865L66.6426 54.3589L66.6355 55.933L68.1283 55.3434L67.6283 55.014C67.8987 54.6068 68.9663 53.0026 69.3239 52.4662L71.5355 56.388H71.5337Z" fill="white"/>
<path d="M72.4251 53.7144C72.096 53.2205 71.7633 52.7229 71.596 52.4662C71.4715 52.6946 71.2206 53.1425 70.9413 53.6383L70.5925 53.0168L71.5426 51.3153L71.8166 51.7279L72.7952 53.1992L72.4251 53.7144Z" fill="white"/>
<path d="M73.4303 54.157L73.7826 54.6864L74.2754 54.3589L74.2843 55.9329L72.7898 55.3433L73.288 55.014C73.2382 54.9379 73.1581 54.8157 73.0602 54.6705L73.4303 54.1553V54.157Z" fill="white"/>
<path d="M83.2622 43.7691C82.8957 43.3742 82.2801 43.7142 81.6556 44.2861C81.0311 44.8562 80.6396 45.4405 81.0026 45.8353C81.3389 46.2001 81.9847 45.8902 82.6092 45.3201C83.232 44.75 83.6252 44.1639 83.2622 43.7708V43.7691Z" fill="white"/>
<path d="M82.2554 50.7859C82.2767 50.7699 82.2945 50.7522 82.3123 50.7363C82.6432 50.4477 82.8336 50.0033 82.8336 49.5181C82.8336 48.585 82.0703 47.8254 81.1327 47.8254C80.195 47.8254 79.4335 48.585 79.4335 49.5181C79.4335 49.6438 79.4584 49.851 79.4584 49.851C79.3837 49.7058 79.1026 49.0613 79.0457 48.9445C79.2983 48.0326 80.1381 47.3633 81.1327 47.3633C81.9903 47.3633 82.7304 47.8591 83.0827 48.5762C82.9493 47.7228 82.5205 46.9543 82.2198 46.671C81.8586 46.3311 81.2412 46.2231 81.2412 46.2231C81.6451 46.2868 82.1771 46.0407 82.7731 45.4971C83.3389 44.9801 83.6307 44.5286 83.6467 44.1515C83.6111 44.6844 83.6271 44.9837 83.7784 45.4139C83.9848 46.0053 84.5452 47.0924 84.346 48.3194C84.2356 48.994 83.7446 49.998 82.9244 50.8177C82.7482 51.0019 82.6824 51.2745 82.6628 51.4162C82.6628 51.4162 81.4512 51.4162 81.1629 51.441C81.1629 51.441 80.8747 51.4162 80.88 51.2374C80.8854 51.0585 81.0455 51.0125 81.1878 51.0125C81.3302 51.0125 81.9333 51.0267 82.2571 50.7876L82.2554 50.7859Z" fill="white"/>
<path d="M74.2754 51.1347C73.2435 50.5717 72.2364 49.7058 71.3255 48.323L71.1636 48.0521C71.4109 48.1619 71.7311 48.0858 71.7311 48.0858C71.7454 48.1088 71.7845 48.1708 71.8059 48.2044C72.6528 49.4509 73.5922 50.237 74.553 50.7505L74.2754 51.1347Z" fill="white"/>
<path d="M75.5511 51.1949C76.3321 51.4782 77.1097 51.6251 77.848 51.7385C78.3267 51.811 78.7981 51.8358 79.2483 51.8146C79.2412 51.889 79.243 51.9881 79.2857 52.0607C79.2857 52.0607 79.1949 52.1652 79.1949 52.282C78.7359 52.2997 78.2626 52.2732 77.7769 52.1988C76.9727 52.0766 76.1222 51.912 75.2717 51.5915L75.5511 51.1967V51.1949Z" fill="white"/>
<path d="M81.0934 51.5773C81.2357 51.5543 81.6894 51.5649 81.9617 51.6074C82.2588 51.6534 82.5986 51.7154 82.6342 51.8783C82.6698 52.0341 82.5613 52.1988 82.4082 52.4343C82.3139 52.5795 82.0933 52.4962 81.9706 52.4502C81.8478 52.4042 81.1503 52.0324 81.0365 51.9084C80.9244 51.7862 80.8781 51.6127 81.0934 51.5773Z" fill="white"/>
<path d="M80.38 52.0377C80.4565 51.9899 80.638 51.9208 80.8283 51.9916C81.0169 52.0625 81.7055 52.4662 81.7517 52.6556C81.798 52.8433 81.7037 52.9407 81.597 52.9832C81.4902 53.0257 81.3585 53.0646 81.266 53.0735C81.0952 53.0876 80.9244 52.9867 80.8372 52.8805C80.7501 52.7725 80.428 52.3847 80.38 52.298C80.3337 52.2112 80.3106 52.0837 80.38 52.0377Z" fill="white"/>
<path d="M80.2964 52.4626C80.3961 52.5742 80.6736 52.9106 80.7074 52.9655C80.7395 53.0204 80.6914 53.1071 80.6042 53.0983C80.5171 53.0894 80.0438 53.0398 79.7716 52.8539C79.4993 52.6698 79.3161 52.3121 79.5047 52.1829C79.6915 52.0519 79.9815 52.1103 80.2964 52.4626Z" fill="white"/>
<path d="M80.1432 51.4357C80.2322 51.4144 80.5916 51.3224 80.6699 51.441C80.7677 51.588 80.6983 51.7455 80.4208 51.8783C80.1414 52.0111 79.6183 52.1174 79.5134 51.974C79.4102 51.8288 79.5543 51.5862 80.1432 51.4357Z" fill="white"/>
</svg>
