<svg width="140" height="140" viewBox="0 0 140 140" fill="none" xmlns="http://www.w3.org/2000/svg">
<g clip-path="url(#clip0_569_346)">
<rect width="140" height="140" rx="30" fill="#632396"/>
<g filter="url(#filter0_f_569_346)">
<ellipse cx="3" cy="77.5" rx="24" ry="49.5" fill="#2BA576"/>
</g>
<g filter="url(#filter1_f_569_346)">
<circle cx="35.5" cy="15.5" r="32.5" fill="#403E9B"/>
</g>
<g clip-path="url(#clip1_569_346)">
<path d="M22.3648 58C18.3041 58 15 61.3157 15 65.3918C15 69.4679 18.3041 72.7825 22.3648 72.7825C26.4255 72.7825 29.7308 69.4667 29.7308 65.3918C29.7308 64.949 29.6922 64.5153 29.6162 64.0942L27.916 65.2461C27.9148 65.2313 27.9137 65.2154 27.9126 65.2006C27.9148 65.2643 27.916 65.3281 27.916 65.3918C27.916 68.4628 25.4262 70.9613 22.3648 70.9613C19.3034 70.9613 16.8148 68.4628 16.8148 65.3918C16.8148 62.3208 19.3046 59.8212 22.3648 59.8212C23.5467 59.8212 24.6413 60.1934 25.5419 60.8263L27.0165 59.6949C25.6554 58.6147 24.0787 58.1218 22.3648 58Z" fill="white"/>
<path d="M19.6008 63.6947C20.4492 64.2206 21.2262 64.6804 21.9771 65.1801C22.2743 65.3782 22.4739 65.3531 22.7529 65.1448C24.3647 63.944 25.9913 62.7625 27.6133 61.5764C27.7834 61.4524 27.9547 61.3317 28.1906 61.1621C28.4776 61.6277 28.7464 62.0636 29.0334 62.5291C28.81 62.6953 28.6319 62.8296 28.4515 62.9617C26.5448 64.3583 24.6336 65.7493 22.7348 67.1573C22.4739 67.3508 22.2868 67.3918 21.9975 67.1971C21.3056 66.7304 20.591 66.2979 19.8753 65.8699C19.6643 65.7436 19.5883 65.599 19.5963 65.3577C19.6121 64.8352 19.6008 64.3116 19.6008 63.6947Z" fill="white"/>
<path d="M34.0159 64.7725C34.0159 64.225 34.1192 63.6877 34.3267 63.1619C34.5332 62.636 34.8372 62.1556 35.2376 61.722C35.6379 61.2883 36.1234 60.9434 36.694 60.6862C37.2645 60.4289 37.9144 60.3003 38.6438 60.3003C39.516 60.3003 40.2646 60.4836 40.8896 60.8501C41.5146 61.2166 41.9797 61.6867 42.2859 62.2592L41.0983 63.0048C40.9271 62.6428 40.7047 62.356 40.4303 62.1454C40.1558 61.9348 39.8574 61.788 39.533 61.7038C39.2098 61.6195 38.8944 61.5774 38.5882 61.5774C38.0937 61.5774 37.657 61.6719 37.2792 61.862C36.9015 62.0521 36.5851 62.3025 36.3287 62.6132C36.0724 62.9251 35.8807 63.2745 35.7559 63.6615C35.63 64.0486 35.5665 64.4367 35.5665 64.8237C35.5665 65.2619 35.6402 65.6785 35.7888 66.0746C35.9374 66.4707 36.1484 66.8225 36.4229 67.1298C36.6974 67.4371 37.0206 67.6796 37.3938 67.856C37.767 68.0324 38.1787 68.1212 38.6279 68.1212C38.9421 68.1212 39.2665 68.0711 39.5988 67.9698C39.9312 67.8685 40.2397 67.7092 40.5233 67.4895C40.8068 67.2709 41.0291 66.9921 41.1913 66.6551L42.4459 67.3119C42.2564 67.7581 41.9536 68.1371 41.535 68.449C41.1165 68.7609 40.6469 68.9965 40.1251 69.157C39.6034 69.3175 39.0861 69.3972 38.5734 69.3972C37.9167 69.3972 37.3099 69.264 36.7518 68.9988C36.1937 68.7336 35.7105 68.3796 35.3011 67.9379C34.8916 67.4963 34.5751 66.9989 34.3506 66.4468C34.126 65.8948 34.0137 65.337 34.0137 64.7725H34.0159Z" fill="white"/>
<path d="M50.5673 64.8102C50.0365 64.3469 49.2414 64.1158 48.1797 64.1158H45.3746V61.6015H49.3775L50.5945 60.363H43.8638V69.3336H48.275C48.9578 69.3336 49.5272 69.2186 49.9809 68.9864C50.4346 68.7542 50.7794 68.4389 51.0131 68.0383C51.2468 67.6387 51.3636 67.1823 51.3636 66.6678C51.3636 65.8927 51.0982 65.2734 50.5673 64.8102ZM49.6304 67.3314C49.5181 67.5545 49.3332 67.7378 49.0769 67.8812C48.8205 68.0246 48.4859 68.0952 48.0719 68.0952H45.3746V65.2404H48.0322C48.4995 65.2404 48.8591 65.3053 49.1109 65.4362C49.3627 65.5671 49.5408 65.7367 49.644 65.9473C49.7472 66.1579 49.7994 66.3855 49.7994 66.6302C49.7994 66.875 49.7427 67.1083 49.6304 67.3314Z" fill="white"/>
<path d="M54.3047 68.0826V65.3417H58.5809V64.1785H54.3047V61.614H57.982L59.2286 60.363H52.7803V69.3336H59.35V68.0826H54.3047Z" fill="white"/>
<path d="M60.9141 69.3336V60.363H64.9339C65.3661 60.363 65.7608 60.4473 66.1215 60.6157C66.4811 60.7842 66.7964 61.0073 67.0664 61.285C67.3363 61.5628 67.5428 61.8769 67.6868 62.2264C67.8309 62.5758 67.9023 62.9275 67.9023 63.2815C67.9023 63.7789 67.7832 64.2502 67.545 64.6964C67.3068 65.1425 66.9722 65.5068 66.5401 65.7891C66.1079 66.0714 65.5997 66.2125 65.0156 66.2125H62.4385V69.3336H60.9141ZM62.4385 64.9616H64.9203C65.1993 64.9616 65.4466 64.8876 65.6621 64.7407C65.8776 64.5939 66.0489 64.3913 66.1748 64.1341C66.3007 63.8768 66.3642 63.5888 66.3642 63.269C66.3642 62.9491 66.2928 62.6521 66.1487 62.4039C66.0047 62.1558 65.8187 61.9611 65.5884 61.8223C65.3593 61.6834 65.1143 61.614 64.8534 61.614H62.4385V64.9627V64.9616Z" fill="white"/>
<path d="M41.971 82.0001V75.6065L39.1625 80.4578H38.2755L35.467 75.6065V82.0001H33.9482V73.0295H35.56L38.7179 78.5L41.8757 73.0295H43.4875V82.0001H41.9687H41.971Z" fill="white"/>
<path d="M51.3633 80.7492V82.0001H45.6387V73.0295H51.2579V74.2805H46.9669V76.845H50.6941V78.0071H46.9669V80.7492H51.3633Z" fill="white"/>
<path d="M52.8462 82.0001V73.0295H58.5436V74.2805H54.3514V82.0001H52.8462Z" fill="white"/>
<path d="M61.7881 73.0295H63.2128L66.9207 82.0001H65.335L64.4026 79.562H60.5881L59.6511 82.0001H58.0654L61.787 73.0295H61.7881ZM64.0022 78.5125L62.5004 74.5833L60.9907 78.5125H64.0022Z" fill="white"/>
<path d="M79.4802 82.0001V75.6065L76.6718 80.4578H75.7848L72.9763 75.6065V82.0001H71.4575V73.0295H73.0693L76.2271 78.5L79.385 73.0295H80.9968V82.0001H79.478H79.4802Z" fill="white"/>
<path d="M85.9024 73.0295H87.327L91.035 82.0001H89.4492L88.5169 79.562H84.7023L83.7654 82.0001H82.1797L85.9012 73.0295H85.9024ZM88.1165 78.5125L86.6147 74.5833L85.105 78.5125H88.1165Z" fill="white"/>
<path d="M92.2178 82.0001V73.0295H96.2217C96.6516 73.0295 97.0452 73.1138 97.4037 73.2822C97.7621 73.4507 98.0751 73.6738 98.344 73.9515C98.6128 74.2293 98.8192 74.5434 98.9621 74.8929C99.1051 75.2423 99.1765 75.594 99.1765 75.948C99.1765 76.4454 99.0574 76.9167 98.8204 77.3629C98.5833 77.8091 98.2498 78.1733 97.8188 78.4556C97.3889 78.7379 96.883 78.879 96.3 78.879H93.7331V82.0001H92.2144H92.2178ZM93.7365 77.6281H96.2093C96.4872 77.6281 96.7333 77.5541 96.9488 77.4073C97.1632 77.2604 97.3333 77.0578 97.4592 76.8006C97.5851 76.5433 97.6475 76.2553 97.6475 75.9355C97.6475 75.6156 97.5761 75.3186 97.4331 75.0704C97.2902 74.8223 97.1042 74.6276 96.8751 74.4888C96.6471 74.3499 96.4021 74.2805 96.1423 74.2805H93.7377V77.6292L93.7365 77.6281Z" fill="white"/>
<path d="M100.602 82.0001V73.0295H102.107V76.7824H103.222L106.231 73.0295H107.924L104.431 77.3754L108.193 82.0001H106.352L103.222 78.0709H102.107V82.0001H100.602Z" fill="white"/>
<path d="M116.12 80.7492V82.0001H109.577V73.0295H115.999V74.2805H111.094V76.845H115.354V78.0071H111.094V80.7492H116.119H116.12Z" fill="white"/>
<path d="M125.133 74.2805H121.961V82.0001H120.443V74.2805H117.259V73.0295H125.133V74.2805Z" fill="white"/>
</g>
<g filter="url(#filter2_f_569_346)">
<circle cx="125" cy="14" r="44" fill="url(#paint0_radial_569_346)"/>
</g>
<g opacity="0.65" filter="url(#filter3_f_569_346)">
<circle cx="137" cy="2" r="32" fill="#FFC700"/>
</g>
</g>
<defs>
<filter id="filter0_f_569_346" x="-46" y="3" width="98" height="149" filterUnits="userSpaceOnUse" color-interpolation-filters="sRGB">
<feFlood flood-opacity="0" result="BackgroundImageFix"/>
<feBlend mode="normal" in="SourceGraphic" in2="BackgroundImageFix" result="shape"/>
<feGaussianBlur stdDeviation="12.5" result="effect1_foregroundBlur_569_346"/>
</filter>
<filter id="filter1_f_569_346" x="-31.8" y="-51.8" width="134.6" height="134.6" filterUnits="userSpaceOnUse" color-interpolation-filters="sRGB">
<feFlood flood-opacity="0" result="BackgroundImageFix"/>
<feBlend mode="normal" in="SourceGraphic" in2="BackgroundImageFix" result="shape"/>
<feGaussianBlur stdDeviation="17.4" result="effect1_foregroundBlur_569_346"/>
</filter>
<filter id="filter2_f_569_346" x="38.7" y="-72.3" width="172.6" height="172.6" filterUnits="userSpaceOnUse" color-interpolation-filters="sRGB">
<feFlood flood-opacity="0" result="BackgroundImageFix"/>
<feBlend mode="normal" in="SourceGraphic" in2="BackgroundImageFix" result="shape"/>
<feGaussianBlur stdDeviation="21.15" result="effect1_foregroundBlur_569_346"/>
</filter>
<filter id="filter3_f_569_346" x="67.1" y="-67.9" width="139.8" height="139.8" filterUnits="userSpaceOnUse" color-interpolation-filters="sRGB">
<feFlood flood-opacity="0" result="BackgroundImageFix"/>
<feBlend mode="normal" in="SourceGraphic" in2="BackgroundImageFix" result="shape"/>
<feGaussianBlur stdDeviation="18.95" result="effect1_foregroundBlur_569_346"/>
</filter>
<radialGradient id="paint0_radial_569_346" cx="0" cy="0" r="1" gradientUnits="userSpaceOnUse" gradientTransform="translate(125 14) rotate(90) scale(44)">
<stop stop-color="#FF9D00"/>
<stop offset="1" stop-color="#B4364B"/>
</radialGradient>
<clipPath id="clip0_569_346">
<rect width="140" height="140" rx="30" fill="white"/>
</clipPath>
<clipPath id="clip1_569_346">
<rect width="110.133" height="24" fill="white" transform="translate(15 58)"/>
</clipPath>
</defs>
</svg>
