<svg width="140" height="140" viewBox="0 0 140 140" fill="none" xmlns="http://www.w3.org/2000/svg">
<rect width="140" height="140" rx="30" fill="#FF8001"/>
<g clip-path="url(#clip0_2354_16)">
<path d="M25.6474 70.2047C26.2236 70.8997 26.8949 71.4952 27.2986 72.2337C28.7511 74.8955 27.8736 78.4861 24.9411 80.0116C23.6249 80.6966 22.2437 80.8222 20.7924 80.7961C18.4625 80.7538 16.13 80.7936 13.7988 80.811C13.2475 80.8147 13.01 80.6208 13.0013 80.0451C12.995 79.6112 13.0163 79.1761 13.0163 78.741C13.0175 73.0269 13.0175 67.3116 13.0188 61.5976C13.0188 60.7074 13.14 60.5943 14.02 60.5943C16.3512 60.5943 18.6837 60.5694 21.0149 60.598C22.5437 60.6166 23.9537 61.0157 25.1736 62.0091C26.9499 63.455 27.4761 65.3112 27.1336 67.4944C26.9599 68.6009 26.3561 69.4712 25.6461 70.2059L25.6474 70.2047ZM19.6499 76.9357C19.6524 76.9656 19.6562 76.9942 19.6587 77.024C20.5199 76.9308 21.3987 76.9158 22.2374 76.7231C23.2962 76.4807 23.8662 75.644 23.8299 74.6419C23.7899 73.5441 23.0974 72.5893 22.0324 72.5035C20.6087 72.3891 19.1687 72.4612 17.7362 72.4662C17.3875 72.4662 17.23 72.6626 17.235 73.0269C17.2487 74.1446 17.2512 75.2611 17.2325 76.3788C17.225 76.8251 17.4287 76.9531 17.84 76.9407C18.4425 76.9221 19.0462 76.9357 19.6499 76.9357ZM19.5662 64.5541V64.564C18.9625 64.564 18.36 64.5715 17.7562 64.5615C17.3875 64.5553 17.23 64.7157 17.235 65.0824C17.2487 66.0758 17.2675 67.0692 17.2425 68.0613C17.2312 68.5101 17.445 68.6593 17.8325 68.6581C18.9975 68.6531 20.1624 68.6581 21.3249 68.6158C21.9399 68.5934 22.3874 68.2391 22.7399 67.7393C23.7637 66.2859 22.4012 64.3265 20.8112 64.5466C20.4024 64.6025 19.9799 64.5553 19.5637 64.5553L19.5662 64.5541Z" fill="white"/>
<path d="M55.8932 73.4223C55.552 73.4037 55.3107 73.38 55.0682 73.38C53.7145 73.3776 52.3595 73.385 51.0058 73.38C50.0533 73.3776 50.002 73.3241 50.0045 72.4066C50.007 71.7016 50.0258 70.9979 50.0195 70.293C50.0158 69.8517 50.2183 69.6378 50.6558 69.6378C53.5933 69.6453 56.5307 69.6552 59.4694 69.6614C59.9094 69.6614 60.1007 69.8852 60.1219 70.3142C60.2682 73.2744 59.6769 76.0071 57.5457 78.2163C56.3382 79.4671 54.8432 80.2764 53.1345 80.6519C49.5695 81.4339 46.2483 80.9441 43.3796 78.5744C40.8421 76.4783 39.6309 73.7592 39.6972 70.4509C39.7634 67.0904 41.0471 64.3266 43.6959 62.2653C46.9258 59.7514 50.5258 59.3933 54.2882 60.8728C55.8057 61.4696 57.0857 62.4953 58.152 63.7435C58.8469 64.5578 58.7907 64.8537 57.8645 65.4207C57.2445 65.7999 56.6207 66.1716 55.9895 66.5297C55.5807 66.7621 55.2507 66.7311 54.907 66.322C53.3858 64.5044 51.3845 63.7497 49.0733 64.1401C47.1521 64.4646 45.6558 65.5524 44.6309 67.2532C43.7846 68.6581 43.6271 70.1749 43.8184 71.7427C44.1146 74.1708 46.4446 76.3614 48.8721 76.7704C50.4745 77.0402 51.9808 76.9271 53.417 76.2271C54.5657 75.6677 55.422 74.7899 55.8957 73.4211L55.8932 73.4223Z" fill="white"/>
<path d="M114.53 68.8259C114.53 69.6191 114.53 70.2333 114.53 70.8475C114.53 73.8089 114.531 76.7716 114.529 79.7331C114.529 80.6121 114.396 80.7401 113.515 80.7414C112.703 80.7414 111.89 80.7277 111.079 80.7339C110.581 80.7376 110.371 80.5188 110.371 80.0178C110.381 73.7629 110.386 67.5068 110.378 61.2519C110.378 60.7024 110.566 60.4264 111.134 60.4575C111.155 60.4575 111.175 60.4575 111.196 60.4575C113.575 60.3879 113.705 60.5035 115.178 62.7252C116.29 64.4048 117.514 66.0124 118.664 67.6697C119.638 69.0733 120.576 70.5018 121.533 71.9191C121.575 71.9826 121.631 72.0385 121.791 72.23C121.791 71.7874 121.791 71.489 121.791 71.1906C121.789 67.9593 121.786 64.7281 121.786 61.4968C121.786 60.5383 121.866 60.4612 122.81 60.4736C123.643 60.4848 124.475 60.5047 125.308 60.5072C125.774 60.5072 125.97 60.6999 125.971 61.1823C125.974 67.1885 125.991 73.1947 126.003 79.201C126.005 80.7401 125.988 80.6332 124.503 80.7737C123.101 80.9067 122.394 80.2863 121.7 79.1835C120.418 77.1446 118.964 75.2126 117.586 73.2333C116.599 71.8147 115.616 70.3912 114.533 68.8259H114.53Z" fill="white"/>
<path d="M96.7703 80.9987C91.1504 81.0298 86.6354 76.4621 86.5017 70.85C86.3529 64.5727 91.3329 60.046 96.8315 60.0161C102.511 59.9851 107.158 64.7231 107.201 70.4459C107.245 76.1425 102.613 81.1044 96.7703 80.9987ZM103.024 70.6946C103.17 66.92 100.104 64.1687 96.8565 64.1823C93.4141 64.196 90.6604 66.8616 90.6141 70.4098C90.5679 74.0153 93.3903 76.8425 96.8228 76.8375C100.27 76.8326 103.094 73.8723 103.025 70.6958L103.024 70.6946Z" fill="white"/>
<path d="M64.0294 70.6983C64.0294 67.6946 64.0257 64.6921 64.0319 61.6883C64.0332 60.7037 64.1732 60.5818 65.1569 60.5893C65.8644 60.5943 66.5732 60.5918 67.2807 60.593C68.1669 60.593 68.2544 60.6751 68.2544 61.5441C68.2556 65.9353 68.2544 70.3266 68.2544 74.7178C68.2544 75.1529 68.2981 75.5918 68.2544 76.022C68.1931 76.6212 68.4731 76.7617 69.0131 76.7592C70.9906 76.7505 72.9693 76.7667 74.9468 76.7841C75.7043 76.7903 75.8018 76.8985 75.8056 77.6581C75.8106 78.4451 75.8093 79.2321 75.8056 80.0191C75.8031 80.7451 75.6893 80.8583 74.9843 80.857C72.2769 80.8496 69.5706 80.8409 66.8632 80.8334C66.2382 80.8321 65.6132 80.8421 64.9894 80.8396C64.2082 80.8359 64.0232 80.6519 64.0232 79.8947C64.0232 76.8288 64.0232 73.7642 64.0232 70.6983H64.0294Z" fill="white"/>
<path d="M78.9643 70.7082C78.9643 67.6622 78.9643 64.6162 78.9643 61.5702C78.9643 60.6639 79.0405 60.5943 79.9755 60.5955C80.8093 60.5955 81.643 60.6117 82.4755 60.5906C82.9667 60.5781 83.1567 60.8168 83.1592 61.2644C83.163 61.7617 83.1592 62.259 83.1605 62.7563C83.1655 68.5164 83.1667 74.2777 83.1805 80.0377C83.1805 80.5263 82.988 80.7874 82.4955 80.7949C81.498 80.811 80.4993 80.8309 79.5018 80.8222C79.0405 80.8185 78.9355 80.4965 78.9368 80.0937C78.9418 76.9656 78.9393 73.8363 78.9393 70.7082H78.9668H78.9643Z" fill="white"/>
<path d="M31.7148 70.7132C31.7148 67.6473 31.7148 64.5814 31.7148 61.5143C31.7148 60.69 31.8085 60.6017 32.661 60.5968C33.4735 60.593 34.286 60.6055 35.0972 60.5818C35.6235 60.5669 35.8672 60.8056 35.8835 61.3079C35.8985 61.7629 35.9147 62.2192 35.9147 62.6743C35.9172 68.2267 35.9172 73.7791 35.9147 79.3303C35.9147 80.7787 35.9122 80.775 34.4872 80.7812C33.8635 80.7837 33.2398 80.8073 32.6148 80.8247C31.9023 80.8446 31.7185 80.683 31.7173 79.9718C31.7123 76.8848 31.7148 73.7977 31.7148 70.7107H31.7123L31.7148 70.7132Z" fill="white"/>
</g>
<defs>
<clipPath id="clip0_2354_16">
<rect width="113" height="21" fill="white" transform="translate(13 60)"/>
</clipPath>
</defs>
</svg>
