<svg width="140" height="140" viewBox="0 0 140 140" fill="none" xmlns="http://www.w3.org/2000/svg">
<rect width="140" height="140" rx="30" fill="#0F583D"/>
<path d="M88.4951 93.0569C88.5391 94.6219 88.3682 96.1637 87.9629 97.6738C87.3306 100.032 86.2882 102.198 84.7807 104.12C84.0068 105.106 83.2133 106.087 82.1953 106.847C81.7534 107.176 81.3237 107.534 80.7598 107.655C80.1531 107.784 79.6954 107.596 79.3231 107.102C78.9215 106.57 78.6151 105.986 78.2916 105.409C77.7435 104.428 77.1686 103.464 76.6095 102.491C75.6159 100.76 74.6296 99.0264 73.636 97.2954C72.9658 96.1295 72.2591 94.982 71.6219 93.7991C70.6856 92.0619 69.6798 90.3663 68.7155 88.6462C67.6645 86.7748 66.6086 84.9058 65.5259 83.0526C64.6714 81.5914 63.889 80.0886 62.9967 78.6493C62.1593 77.3003 61.4489 75.8781 60.5822 74.5438C60.1562 73.8871 59.8181 73.1607 59.4165 72.4795C58.6218 71.1293 57.7979 69.795 57.0252 68.4326C56.6431 67.7588 56.189 67.1252 55.8363 66.4416C55.1502 65.1109 54.3422 63.8535 53.6061 62.5534C52.3317 60.3011 51.0073 58.0768 49.656 55.8697C48.9175 54.6623 48.3096 53.3915 47.8116 52.0633C47.2843 50.6582 46.9986 49.2067 46.8314 47.7222C46.6056 45.7177 46.7582 43.7352 47.0987 41.7551C47.2355 40.9543 47.454 40.1693 47.7371 39.4283C48.45 37.5617 49.4168 35.8185 50.7156 34.2815C51.2759 33.6186 51.8337 32.9484 52.4453 32.3332C52.9396 31.8363 53.5353 31.4469 54.1871 31.1698C54.9928 30.8279 55.5677 30.9952 56.0523 31.7362C56.3648 32.216 56.6211 32.7324 56.9043 33.2304C57.9431 35.0567 58.9831 36.8818 60.0219 38.708C61.2609 40.8859 62.4913 43.0699 63.7401 45.2428C64.8057 47.0972 65.8945 48.9381 66.9651 50.7888C67.8854 52.3819 68.7899 53.9848 69.7103 55.5779C70.9078 57.6496 72.1199 59.7139 73.3186 61.7855C74.4453 63.7327 75.5573 65.6896 76.6876 67.6343C77.9291 69.7682 79.1961 71.8874 80.429 74.0262C81.74 76.3005 82.9997 78.6041 84.3266 80.8687C85.0516 82.1065 85.7987 83.331 86.453 84.6079C86.8961 85.4722 87.2574 86.3743 87.6126 87.2826C88.3438 89.1516 88.4573 91.0926 88.5 93.0544L88.4951 93.0569Z" fill="#F17422"/>
<path d="M77.1416 46.14C77.1563 43.4507 77.6262 41.1739 78.4258 38.9448C78.809 37.8766 79.4023 36.9439 79.9687 35.9844C80.4984 35.0859 81.2015 34.3352 81.9144 33.5905C82.6309 32.8434 83.4097 32.1622 84.2141 31.5103C85.0711 30.8157 85.834 30.8144 86.4834 31.9363C87.2768 33.3073 88.0177 34.7099 88.7855 36.0955C89.2421 36.9183 89.6998 37.7387 90.1698 38.5541C90.8424 39.72 91.5503 40.8675 92.2022 42.0456C93.0298 43.5434 93.9709 44.9742 94.7961 46.4733C95.2062 47.218 95.675 47.9297 96.0412 48.7C96.1669 48.9637 96.3805 49.1737 96.5282 49.4288C98.7266 53.2181 100.936 57.0012 103.141 60.7869C104.135 62.4959 105.131 64.2038 106.117 65.9178C107.136 67.6928 108.118 69.4898 109.162 71.2513C110.179 72.9677 111.166 74.7 112.16 76.4286C112.636 77.2563 113.148 78.0657 113.596 78.908C114.312 80.2545 115.123 81.5461 115.837 82.8951C116.156 83.4981 116.382 84.1415 116.72 84.7287C117.013 85.239 117.262 85.7651 117.497 86.3022C118.8 89.287 119.286 92.3854 118.836 95.6216C118.726 96.4115 118.475 97.1647 118.243 97.9203C117.946 98.8884 117.576 99.8309 117.127 100.744C116.514 101.988 115.813 103.165 114.927 104.239C114.385 104.896 113.804 105.511 113.212 106.12C112.455 106.898 111.522 107.416 110.613 107.973C110.41 108.099 110.328 107.956 110.223 107.81C109.71 107.093 109.197 106.377 108.664 105.675C108.14 104.985 107.689 104.246 107.297 103.482C106.954 102.813 106.644 102.123 106.314 101.446C105.678 100.136 104.918 98.8957 104.203 97.631C103.017 95.5337 101.77 93.4718 100.605 91.3623C100.082 90.4114 99.4529 89.5178 98.9463 88.5582C98.4386 87.5975 97.8734 86.6721 97.3632 85.7126C96.8724 84.7897 96.3122 83.9034 95.7946 82.994C95.5675 82.5948 95.3869 82.1675 95.155 81.7707C94.8608 81.2678 94.4787 80.8088 94.2358 80.2851C93.9343 79.6332 93.5498 79.0338 93.208 78.4087C92.8015 77.6677 92.3365 76.9584 91.9056 76.2296C91.2879 75.1883 90.6715 74.1446 90.0648 73.0959C89.402 71.9484 88.7758 70.7801 88.0885 69.6472C86.9057 67.6964 85.8181 65.6919 84.689 63.7118C83.8138 62.1785 82.9691 60.6282 82.0865 59.0998C81.2138 57.5884 80.3117 56.093 79.4206 54.5927C79.1276 54.0995 78.9592 53.5489 78.6992 53.0423C78.2268 52.1255 77.8582 51.1501 77.6506 50.1613C77.3516 48.7391 77.055 47.2961 77.1404 46.14H77.1416Z" fill="#F17422"/>
<path d="M38.8383 72.6126C40.5118 72.5564 42.1634 72.6822 43.793 73.1009C46.0134 73.671 48.0202 74.6574 49.7877 76.115C51.3074 77.3687 52.6501 78.7946 53.7158 80.4561C55.8007 83.707 56.6991 87.2753 56.483 91.1256C56.4073 92.477 56.1937 93.8028 55.8532 95.1175C55.5602 96.2529 55.0585 97.2856 54.6056 98.3526C54.1931 99.3231 53.5669 100.14 52.9956 100.989C52.5268 101.688 51.8933 102.286 51.2818 102.876C50.4188 103.708 49.4984 104.487 48.4718 105.11C47.2926 105.825 46.0573 106.438 44.75 106.9C42.3941 107.734 39.9638 107.949 37.4895 107.798C35.9319 107.701 34.4085 107.419 32.9132 106.969C31.2128 106.456 29.6357 105.686 28.2173 104.632C26.3521 103.247 24.7384 101.617 23.5654 99.5758C23.0112 98.6126 22.5986 97.5921 22.1604 96.58C21.5098 95.076 21.251 93.4732 21.0935 91.8593C20.8652 89.5166 21.0496 87.2008 21.7051 84.9314C22.2409 83.0746 23.0539 81.3411 24.1745 79.7737C25.1071 78.4686 26.1336 77.2247 27.4153 76.2322C28.4077 75.4643 29.4734 74.8124 30.6013 74.2558C32.9218 73.1119 35.3741 72.5894 37.9509 72.6102C38.2475 72.6126 38.5429 72.6102 38.8395 72.6102L38.8383 72.6126Z" fill="#E74224"/>
</svg>
