<svg width="140" height="140" viewBox="0 0 140 140" fill="none" xmlns="http://www.w3.org/2000/svg">
<rect width="140" height="140" rx="30" fill="#1A3A77"/>
<g clip-path="url(#clip0_749_3194)">
<path d="M21.3386 67.6201C21.2839 67.7738 21.3013 67.8744 21.3013 67.9728C21.3002 71.8413 21.3004 75.7098 21.3006 79.5783C21.3006 80.0125 21.3199 79.996 20.8821 79.996C19.0427 79.9956 17.2034 79.996 15.3642 79.9958C15.1223 79.9958 15.0011 79.8772 15.0005 79.6401C15 73.2131 15 66.7862 15 60.3592C15 60.1225 15.1213 60.004 15.3638 60.0037C17.9714 60.0037 20.5791 60.0037 23.1868 60.0037C23.2178 60.0037 23.2492 60.0069 23.28 60.0035C23.4556 59.9824 23.5473 60.0676 23.6095 60.2254C23.8075 60.7277 24.0159 61.2258 24.2201 61.7255C25.2709 64.2955 26.3215 66.8658 27.373 69.4354C27.4361 69.5895 27.5074 69.7402 27.5954 69.9385C27.6627 69.7862 27.7116 69.683 27.7547 69.5777C28.4927 67.7712 29.2291 65.9643 29.9676 64.1583C30.4989 62.8589 31.0326 61.5607 31.5655 60.262C31.6691 60.0095 31.6733 60.0041 31.937 60.0041C34.5912 60.0035 37.2455 60.0037 39.8995 60.0039C39.9461 60.0039 39.9926 60.006 40.039 60.0074C40.1443 60.0106 40.1918 60.0697 40.1953 60.1694C40.1974 60.231 40.1988 60.2925 40.1988 60.3543C40.1988 66.7813 40.1988 73.208 40.1988 79.635C40.1988 79.8751 40.0792 79.9954 39.8401 79.996C37.9698 79.9963 36.0994 79.996 34.2291 79.996C33.987 79.996 33.8657 79.8774 33.8651 79.6401C33.8651 75.7484 33.8651 71.8568 33.8651 67.9654C33.8651 67.8737 33.8651 67.7819 33.8651 67.6462C33.7782 67.7444 33.7677 67.8293 33.7423 67.9045C32.4356 71.7934 31.1307 75.6827 29.8239 79.5713C29.6646 80.0456 29.7401 79.9947 29.2324 79.9956C28.1227 79.9977 27.0127 79.9963 25.903 79.996C25.8331 79.996 25.7633 79.9933 25.6934 79.9942C25.5853 79.9956 25.5206 79.9426 25.4861 79.8433C25.4225 79.6614 25.3536 79.4813 25.2919 79.2987C24.6612 77.4281 24.0329 75.5566 23.4018 73.6862C22.7483 71.7501 22.0924 69.8149 21.4371 67.8793C21.4129 67.8076 21.3835 67.7377 21.3386 67.6205V67.6201Z" fill="#F0D90D"/>
<path d="M81.0786 69.9793C81.0786 66.7811 81.0786 63.5831 81.0786 60.3849C81.0786 60.1303 81.2065 60.0029 81.4624 60.0025C86.6857 60.0025 91.9087 60.0023 97.1319 60.0025C98.0453 60.0025 98.8789 60.2736 99.6209 60.7902C100.534 61.4264 101.034 62.3233 101.203 63.4107C101.233 63.6093 101.247 63.8078 101.247 64.0087C101.245 65.4653 101.249 66.9218 101.244 68.3783C101.242 69.0012 101.139 69.6022 100.828 70.1591C100.478 70.7843 99.9802 71.2562 99.3619 71.6073C98.612 72.0332 97.808 72.2605 96.9375 72.2276C96.829 72.2234 96.72 72.2237 96.6117 72.2283C96.5458 72.2311 96.4568 72.1975 96.4226 72.2739C96.3918 72.3429 96.4596 72.4014 96.4948 72.4591C96.5749 72.591 96.659 72.7206 96.7409 72.8514C97.7496 74.4604 98.758 76.0697 99.7666 77.6788C100.164 78.3132 100.563 78.9469 100.962 79.5813C100.999 79.6401 101.034 79.6996 101.07 79.7593C101.201 79.9787 101.193 79.9944 100.935 79.9947C99.3593 79.9956 97.7838 79.9951 96.2083 79.9951C95.5408 79.9951 94.8734 79.9896 94.2059 79.9986C94.0173 80.0012 93.9113 79.9359 93.8247 79.7688C93.1826 78.5284 92.5335 77.2918 91.8833 76.0558C91.251 74.8539 90.6122 73.6554 89.9838 72.4517C89.8958 72.2829 89.7836 72.2223 89.5984 72.2244C88.9622 72.2318 88.3257 72.2262 87.6892 72.2276C87.3915 72.2283 87.3785 72.2415 87.3785 72.5461C87.3778 74.8888 87.378 77.2316 87.3783 79.5744C87.3783 80.01 87.4009 79.9958 86.9637 79.9958C85.14 79.9954 83.316 79.9954 81.4922 79.9958C81.0548 79.9958 81.0783 80.0093 81.0783 79.5737C81.0783 76.3755 81.0783 73.1775 81.0783 69.9793H81.0786ZM91.2135 67.8275C92.3614 67.8275 93.5096 67.8277 94.6575 67.827C94.7968 67.827 94.9367 67.8321 95.0732 67.7923C95.3408 67.7143 95.4912 67.5377 95.5183 67.2632C95.5236 67.2097 95.5245 67.1556 95.5245 67.1016C95.5248 66.3082 95.5248 65.515 95.5243 64.7216C95.5243 64.6601 95.5243 64.5978 95.5162 64.5372C95.4812 64.2789 95.3492 64.0965 95.0946 64.0074C94.9377 63.9525 94.7772 63.9435 94.6132 63.9437C92.3172 63.9444 90.0213 63.9442 87.7253 63.9442C87.6787 63.9442 87.6321 63.9428 87.5858 63.9453C87.4113 63.9546 87.3892 63.9768 87.3797 64.1509C87.3771 64.1969 87.3785 64.2432 87.3785 64.2895C87.3785 65.3523 87.3785 66.4152 87.3785 67.4782C87.3785 67.5321 87.3764 67.5863 87.3804 67.64C87.3915 67.7874 87.4165 67.814 87.5599 67.8254C87.6293 67.8309 87.6994 67.8279 87.7693 67.8279C88.9172 67.8279 90.0654 67.8279 91.2133 67.8279L91.2135 67.8275Z" fill="#F0D90D"/>
<path d="M114.351 79.9956C112.147 79.9956 109.943 80.0083 107.739 79.9903C106.607 79.981 105.615 79.5737 104.807 78.7761C104.215 78.1917 103.893 77.4665 103.763 76.6527C103.723 76.4083 103.716 76.163 103.716 75.916C103.718 71.8395 103.712 67.7629 103.722 63.6863C103.724 62.8135 103.998 62.0176 104.584 61.3489C105.094 60.7666 105.748 60.4113 106.487 60.2027C106.967 60.0673 107.455 60 107.957 60.0005C112.264 60.0058 116.572 60.0016 120.879 60.0051C121.784 60.0058 122.631 60.2412 123.395 60.7249C124.302 61.2991 124.788 62.1463 124.953 63.1894C124.991 63.4338 124.999 63.6792 124.999 63.9261C124.998 67.9795 125.005 72.033 124.993 76.0864C124.99 77.173 124.598 78.1232 123.8 78.8816C123.243 79.4112 122.564 79.7232 121.816 79.8952C121.497 79.9685 121.175 79.9981 120.847 79.9975C118.682 79.9935 116.516 79.9954 114.351 79.9954L114.351 79.9956ZM118.665 69.9501C118.665 68.301 118.665 66.6519 118.665 65.0026C118.665 64.9179 118.667 64.8329 118.662 64.7482C118.642 64.3795 118.461 64.1435 118.111 64.028C117.964 63.9791 117.812 63.9472 117.655 63.9472C115.459 63.9479 113.262 63.9479 111.066 63.9472C110.892 63.9472 110.726 63.9837 110.566 64.0442C110.239 64.1675 110.062 64.4193 110.051 64.7691C110.049 64.8306 110.05 64.8924 110.05 64.954C110.05 68.2753 110.05 71.5967 110.05 74.9182C110.05 74.9953 110.049 75.0726 110.053 75.1495C110.074 75.5311 110.325 75.8554 110.686 75.9836C110.851 76.0419 111.018 76.053 111.19 76.053C113.317 76.0519 115.443 76.0524 117.57 76.0521C117.64 76.0521 117.71 76.054 117.779 76.0493C118.292 76.0137 118.625 75.6841 118.661 75.1747C118.667 75.0902 118.664 75.0053 118.664 74.9206C118.664 73.2638 118.664 71.6069 118.664 69.9501H118.665Z" fill="#F0D90D"/>
<path d="M42.6694 69.9973C42.6694 66.7991 42.6694 63.6009 42.6694 60.4025C42.6694 60.1368 42.7997 60.0038 43.0602 60.0035C48.2604 60.0035 53.4604 60.0035 58.6606 60.0035C59.078 60.0035 59.0645 59.9875 59.0642 60.4127C59.0635 61.4607 59.0642 62.5089 59.0642 63.557C59.0642 63.6262 59.0673 63.6958 59.0617 63.7648C59.0498 63.9076 59.0225 63.9347 58.8754 63.9449C58.7903 63.9509 58.7046 63.9476 58.6194 63.9476C55.5459 63.9476 52.4725 63.9476 49.3988 63.9476C49.1386 63.9476 49.0083 64.0738 49.008 64.3261C49.0078 65.3741 49.008 66.4223 49.008 67.4703C49.008 67.5398 49.0089 67.609 49.0122 67.6784C49.0162 67.7701 49.0658 67.8203 49.1585 67.8238C49.2437 67.827 49.3292 67.8282 49.4144 67.8282C52.4958 67.8282 55.5769 67.8282 58.6583 67.8282C58.9289 67.8282 59.0643 67.9636 59.0645 68.2346C59.0645 69.2905 59.0645 70.3461 59.0645 71.402C59.0645 71.4559 59.0656 71.5099 59.0638 71.5638C59.0565 71.7737 59.0344 71.7953 58.8153 71.8015C58.7454 71.8036 58.6755 71.8022 58.6057 71.8022C55.5399 71.8022 52.4741 71.8022 49.4084 71.8022C49.001 71.8022 49.0073 71.7777 49.0075 72.188C49.0085 73.3441 49.0075 74.5 49.0075 75.6561C49.0075 75.71 49.0064 75.764 49.0082 75.8179C49.0148 76.0234 49.0346 76.0443 49.2337 76.0514C49.3036 76.054 49.3734 76.0521 49.4433 76.0521C52.5943 76.0521 55.7455 76.0521 58.8965 76.0521C59.1616 76.0521 59.2941 76.1824 59.2941 76.4428C59.2941 77.514 59.2941 78.5854 59.2932 79.6565C59.2929 79.9928 59.2908 79.9951 58.959 79.9951C53.6425 79.9954 48.3259 79.9954 43.0095 79.9951C42.6746 79.9951 42.6699 79.991 42.6699 79.6609C42.6694 76.4396 42.6699 73.2182 42.6697 69.9969L42.6694 69.9973Z" fill="#F0D90D"/>
<path d="M70.0865 60.0035C73.0048 60.0035 75.9229 60.0035 78.8413 60.0035C79.0931 60.0035 79.2194 60.1251 79.22 60.3682C79.2202 61.4473 79.2204 62.5261 79.22 63.6051C79.22 63.9467 79.2188 63.9474 78.866 63.9474C77.1042 63.9476 75.3424 63.9474 73.5805 63.9474C73.3416 63.9474 73.222 64.0662 73.2216 64.3039C73.2216 69.3979 73.2216 74.4919 73.2216 79.5859C73.2216 80.0102 73.2363 79.9958 72.8185 79.9956C70.9868 79.9951 69.1551 79.9956 67.3235 79.9956C67.0552 79.9956 66.921 79.8589 66.921 79.5855C66.921 74.5222 66.921 69.459 66.921 64.396C66.921 64.3113 66.9243 64.2261 66.918 64.1418C66.9068 63.9888 66.8765 63.9606 66.7165 63.9502C66.6392 63.9451 66.5614 63.9479 66.4839 63.9479C64.753 63.9479 63.0224 63.9479 61.2916 63.9479C61.0458 63.9479 60.9228 63.8234 60.9225 63.5743C60.9222 62.5108 60.9225 61.4473 60.9225 60.3837C60.9225 60.3606 60.9225 60.3375 60.9225 60.3143C60.925 60.0137 60.9329 60.0042 61.239 60.0039C64.1883 60.0035 67.1376 60.0037 70.0867 60.0037L70.0865 60.0035Z" fill="#F0D90D"/>
</g>
<defs>
<clipPath id="clip0_749_3194">
<rect width="110" height="20" fill="white" transform="translate(15 60)"/>
</clipPath>
</defs>
</svg>
