<svg width="140" height="140" viewBox="0 0 140 140" fill="none" xmlns="http://www.w3.org/2000/svg">
<rect width="140" height="140" rx="30" fill="white"/>
<path d="M59 24H30V116H59V24Z" fill="#E22F2B"/>
<path d="M119 24.2217C119 24.2217 117.957 48.1258 103.045 59.6018C88.134 71.0778 65 65.7783 65 65.7783C65 65.7783 66.0434 41.8742 80.9547 30.3982C95.866 18.9222 119 24.2217 119 24.2217Z" fill="#00734C"/>
<path d="M65 74.2217C65 74.2217 66.0434 98.1258 80.9547 109.602C95.866 121.078 119 115.778 119 115.778C119 115.778 117.957 91.8742 103.045 80.3982C88.134 68.9222 65 74.2217 65 74.2217Z" fill="#00734C"/>
</svg>
