<svg width="140" height="140" viewBox="0 0 140 140" fill="none" xmlns="http://www.w3.org/2000/svg">
<rect width="140" height="140" rx="30" fill="#E46923"/>
<g clip-path="url(#clip0_680_59)">
<path d="M28.4694 95.7445V54.5275H21V45H42.3759V56C51.0238 45.783 67.645 47.4214 76.8253 57.2207C81.519 50.7798 90.8253 48.115 99.2293 49.4535C107.199 50.723 112.981 57.7236 112.981 65.7788V87.304H119V96.0041H91.4511V87.304H98.0386V68.7722C98.0386 64.7851 95.8807 61.0293 92.3086 59.2527C89.8621 58.0359 87.3507 58.0035 84.7701 59.1027C80.5478 60.8995 77.9103 65.1583 77.9103 69.7375V87.308H83.8232V96.0081H56.8961V87.308H63.1747V69.1291C63.1747 64.8825 60.6999 60.94 56.762 59.3339C54.5919 58.4497 52.3933 58.3929 50.1582 59.1554C45.7164 60.6764 42.8351 64.9757 42.8351 69.6604V87.3121H49.9956V96.0122L28.4653 95.7526L28.4694 95.7445Z" fill="white"/>
</g>
<defs>
<clipPath id="clip0_680_59">
<rect width="98" height="51" fill="white" transform="translate(21 45)"/>
</clipPath>
</defs>
</svg>
