<svg width="140" height="140" viewBox="0 0 140 140" fill="none" xmlns="http://www.w3.org/2000/svg">
<rect width="140" height="140" rx="30" fill="url(#paint0_linear_855_4222)"/>
<g clip-path="url(#clip0_855_4222)">
<path d="M106.693 62.2709C106.674 62.392 106.649 62.4715 106.65 62.5511C106.671 64.3396 106.703 66.1281 106.717 67.9166C106.729 69.4751 106.722 71.0352 106.722 72.5937C106.722 74.5552 106.722 76.5167 106.722 78.4781C106.722 79.0091 106.719 79.5402 106.715 80.0712C106.714 80.3116 106.602 80.4223 106.361 80.4275C106.12 80.4327 105.877 80.4223 105.635 80.4327C105.421 80.4413 105.318 80.3376 105.294 80.1352C105.286 80.0573 105.281 79.9778 105.281 79.8982C105.281 78.741 105.281 77.5839 105.281 76.4284C105.281 73.0157 105.281 69.6031 105.282 66.1904C105.282 65.1283 105.306 64.0646 105.305 63.0025C105.305 61.854 105.282 60.7038 105.274 59.5553C105.274 59.4342 105.286 59.3096 105.315 59.1938C105.363 59.0018 105.488 58.9464 105.651 59.0554C105.762 59.1298 105.854 59.2335 105.947 59.3321C106.215 59.6193 106.477 59.9116 106.746 60.2004C107.229 60.7176 107.715 61.2331 108.198 61.7502C109.004 62.6099 109.81 63.4661 110.613 64.3275C111.168 64.9225 111.714 65.5244 112.263 66.1229C113.065 66.9981 113.861 67.8786 114.669 68.7469C115.228 69.3488 115.814 69.9265 116.375 70.5284C116.975 71.1719 117.553 71.8326 118.149 72.4795C118.585 72.9517 119.037 73.4101 119.476 73.8806C120.374 74.8475 121.27 75.8196 122.165 76.7882C122.213 76.8401 122.259 76.9006 122.316 76.9404C122.381 76.9871 122.459 77.0148 122.531 77.0494C122.557 76.9716 122.607 76.892 122.605 76.8142C122.6 76.2399 122.578 75.6656 122.576 75.0897C122.566 70.5129 122.557 65.9378 122.548 61.3611C122.548 60.8439 122.543 60.3267 122.542 59.8095C122.542 59.5189 122.545 59.5207 122.824 59.5189C123.081 59.5189 123.338 59.5086 123.593 59.5103C123.92 59.512 123.995 59.5847 123.995 59.9202C123.997 61.4147 123.995 62.9091 123.995 64.4036C123.992 68.9095 123.988 73.4136 123.986 77.9194C123.986 78.5871 123.99 79.2565 123.99 79.9242C123.99 80.0106 123.99 80.0971 123.976 80.1819C123.937 80.4292 123.754 80.514 123.56 80.3514C123.348 80.1732 123.154 79.9691 122.964 79.765C122.406 79.1648 121.85 78.5612 121.297 77.9558C120.718 77.3227 120.143 76.6844 119.563 76.0531C119.171 75.6259 118.77 75.2073 118.375 74.7852C117.247 73.5796 116.117 72.3758 114.991 71.1667C114.342 70.4714 113.701 69.7691 113.056 69.072C112.13 68.0705 111.209 67.0621 110.274 66.0693C109.524 65.2736 108.752 64.5022 107.999 63.71C107.6 63.2897 107.225 62.8486 106.84 62.4162C106.804 62.3764 106.762 62.3418 106.688 62.2709H106.693Z" fill="white"/>
<path d="M83.704 59.0121C84.3271 59.0795 85.1352 59.0899 85.9038 59.2681C86.7289 59.4601 87.5386 59.7628 88.3209 60.1018C89.259 60.5065 90.0722 61.1292 90.8665 61.7761C91.8474 62.5753 92.6075 63.556 93.1981 64.6595C93.5353 65.2926 93.7424 65.9966 94.0129 66.666C94.2988 67.3734 94.4255 68.1172 94.4683 68.8714C94.5042 69.5061 94.4751 70.1461 94.4477 70.7827C94.4015 71.862 94.0403 72.8635 93.6397 73.8477C93.2323 74.8509 92.6331 75.74 91.9484 76.5737C91.3321 77.3226 90.5909 77.9315 89.8017 78.4677C88.8516 79.1129 87.8245 79.6093 86.7186 79.9639C85.7942 80.2597 84.8681 80.334 83.9197 80.3219C83.2949 80.315 82.6632 80.334 82.0469 80.251C81.5248 80.1818 81.0147 79.9985 80.508 79.8376C79.6623 79.5695 78.8577 79.1994 78.1182 78.7099C77.6029 78.3674 77.1236 77.9678 76.6254 77.5977C75.9869 77.1237 75.4802 76.5218 75.0197 75.8835C74.6944 75.4321 74.3795 74.9633 74.1364 74.4635C73.6981 73.5606 73.3472 72.6144 73.1794 71.6181C73.087 71.0698 73.0528 70.5076 73.0374 69.9507C73.0237 69.4145 73.0185 68.8679 73.0973 68.3403C73.2667 67.2074 73.5937 66.1211 74.085 65.0781C74.626 63.9313 75.3741 62.9471 76.2745 62.0806C76.6836 61.6862 77.1613 61.3627 77.6115 61.0151C78.2483 60.5238 78.9382 60.1174 79.6811 59.825C80.4891 59.5085 81.3091 59.2214 82.1924 59.1764C82.6392 59.1539 83.0826 59.0813 83.704 59.0121ZM83.5893 79.0177C88.701 79.2495 93.2683 74.735 93.0337 69.2726C92.8437 64.836 89.0245 60.3145 83.7006 60.3837C78.6968 60.4477 74.4428 64.5367 74.4531 69.7604C74.4616 74.6001 78.4999 79.0835 83.5893 79.0195V79.0177Z" fill="white"/>
<path d="M34.0034 80.443C33.8254 80.4327 33.6491 80.4188 33.471 80.4136C33.2656 80.4084 33.156 80.296 33.0739 80.1127C32.7281 79.3412 32.3771 78.5715 32.0159 77.807C31.5743 76.8747 31.1206 75.9493 30.6738 75.0204C30.6499 74.9686 30.6276 74.9149 30.6088 74.8613C30.542 74.6676 30.4016 74.6157 30.2082 74.6192C29.1468 74.6347 28.0872 74.6503 27.0258 74.652C24.4974 74.6572 21.9707 74.6589 19.4422 74.652C19.2009 74.652 19.081 74.7281 18.9852 74.9634C18.7301 75.5791 18.4391 76.1793 18.1549 76.7813C17.6448 77.871 17.1227 78.9538 16.6194 80.0469C16.491 80.3254 16.3181 80.4586 16.0099 80.4344C15.7686 80.4154 15.5255 80.4344 15.2841 80.4257C15.0222 80.4188 14.9434 80.3099 15.0444 80.0677C15.1745 79.7564 15.3218 79.4537 15.4656 79.1492C15.8028 78.4366 16.1452 77.7274 16.4824 77.0165C16.7683 76.4146 17.0508 75.8109 17.3332 75.2073C17.6996 74.422 18.0625 73.6332 18.4322 72.8497C18.7832 72.1059 19.1512 71.3691 19.497 70.6218C19.9472 69.6463 20.3786 68.6621 20.8289 67.6865C21.0377 67.2316 21.2774 66.7888 21.4896 66.3356C21.7926 65.687 22.0751 65.028 22.3815 64.3811C22.7119 63.6823 23.068 62.9956 23.4018 62.2968C23.7716 61.5202 24.1276 60.7366 24.4906 59.9583C24.5265 59.8804 24.559 59.7974 24.6121 59.7334C24.7696 59.5397 24.9784 59.5639 25.0863 59.7905C25.4732 60.6052 25.8532 61.4233 26.2401 62.238C26.4832 62.7483 26.7451 63.2499 26.9865 63.7619C27.2056 64.2271 27.4042 64.7028 27.6164 65.1716C27.7688 65.5106 27.9263 65.8496 28.0855 66.1869C28.6504 67.3856 29.217 68.5842 29.7837 69.7829C30.3725 71.0248 30.97 72.2633 31.552 73.5087C32.0741 74.6261 32.5757 75.7521 33.0944 76.8695C33.3478 77.4143 33.6251 77.9488 33.887 78.4902C34.1267 78.9866 34.3835 79.4761 34.5889 79.9864C34.7224 80.3168 34.6334 80.4655 34.3047 80.4379C34.2054 80.4292 34.1061 80.4379 34.0051 80.4379C34.0051 80.4396 34.0051 80.443 34.0051 80.4448L34.0034 80.443ZM24.8757 62.3919C24.8483 62.3919 24.8227 62.3954 24.7953 62.3971C24.7319 62.5147 24.6617 62.6306 24.607 62.7517C24.2338 63.582 23.864 64.414 23.4925 65.2442C22.9687 66.4135 22.4483 67.5862 21.9142 68.752C21.6591 69.309 21.3681 69.8504 21.1028 70.4039C20.8032 71.03 20.5139 71.6614 20.2246 72.291C20.0791 72.6092 19.9387 72.931 19.8034 73.2544C19.7384 73.4084 19.8017 73.4845 19.9695 73.4758C20.1475 73.4672 20.3256 73.462 20.5036 73.4637C21.9981 73.4827 23.4942 73.5156 24.9887 73.5191C26.5191 73.5225 28.0512 73.4966 29.5817 73.4827C29.9001 73.4793 29.9411 73.4032 29.8008 73.1022C29.5628 72.5954 29.33 72.0886 29.0938 71.5818C28.4193 70.1254 27.7448 68.669 27.0686 67.2126C26.9334 66.922 26.7793 66.6383 26.6458 66.346C26.5157 66.0606 26.4078 65.7631 26.2777 65.476C25.9645 64.7841 25.6444 64.094 25.3277 63.4038C25.1736 63.0682 25.0264 62.7292 24.8757 62.3919Z" fill="white"/>
<path d="M53.8436 78.0785C53.9361 77.89 54.0302 77.7015 54.1192 77.5112C54.6619 76.3402 55.2046 75.1692 55.7421 73.9964C56.4713 72.4069 57.1937 70.8138 57.923 69.2259C58.3116 68.3801 58.7139 67.5378 59.1093 66.6954C59.6143 65.6195 60.1193 64.5454 60.6243 63.4712C61.0112 62.6479 61.3981 61.8263 61.7816 61.003C61.8689 60.8144 61.9613 60.6259 62.0229 60.4287C62.0965 60.1917 62.254 60.0914 62.4817 60.0862C62.7881 60.0776 63.0946 60.0759 63.3993 60.081C63.6852 60.0862 63.7399 60.2021 63.6133 60.465C63.3856 60.9355 63.1733 61.4129 62.9491 61.8834C62.7162 62.3746 62.4766 62.8641 62.2421 63.3536C62.1548 63.5335 62.0709 63.7169 61.9853 63.8985C61.4854 64.9605 60.9821 66.0208 60.4857 67.0846C60.032 68.0584 59.5904 69.0391 59.1333 70.0112C58.6283 71.0888 58.1079 72.156 57.6046 73.2354C57.1184 74.2801 56.6494 75.3335 56.1666 76.38C55.9235 76.9075 55.665 77.4264 55.4185 77.9505C55.2285 78.3518 55.0488 78.7583 54.8605 79.1596C54.6225 79.6716 54.3811 80.1836 54.1381 80.6921C54.1021 80.7682 54.0542 80.8426 53.9994 80.9083C53.8881 81.0363 53.7614 81.0328 53.6502 80.9135C53.5885 80.8478 53.5457 80.7613 53.5064 80.6765C52.9688 79.528 52.433 78.3795 51.8955 77.231C51.5685 76.5287 51.2381 75.8282 50.9146 75.1259C50.5277 74.287 50.1477 73.4447 49.7608 72.6058C49.2198 71.4348 48.6789 70.2655 48.1328 69.0979C47.7562 68.2936 47.3676 67.4945 46.9893 66.6919C46.3816 65.4016 45.7721 64.1112 45.1696 62.8192C44.8066 62.0391 44.4506 61.2572 44.0996 60.472C43.961 60.1606 44.0106 60.0897 44.3461 60.0897C44.6166 60.0897 44.8871 60.107 45.1576 60.1001C45.3271 60.0949 45.4537 60.1572 45.5291 60.3024C45.7122 60.6588 45.8868 61.0185 46.0632 61.3783C46.3593 61.9802 46.664 62.5787 46.9499 63.1876C47.2409 63.8033 47.5097 64.4295 47.7939 65.0487C48.4187 66.41 49.0401 67.773 49.6752 69.1291C50.2795 70.4194 50.9129 71.6942 51.5086 72.988C52.0085 74.0743 52.469 75.1813 52.9552 76.2745C53.2222 76.8747 53.5081 77.4679 53.7837 78.0647C53.8042 78.0716 53.8248 78.0785 53.8453 78.0854L53.8436 78.0785Z" fill="white"/>
</g>
<defs>
<linearGradient id="paint0_linear_855_4222" x1="70" y1="0" x2="70" y2="140" gradientUnits="userSpaceOnUse">
<stop stop-color="#E51990"/>
<stop offset="1" stop-color="#D00179"/>
</linearGradient>
<clipPath id="clip0_855_4222">
<rect width="109" height="22" fill="white" transform="translate(15 59)"/>
</clipPath>
</defs>
</svg>
