<svg width="140" height="140" viewBox="0 0 140 140" fill="none" xmlns="http://www.w3.org/2000/svg">
<rect width="140" height="140" rx="30" fill="#004797"/>
<path fill-rule="evenodd" clip-rule="evenodd" d="M92.2268 92.2808V94.2257C92.2268 96.1703 92.2275 98.1148 92.2283 100.059V100.059C92.2302 104.597 92.232 109.134 92.2238 113.669C92.215 118.174 89.4194 120.989 84.9492 120.992C74.6154 121.001 64.2816 121.001 53.9478 120.992C49.5801 120.989 46.7405 118.142 46.7317 113.748C46.7191 109.118 46.7215 104.489 46.7239 99.86V99.8588V99.8583C46.7249 98.0069 46.7258 96.1557 46.7258 94.3048V92.3599C46.5268 92.3506 46.3348 92.3396 46.1477 92.3289L46.1474 92.3289H46.1474C45.7429 92.3056 45.3613 92.2837 44.9811 92.2837C41.7404 92.2808 38.499 92.2808 35.2576 92.2808C32.0163 92.2808 28.7749 92.2808 25.5342 92.2779C20.7625 92.272 18.0078 89.5187 18.0049 84.7531C17.999 74.5686 17.999 64.3812 18.0049 54.1968C18.0049 49.5132 20.7479 46.7891 25.4669 46.7804C29.7565 46.7745 34.0462 46.7765 38.3358 46.7784C40.4807 46.7794 42.6255 46.7804 44.7703 46.7804H46.6409C46.6522 46.5483 46.6657 46.3346 46.6784 46.1327C46.7019 45.7586 46.7229 45.4251 46.7229 45.0903C46.7256 42.1228 46.7252 39.1547 46.7248 36.1866V36.1866C46.7244 32.6243 46.724 29.062 46.7287 25.5005C46.7346 20.8316 49.5303 18.0138 54.1673 18.0079C64.3548 17.9991 74.5422 17.9991 84.7296 18.0079C89.472 18.0109 92.2209 20.7906 92.2268 25.5767C92.2279 26.8105 92.2296 28.0443 92.2313 29.278C92.2387 34.623 92.2461 39.9679 92.2033 45.3129C92.1945 46.4757 92.5429 46.8097 93.6875 46.8009C99.9999 46.759 106.315 46.7703 112.628 46.7816H112.628L113.574 46.7833C118.173 46.7921 120.977 49.5513 120.986 54.1265C121.006 64.3607 121.003 74.595 120.986 84.8292C120.977 89.4894 118.17 92.272 113.506 92.2779C109.217 92.2837 104.927 92.2818 100.637 92.2798C98.4924 92.2789 96.3476 92.2779 94.2028 92.2779H92.2238L92.2268 92.2808Z" fill="white"/>
</svg>
