<svg width="140" height="140" viewBox="0 0 140 140" fill="none" xmlns="http://www.w3.org/2000/svg">
<rect width="140" height="140" rx="30" fill="url(#paint0_linear_749_3156)"/>
<g clip-path="url(#clip0_749_3156)">
<path d="M79.4245 64.911C76.1428 65.0768 72.852 65.1381 69.5828 65.4428C67.0981 65.6754 64.5612 65.8034 62.2204 66.8618C59.4533 68.1149 57.816 70.2767 57.314 73.2409C56.8678 75.8841 56.5385 78.5489 56.2093 81.2102C56.0186 82.7518 55.8872 84.3042 55.808 85.8548C55.6731 88.5088 55.6209 91.1682 55.4842 93.8241C55.4428 94.6192 55.2971 95.4233 55.0956 96.195C54.8491 97.1362 54.1294 97.2985 53.4187 96.6259C51.9937 95.2791 51.1319 93.55 50.6857 91.7145C50.047 89.0876 49.59 86.4029 49.2607 83.7182C48.9908 81.5239 48.9369 79.2918 48.9422 77.0777C48.9494 74.5625 48.9495 72.0238 49.2841 69.5393C49.6116 67.1106 50.1567 64.6694 50.979 62.3669C51.6932 60.3674 53.5626 59.2783 55.6029 59.0313C59.088 58.6112 62.6055 58.4526 66.1121 58.2074C67.5965 58.1046 69.0898 57.9477 70.5706 58.0126C74.1168 58.1695 77.6721 58.3246 81.1985 58.7086C83.91 59.0043 86.5998 59.5776 89.268 60.1636C90.7398 60.4864 92.1522 61.0796 93.5843 61.5718C93.8902 61.6764 94.1907 61.8386 94.4533 62.0297C95.0471 62.4607 95.0039 62.8988 94.3166 63.1981C93.7499 63.4451 93.1615 63.6939 92.5588 63.7877C90.5365 64.0978 88.507 64.3989 86.4702 64.59C84.1295 64.81 81.7779 64.9128 79.4317 65.066C79.4281 65.0137 79.4245 64.9614 79.4227 64.9092L79.4245 64.911Z" fill="white"/>
<path d="M72.8106 87.2953C78.0481 87.207 82.4094 91.3521 82.5606 96.6584C82.7045 101.743 78.4206 106.167 73.4943 106.328C67.4652 106.526 63.6184 101.678 63.3162 96.7305C63.0211 91.911 67.6271 87.1222 72.8106 87.2953Z" fill="white"/>
<path d="M98.3057 69.9558C98.3596 69.4311 98.3722 68.7946 98.5036 68.1834C98.6871 67.3234 99.3708 67.0655 99.925 67.72C100.895 68.8631 101.757 70.1036 102.611 71.3405C103.725 72.9524 104.79 74.5967 105.873 76.2284C106.506 77.1804 107.446 77.6294 108.516 77.9143C112.318 78.9258 116.132 79.894 119.9 81.0209C121.503 81.5005 122.996 82.4506 123.514 84.1689C123.892 85.4184 124.013 86.7887 124.002 88.1013C123.991 89.3345 123.684 90.5696 123.462 91.7957C123.043 94.1251 122.237 96.3212 121.104 98.3947C120.965 98.6471 120.724 98.8617 120.49 99.0402C119.835 99.5414 119.175 99.316 119.015 98.5029C118.836 97.5977 118.698 96.6818 118.621 95.7623C118.451 93.7663 118.423 91.756 118.165 89.7727C117.843 87.2899 117.392 86.2911 114.41 85.5031C111.937 84.8486 109.385 84.4953 106.884 83.9309C104.299 83.3485 101.814 82.3875 100.574 79.8633C99.3492 77.368 98.6727 74.6508 98.437 71.8525C98.3866 71.2557 98.356 70.6571 98.3093 69.954L98.3057 69.9558Z" fill="white"/>
<path d="M110.471 98.1873C110.651 102.201 106.995 106.094 102.868 106.312C97.9562 106.571 94.1148 103.036 93.8593 98.2703C93.6398 94.1937 96.9882 90.4308 100.829 90.2144C106.303 89.9043 110.468 93.6546 110.471 98.1873Z" fill="white"/>
<path d="M0 83.0366C4.47824 77.7069 9.28034 73.7331 15.6352 76.2447C20.1458 78.0279 23.4545 82.0432 24.1778 86.8482C24.1868 86.9077 24.1958 86.9672 24.203 87.0267C24.5575 89.5816 23.6884 92.1545 21.8676 93.9791L21.1947 94.6534C21.0364 94.8121 20.986 95.0483 21.0652 95.2592L21.7507 97.0713C21.8586 97.358 22.1735 97.504 22.4632 97.4066C27.8662 95.5622 33.1901 94.3884 37.931 98.0449C41.0599 101.117 43.7443 104.438 44.7554 108.708C44.7968 108.879 44.9462 109.002 45.1225 109.002H46.1642C46.3819 109.002 46.5564 108.816 46.5421 108.598C45.7612 96.7576 41.0167 90.2956 31.13 90.8148C30.7468 90.8347 30.4319 90.5137 30.4643 90.1297C31.479 77.761 26.8982 70.5886 18.6381 66.8348C11.9648 64.3827 5.73589 64.6838 0 68.0302V83.0366Z" fill="white"/>
</g>
<defs>
<linearGradient id="paint0_linear_749_3156" x1="70" y1="0" x2="70" y2="140" gradientUnits="userSpaceOnUse">
<stop stop-color="#E43743"/>
<stop offset="1" stop-color="#D60218"/>
</linearGradient>
<clipPath id="clip0_749_3156">
<rect width="124" height="51" fill="white" transform="translate(0 58)"/>
</clipPath>
</defs>
</svg>
