<svg width="140" height="140" viewBox="0 0 140 140" fill="none" xmlns="http://www.w3.org/2000/svg">
<rect width="140" height="140" rx="30" fill="black"/>
<g clip-path="url(#clip0_1541_21180)">
<path d="M12 61.5757L69.5 51L127 61.5692V78.4827L69.5 89L12 78.4611V61.5757Z" fill="#FFCD01"/>
<path d="M104.205 63.5448V73.5398C103.367 73.5398 102.579 73.5019 101.796 73.5538C101.317 73.5863 101.223 73.4208 101.224 72.985C101.236 70.0481 101.226 67.11 101.224 64.1731C101.224 63.9784 101.224 63.7838 101.224 63.5513H98.1982V73.5657C97.3553 73.5657 96.6029 73.5333 95.8548 73.5776C95.3978 73.6047 95.262 73.4717 95.2663 73.0164C95.2857 71.0343 95.2749 69.0521 95.2749 67.07C95.2749 66.0427 95.2889 65.0154 95.262 63.9892C95.2577 63.8378 95.0722 63.5675 94.9623 63.5632C94.0709 63.5286 93.1773 63.5437 92.2524 63.5437V76.401C92.4389 76.4173 92.5952 76.4421 92.7515 76.4421C97.4038 76.4454 102.057 76.4421 106.709 76.4562C107.133 76.4573 107.259 76.3318 107.257 75.9047C107.242 71.9761 107.247 68.0476 107.247 64.119C107.247 63.9427 107.247 63.7675 107.247 63.5448H104.204H104.205Z" fill="#FFCD01"/>
<path d="M68.5643 63.5697C68.5492 63.6573 68.5277 63.7276 68.5277 63.7979C68.5255 67.8692 68.5277 71.9416 68.519 76.0129C68.519 76.3449 68.6333 76.4541 68.9545 76.4509C70.6242 76.4347 72.295 76.4347 73.9646 76.426C74.9973 76.4206 75.9275 76.147 76.7704 75.5069C77.8139 74.7142 78.3636 73.0089 77.9906 71.7351C77.7481 70.9089 77.2792 70.2763 76.6184 69.7443C76.7855 69.5259 76.9397 69.3507 77.0625 69.1571C77.5476 68.3926 77.8128 67.5773 77.6231 66.6559C77.1833 64.5181 75.5179 63.6043 73.8321 63.5514C72.1818 63.5005 70.5283 63.5189 68.8769 63.5114C68.7745 63.5114 68.671 63.5481 68.5632 63.5687L68.5643 63.5697Z" fill="#FFCD01"/>
<path d="M53.6525 63.5892C53.5878 63.5697 53.5382 63.5416 53.4897 63.5416C50.7066 63.5373 47.9234 63.5383 45.1402 63.5308C44.7834 63.5308 44.7393 63.7276 44.7403 64.0185C44.7457 65.063 44.7382 66.1076 44.7328 67.1522C44.7252 68.8273 44.7296 70.5034 44.7026 72.1784C44.6875 73.1181 44.141 73.6263 43.2162 73.6382C43.0437 73.6404 42.8712 73.6534 42.6535 73.6642C42.6535 74.5206 42.646 75.3273 42.6632 76.1351C42.6654 76.24 42.7796 76.4065 42.8755 76.4357C44.0224 76.7893 45.9336 76.0864 46.7064 75.0797C47.5159 74.0264 47.7391 72.8012 47.7649 71.5274C47.7962 70.0146 47.7919 68.5007 47.7693 66.9879C47.7628 66.5564 47.8911 66.4072 48.319 66.4364C48.9097 66.4764 49.5047 66.4926 50.0954 66.4721C50.5125 66.4569 50.6527 66.5856 50.6462 67.0192C50.6203 68.7299 50.6311 70.4417 50.63 72.1535C50.63 73.4328 50.6257 74.712 50.6473 75.9902C50.6494 76.1394 50.8003 76.4108 50.8887 76.4141C51.7985 76.4454 52.7093 76.4335 53.6514 76.4335V63.587L53.6525 63.5892Z" fill="#FFCD01"/>
<path d="M90.9838 76.4422C90.9547 76.2497 90.9547 76.1599 90.9267 76.0788C90.1916 73.9172 89.4511 71.7588 88.7192 69.5961C88.094 67.747 87.4655 65.8989 86.8705 64.0401C86.7455 63.6508 86.5849 63.4929 86.1667 63.5048C85.2159 63.5308 84.2631 63.5199 83.3113 63.4962C82.9976 63.4886 82.8639 63.6194 82.7712 63.893C82.3573 65.115 81.9294 66.3326 81.5123 67.5534C80.6036 70.2125 79.696 72.8705 78.7981 75.5328C78.7097 75.7966 78.687 76.0821 78.6191 76.44C79.6582 76.44 80.6391 76.4497 81.62 76.426C81.7278 76.4238 81.8798 76.2475 81.9272 76.1199C82.0695 75.7339 82.1547 75.3273 82.2905 74.9391C82.3735 74.7044 82.3897 74.4114 82.7853 74.4168C84.1326 74.4352 85.48 74.4136 86.8263 74.4406C86.974 74.4438 87.1874 74.6363 87.2489 74.7909C87.4332 75.2548 87.5442 75.7469 87.7135 76.2183C87.749 76.3167 87.9096 76.4324 88.0131 76.4335C88.98 76.4497 89.9469 76.4433 90.9838 76.4433V76.4422Z" fill="#FFCD01"/>
<path d="M67.3732 76.4444C67.0736 75.562 66.8127 74.7942 66.5529 74.0265C65.8307 71.8919 65.1118 69.7562 64.3853 67.6238C63.9519 66.3532 63.5154 65.0837 63.0551 63.8228C63.0055 63.6887 62.7932 63.5287 62.6531 63.5265C61.6129 63.5081 60.5705 63.5146 59.5304 63.547C59.3924 63.5514 59.1843 63.7179 59.1369 63.8541C58.4018 65.9639 57.6893 68.0823 56.9682 70.1963C56.5467 71.4345 56.1134 72.6683 55.6962 73.9075C55.4235 74.7164 55.1691 75.5317 54.8867 76.4055H58.1539C58.322 75.8734 58.4999 75.3501 58.6508 74.8191C58.7392 74.5109 58.9041 74.4093 59.2275 74.4158C60.3938 74.4363 61.5633 74.4623 62.7274 74.4082C63.3364 74.3801 63.566 74.5888 63.6889 75.1727C63.9595 76.453 63.9918 76.4455 65.3349 76.4433C65.9903 76.4433 66.6456 76.4433 67.3721 76.4433L67.3732 76.4444Z" fill="#FFCD01"/>
<path d="M40.6045 67.1815C40.7586 66.2266 40.8976 65.367 41.0496 64.4262C40.4191 64.4262 39.8488 64.4424 39.2808 64.4208C38.9046 64.4067 38.8 64.5668 38.7612 64.9236C38.6804 65.6665 38.5392 66.4018 38.4249 67.1252H36.8846C37.0139 66.2093 37.1357 65.3475 37.2608 64.4694H35.1136C34.9594 65.3907 34.8118 66.2688 34.6609 67.1696C34.1165 67.1696 33.6142 67.149 33.1151 67.1815C32.9578 67.1912 32.7023 67.321 32.6775 67.4367C32.5503 68.0271 32.4835 68.6305 32.3811 69.3236H34.3364C34.2437 69.7951 34.1672 70.179 34.0734 70.6559H32.1526C32.0351 71.3988 31.9327 72.0465 31.8152 72.784H33.7242C33.5776 73.7248 33.4428 74.5855 33.2984 75.5133C33.9053 75.5133 34.4604 75.4841 35.0112 75.522C35.4564 75.5534 35.5426 75.3511 35.5803 74.9618C35.6493 74.2503 35.783 73.5453 35.8929 72.8208H37.4699C37.3287 73.7215 37.194 74.5834 37.0527 75.4852H39.2107C39.3649 74.5866 39.5147 73.7075 39.6731 72.7818C40.2196 72.7818 40.7381 72.8035 41.2534 72.7678C41.4 72.758 41.6339 72.6012 41.6587 72.4791C41.7718 71.9038 41.8247 71.3177 41.9109 70.6472H40.0396C40.1108 70.1574 40.1679 69.7551 40.2315 69.3128C40.7694 69.3128 41.2706 69.3301 41.7697 69.3031C41.9206 69.2945 42.1728 69.1885 42.1944 69.0879C42.3226 68.4824 42.3981 67.8649 42.5016 67.1836H40.6077L40.6045 67.1815Z" fill="#FFCD01"/>
<path d="M22.4481 69.9843C22.4341 71.1901 23.4614 72.2336 24.6568 72.2292C25.739 72.226 26.8115 71.1252 26.8201 70.0114C26.8288 68.8284 25.8446 67.8692 24.605 67.853C23.3967 67.8368 22.4622 68.7603 22.4481 69.9843Z" fill="#FFCD01"/>
<path d="M116.606 70.06C116.621 68.7591 115.733 67.8605 114.424 67.854C113.215 67.8476 112.296 68.7581 112.27 69.9897C112.247 71.1533 113.259 72.1989 114.434 72.2238C115.553 72.2476 116.591 71.2127 116.605 70.06H116.606Z" fill="#FFCD01"/>
<path d="M104.206 63.5448H107.248C107.248 63.7665 107.248 63.9427 107.248 64.119C107.248 68.0476 107.243 71.9761 107.258 75.9047C107.26 76.3318 107.134 76.4573 106.711 76.4562C102.058 76.4421 97.405 76.4454 92.7527 76.4421C92.5964 76.4421 92.4391 76.4173 92.2537 76.401V63.5437C93.1785 63.5437 94.0721 63.5286 94.9635 63.5632C95.0735 63.5675 95.2589 63.8378 95.2632 63.9892C95.2891 65.0154 95.2761 66.0438 95.2761 67.07C95.2761 69.0521 95.2869 71.0343 95.2675 73.0164C95.2632 73.4717 95.399 73.6047 95.856 73.5776C96.603 73.5322 97.3554 73.5657 98.1994 73.5657V63.5513H101.225C101.225 63.7838 101.225 63.9784 101.225 64.1731C101.228 67.11 101.238 70.0481 101.225 72.985C101.223 73.4208 101.318 73.5852 101.797 73.5538C102.58 73.5019 103.368 73.5398 104.207 73.5398V63.5448H104.206Z" fill="black"/>
<path d="M68.5645 63.5697C68.6712 63.5491 68.7747 63.5113 68.8781 63.5124C70.5306 63.5199 72.183 63.5015 73.8333 63.5524C75.5191 63.6043 77.1834 64.518 77.6243 66.6569C77.814 67.5783 77.5488 68.3936 77.0638 69.1581C76.9409 69.3528 76.7868 69.5269 76.6197 69.7453C77.2804 70.2762 77.7493 70.9099 77.9919 71.7361C78.3648 73.0099 77.8151 74.7152 76.7717 75.5079C75.9287 76.148 74.9985 76.4216 73.9659 76.427C72.2962 76.4357 70.6254 76.4357 68.9558 76.4519C68.6335 76.4551 68.5192 76.3459 68.5203 76.0139C68.5289 71.9426 68.5267 67.8702 68.5289 63.7989C68.5289 63.7286 68.5505 63.6594 68.5655 63.5707L68.5645 63.5697ZM71.588 73.6187C72.4536 73.6187 73.2933 73.6382 74.1308 73.6112C74.576 73.5971 75.0233 73.104 75.0837 72.6498C75.1634 72.0497 74.9446 71.456 74.5016 71.4041C73.539 71.2895 72.5646 71.2797 71.5891 71.2278V73.6198L71.588 73.6187ZM71.5848 68.5385C72.3113 68.5385 72.972 68.5461 73.6328 68.5363C74.1427 68.5288 74.5921 68.0822 74.6482 67.5491C74.6999 67.057 74.3906 66.4915 73.9109 66.4472C73.1402 66.3769 72.3598 66.4288 71.5848 66.4288V68.5385Z" fill="black"/>
<path d="M53.6526 63.5892V76.4357C52.7095 76.4357 51.7986 76.4476 50.8899 76.4163C50.8005 76.413 50.6506 76.1416 50.6485 75.9924C50.6269 74.7131 50.6302 73.4339 50.6312 72.1557C50.6312 70.4439 50.6215 68.7321 50.6474 67.0214C50.6539 66.5878 50.5148 66.4591 50.0966 66.4743C49.5059 66.4948 48.9109 66.4786 48.3202 66.4386C47.8923 66.4094 47.764 66.5586 47.7705 66.9901C47.7931 68.5029 47.7974 70.0168 47.7662 71.5296C47.7403 72.8034 47.5172 74.0275 46.7077 75.0819C45.9348 76.0886 44.0237 76.7915 42.8768 76.4379C42.7808 76.4087 42.6666 76.2422 42.6644 76.1373C42.6472 75.3306 42.6547 74.5228 42.6547 73.6664C42.8725 73.6556 43.0449 73.6426 43.2174 73.6404C44.1412 73.6285 44.6877 73.1192 44.7038 72.1806C44.7318 70.5056 44.7265 68.8295 44.734 67.1544C44.7383 66.1098 44.7469 65.0652 44.7416 64.0207C44.7405 63.7308 44.7847 63.533 45.1415 63.533C47.9246 63.5405 50.7078 63.5394 53.4909 63.5438C53.5405 63.5438 53.589 63.5719 53.6537 63.5914L53.6526 63.5892Z" fill="black"/>
<path d="M90.9838 76.4422C89.9469 76.4422 88.98 76.4486 88.0131 76.4324C87.9086 76.4303 87.748 76.3156 87.7135 76.2172C87.5442 75.7468 87.4332 75.2537 87.2489 74.7898C87.1874 74.6363 86.974 74.4427 86.8263 74.4395C85.48 74.4124 84.1316 74.4352 82.7853 74.4157C82.3907 74.4103 82.3735 74.7033 82.2905 74.938C82.1536 75.3262 82.0685 75.7328 81.9272 76.1188C81.8809 76.2464 81.7278 76.4227 81.62 76.4249C80.6402 76.4486 79.6582 76.4389 78.6191 76.4389C78.6881 76.081 78.7097 75.7955 78.7981 75.5317C79.696 72.8694 80.6047 70.2114 81.5123 67.5523C81.9294 66.3315 82.3573 65.1139 82.7712 63.8919C82.8639 63.6194 82.9976 63.4875 83.3113 63.4951C84.2631 63.5188 85.2159 63.5307 86.1667 63.5037C86.5849 63.4918 86.7466 63.6497 86.8705 64.039C87.4666 65.8978 88.094 67.7459 88.7192 69.595C89.4511 71.7577 90.1927 73.9161 90.9267 76.0777C90.9537 76.1588 90.9547 76.2486 90.9838 76.4411V76.4422ZM86.1936 71.5187C85.7355 70.0719 85.2914 68.6715 84.8484 67.2722C84.8085 67.2766 84.7686 67.2798 84.7287 67.2841C84.2922 68.6845 83.8556 70.0838 83.4094 71.5187H86.1936Z" fill="black"/>
<path d="M67.3734 76.4443C66.6469 76.4443 65.9915 76.4443 65.3361 76.4443C63.993 76.4465 63.9607 76.454 63.6901 75.1737C63.5673 74.5898 63.3377 74.3811 62.7287 74.4092C61.5645 74.4622 60.395 74.4373 59.2287 74.4167C58.9053 74.4113 58.7393 74.5119 58.652 74.8201C58.5 75.351 58.3232 75.8744 58.1551 76.4064H54.8879C55.1704 75.5327 55.4247 74.7174 55.6975 73.9085C56.1146 72.6693 56.5479 71.4344 56.9694 70.1973C57.6905 68.0822 58.403 65.9649 59.1381 63.8551C59.1856 63.7189 59.3936 63.5523 59.5316 63.548C60.5718 63.5156 61.613 63.5091 62.6543 63.5275C62.7944 63.5296 63.0078 63.6897 63.0563 63.8238C63.5166 65.0846 63.9532 66.3541 64.3865 67.6247C65.113 69.7572 65.832 71.8929 66.5541 74.0275C66.8139 74.7952 67.0748 75.563 67.3744 76.4454L67.3734 76.4443ZM62.5238 71.5155C62.0528 70.0372 61.6033 68.6239 61.1118 67.0797C60.6192 68.6445 60.1762 70.0513 59.7148 71.5155H62.5238Z" fill="black"/>
<path d="M40.6045 67.1814H42.4984C42.3949 67.8638 42.3195 68.4802 42.1912 69.0857C42.1696 69.1863 41.9174 69.2933 41.7665 69.3009C41.2674 69.3279 40.7673 69.3106 40.2283 69.3106C40.1647 69.754 40.1065 70.1552 40.0365 70.645H41.9077C41.8215 71.3155 41.7687 71.9027 41.6555 72.4769C41.6318 72.6001 41.3968 72.7558 41.2502 72.7656C40.7349 72.8013 40.2165 72.7796 39.67 72.7796C39.5115 73.7053 39.3606 74.5844 39.2075 75.483H37.0496C37.1908 74.5812 37.3255 73.7193 37.4667 72.8186H35.8897C35.7809 73.5431 35.6461 74.2481 35.5771 74.9597C35.5394 75.3489 35.4532 75.5512 35.008 75.5198C34.4572 75.4819 33.9021 75.5111 33.2952 75.5111C33.4397 74.5833 33.5744 73.7226 33.721 72.7818H31.812C31.9284 72.0443 32.0308 71.3966 32.1494 70.6537H34.0702C34.1651 70.1757 34.2405 69.7929 34.3332 69.3215H32.3779C32.4803 68.6272 32.5471 68.0238 32.6743 67.4345C32.6991 67.3188 32.9557 67.1901 33.112 67.1793C33.611 67.1468 34.1133 67.1674 34.6577 67.1674C34.8086 66.2666 34.9563 65.3886 35.1104 64.4672H37.2576C37.1337 65.3453 37.0118 66.2071 36.8814 67.1231H38.4218C38.536 66.3996 38.6772 65.6632 38.7581 64.9214C38.7969 64.5646 38.9014 64.4045 39.2776 64.4186C39.8467 64.4402 40.417 64.424 41.0465 64.424C40.8945 65.3648 40.7554 66.2255 40.6013 67.1793L40.6045 67.1814ZM36.2799 70.592C37.8634 70.7553 38.162 70.5218 37.9593 69.3571H36.4837C36.4125 69.7886 36.3479 70.1746 36.2789 70.592H36.2799Z" fill="black"/>
<path d="M22.4481 69.9843C22.4622 68.7602 23.3956 67.8378 24.605 67.853C25.8446 67.8692 26.8288 68.8284 26.8201 70.0114C26.8115 71.1252 25.739 72.226 24.6568 72.2292C23.4614 72.2335 22.4341 71.19 22.4481 69.9843Z" fill="black"/>
<path d="M116.606 70.06C116.593 71.2127 115.555 72.2465 114.435 72.2238C113.26 72.1989 112.247 71.1533 112.271 69.9897C112.297 68.7581 113.216 67.8465 114.425 67.8541C115.734 67.8616 116.621 68.7602 116.607 70.06H116.606Z" fill="black"/>
<path d="M71.588 73.6188V71.2268C72.5635 71.2798 73.5379 71.2895 74.5005 71.4031C74.9435 71.4561 75.1623 72.0486 75.0826 72.6488C75.0222 73.103 74.576 73.5961 74.1297 73.6101C73.2922 73.6372 72.4536 73.6177 71.5869 73.6177L71.588 73.6188Z" fill="#FFCD01"/>
<path d="M71.5835 68.5385V66.4288C72.3585 66.4288 73.14 66.3779 73.9096 66.4471C74.3893 66.4904 74.6987 67.057 74.6469 67.549C74.5909 68.0822 74.1414 68.5288 73.6315 68.5363C72.9708 68.5461 72.31 68.5385 71.5835 68.5385Z" fill="#FFCD01"/>
<path d="M86.1937 71.5177H83.4094C83.8568 70.0828 84.2933 68.6835 84.7288 67.2831C84.7687 67.2788 84.8086 67.2756 84.8484 67.2712C85.2915 68.6705 85.7356 70.0709 86.1937 71.5177Z" fill="#FFCD01"/>
<path d="M62.5249 71.5156H59.7158C60.1772 70.0514 60.6202 68.6446 61.1128 67.0798C61.6043 68.624 62.0538 70.0373 62.5249 71.5156Z" fill="#FFCD01"/>
<path d="M36.28 70.5921C36.349 70.1747 36.4126 69.7886 36.4848 69.3572H37.9605C38.1631 70.5218 37.8646 70.7554 36.2811 70.5921H36.28Z" fill="#FFCD01"/>
</g>
<defs>
<clipPath id="clip0_1541_21180">
<rect width="115" height="38" fill="white" transform="translate(12 51)"/>
</clipPath>
</defs>
</svg>
