<svg width="140" height="140" viewBox="0 0 140 140" fill="none" xmlns="http://www.w3.org/2000/svg">
<rect width="140" height="140" rx="30" fill="url(#paint0_radial_571_619)"/>
<path d="M52 78C54.5898 73.175 56.9323 68.8061 59.5103 64C62.0618 68.7212 64.4132 73.0618 67 77.8459C61.9882 78.1415 57.2178 77.8836 52 77.9969V78Z" fill="white"/>
<path d="M79.018 64C81.432 68.8383 83.6441 73.2761 86 78H72C74.3559 73.2984 76.5819 68.8606 79.018 64Z" fill="white"/>
<path d="M52 80H67C64.4777 84.7111 62.098 89.1586 59.5074 94C56.9406 89.2094 54.5579 84.7683 52.003 80H52Z" fill="white"/>
<path d="M32 69.5045C27.4916 72.104 23.3461 74.4955 19 77V62C23.3815 64.5282 27.5152 66.9168 32 69.5045Z" fill="white"/>
<path d="M19 42C23.3698 44.6841 27.5148 47.2289 32 49.9826C27.5414 52.7331 23.3757 55.3033 19 58V42Z" fill="white"/>
<path d="M76 95H62C64.3462 90.2863 66.5628 85.826 68.9642 81C71.349 85.7458 73.5904 90.2028 76 95Z" fill="white"/>
<path d="M120 87C115.601 84.2978 111.442 81.7387 107 79.0111C111.433 76.2803 115.585 73.7212 120 71V87Z" fill="white"/>
<path d="M19 81C23.3983 83.7078 27.5012 86.232 32 88.9968C27.5308 91.749 23.3806 94.3048 19 97V81Z" fill="white"/>
<path d="M72.0028 80H86C83.6644 84.6847 81.4479 89.1342 79.0235 94C76.6103 89.1914 74.3717 84.726 72 80H72.0028Z" fill="white"/>
<path d="M105 77V62C109.71 64.5154 114.169 66.8968 119 69.4777C114.172 72.0705 109.717 74.4668 105 76.997V77Z" fill="white"/>
<path d="M56.9968 63C54.2897 67.7438 51.7466 72.1951 49.0047 77C46.2818 72.2401 43.7135 67.747 41 63H57H56.9968Z" fill="white"/>
<path d="M105 58V42C109.718 44.6952 114.19 47.2476 119 49.9937C114.196 52.7397 109.718 55.3016 105 58Z" fill="white"/>
<path d="M119 89.0064C114.144 91.7773 109.702 94.3152 105 97V81C109.631 83.6496 114.096 86.2003 119 89.0064Z" fill="white"/>
<path d="M88.5193 77C85.9417 72.2006 83.5361 67.7255 81 63H96C93.4817 67.7095 91.1088 72.1525 88.5193 77Z" fill="white"/>
<path d="M34 87C29.2197 84.2685 24.7803 81.7362 20 79.0047C24.7931 76.2638 29.2615 73.7093 34 71V87Z" fill="white"/>
<defs>
<radialGradient id="paint0_radial_571_619" cx="0" cy="0" r="1" gradientUnits="userSpaceOnUse" gradientTransform="translate(70 70) rotate(90) scale(70)">
<stop stop-color="#ED0E5E"/>
<stop offset="1" stop-color="#E60047"/>
</radialGradient>
</defs>
</svg>
