<svg width="140" height="140" viewBox="0 0 140 140" fill="none" xmlns="http://www.w3.org/2000/svg">
<rect width="140" height="140" rx="30" fill="#F25822"/>
<g clip-path="url(#clip0_816_657)">
<path d="M28.3035 76.8519C28.3035 79.1225 27.6033 80.8885 26.203 82.1499C24.8026 83.4113 22.8668 84 20.3544 84C19.3247 84 18.3362 83.8739 17.3889 83.6216C16.4416 83.3693 15.659 82.9909 15 82.5283V77.1883C15.7826 77.7349 16.6887 78.1554 17.7596 78.5338C18.7892 78.9122 19.7365 79.0804 20.5603 79.0804C21.2605 79.0804 21.7959 78.9122 22.1666 78.6179C22.5373 78.3236 22.702 77.8611 22.702 77.2724C22.702 77.0201 22.6609 76.7258 22.5373 76.5155C22.4137 76.2633 22.249 76.011 22.043 75.8007C21.8371 75.5484 21.2605 75.0439 20.3544 74.2029C19.2423 73.2358 18.4186 72.2687 17.9243 71.2596C17.4301 70.2505 17.1829 69.1572 17.1829 67.9799C17.1829 66.6344 17.4712 65.457 18.1302 64.3638C18.7481 63.3126 19.613 62.4717 20.7662 61.883C21.8783 61.2943 23.1139 61 24.5555 61C26.8208 61 28.839 61.5887 30.6512 62.6819L28.7154 67.223C27.1091 66.298 25.7087 65.8775 24.5555 65.8775C23.9377 65.8775 23.4846 66.0037 23.1551 66.298C22.8256 66.5923 22.6609 67.0128 22.6609 67.5594C22.6609 68.064 22.8256 68.5265 23.1551 68.947C23.4846 69.3675 24.0612 69.9561 24.9673 70.6709C26.0794 71.5539 26.9032 72.479 27.4386 73.4881C27.974 74.4552 28.2623 75.5905 28.2623 76.8519H28.3035Z" fill="white"/>
<path d="M38.1061 83.7057H32.5458L35.9232 66.298H31.3926L32.3811 61.3784H47.0026L46.0141 66.298H41.4835L38.1061 83.7057Z" fill="white"/>
<path d="M44.5312 83.7057L48.9383 61.3364H54.581L50.1739 83.7057H44.5312Z" fill="white"/>
<path d="M65.8253 65.9616C64.7956 65.9616 63.8483 66.34 63.0246 67.1389C62.2008 67.9378 61.5418 69.0311 61.0888 70.4186C60.6357 71.8062 60.3886 73.3199 60.3886 74.9598C60.3886 76.3473 60.6357 77.3565 61.1712 78.0292C61.7066 78.702 62.448 79.0384 63.4776 79.0384C64.2602 79.0384 65.084 78.9543 65.8665 78.7441C66.6903 78.5338 67.6376 78.1554 68.7084 77.6508V82.6124C66.7726 83.5375 64.6721 83.9579 62.448 83.9579C59.9767 83.9579 58.0821 83.2011 56.7641 81.7294C55.4461 80.2157 54.7871 78.0713 54.7871 75.2962C54.7871 72.521 55.2814 70.0823 56.2287 67.8117C57.176 65.5411 58.494 63.8592 60.1415 62.6819C61.789 61.5466 63.6836 60.9579 65.8253 60.9579C68.3378 60.9579 70.6031 61.6307 72.6624 62.9762L70.5619 67.6435C69.6969 67.0969 68.8732 66.6764 68.1318 66.3821C67.3904 66.0877 66.6491 65.9616 65.8253 65.9616Z" fill="white"/>
<path d="M88.2725 68.0219C88.2725 70.5868 87.4488 72.6051 85.8425 74.0768C84.195 75.5484 81.9708 76.2632 79.1701 76.2632H77.9345L76.4929 83.7057H70.9326L75.3397 61.3364H80.6528C83.1241 61.3364 85.0187 61.925 86.2955 63.0603C87.6547 64.1956 88.2725 65.8775 88.2725 68.0219ZM78.923 71.3857H79.8291C80.694 71.3857 81.3942 71.0914 81.9296 70.5027C82.4651 69.9141 82.7122 69.1572 82.7122 68.2322C82.7122 67.6435 82.5475 67.1389 82.218 66.7605C81.8885 66.3821 81.4354 66.2139 80.8176 66.2139H79.9527L78.923 71.3857Z" fill="white"/>
<path d="M99.6811 79.5009H93.2971L91.526 83.7057H85.7598L96.3449 61.3364H103.512L105.241 83.7057H99.8459L99.7223 79.5009H99.6811ZM95.3152 74.7495H99.4752L99.228 68.2742V66.9707C99.228 66.2139 99.228 65.5411 99.228 64.9525C98.9809 65.8355 98.7338 66.6764 98.3631 67.4753L95.274 74.7495H95.3152Z" fill="white"/>
<path d="M115.374 69.6197L119.822 61.3364H126.041L117.351 75.0018L115.621 83.7057H110.061L111.79 75.0439L108.413 61.3784H114.138L115.415 69.6618L115.374 69.6197Z" fill="white"/>
</g>
<defs>
<clipPath id="clip0_816_657">
<rect width="111" height="23" fill="white" transform="translate(15 61)"/>
</clipPath>
</defs>
</svg>
