<svg width="140" height="140" viewBox="0 0 140 140" fill="none" xmlns="http://www.w3.org/2000/svg">
<rect width="140" height="140" rx="30" fill="#E66B1D"/>
<g clip-path="url(#clip0_820_986)">
<path d="M54.6045 71.6649C55.005 71.7923 55.4156 71.8937 55.8022 72.0529C57.4705 72.7413 58.4699 73.9788 58.6842 75.7615C58.9846 78.2624 58.1615 80.4052 56.439 82.2237C55.0711 83.6682 53.3527 84.5138 51.454 85.037C50.3345 85.3454 49.1929 85.5285 48.0312 85.5683C47.3443 85.5921 46.6553 85.61 45.9683 85.612C43.6691 85.618 41.3719 85.616 39.0727 85.612C38.8664 85.612 38.6561 85.5981 38.4538 85.5583C37.7668 85.427 37.4143 84.9117 37.5565 84.2273C38.0973 81.6129 38.6461 78.9986 39.1928 76.3843C39.7777 73.5928 40.3625 70.7994 40.9453 68.008C41.43 65.6961 41.9086 63.3842 42.3993 61.0743C42.5996 60.1312 43.2746 59.5522 44.2479 59.5463C46.9457 59.5323 49.6455 59.5124 52.3433 59.5642C53.8073 59.592 55.2554 59.8188 56.6193 60.4058C57.839 60.931 58.8144 61.7149 59.293 62.9903C59.6035 63.8159 59.6475 64.6735 59.5634 65.5469C59.4473 66.7685 59.0567 67.8827 58.3317 68.8795C57.4344 70.113 56.2488 70.9745 54.8308 71.5316C54.7567 71.5615 54.6866 71.5953 54.6165 71.6311C54.6065 71.6371 54.6045 71.659 54.6025 71.6649H54.6045ZM45.694 81.6209C45.694 81.6388 45.694 81.6567 45.696 81.6746C46.7655 81.6149 47.843 81.6269 48.9005 81.4816C51.2017 81.1653 52.6457 79.6631 52.9682 77.3791C53.1564 76.0381 52.5175 74.9657 51.2417 74.4802C50.5748 74.2275 49.8778 74.136 49.1748 74.1241C47.871 74.1022 46.5652 74.1181 45.2594 74.1121C45.0951 74.1121 45.025 74.1599 44.989 74.331C44.5043 76.6827 44.0136 79.0324 43.5189 81.3821C43.4789 81.5672 43.5449 81.6249 43.7232 81.6229C44.3801 81.6189 45.037 81.6229 45.692 81.6229L45.694 81.6209ZM45.8562 70.2662C45.9543 70.2742 46.0244 70.2821 46.0945 70.2821C47.2061 70.2821 48.3196 70.2901 49.4312 70.2762C49.7557 70.2722 50.0861 70.2304 50.4046 70.1588C52.5536 69.6873 53.9255 67.9643 53.9195 65.7717C53.9195 64.95 53.555 64.3432 52.842 63.9373C52.3173 63.6409 51.7384 63.4996 51.1456 63.4817C49.9459 63.4439 48.7462 63.4499 47.5466 63.4319C47.3663 63.43 47.2842 63.4797 47.2441 63.6747C46.8736 65.4574 46.4891 67.2381 46.1105 69.0188C46.0244 69.4266 45.9423 69.8365 45.8562 70.2642V70.2662Z" fill="white"/>
<path d="M29.1189 73.6684C29.1269 73.6824 29.1289 73.7023 29.141 73.7062C30.2505 74.2076 30.8193 75.1587 31.2559 76.2191C31.6765 77.2378 31.8888 78.3122 32.1131 79.3826C32.4316 80.8867 32.746 82.3909 33.0524 83.897C33.1185 84.2213 33.1546 84.5555 33.1806 84.8858C33.2107 85.2599 33.1105 85.423 32.742 85.5145C32.3575 85.61 31.9589 85.6876 31.5644 85.6996C30.6611 85.7274 29.7558 85.7215 28.8526 85.7016C28.5281 85.6956 28.2036 85.626 27.8832 85.5603C27.5547 85.4927 27.3565 85.2798 27.2964 84.9455C27.0721 83.7299 26.8578 82.5122 26.6214 81.3006C26.3771 80.0491 26.1448 78.7937 25.8423 77.5561C25.7282 77.0906 25.4758 76.6409 25.2154 76.2291C24.7228 75.4511 23.9617 75.0532 23.0564 74.9816C22.3094 74.9219 21.5543 74.9438 20.8033 74.9239C20.647 74.9199 20.607 74.9935 20.5769 75.1328C20.2004 76.9473 19.8159 78.7618 19.4333 80.5763C19.1389 81.979 18.8385 83.3817 18.5561 84.7883C18.476 85.1902 18.2437 85.427 17.8611 85.5165C17.5206 85.5961 17.1742 85.6737 16.8257 85.6976C15.7962 85.7692 14.7648 85.7891 13.7393 85.612C13.6072 85.5882 13.473 85.5523 13.3488 85.5046C13.0344 85.3832 12.9522 85.23 13.0223 84.8958C13.6893 81.7164 14.3602 78.537 15.0271 75.3576C15.7381 71.9693 16.4491 68.579 17.1601 65.1907C17.4506 63.81 17.735 62.4292 18.0314 61.0504C18.2256 60.1471 18.9126 59.5641 19.8539 59.5482C21.2299 59.5244 22.6078 59.5343 23.9857 59.5363C25.4678 59.5363 26.9499 59.5104 28.43 59.5602C29.9381 59.6119 31.4202 59.8566 32.8001 60.5112C34.178 61.1658 35.1814 62.1606 35.604 63.6528C35.8484 64.5143 35.8263 65.3957 35.7282 66.2771C35.578 67.6181 35.1474 68.8596 34.3803 69.9757C33.1846 71.7186 31.5223 72.8328 29.5275 73.4953C29.3993 73.5371 29.2731 73.5849 29.147 73.6326C29.135 73.6366 29.1289 73.6565 29.1189 73.6704V73.6684ZM21.4462 70.9586C21.4962 70.9765 21.5183 70.9924 21.5403 70.9924C22.8902 70.9705 24.2481 71.0959 25.592 70.891C26.5393 70.7477 27.4125 70.3995 28.1696 69.8086C29.3132 68.9153 29.86 67.7175 29.89 66.289C29.918 64.9659 29.2852 64.1124 28.0014 63.7702C27.4746 63.6289 26.9178 63.5533 26.3731 63.5354C25.3336 63.4996 24.2922 63.5294 23.2507 63.5195C23.0524 63.5195 22.9763 63.5792 22.9363 63.7761C22.5157 65.8254 22.0831 67.8727 21.6545 69.92C21.5823 70.2662 21.5163 70.6144 21.4482 70.9586H21.4462Z" fill="white"/>
<path d="M71.0118 63.81H70.6873C68.5644 63.81 66.4434 63.81 64.3204 63.81C63.8838 63.81 63.7436 63.7264 63.7176 63.2867C63.6935 62.8569 63.7196 62.4133 63.8017 61.9915C63.9058 61.4503 64.0781 60.9191 64.2423 60.3898C64.2924 60.2267 64.4025 60.0795 64.4966 59.9322C64.6769 59.6477 64.9273 59.5264 65.2797 59.5283C71.5986 59.5363 77.9155 59.5363 84.2344 59.5283C84.675 59.5283 84.8652 59.6915 84.8793 60.1352C84.9113 61.2155 84.681 62.2481 84.2083 63.2191C84.008 63.6289 83.6956 63.8259 83.1929 63.8199C81.0879 63.7941 78.981 63.8139 76.874 63.804C76.6397 63.804 76.5596 63.8776 76.5135 64.0945C75.9167 66.9814 75.3098 69.8663 74.707 72.7512C74.044 75.9306 73.3811 79.112 72.7182 82.2934C72.5419 83.139 72.3677 83.9845 72.1874 84.8301C72.1153 85.1664 71.893 85.3812 71.5726 85.4668C71.2201 85.5603 70.8576 85.6459 70.4951 85.6817C69.4095 85.7851 68.324 85.801 67.2485 85.5703C67.1864 85.5563 67.1243 85.5384 67.0643 85.5185C66.6897 85.3892 66.5816 85.2081 66.6597 84.8281C66.7578 84.3466 66.866 83.8672 66.9661 83.3857C67.4868 80.8867 68.0036 78.3898 68.5263 75.8908C69.1091 73.0974 69.6919 70.306 70.2768 67.5146C70.5211 66.3427 70.7674 65.1728 71.0118 64.001C71.0218 63.9552 71.0118 63.9075 71.0118 63.812V63.81Z" fill="white"/>
<path d="M112.576 82.7848C112.472 82.9241 112.375 83.0673 112.265 83.2006C111.026 84.6789 109.469 85.6399 107.545 85.9304C106.531 86.0836 105.516 85.998 104.556 85.5941C103.373 85.0947 102.766 84.1636 102.544 82.94C102.327 81.7343 102.514 80.5525 102.756 79.3766C103.353 76.4738 103.966 73.5749 104.558 70.6721C104.639 70.2782 104.847 70.0414 105.227 70.0056C105.958 69.9379 106.691 69.8922 107.425 69.8763C107.763 69.8683 108.109 69.932 108.444 70.0016C108.818 70.0792 108.893 70.2244 108.816 70.6005C108.21 73.5332 107.599 76.4658 106.998 79.4005C106.866 80.0491 106.816 80.7057 106.928 81.3642C107.09 82.3153 107.805 82.5958 108.626 82.4744C109.431 82.3531 110.092 81.9352 110.677 81.402C112.095 80.1108 112.916 78.4853 113.305 76.6349C113.735 74.5956 114.146 72.5523 114.565 70.511C114.607 70.308 114.719 70.1548 114.917 70.0951C115.145 70.0255 115.378 69.9578 115.612 69.932C116.537 69.8265 117.463 69.8007 118.38 69.9937C118.808 70.0852 118.869 70.2065 118.778 70.6363C118.079 73.9788 117.38 77.3214 116.682 80.6639C116.379 82.1143 116.071 83.5627 115.77 85.0152C115.708 85.3136 115.534 85.4927 115.241 85.5663C114.559 85.7354 113.864 85.7334 113.169 85.6876C112.978 85.6757 112.786 85.6478 112.6 85.6081C112.223 85.5285 112.133 85.3872 112.207 85.0152C112.341 84.3307 112.48 83.6483 112.614 82.9639C112.624 82.9121 112.622 82.8564 112.624 82.8027C112.608 82.7967 112.59 82.7928 112.574 82.7868L112.576 82.7848Z" fill="white"/>
<path d="M95.4795 72.797C95.7779 72.3991 96.0142 72.0409 96.2926 71.7186C97.1077 70.7716 98.0631 70.0115 99.3048 69.6952C100.068 69.5002 100.825 69.5758 101.568 69.8325C101.814 69.918 101.921 70.0712 101.902 70.3358C101.836 71.259 101.648 72.1563 101.342 73.0278C101.308 73.1253 101.262 73.2188 101.214 73.3103C100.989 73.742 100.827 73.8037 100.368 73.6446C99.7815 73.4396 99.1767 73.2506 98.5738 73.5113C98.1612 73.6903 97.7547 73.9231 97.4162 74.2136C96.0362 75.3914 95.2411 76.9095 94.8786 78.6663C94.444 80.7693 94.0034 82.8703 93.5728 84.9734C93.4787 85.4349 93.1242 85.5464 92.7456 85.6041C91.8003 85.7493 90.851 85.7612 89.9036 85.612C89.7795 85.5921 89.6533 85.5583 89.5371 85.5086C89.3328 85.425 89.2547 85.2738 89.3028 85.049C90.2561 80.5047 91.2075 75.9605 92.1588 71.4162C92.2149 71.1516 92.273 70.889 92.315 70.6223C92.3691 70.2702 92.5694 70.0593 92.9119 69.9976C93.2483 69.9359 93.5908 69.8683 93.9313 69.8663C94.44 69.8643 94.9547 69.8922 95.4594 69.9558C95.9101 70.0135 96.0002 70.1906 95.9061 70.6383C95.7739 71.267 95.6437 71.8937 95.5155 72.5224C95.5015 72.5901 95.4995 72.6617 95.4855 72.793L95.4795 72.797Z" fill="white"/>
<path d="M118.849 84.7943C118.951 84.669 119.009 84.5993 119.063 84.5297C119.41 84.0959 119.764 83.6662 120.103 83.2245C120.295 82.9718 120.453 82.6933 120.639 82.4346C121.32 81.4856 121.513 80.4152 121.402 79.2871C121.278 78.0257 121.068 76.7702 120.974 75.5068C120.89 74.3747 121.166 73.2884 121.799 72.3314C122.17 71.7684 122.592 71.2332 123.045 70.7338C123.722 69.9897 124.417 69.2654 124.951 68.4079C125.755 67.1226 126.061 65.724 125.955 64.2218C125.881 63.1892 125.759 62.1685 125.366 61.1996C124.701 59.5542 123.503 58.3903 121.963 57.5507C120.567 56.7887 119.057 56.3708 117.493 56.1241C116.209 55.9212 114.917 55.8496 113.62 55.8933C111.36 55.9729 109.141 56.333 106.96 56.916C106.429 57.0572 105.905 57.2303 105.372 57.3636C105.198 57.4074 104.991 57.4134 104.821 57.3636C104.417 57.2443 104.036 57.0294 103.626 56.9478C102.5 56.729 101.467 57.0115 100.535 57.6561C99.5659 58.3286 98.959 59.2438 98.7828 60.4157C98.7467 60.6564 98.7447 60.9091 98.7707 61.1538C98.7968 61.3966 98.6886 61.5159 98.4923 61.6194C97.555 62.1148 96.6878 62.7117 95.8967 63.412C95.1096 64.1104 94.3886 64.8684 93.992 65.8612C93.8639 66.1816 93.7998 66.5297 93.7377 66.872C93.6876 67.1425 93.8238 67.2838 94.1022 67.2719C95.2358 67.2181 96.3714 67.1644 97.505 67.0908C98.262 67.0411 99.0171 66.9714 99.7721 66.8919C100.748 66.7864 101.723 66.671 102.696 66.5437C103.788 66.3984 104.877 66.2452 105.967 66.0761C107.639 65.8175 109.32 65.7001 111.01 65.7518C113.129 65.8155 115.2 66.1796 117.233 66.7705C117.914 66.9694 118.591 67.1863 119.259 67.4231C119.502 67.5086 119.72 67.6718 119.936 67.817C119.993 67.8548 120.001 67.9623 120.031 68.0379C119.95 68.0518 119.862 68.0936 119.788 68.0777C119.217 67.9623 118.653 67.813 118.078 67.7215C116.96 67.5444 115.839 67.3773 114.713 67.244C112.708 67.0073 110.691 66.9456 108.677 66.9774C107.124 67.0013 105.574 67.0789 104.024 67.1605C102.716 67.2301 101.408 67.3335 100.103 67.443C98.5985 67.5683 97.0964 67.7195 95.5923 67.8588C94.8993 67.9225 94.2083 67.9881 93.5154 68.0498C93.0006 68.0956 92.8084 67.8687 92.9205 67.3654C93.2931 65.718 94.1422 64.3312 95.3439 63.1653C96.0689 62.461 96.8701 61.8343 97.6291 61.1638C97.7193 61.0842 97.8174 60.9529 97.8194 60.8415C97.8615 59.6596 98.3281 58.6529 99.1012 57.7815C99.9644 56.8085 101.036 56.1679 102.342 55.9868C103.321 55.8515 104.256 56.0227 105.096 56.5738C105.272 56.6892 105.416 56.6951 105.604 56.6255C107.493 55.9391 109.44 55.4795 111.431 55.2089C112.732 55.0318 114.044 54.9542 115.356 55.0179C117.429 55.1214 119.476 55.382 121.437 56.1102C123.059 56.7111 124.477 57.6004 125.504 59.019C126.275 60.0854 126.714 61.2812 126.88 62.5804C127.086 64.188 127.03 65.7757 126.54 67.3355C126.181 68.4756 125.534 69.4346 124.729 70.306C124.194 70.885 123.678 71.4839 123.177 72.0947C122.142 73.3601 121.895 74.8403 121.987 76.4201C122.051 77.5223 122.124 78.6265 122.093 79.7288C122.061 80.9544 121.575 82.0407 120.784 82.9858C120.523 83.2981 120.291 83.6364 120.007 83.9248C119.718 84.2173 119.384 84.464 119.065 84.7267C119.029 84.7565 118.965 84.7565 118.841 84.7883L118.849 84.7943Z" fill="white"/>
<path d="M82.2333 85.8368C81.9308 85.799 81.5383 85.7831 81.1598 85.6976C80.5309 85.5543 80.1884 85.1564 80.1623 84.5197C80.1263 83.5607 80.3246 82.6415 80.7892 81.794C81.1097 81.211 81.6705 80.9802 82.2913 80.8887C82.9503 80.7912 83.6132 80.7852 84.2701 80.9225C85.0092 81.0757 85.3296 81.4339 85.3657 82.18C85.4097 83.0693 85.2194 83.9129 84.8409 84.7167C84.5265 85.3872 83.9437 85.6558 83.2547 85.7533C82.9463 85.7971 82.6338 85.805 82.2333 85.8368Z" fill="white"/>
<path d="M97.8452 64.3869C97.7911 64.373 97.6869 64.3631 97.5948 64.3213C97.3785 64.2258 97.3324 64.0209 97.4766 63.8318C97.6809 63.5632 98.1896 63.4359 98.4961 63.5772C98.7244 63.6826 98.7785 63.8856 98.6162 64.0786C98.43 64.2994 98.1756 64.379 97.8452 64.3889V64.3869Z" fill="white"/>
</g>
<defs>
<clipPath id="clip0_820_986">
<rect width="114" height="31" fill="white" transform="translate(13 55)"/>
</clipPath>
</defs>
</svg>
