<svg width="140" height="140" viewBox="0 0 140 140" fill="none" xmlns="http://www.w3.org/2000/svg">
<rect width="140" height="140" rx="30" fill="#FF476E"/>
<g clip-path="url(#clip0_811_34)">
<path d="M66.4505 30C89.5171 30.0212 106.809 42.3506 112.755 60.6468C115.671 69.6194 116.04 78.698 112.111 87.4983C106.882 99.2138 97.7663 106.248 85.0081 108.437C74.6204 110.222 65.2149 107.709 56.9657 101.294C48.9727 95.0798 44.5187 86.842 43.6828 76.7927C43.5516 75.2202 43.039 74.9026 41.5838 74.9268C36.7088 75.0085 31.8306 74.9057 26.9555 74.9934C25.3783 75.0206 24.9451 74.4702 25.0031 72.9823C25.4546 61.6508 29.5029 51.789 37.4714 43.651C46.3644 34.5755 57.3104 30.0998 66.4505 30ZM79.0805 90.8158C88.3884 90.8762 95.6613 83.7241 95.7437 74.4309C95.823 65.5792 88.5378 58.4392 79.5809 58.17C70.3371 57.8918 62.6126 65.4885 62.3411 73.947C62.0421 83.2161 69.9008 90.8309 79.0775 90.8158H79.0805Z" fill="white"/>
</g>
<defs>
<clipPath id="clip0_811_34">
<rect width="90" height="79" fill="white" transform="translate(25 30)"/>
</clipPath>
</defs>
</svg>
