<svg width="140" height="140" viewBox="0 0 140 140" fill="none" xmlns="http://www.w3.org/2000/svg">
<rect width="140" height="140" rx="30" fill="white"/>
<g clip-path="url(#clip0_816_669)">
<path d="M70.1419 129.339C103.171 129.339 129.946 102.564 129.946 69.535C129.946 36.5062 103.171 9.73102 70.1419 9.73102C37.113 9.73102 10.3379 36.5062 10.3379 69.535C10.3379 102.564 37.113 129.339 70.1419 129.339Z" fill="url(#paint0_linear_816_669)"/>
<path d="M54.2929 55.4415L51.9456 61.9246L50.1305 62.6822L49.4956 63.1414L49.164 63.6569V64.5885L49.348 66.1965L49.8139 68.2918C49.8139 68.2918 50.4554 69.8086 50.4554 69.8649C50.4554 69.9213 51.0422 73.4289 51.0422 73.4289L50.525 76.8056L48.564 81.404V84.0845L49.0016 87.1296L49.227 90.5643L50.7637 94.7218L55.8461 98.7068L58.2962 100.686L60.0052 102.791L63.4814 104.146L67.8726 103.756L74.805 101.588L85.2301 95.7943L89.1803 92.8602L91.7199 68.426V53.4871L81.3677 50.4253L76.9716 46.6724L59.4151 49.2965L54.2929 55.4448V55.4415Z" fill="#F5E2CA"/>
<path d="M20.5358 103.088C24.6386 99.8921 29.3016 98.6936 34.9543 100.051L40.5208 101.046L49.8651 95.5092L55.0884 98.1167L57.7175 100.164L62.1269 104.142H64.7676L69.482 103.551L76.2619 101.044L84.5785 96.1855L87.9651 95.9319L90.9523 103.038L92.0563 103.953L99.5622 107.189L107.265 108.29L115.206 107.294L96.4524 123.317C88.5088 126.47 79.1579 128.515 68.4659 129.505L51.2642 126.494L37.416 119.801C30.4156 115.242 25.0563 109.81 20.5342 103.085L20.5358 103.088Z" fill="white"/>
<path d="M80.2849 69.6726L75.9467 67.9155L72.9414 69.0377L71.355 70.3489L71.4611 72.4227L72.638 73.8218L75.5655 75.0667L78.846 74.8976L81.1734 72.925L81.0259 70.2213C81.0259 70.2213 80.6479 69.7555 80.4672 69.714L80.2865 69.6709L80.2849 69.6726Z" fill="white"/>
<path d="M55.6105 66.2015L54.4883 67.8094L54.9325 69.419L56.267 70.7302L57.7208 71.6287L60.2454 72.2321L62.6988 71.6287L63.9536 70.1583L63.4812 68.2338L61.298 66.4982L59.2209 65.8202L57.7208 65.4572L55.6105 66.2015Z" fill="white"/>
<path d="M80.4326 48.1726L81.8715 50.5215L87.2473 51.3255V48.1726C87.2473 48.1726 86.1682 46.7967 85.9991 46.7967C85.83 46.7967 82.0638 46.6691 82.0638 46.6691L80.4343 48.1709L80.4326 48.1726Z" fill="white"/>
<path d="M55.4331 37.6629L45.7274 42.4088L45.502 43.6769L51.7696 45.0611H65.535L72.6381 42.9724L85.7371 36.708L92.0578 31.9671C92.0578 31.9671 89.631 29.4839 89.4619 29.4839C89.2928 29.4839 82.0736 30.7818 81.3658 31.1764C80.6579 31.5709 72.1939 34.9012 71.7977 35.1266C71.4015 35.3521 65.5333 37.7109 65.0824 37.6612C64.6315 37.6115 55.705 37.6612 55.705 37.6612H55.4331V37.6629Z" fill="white"/>
<path d="M9.07627 69.9942C9.01659 36.5622 36.3964 9.0713 69.797 9.02654C103.542 8.98179 130.843 36.1975 130.924 69.8832C131.005 103.153 104.215 130.601 70.7733 130.969C36.5092 131.346 9.04477 103.597 9.07627 69.9942ZM38.1834 103.28C38.127 103.401 38.0723 103.526 38.0127 103.645C36.1494 107.327 34.6841 111.168 33.4441 115.096C33.3065 115.531 33.1789 115.909 33.648 116.273C37.7706 119.474 42.2049 122.151 47.0155 124.184C47.2675 124.29 47.7383 124.195 47.9571 124.013C49.759 122.521 51.1879 120.724 52.4245 118.728C53.3014 117.313 52.8655 116.025 52.5787 114.558C50.3955 115.774 48.2936 116.943 46.1204 118.153C46.006 117.636 45.9248 117.273 45.8435 116.908C45.0744 117.039 44.3533 117.16 43.5874 117.289C43.6305 117.145 43.6289 117.072 43.662 117.047C46.5066 114.919 49.3644 112.807 52.1974 110.662C53.386 109.762 54.5132 108.784 55.6852 107.862C56.8356 106.959 57.9926 106.064 59.1812 105.212C59.3851 105.066 59.9338 105.023 60.0216 105.147C60.9632 106.47 62.102 107.733 62.6855 109.21C63.7978 112.03 64.5836 114.977 65.5003 117.873C65.5599 118.06 65.5765 118.261 65.6561 118.687C64.2056 117.578 62.9425 116.613 61.6478 115.622C61.376 115.88 61.1721 116.159 60.8985 116.318C60.1228 116.771 59.3602 117.339 58.5148 117.54C57.923 117.681 57.7125 117.851 57.6595 118.378C57.3859 121.124 57.1174 123.869 56.8306 126.614C56.7643 127.247 57.0395 127.468 57.6362 127.594C63.9851 128.918 70.3788 129.281 76.8222 128.492C77.162 128.451 77.5897 128.164 77.7588 127.869C78.4815 126.597 79.1114 125.274 79.7977 123.981C81.346 121.061 82.9274 118.158 84.4558 115.227C85.462 113.296 86.3605 111.308 87.3816 109.384C87.9518 108.306 88.6713 107.309 89.3244 106.274C89.4189 106.324 89.5134 106.374 89.6078 106.423C86.3074 113.594 83.007 120.766 79.6883 127.975C80.4044 128.137 80.7625 127.832 81.0244 127.262C82.2793 124.525 83.5855 121.813 84.8105 119.063C86.6075 115.033 88.3497 110.979 90.1151 106.934C88.4011 113.798 86.1897 120.504 83.6037 127.199C84.5005 127.174 85.1388 127.109 85.4056 126.209C86.76 121.631 88.1706 117.067 89.51 112.484C89.9974 110.816 90.3405 109.105 90.75 107.415C90.372 113.604 90.0438 119.791 88.3381 125.838C94.8793 125.16 113.739 112.129 115.211 107.297C114.911 107.36 114.652 107.425 114.39 107.468C112.179 107.836 110.402 109.122 108.482 110.151C104.912 112.069 102.206 111.915 99.9285 109.324C98.1399 107.29 95.7744 106.271 93.1437 105.815C91.9186 105.603 91.6286 105.268 91.5009 103.894C91.6949 103.914 91.8905 103.899 92.0612 103.955C93.9161 104.57 95.7993 105.119 97.6094 105.846C98.9356 106.38 100.232 106.806 101.684 106.755C103.333 106.697 104.988 106.733 106.64 106.753C107.521 106.763 108.403 106.873 109.281 106.856C111.267 106.816 113.25 106.7 115.236 106.672C115.826 106.664 116.219 106.488 116.543 106.004C117.868 104.033 119.33 102.147 120.532 100.106C127.37 88.5072 130.002 76.0016 128.346 62.6292C126.796 50.1154 121.77 39.115 113.107 30.0044C98.8411 15.0025 81.2565 8.80442 60.7659 11.891C44.5704 14.3311 31.7268 22.6676 22.1272 35.8826C15.276 45.3147 11.7302 55.9537 11.2412 67.6171C10.9179 75.3336 12.0916 82.8064 14.7024 90.0621C16.138 94.0537 18.0128 97.8299 20.2656 101.427C20.6634 102.064 20.99 102.153 21.6464 101.802C22.593 101.294 23.5909 100.875 24.5938 100.486C26.8548 99.6103 29.1739 99.0002 31.6273 99.3699C32.7446 99.539 33.8469 99.8208 34.9543 100.053C34.946 100.159 34.936 100.263 34.9277 100.369C32.6501 100.63 30.4802 101.188 28.6485 102.592C27.4616 101.498 23.0455 101.538 21.1077 102.659C23.2013 105.848 25.6016 108.766 28.3534 111.519C30.3592 109.163 32.297 106.887 34.2348 104.611C34.3127 104.825 34.2514 104.931 34.1818 105.031C32.7015 107.129 31.2079 109.217 29.7458 111.327C29.0231 112.369 29.0745 112.489 30.3078 113.271C32.5108 109.787 34.3956 106.083 36.8639 103.123C35.178 106.355 33.3612 109.827 31.561 113.306C31.0935 114.209 31.1847 114.397 32.2009 114.872C34.0724 110.947 35.6488 106.868 38.1834 103.282V103.28ZM55.8476 115.589C56.5422 116.197 57.0627 116.737 57.6744 117.137C57.8352 117.243 58.3043 116.956 58.5728 116.767C58.6458 116.716 58.5861 116.273 58.4568 116.165C57.734 115.56 56.9002 115.355 55.8476 115.589Z" fill="black"/>
<path d="M89.8102 65.981C89.4422 65.9992 89.0726 66.0158 88.5869 66.0407C89.2069 65.2019 89.976 64.5438 89.8666 63.1745C89.119 63.8011 88.5355 64.2902 87.8509 64.8637C88.1194 63.8824 88.3565 63.0088 88.5952 62.1368C88.5405 62.112 88.4858 62.0855 88.4294 62.0606C87.8608 62.5944 87.2939 63.1298 86.7253 63.6636C87.8094 60.0167 86.5479 57.0262 84.2968 54.2546C84.4294 55.4912 84.5604 56.7278 84.693 57.9645C84.6466 57.981 84.6002 57.9993 84.5521 58.0159C84.4344 57.7589 84.315 57.502 84.2007 57.2434C82.8629 54.2148 80.9997 51.5824 78.4237 49.4705C77.9081 49.0478 77.4208 48.9268 76.7594 49.0627C70.2099 50.4005 63.6786 51.7979 57.4226 54.233C56.5738 54.5629 55.74 54.9342 54.8979 55.2823C54.1105 55.6073 53.9796 55.4664 53.7906 54.6856C53.4922 53.4589 53.2137 52.1908 52.665 51.0685C51.7351 49.1672 50.6178 47.357 49.542 45.5302C48.9833 44.5804 48.0865 44.3914 47.0339 44.5058C44.7563 44.7511 42.5748 45.323 40.5441 46.3723C37.7227 47.8294 34.9428 49.3644 32.1364 50.8481C31.4169 51.2277 30.6627 51.5443 29.925 51.8891C29.8886 51.8261 29.8504 51.7614 29.814 51.6984C30.6942 51.0553 31.5678 50.4021 32.4563 49.7706C41.4741 43.3471 50.9709 37.7176 60.8921 32.8142C65.9911 30.2929 71.1531 27.9009 76.3052 25.4873C76.7362 25.285 77.3246 25.2303 77.7954 25.3232C86.1103 26.9709 94.5064 28.0766 102.913 29.1259C105.232 29.416 107.531 29.8652 109.84 30.2415C109.84 30.3244 109.84 30.4073 109.84 30.4901C109.271 30.5515 108.703 30.6045 108.134 30.6741C105.314 31.0173 102.483 31.2825 99.6834 31.7467C98.3423 31.9688 97.0162 32.4644 95.7679 33.0247C93.3776 34.1006 91.0535 35.3239 88.6897 36.4627C88.1509 36.723 87.8907 37.0496 87.9454 37.6762C88.2073 40.6434 88.4161 43.6173 88.7145 46.5812C88.7527 46.9558 89.1422 47.4084 89.492 47.6222C93.303 49.938 95.6022 53.3644 96.9101 57.5418C96.915 57.5583 96.8819 57.5865 96.7576 57.7772C96.5984 57.5434 96.4708 57.3362 96.3216 57.1456C96.1724 56.9549 96.0017 56.7792 95.7165 56.4593C95.6867 56.8439 95.6734 57.0693 95.6502 57.2931C95.3966 59.7581 95.1728 62.2247 94.8645 64.683C94.7949 65.2334 94.9358 65.419 95.4082 65.5699C96.5371 65.9313 96.741 66.1584 96.6797 67.3469C96.5769 69.3444 96.0647 71.1944 94.6175 72.7062C94.3191 73.0178 94.1219 73.5881 94.15 74.0207C94.2412 75.4331 93.7638 76.4442 92.441 77.0145C91.9586 77.2234 91.7182 77.5632 91.7829 78.1218C91.8144 78.387 91.7779 78.6821 91.6934 78.9374C90.4899 82.5627 90.3274 86.2842 90.523 90.0654C90.591 91.365 90.4236 92.721 90.107 93.9874C89.6362 95.8722 88.7626 96.4425 86.8297 96.5154C85.6445 96.5601 84.4576 96.5883 83.2707 96.6182C83.1696 96.6198 83.0685 96.5668 82.8314 96.5038C84.9947 95.4611 86.9391 94.314 88.4891 92.6265C88.4592 92.5453 88.4277 92.464 88.3979 92.3845C87.6735 92.5336 86.9474 92.6828 86.0772 92.8619C86.9292 92.1109 87.6718 91.4578 88.4128 90.8047C88.3714 90.7334 88.3283 90.6621 88.2868 90.5925C87.4381 90.74 86.591 90.8876 85.5683 91.0649C86.6689 90.067 87.6404 89.1868 88.6117 88.3066C88.5504 88.1988 88.4907 88.0894 88.4294 87.9817C87.6055 88.2568 86.7817 88.5337 85.9578 88.8089C85.918 88.7641 85.8799 88.7193 85.8401 88.6746C86.838 87.6982 87.836 86.7218 88.8355 85.7438C88.8123 85.7007 88.7891 85.6576 88.7659 85.6145C87.9271 85.8101 87.0883 86.0057 86.0523 86.2477C87.1795 85.1205 88.1642 84.1375 89.1488 83.1545C89.0792 83.0551 89.0112 82.9556 88.9416 82.8561C88.0349 83.186 87.1298 83.5159 86.0954 83.8938C87.2889 82.5644 88.3846 81.346 89.4787 80.1259L89.2914 79.9569C87.8674 80.5586 86.4435 81.1603 85.0196 81.7621C84.9649 81.6792 84.9085 81.5946 84.8538 81.5118C86.4037 80.2685 87.8343 78.9258 88.7875 77.1919L88.62 76.9415C87.5442 77.22 86.47 77.5002 85.3942 77.7787C85.361 77.7405 85.3279 77.7008 85.2964 77.6626C85.4688 77.4819 85.6395 77.2996 85.8119 77.1189C86.9358 75.9403 88.0664 74.7667 89.1787 73.5781C89.4025 73.3394 89.603 73.0593 89.7423 72.7642C89.8368 72.5636 89.9014 72.2354 89.7986 72.0895C89.6942 71.9403 89.3544 71.8558 89.1472 71.8956C88.5902 72.005 88.0498 72.1956 87.3635 72.2089C88.3034 70.9142 89.2417 69.6179 90.1816 68.3233C90.1434 68.2719 90.107 68.2189 90.0688 68.1675C89.8649 68.252 89.6528 68.32 89.4588 68.4227C87.0403 69.6842 84.6217 70.949 82.2081 72.2205C82.049 72.305 81.8551 72.4376 81.802 72.5918C81.1605 74.4965 79.599 75.1314 77.8402 75.3883C75.7648 75.69 73.8236 75.2872 72.1626 73.9097C71.3156 73.2068 70.8497 72.3365 70.7702 71.2027C70.6508 69.5085 69.9397 68.0995 68.3367 67.3337C67.0421 66.717 66.0657 66.9176 65.4805 68.2039C64.8523 69.5864 64.5721 71.1264 64.1544 72.6018C64.0582 72.9416 64.0218 73.298 63.8328 73.6461V71.6088C61.8104 72.9482 59.7997 72.8023 57.7773 72.0895C56.5274 71.6486 55.4416 70.9374 54.7239 69.7887C54.4653 69.3759 54.1437 68.8786 54.1652 68.4344C54.2531 66.6424 52.7976 65.5036 52.3517 63.9404C52.239 63.5459 51.5577 63.3138 51.0538 62.9458C50.9477 63.022 50.7355 63.1712 50.5233 63.3204C49.6232 62.9276 49.3381 63.1149 49.3646 64.1244C49.3845 64.9251 49.3314 65.7555 49.5337 66.5131C49.7309 67.2508 50.2332 67.9039 50.5532 68.6167C50.6742 68.8836 50.6659 69.2101 50.7073 69.5102C50.7537 69.8533 50.8018 70.1981 50.825 70.5446C50.8366 70.7186 50.7919 70.896 50.7736 71.0734C50.5896 71.0071 50.3476 70.9938 50.2299 70.8662C49.6779 70.2677 49.2187 69.6494 49.5072 68.7228C49.6199 68.3614 49.474 67.9122 49.4176 67.5061C49.2651 66.4136 49.0099 65.3279 48.9734 64.2338C48.9568 63.7614 49.2618 63.143 49.6249 62.8231C50.1271 62.3805 50.8051 62.112 51.445 61.8617C51.6422 61.7854 52.0633 61.9329 52.2042 62.1153C52.9618 63.0883 53.6928 64.0863 54.3708 65.1157C54.7172 65.6412 55.0504 66.0208 55.6969 65.6611C58.0409 64.3532 62.0011 65.7937 63.4084 67.5276C63.5792 67.7381 63.7632 67.9387 64.0201 68.2354C64.8755 67.1132 65.7408 66.0423 67.173 65.8119C68.6318 65.5782 69.7789 66.2843 70.9774 67.322C71.1332 66.8678 71.3205 66.5131 71.3321 66.1534C71.3354 66.0622 70.7834 65.9512 70.4685 65.8434C70.626 65.6445 70.8415 65.371 71.1216 65.0162C70.8 64.94 70.553 64.8819 70.2115 64.8007C70.4105 64.6333 70.5464 64.4659 70.7221 64.378C71.4465 64.0166 71.7101 63.4298 71.7797 62.6441C71.8095 62.3043 72.1361 61.981 72.3582 61.671C72.4975 61.4771 72.7063 61.3329 72.8589 61.1455C73.5733 60.2653 74.2795 59.3785 75.0437 58.4253C75.3619 59.0701 75.5841 59.5161 75.8758 60.1078C76.4461 59.9156 77.1307 59.6669 77.8269 59.4597C78.5115 59.2558 79.2077 59.0933 79.8824 58.9176C80.6648 60.1078 80.6864 60.1095 81.3345 59.0005C81.6843 59.8526 82.0109 60.6449 82.3872 61.5633C82.5629 61.2085 82.6756 60.9831 82.7867 60.7577C82.8364 60.7643 82.8845 60.7726 82.9342 60.7792V62.8065C80.8737 61.4058 78.8116 60.693 76.5008 61.5003C75.7117 61.7755 74.9973 62.223 74.3607 63.1381C75.4879 62.8414 76.3764 62.6093 77.4838 62.3175C77.1953 62.664 77.0561 62.8297 76.8953 63.022C77.0047 63.0883 77.0743 63.1679 77.134 63.1613C77.681 63.1 78.233 63.0486 78.7734 62.9474C80.025 62.7137 81.1621 63.0602 82.3043 63.5193C82.8215 63.7266 83.0105 63.9901 82.8032 64.5504C82.2065 64.3366 81.6114 64.1227 81.0146 63.9089L80.9334 64.1111C82.0042 65.0676 83.5359 65.1008 84.8952 65.8799C84.5538 66.0191 84.3814 66.0904 84.1095 66.1998C84.567 66.7187 84.9765 67.1845 85.3876 67.6503C85.3494 67.7 85.313 67.7514 85.2748 67.8011C84.4941 67.3237 83.7481 66.775 82.9276 66.3871C81.4572 65.6909 80.5107 64.141 78.7817 63.8873C78.4121 63.8326 78.0457 63.7597 77.7623 63.71C77.996 64.3846 78.1734 65.0179 78.432 65.6163C78.7088 66.2595 79.3155 66.2794 79.7349 65.7025C79.8261 65.5765 79.9272 65.4588 80.0233 65.3362C80.1195 65.366 80.214 65.3942 80.3101 65.424C80.2073 65.787 80.2024 66.2296 79.9835 66.4982C79.3801 67.2375 78.5115 67.39 77.6446 67.1347C76.7726 66.8795 76.3118 66.1965 76.2272 65.2814C76.2024 65.0146 76.1742 64.7477 76.1477 64.4791C75.5299 64.5609 75.1597 65.0427 75.037 65.9246C74.5099 66.3192 74.1104 66.6524 73.6744 66.9275C73.5037 67.0353 73.192 67.1198 73.0478 67.0369C72.277 66.5877 71.7532 66.9391 71.2526 67.4679C71.8261 68.6581 71.8709 68.6465 72.9948 68.1658C74.7718 67.4066 76.5903 67.4049 78.4137 68.0166C79.5094 68.3846 80.7776 68.0034 81.5202 67.08C81.6197 66.9574 81.7374 66.8496 81.8468 66.7336C81.9297 66.7485 82.0109 66.7651 82.0938 66.78C82.0573 67.032 82.0971 67.3386 81.9645 67.5243C81.7622 67.8094 81.4406 68.0083 81.1721 68.247C80.9301 68.4642 80.693 68.6863 80.4626 68.8968C81.5583 70.5678 82.6673 70.8728 84.3034 69.8865C86.0042 68.8604 87.6586 67.758 89.3279 66.6805C89.5467 66.5396 89.7257 66.339 89.923 66.165C89.8865 66.107 89.8517 66.0473 89.8152 65.9893L89.8102 65.981ZM83.5376 49.1456C83.8575 49.5186 84.1758 49.8916 84.4261 50.185C85.2632 49.6844 85.9445 49.2782 86.785 48.776C85.5252 48.3997 84.5239 48.8075 83.5194 49.1688C83.7995 48.5091 84.5687 48.0317 84.3598 47.1448C83.1596 47.2923 81.623 48.403 81.366 49.3131C82.1054 49.2716 82.8696 50.2977 83.5376 49.1456ZM46.5449 43.0238C46.5664 43.1067 46.588 43.1913 46.6095 43.2741C46.7886 43.2841 46.9693 43.3156 47.1466 43.299C54.2365 42.6326 61.3148 42.5149 68.3748 43.6654C68.6997 43.7184 69.149 43.5891 69.4092 43.3819C72.5737 40.8539 75.9769 38.6907 79.6072 36.9186C82.9292 35.2957 86.3374 33.8486 89.7058 32.3186C89.9727 32.1975 90.2164 32.0218 90.47 31.8726C90.4385 31.798 90.4087 31.7251 90.3772 31.6505C90.1484 31.6804 89.9114 31.677 89.6942 31.7433C86.5231 32.7031 83.3204 33.5734 80.1941 34.6625C76.1311 36.0765 72.3267 38.0226 68.9368 40.723C68.5704 41.0147 67.9936 41.1606 67.5079 41.1706C64.4428 41.2402 61.3761 41.2269 58.3111 41.2916C54.6592 41.3695 51.0289 41.6562 47.4931 42.6591C47.1682 42.752 46.8599 42.8995 46.5449 43.0222V43.0238ZM78.3905 69.1157C77.1158 68.5852 75.6951 68.5272 74.359 68.8786C73.9231 68.993 73.4971 69.1289 73.1058 69.3295C71.2708 70.2677 71.1216 72.242 72.7726 73.482C74.7834 74.9905 77.0196 75.08 79.2741 74.1351C81.2069 73.3262 81.429 71.3154 79.8078 69.966C79.3652 69.598 78.8928 69.3245 78.3905 69.1157ZM58.3459 65.981C57.7574 66.1037 57.1424 66.1567 56.5838 66.3623C55.0587 66.9259 54.6741 68.1774 55.5527 69.5367C56.8192 71.4977 60.1793 72.4509 62.2862 71.448C63.3057 70.9623 63.7433 70.0307 63.3156 68.9847C63.0935 68.4426 62.7371 67.9006 62.3044 67.5094C61.2021 66.5114 59.8593 66.0473 58.3459 65.981Z" fill="black"/>
<path d="M68.3086 121.914C69.7657 117.739 71.2228 113.565 72.6799 109.389C72.7412 109.386 72.8009 109.382 72.8622 109.379C73.1805 110.407 73.4988 111.435 73.8171 112.462C73.89 112.459 73.9629 112.456 74.0359 112.452C74.1834 111.11 74.3309 109.767 74.5083 108.166C74.9095 109.051 75.2427 109.722 75.5178 110.417C75.7002 110.878 75.9422 110.967 76.4063 110.818C77.5883 110.437 78.7884 110.112 79.9753 109.745C80.2339 109.666 80.5058 109.555 80.7064 109.382C81.9049 108.363 83.0719 107.307 84.2786 106.297C84.708 105.938 84.834 105.545 84.8174 105.001C84.7776 103.769 84.8041 102.536 84.8804 101.273C85.2401 102.405 85.5998 103.537 85.9579 104.668C86.0308 104.663 86.1038 104.658 86.1767 104.653C86.2712 103.509 86.364 102.365 86.4585 101.222C86.5182 101.2 86.5778 101.177 86.6375 101.155C87.047 101.868 87.4581 102.579 87.8675 103.292C87.9388 103.275 88.0101 103.257 88.0814 103.241C87.8841 101.914 87.6885 100.588 87.4647 99.0815C87.9338 99.5142 88.2736 99.8291 88.7743 100.292V97.8399C88.8339 97.8316 88.8953 97.8234 88.955 97.8151C89.6263 99.5523 90.3126 101.286 90.9541 103.035C91.0287 103.239 90.9375 103.599 90.7883 103.768C90.427 104.177 90.0242 104.57 89.5716 104.873C87.8957 105.994 86.2231 107.123 84.4925 108.154C83.2028 108.921 82.1336 109.866 81.391 111.168C80.2919 113.087 78.5547 113.88 76.4362 113.868C75.3653 113.861 74.7056 114.249 74.069 115.129C72.4727 117.336 71.0786 119.718 68.9634 121.513C68.7827 121.666 68.6119 121.83 68.4362 121.989L68.3119 121.909L68.3086 121.914Z" fill="black"/>
<path d="M31.3258 67.9636C33.0647 70.0241 33.809 72.1824 34.2566 74.4385C34.5782 76.058 34.7257 77.714 34.9147 79.3585C34.9379 79.5557 34.7257 79.7812 34.6229 79.9933C34.497 79.7828 34.3229 79.5839 34.2566 79.3551C34.1936 79.1363 34.2433 78.886 34.2433 78.4915C33.6632 79.128 33.1775 79.6618 32.6918 80.1939C32.6039 80.1309 32.516 80.0696 32.4282 80.0066C32.6254 79.501 32.8227 78.9954 33.0216 78.4898C32.9702 78.4583 32.9189 78.4252 32.8675 78.3937C32.579 78.6307 32.2906 78.8661 31.8497 79.2275C32.0071 78.7816 32.1331 78.5031 32.1978 78.2113C32.2342 78.0472 32.1696 77.8599 32.1514 77.6842C31.9491 77.724 31.6342 77.6991 31.5645 77.8168C31.2927 78.2843 31.0739 78.7866 30.8832 79.2938C30.7208 79.7281 30.6081 80.1657 29.8091 79.8541C30.2649 78.712 30.7175 77.5831 31.1849 76.4111C30.5981 76.0216 30.2301 76.4211 30.0444 76.8603C29.7162 77.6444 29.5488 78.4965 29.2256 79.2822C29.1045 79.5756 28.7647 79.9171 28.4713 79.9751C27.5961 80.1475 27.5049 79.9983 27.5132 79.0932C27.5364 76.5736 28.1099 74.155 29.0664 71.8575C29.6168 70.5363 30.502 69.3527 31.3242 67.9586L31.3258 67.9636Z" fill="black"/>
<path d="M57.5152 99.1909C58.3623 100.043 59.0303 100.779 59.7647 101.44C61.8367 103.304 64.3514 103.925 67.0004 103.444C71.201 102.684 75.0451 100.916 78.6903 98.7184C79.2921 98.3554 79.9154 98.0255 80.5735 97.7454C79.5871 99.5788 78.13 100.935 76.3878 101.982C74.4069 103.173 72.3133 104.086 69.9594 104.225C69.6842 104.242 69.4024 104.293 69.1338 104.255C67.7994 104.059 66.5379 104.242 65.2317 104.63C62.586 105.417 59.9205 104.557 58.5148 102.624C57.8185 101.667 57.424 100.6 57.5168 99.1892L57.5152 99.1909Z" fill="black"/>
<path d="M51.0073 73.2847C51.3322 74.5943 51.2311 75.7911 50.8747 76.9615C50.5133 78.1484 50.0823 79.3137 49.6862 80.4907C49.1027 82.2196 48.922 83.9602 49.2552 85.7853C49.4607 86.9125 49.232 88.1309 49.5055 89.2316C49.8453 90.5992 50.4785 91.9004 51.0388 93.2067C51.2643 93.7338 51.6571 94.188 51.9224 94.7003C52.3865 95.5971 53.0197 96.2021 54.0989 96.2237C54.3326 96.2286 54.6111 96.3165 54.7868 96.464C55.5195 97.0724 56.2207 97.7189 56.9617 98.3753C54.9244 99.0334 52.5324 98.3389 51.1217 96.5535C49.0214 93.8963 47.745 90.8445 48.5622 87.4761C48.9634 85.8201 48.4578 84.5768 48.0732 83.1645C47.9473 82.7053 47.8859 82.1666 47.9986 81.7157C48.2257 80.8122 48.5523 79.927 48.9137 79.0651C49.3082 78.1252 49.8569 77.2466 50.2083 76.2934C50.5481 75.3718 50.7222 74.3904 51.009 73.2831L51.0073 73.2847Z" fill="black"/>
<path d="M48.5505 60.3267C48.1875 60.7361 47.8709 61.0942 47.5543 61.4522C47.5079 61.4257 47.4615 61.4008 47.415 61.3743C48.0085 60.0167 48.6003 58.659 49.1937 57.2998C49.1291 57.26 49.0644 57.2202 48.9998 57.1804C48.0483 58.0341 47.0968 58.8878 46.1453 59.7432C46.0955 59.7133 46.0458 59.6818 45.9961 59.652C46.4387 58.7569 46.8796 57.8617 47.3222 56.9682C47.2642 56.9119 47.2062 56.8555 47.1482 56.8008C46.7652 56.9748 46.3823 57.1472 45.9795 57.3313C46.2132 56.2853 47.052 55.5012 48.0002 55.2724C48.7959 55.0801 49.5468 54.6856 50.3475 54.5447C51.0735 54.4171 51.841 54.4917 52.587 54.5265C52.6947 54.5314 52.8091 54.8 52.8887 54.9608C52.9981 55.1796 53.013 55.4929 53.1788 55.6238C53.9529 56.2339 53.8087 56.95 53.5667 57.7473C53.2948 58.6425 53.1224 59.5675 52.8821 60.4742C52.8224 60.7013 52.6715 60.9035 52.5638 61.1174C52.4975 61.0942 52.4312 61.0693 52.3665 61.0461V59.9968C51.73 60.3897 51.2078 60.7113 50.4967 61.1505C50.6972 60.2819 50.8547 59.594 51.0139 58.906C50.9509 58.8779 50.8895 58.848 50.8265 58.8198C50.2298 59.5194 49.633 60.2206 48.9898 60.9748C48.839 60.751 48.7163 60.5687 48.5555 60.33L48.5505 60.3267Z" fill="black"/>
<path d="M62.4535 75.4679C62.6392 75.7563 62.8994 76.0199 62.9956 76.3365C63.2061 77.0211 63.3221 77.7322 63.4962 78.4285C63.6951 79.2258 64.2189 79.6435 65.0395 79.6734C66.2944 79.7181 67.3669 79.2275 68.3001 78.4533C69.0013 77.8732 68.7228 77.0493 67.7282 76.5487C68.6284 75.1628 69.5318 73.7721 70.4054 72.426C70.4949 73.0675 70.3888 73.9693 71.2326 74.528C70.7867 75.1943 69.7639 75.9022 70.4916 76.7476C70.843 77.1554 71.9222 77.0493 72.6565 76.9846C73.4207 76.9183 73.5135 76.2453 73.4323 75.569C73.4936 75.5176 73.555 75.4645 73.6163 75.4132C74.0009 75.7364 74.5413 75.9884 74.7303 76.4011C74.9988 76.988 74.4468 77.3841 73.9793 77.6063C71.4 78.8313 68.9914 80.4641 66.1037 80.9664C65.2649 81.1123 64.4891 80.973 63.9239 80.2851C62.8083 78.9258 62.2115 77.3659 62.127 75.627C62.2347 75.574 62.3425 75.5209 62.4502 75.4695L62.4535 75.4679Z" fill="black"/>
<path d="M66.8859 63.3387C66.5444 62.8961 66.3273 62.654 66.1532 62.3838C65.6095 61.5384 64.8934 61.0577 63.8424 61.0163C63.375 60.998 62.9274 60.6532 62.4533 60.5305C62.0322 60.4211 61.5847 60.3863 61.1487 60.3698C60.5552 60.3482 60.2751 60.6416 60.4475 61.2102C60.1044 61.5799 59.0865 61.1406 59.4662 62.1683C58.7484 62.3208 58.0571 62.4684 57.1288 62.6656C57.3974 62.0341 57.6212 61.5086 57.8681 60.9284C56.8785 60.8571 56.4376 61.5981 55.7065 62.0109C56.0198 61.4356 56.2105 60.7046 56.6829 60.3316C57.1587 59.957 57.9146 59.9404 58.6158 59.7481C58.629 59.5741 58.6473 59.3122 58.6638 59.0967C59.2092 58.6143 60.2751 59.6354 60.469 58.3374C60.8768 58.4137 61.2747 58.4866 61.7173 58.5695C61.7886 58.3159 61.8515 58.0905 61.9295 57.8136C62.2278 57.9794 62.508 58.1369 62.8528 58.3275C62.9622 58.1203 63.065 57.9263 63.1876 57.6943C63.549 58.0341 63.8805 58.3441 64.2585 58.6972C64.5585 58.2612 64.8022 57.9081 65.0989 57.4771C65.2979 57.9794 65.4653 58.4038 65.6509 58.8712C65.9477 58.7834 66.1996 58.7088 66.4516 58.6342C66.9704 59.3271 66.0173 60.5057 67.3235 60.9151C67.1926 61.6429 67.0616 62.3673 66.8859 63.3403V63.3387Z" fill="black"/>
<path d="M58.7304 94.4996C59.11 95.3152 59.4449 96.1556 59.8858 96.9381C60.2472 97.5796 60.6915 98.188 61.1805 98.7383C61.5584 99.1643 62.0806 99.3583 62.679 99.0864C63.2592 98.8212 63.0023 98.3504 62.9989 97.936C62.9989 97.8117 63.0221 97.6857 63.0503 97.4072C64.7229 99.9617 67.0619 99.5787 69.4838 99.2389C68.7411 99.9103 68.0532 100.656 67.2442 101.233C66.1668 101.999 65.139 101.878 64.1726 100.971C63.6438 100.476 63.2376 100.141 62.5016 100.742C61.9331 101.208 61.2435 100.979 60.7047 100.472C59.4233 99.2671 59.0205 97.6691 58.7255 96.0263C58.6393 95.544 58.621 95.0483 58.5713 94.5593C58.6243 94.5394 58.6774 94.5195 58.7304 94.4996Z" fill="black"/>
<path d="M83.239 98.4598C82.5278 99.3583 81.7487 100.212 81.1221 101.167C80.4475 102.198 79.8673 103.299 79.3401 104.414C79.0467 105.033 78.7119 105.536 78.0322 105.667C76.4657 105.967 74.8926 106.239 73.3161 106.483C73.099 106.516 72.8487 106.334 72.6133 106.251C72.8072 106.102 72.9813 105.87 73.1984 105.817C74.9075 105.404 76.1591 104.272 77.4404 103.183C79.2042 101.684 80.968 100.187 82.7351 98.6935C82.871 98.5775 83.0318 98.4913 83.1826 98.3918C83.2009 98.4151 83.2191 98.4383 83.2373 98.4615L83.239 98.4598Z" fill="black"/>
<path d="M66.8711 86.0985C67.8955 85.6477 68.9366 85.2332 69.9395 84.7393C71.5656 83.9386 73.1587 83.0733 74.7799 82.2643C75.1379 82.0853 75.549 81.9693 75.9469 81.9229C76.3845 81.8698 76.9166 81.8814 76.9614 82.4832C76.9995 82.9987 76.9266 83.4761 76.232 83.6734C75.5838 83.8574 75.0186 84.3132 74.382 84.5635C73.6576 84.847 72.8984 85.0459 72.1491 85.2614C71.7878 85.3659 71.2805 85.2946 71.0634 85.52C69.8599 86.7732 68.3647 86.2312 66.9838 86.3721L66.8711 86.1002V86.0985Z" fill="black"/>
<path d="M61.0642 63.342C60.3067 63.5824 59.6718 63.7863 59.0369 63.9885C59.0601 64.0531 59.0833 64.1161 59.1065 64.1808C58.7236 64.1609 58.339 64.1427 57.8931 64.1194C57.8616 64.0233 57.8019 63.8476 57.7207 63.6072C59.453 63.037 61.0278 62.0871 62.9755 62.6706C64.1641 63.0254 65.1206 63.6404 65.966 64.4825C66.1732 64.6897 66.2992 65.008 66.3787 65.298C66.4036 65.3876 66.0887 65.6859 66.0306 65.6594C65.7637 65.5417 65.5333 65.3428 65.2366 65.1356C64.7045 65.9711 63.9735 66.6043 62.7899 66.2744C61.3228 65.865 60.9548 64.7643 61.0642 63.3436V63.342ZM63.4844 63.2641C63.3982 63.3437 63.3137 63.4232 63.2275 63.5028C63.2159 64.0399 62.8147 64.7742 63.758 64.8903C64.0663 64.9284 64.431 64.504 64.7691 64.2918C64.3415 63.9487 63.9121 63.6072 63.4844 63.2641Z" fill="black"/>
<path d="M77.3975 85.2481C77.2086 88.9132 75.0354 91.4793 72.7411 93.9808C73.25 93.2116 73.7805 92.454 74.2596 91.665C74.5016 91.2688 74.6922 90.8279 74.8315 90.3836C75.2276 89.1205 74.7303 88.1524 73.434 87.8706C72.5041 87.6683 71.531 87.6667 70.7271 87.5888C72.7842 86.866 75.0072 86.0869 77.3975 85.2465V85.2481Z" fill="black"/>
<path d="M55.7881 81.1073C55.1881 77.7074 58.3111 73.7008 62.0077 72.9266C61.8038 73.2864 61.5552 73.5864 61.4607 73.9279C61.3712 74.2528 61.4408 74.6208 61.4408 75.0932C58.5896 75.9602 56.7662 78.0256 55.7865 81.1073H55.7881Z" fill="black"/>
<path d="M51.0369 98.6969C50.3357 99.5987 49.7903 100.303 49.1007 101.19C49.976 101.054 50.6357 100.951 51.138 100.875C49.4886 102.601 47.7812 104.388 46.0755 106.175C46.0473 106.158 46.0174 106.143 45.9893 106.127C47.1215 103.27 48.2536 100.413 49.3842 97.5564C49.414 97.5597 49.4455 97.563 49.4754 97.5664C49.4538 97.9725 49.4306 98.3769 49.4041 98.8842C49.9163 98.8245 50.3605 98.7748 51.0369 98.6969Z" fill="black"/>
<path d="M74.6143 78.3108C76.4145 78.1997 78.1601 78.4168 79.6801 79.5142C80.3217 79.9784 80.5852 80.7177 80.4178 81.5018C80.257 82.2527 80.0216 82.9953 79.7415 83.7115C79.3105 84.8072 78.8132 85.8764 78.2695 87.1296C78.4485 85.4205 78.6109 83.8988 78.7668 82.3754C78.7916 82.1284 78.8049 81.8797 78.8115 81.6327C78.8513 79.8093 78.543 79.5391 76.7179 79.3634C75.9653 79.2904 75.2409 78.9357 74.5049 78.7086C74.5414 78.576 74.5778 78.4434 74.6159 78.3124L74.6143 78.3108Z" fill="black"/>
<path d="M82.901 83.8938C83.6751 90.6505 81.1041 94.851 76.2471 97.2315C80.7626 93.9294 82.7932 89.394 82.901 83.8938Z" fill="black"/>
<path d="M67.241 113.485C68.0947 113.452 68.781 114.035 69.018 114.78C69.2865 115.62 69.1357 116.552 68.5621 116.779C68.2273 116.911 67.6985 116.829 67.3719 116.641C66.6939 116.25 66.2861 114.917 66.5995 114.208C66.7453 113.878 67.1001 113.639 67.241 113.487V113.485Z" fill="black"/>
<path d="M66.122 86.3389C64.1278 86.4814 62.1983 86.2759 60.408 85.4371C59.9836 85.2382 59.7416 84.6514 59.415 84.2419C59.4631 84.1557 59.5095 84.0712 59.5576 83.985C60.1676 84.0248 60.8522 83.9004 61.3761 84.1358C62.9575 84.8486 64.2505 86.1814 66.1237 86.3389H66.122Z" fill="black"/>
<path d="M67.3553 89.7521C64.9832 90.45 64.2521 92.2518 64.1046 94.4632C63.5277 93.0475 63.4565 91.6203 63.783 90.1864C63.841 89.9294 64.2289 89.588 64.4875 89.5664C65.4042 89.4902 66.3292 89.5366 67.2525 89.5366C67.2873 89.6079 67.3205 89.6791 67.3553 89.7521Z" fill="black"/>
<path d="M40.5225 101.047C40.6882 99.0997 41.3165 98.3405 43.0786 97.9808C43.9174 97.8101 44.781 97.7603 45.6331 97.6559C45.648 97.7222 45.6613 97.7868 45.6762 97.8531C44.7943 98.3372 43.8909 98.7864 43.0372 99.3136C42.2 99.8308 41.4126 100.429 40.5225 101.047Z" fill="black"/>
<path d="M57.3146 81.6096C55.8824 83.4165 55.1381 85.3394 56.0929 87.6353C54.7999 87.5226 54.112 86.5512 54.4634 85.4886C54.9922 83.8956 55.7846 82.4849 57.313 81.6096H57.3146Z" fill="black"/>
<path d="M45.6096 111.831C45.593 110.962 46.7285 109.654 47.6021 109.553C48.1027 109.495 48.411 109.694 48.3613 110.248C48.2817 111.126 47.2954 112.235 46.4334 112.426C45.9013 112.543 45.6179 112.34 45.6079 111.831H45.6096Z" fill="black"/>
<path d="M60.232 82.3787C59.3634 83.6136 58.639 84.6447 57.8333 85.7902C57.767 84.9282 57.6493 84.0778 57.6692 83.2307C57.6742 83.0019 58.0638 82.6538 58.3323 82.5875C58.9158 82.4433 59.5358 82.445 60.232 82.3787Z" fill="black"/>
<path d="M54.2929 93.6459C52.5755 91.7727 50.5532 86.493 52.1263 84.0828C51.4566 87.6136 52.7479 90.5941 54.2929 93.6459Z" fill="black"/>
<path d="M44.6005 108.694C44.7978 110.626 43.949 112.3 43.3274 114.032C43.2943 112.147 43.7402 110.374 44.6005 108.694Z" fill="black"/>
<path d="M56.5871 102.082C54.9626 101.909 54.8167 101.74 54.1255 99.2903C55.4516 99.8307 56.0152 100.908 56.5871 102.082Z" fill="black"/>
<path d="M51.7449 68.1161C50.553 67.022 50.4718 66.3208 51.3719 65.4572C52.1345 66.2512 51.5261 67.1596 51.7449 68.1161Z" fill="black"/>
<path d="M30.9326 61.3179C30.9989 60.1808 31.0603 59.1016 31.1282 57.928C31.8775 59.647 31.8278 60.8786 30.9326 61.3179Z" fill="black"/>
<path d="M31.8364 52.4742C31.6126 53.2998 31.4535 53.8916 31.2927 54.4833C31.2363 54.4867 31.1783 54.49 31.1219 54.495C30.9313 53.938 30.739 53.381 30.502 52.6864C30.9479 52.6151 31.3208 52.5555 31.8364 52.4742Z" fill="black"/>
<path d="M70.8133 55.7581C70.5994 56.0283 70.3856 56.2968 70.1369 56.6101C69.3313 56.0382 68.534 55.4713 67.7383 54.9044C67.7549 54.8679 67.7714 54.8331 67.7897 54.7966C68.2919 55.0519 68.8274 55.2591 69.2866 55.5774C69.7822 55.9189 70.2215 56.2239 70.8133 55.7581Z" fill="black"/>
<path d="M84.0747 61.2815C84.0365 61.87 84.0166 62.4601 83.9404 63.0419C83.9288 63.1315 83.6602 63.1878 83.5094 63.2608C83.4414 63.0884 83.2839 62.8878 83.3237 62.7452C83.4646 62.2595 83.6752 61.7921 83.8592 61.318C83.9304 61.3064 84.0017 61.2931 84.073 61.2815H84.0747Z" fill="black"/>
<path d="M30.9394 63.4381C30.8488 62.6667 31.0162 62.1617 31.4417 61.923C31.803 62.5695 31.6505 63.0402 30.9394 63.4381Z" fill="black"/>
<path d="M30.792 65.119C31.0423 64.5902 31.2213 64.2156 31.4882 63.6536C31.954 64.8372 31.8562 65.0709 30.792 65.119Z" fill="black"/>
<path d="M31.0171 67.3701V65.8666C31.0768 65.8285 31.1381 65.7887 31.1978 65.7505C31.3602 65.9395 31.6752 66.1434 31.657 66.3125C31.6139 66.7037 31.4116 67.0783 31.274 67.4596C31.1895 67.4298 31.1033 67.3999 31.0187 67.3718L31.0171 67.3701Z" fill="black"/>
<path d="M78.0406 73.6262C75.6137 74.2561 73.0112 73.298 72.6382 71.8475C74.6628 72.9604 76.4635 73.5533 78.0406 73.6262Z" fill="black"/>
<path d="M56.0449 68.1078C57.4656 69.9445 59.1995 70.7999 61.2981 70.9292C58.6955 71.1828 56.4958 70.0754 56.0449 68.1078Z" fill="black"/>
<path d="M70.0008 131C61.7671 131 53.7772 129.387 46.2563 126.206C38.9923 123.134 32.4694 118.735 26.8664 113.134C21.2635 107.532 16.8673 101.008 13.794 93.7437C10.6129 86.2228 9 78.2345 9 70.0008C9 61.7671 10.6129 53.7772 13.794 46.2563C16.8657 38.9923 21.2651 32.4694 26.8664 26.8664C32.4677 21.2651 38.9923 16.8673 46.2563 13.794C53.7772 10.6129 61.7655 9 70.0008 9C78.2362 9 86.2245 10.6129 93.7454 13.794C101.009 16.8657 107.532 21.2651 113.135 26.8664C118.737 32.4677 123.134 38.9923 126.208 46.2563C129.389 53.7772 131.002 61.7671 131.002 70.0008C131.002 78.2345 129.389 86.2245 126.208 93.7454C123.136 101.009 118.737 107.532 113.135 113.135C107.534 118.738 101.009 123.134 93.7454 126.208C86.2245 129.389 78.2345 131.002 70.0008 131.002V131ZM70.0008 11.9838C38.0093 11.9838 11.9838 38.0093 11.9838 70.0008C11.9838 101.992 38.0093 128.018 70.0008 128.018C101.992 128.018 128.018 101.992 128.018 70.0008C128.018 38.0093 101.991 11.9838 70.0008 11.9838Z" fill="#DB7918"/>
</g>
<defs>
<linearGradient id="paint0_linear_816_669" x1="70.1419" y1="9.73268" x2="70.1419" y2="129.339" gradientUnits="userSpaceOnUse">
<stop stop-color="#C1BADB"/>
<stop offset="1" stop-color="#635F9B"/>
</linearGradient>
<clipPath id="clip0_816_669">
<rect width="122" height="122" fill="white" transform="translate(9 9)"/>
</clipPath>
</defs>
</svg>
