<svg width="140" height="140" viewBox="0 0 140 140" fill="none" xmlns="http://www.w3.org/2000/svg">
<rect width="140" height="140" rx="30" fill="white"/>
<path d="M87.5294 54.1739C84.9468 52.729 81.1648 54.9238 77.2266 57.5904V54.735C77.2266 52.1233 76.4853 49.5493 75.0078 47.3957C74.6046 46.8072 74.1653 46.2735 73.6865 45.7964C75.5827 42.5086 78.1755 40.1938 81.8203 39.3495C82.6354 40.3036 83.3853 41.3623 84.07 42.5241C86.1617 46.0659 87.3149 50.0744 87.5294 54.1739Z" fill="url(#paint0_linear_818_796)"/>
<path d="M92.9998 74.148L69.2832 74.0347C62.6474 74.6216 57.5235 72.8799 53.5012 69.4393C52.1439 68.2776 50.9616 66.9443 49.9663 65.484C55.406 65.6573 60.2245 65.3982 63.2412 63.8829C66.1738 64.7324 70.2802 64.7461 77.2265 64.4921V57.5904C81.1646 54.9238 84.9467 52.729 87.5292 54.1739C87.555 54.6424 87.567 55.1125 87.567 55.5844V69.012C88.3152 71.2891 90.165 72.9708 92.9998 74.148Z" fill="url(#paint1_linear_818_796)"/>
<path d="M63.2415 63.8829C60.2248 65.3981 55.4063 65.6572 49.9666 65.4839C48.9439 63.9893 48.1168 62.3608 47.4956 60.6466C51.1078 60.336 54.1914 59.5706 56.7499 58.3523C57.4466 59.6513 58.5877 61.1476 59.5641 61.9559C60.6383 62.8465 61.7983 63.4659 63.2415 63.8829Z" fill="url(#paint2_linear_818_796)"/>
<path d="M81.8204 39.3495C78.1756 40.1938 75.5827 42.5086 73.6866 45.7965C71.5107 43.6343 68.5283 42.6785 64.4923 43.4387C61.3332 44.0341 58.5979 46.2306 56.9849 49.0105C55.5297 51.5193 54.9995 54.2065 56.3706 57.5595C56.4735 57.8084 56.6022 58.076 56.7498 58.3523C54.1913 59.5707 51.1076 60.336 47.4955 60.6466H47.4938C47.2827 60.0649 47.0939 59.4711 46.9292 58.8705C44.8151 51.1332 46.471 45.3915 50.2514 40.8681C54.5104 35.7734 60.8939 32.9643 67.5331 33.0003C73.5647 33.0329 78.2974 35.2174 81.8204 39.3495Z" fill="url(#paint3_linear_818_796)"/>
<path d="M100.027 99.9621C101.693 99.9621 103.359 99.9382 105.023 99.9775C105.469 99.9877 105.978 100.1 106.338 100.336C106.886 100.696 107.061 101.284 106.837 101.924C106.578 102.665 106.007 102.994 105.224 102.998C103.375 103.003 101.527 102.998 99.6779 102.998C98.2993 102.998 96.919 103.001 95.5404 102.998C94.4474 102.994 93.7987 102.605 93.5378 101.806C93.2504 100.92 93.8128 100.438 94.451 99.9775C96.8485 98.2463 99.2601 96.5322 101.629 94.7651C103.419 93.43 103.912 91.9566 103.313 90.152C102.886 88.8664 101.92 88.2108 100.602 88.0435C99.0944 87.8505 97.7035 88.0896 96.8273 89.4673C96.0957 90.6181 96.1627 91.7722 96.9208 92.9093C97.7282 94.1232 97.5924 95.0673 96.5823 95.5078C95.9106 95.8014 95.3342 95.6119 94.7912 95.1919C93.0636 93.8551 92.51 91.2668 93.4637 88.9517C94.4986 86.4403 97.1922 84.8747 100.249 85.0079C105.069 85.2179 108.163 89.4281 106.585 93.6434C106.1 94.9375 105.199 95.9449 104.096 96.7746C102.735 97.7973 101.339 98.7756 99.9582 99.7726C99.9811 99.8375 100.002 99.9007 100.025 99.9656L100.027 99.9621Z" fill="black"/>
<path d="M79.3833 101.621C79.3833 102.793 79.4081 104.028 79.3762 105.261C79.346 106.369 78.67 107.02 77.6586 107C76.633 106.979 76.0119 106.319 76.0102 105.2C76.0048 101.987 75.9853 98.7728 76.0208 95.5601C76.0652 91.5468 79.3549 88.7378 83.5655 89.0194C85.5351 89.1517 87.3432 89.6182 88.8142 90.948C91.0535 92.9717 91.6408 96.3573 90.2568 99.2291C89.0147 101.806 86.2413 103.358 83.1716 102.937C81.91 102.764 80.7212 102.102 79.3851 101.621H79.3833ZM87.5136 96.0486C87.5473 93.6671 85.8474 92.0031 83.3455 91.9675C80.9359 91.9353 79.4649 93.4704 79.3922 96.0961C79.3283 98.3996 81.0175 100.065 83.4378 100.087C85.8847 100.109 87.4799 98.5285 87.5153 96.0486H87.5136Z" fill="black"/>
<path d="M28.4356 101.406C26.0005 103.681 22.6678 103.185 20.4854 101.996C18.0327 100.662 16.6332 97.8203 17.0838 95.0949C17.5486 92.2951 19.0753 90.3077 21.9574 89.4529C25.0056 88.5473 27.8401 88.9586 30.2521 91.061C31.5774 92.2155 31.9503 93.7881 31.9786 95.4352C32.0104 97.2075 31.9998 98.9815 31.9909 100.754C31.9839 101.968 31.5721 102.57 30.6621 102.767C29.8015 102.953 29.2219 102.609 28.6193 101.561C28.5928 101.516 28.5363 101.489 28.4356 101.404V101.406ZM24.6434 91.9802C21.8691 91.9802 20.307 93.7407 20.5279 96.615C20.6816 98.6108 22.1147 99.8702 24.4101 100.029C26.4829 100.172 27.9779 99.1474 28.4091 97.2278C28.5363 96.6573 28.5769 96.0513 28.5416 95.469C28.4002 93.067 27.165 91.9819 24.6416 91.9819L24.6434 91.9802Z" fill="black"/>
<path d="M42.416 95.5405C42.9437 95.7285 43.4802 95.8724 43.9725 96.1028C45.196 96.6735 45.9929 97.5576 45.9999 98.9261C46.007 100.306 45.4368 101.463 44.1088 102.022C43.0251 102.479 41.8299 102.817 40.6559 102.923C39.0818 103.067 37.4793 102.976 35.8927 102.915C34.5983 102.864 34.0176 102.269 34.0122 101.042C33.9945 97.6643 33.9963 94.2855 34.0158 90.9083C34.0211 89.8904 34.5063 89.2502 35.4518 89.1739C37.8281 88.9859 40.2168 88.8081 42.5559 89.4534C43.0853 89.5991 43.6166 89.8108 44.0769 90.097C45.7609 91.1386 45.8689 93.3793 44.2788 94.5412C43.7299 94.9426 43.0641 95.1983 42.4143 95.5405H42.416ZM37.7236 98.6585H37.7272C37.7272 99.1649 37.6776 99.6798 37.7502 100.176C37.7803 100.379 38.0831 100.716 38.2407 100.706C39.2589 100.644 40.3 100.605 41.2739 100.351C42.076 100.142 42.4142 99.441 42.393 98.6162C42.3718 97.7931 41.899 97.3104 41.1429 97.0614C40.702 96.9157 40.2327 96.8192 39.7688 96.7684C37.7219 96.5414 37.7201 96.5499 37.7219 98.4892C37.7219 98.5451 37.7219 98.6026 37.7219 98.6585H37.7236ZM37.736 92.9119C37.7372 94.1483 38.3865 94.6914 39.6838 94.5412C41.1004 94.3769 41.9078 93.7232 41.8653 92.7747C41.8246 91.8601 41.0473 91.3554 39.574 91.2876C38.3475 91.2301 37.7349 91.772 37.736 92.9136V92.9119Z" fill="black"/>
<path d="M65.5124 103C62.5203 102.915 60.0853 101.813 58.7767 99.0766C57.5132 96.4367 57.77 93.8155 59.7034 91.5532C61.8156 89.0844 64.6602 88.5645 67.7252 89.3198C70.5819 90.0242 72.4043 91.8817 72.8781 94.74C73.3571 97.639 72.439 100.091 69.8652 101.791C68.5635 102.649 67.0935 103.02 65.5124 102.998V103ZM65.5488 91.9749C63.1364 91.9799 61.4581 93.6496 61.4598 96.0422C61.4598 98.3807 63.1416 100.032 65.5263 100.035C67.9144 100.038 69.6152 98.3908 69.6291 96.0608C69.643 93.68 67.9352 91.9698 65.5488 91.9749Z" fill="black"/>
<path d="M119.268 95.8688C119.98 95.8179 120.613 95.745 121.248 95.7348C122.382 95.7145 122.993 96.2434 123 97.198C123.007 98.1033 122.457 98.7205 121.444 98.6798C119.263 98.5933 119.325 99.1901 119.295 101.028C119.273 102.384 118.878 102.934 117.881 102.995C116.839 103.059 116.26 102.545 116.193 101.482C116.161 100.975 116.162 100.467 116.126 99.9615C116.057 98.9968 115.789 98.7289 114.821 98.712C113.566 98.6916 112.312 98.7052 111.057 98.7052C110.31 98.7052 109.57 98.634 109.169 97.8863C108.786 97.1691 109.122 96.5249 109.503 95.9128C111.534 92.6458 113.559 89.3736 115.601 86.1133C116.196 85.1622 116.886 84.84 117.672 85.0723C118.759 85.3944 119.174 86.4575 118.529 87.4866C117.516 89.1057 116.439 90.6825 115.387 92.2762C114.678 93.3511 113.967 94.4243 113.171 95.6297C114.231 95.7518 115.174 95.8603 116.201 95.979C116.229 95.4144 116.226 94.8854 116.29 94.3666C116.4 93.4511 116.853 93.0476 117.714 93.034C118.598 93.0204 119.03 93.3867 119.164 94.3191C119.231 94.7888 119.229 95.2669 119.266 95.8688H119.268Z" fill="black"/>
<path d="M53.7622 92.361C53.7622 93.8096 53.7622 95.3007 53.7622 96.7918C53.7622 98.1774 53.7639 99.563 53.7622 100.947C53.7586 102.213 53.1156 102.984 52.0628 103C50.9675 103.017 50.3139 102.239 50.3122 100.908C50.3086 98.3068 50.2874 95.7058 50.3263 93.1066C50.3369 92.4104 50.1479 92.121 49.3989 92.2061C48.9361 92.2589 48.4609 92.218 47.991 92.2095C46.7403 92.1891 46.0125 91.6137 46.0002 90.6469C45.9878 89.6392 46.7262 89.023 48.021 89.0111C49.8405 88.9957 51.6618 89.006 53.4813 89.006C54.3628 89.006 55.2442 88.9872 56.124 89.0162C57.2757 89.0536 58.0035 89.6953 58 90.623C57.9965 91.5712 57.2828 92.1737 56.1151 92.2044C55.4121 92.2231 54.7072 92.2282 54.0024 92.2435C53.9512 92.2435 53.8999 92.2912 53.7639 92.3593L53.7622 92.361Z" fill="black"/>
<defs>
<linearGradient id="paint0_linear_818_796" x1="73.6865" y1="48.47" x2="87.5294" y2="48.47" gradientUnits="userSpaceOnUse">
<stop stop-color="#BF55C7"/>
<stop offset="0.84" stop-color="#DF58BF"/>
</linearGradient>
<linearGradient id="paint1_linear_818_796" x1="70.7658" y1="62.0262" x2="103.455" y2="86.0586" gradientUnits="userSpaceOnUse">
<stop stop-color="#FECC05"/>
<stop offset="0.43" stop-color="#E68E16"/>
</linearGradient>
<linearGradient id="paint2_linear_818_796" x1="47.4956" y1="61.9421" x2="63.2415" y2="61.9421" gradientUnits="userSpaceOnUse">
<stop stop-color="#BF55C7"/>
<stop offset="0.84" stop-color="#DF58BF"/>
</linearGradient>
<linearGradient id="paint3_linear_818_796" x1="45.9991" y1="46.8243" x2="81.8204" y2="46.8243" gradientUnits="userSpaceOnUse">
<stop stop-color="#573595"/>
<stop offset="0.84" stop-color="#793FB8"/>
</linearGradient>
</defs>
</svg>
