<svg width="140" height="140" viewBox="0 0 140 140" fill="none" xmlns="http://www.w3.org/2000/svg">
<rect width="140" height="140" rx="30" fill="#DA0C16"/>
<g clip-path="url(#clip0_752_3407)">
<path d="M30.0128 85.9046C30.0128 85.6828 30.0128 85.5139 30.0128 85.3463C30.0153 74.6003 29.9717 63.8544 30.0378 53.1097C30.0702 47.8463 31.7618 43.0872 34.9178 38.8939C38.4806 34.1574 43.1373 31.0418 48.8719 29.6881C50.6271 29.2747 52.4646 29.0365 54.2659 29.0315C72.989 28.9861 91.7109 29.0025 110.434 29.0037C110.601 29.0037 110.768 29.0189 110.968 29.0277V41.5861C110.752 41.5861 110.553 41.5861 110.353 41.5861C91.7508 41.5861 73.1487 41.5873 54.5454 41.5861C48.5962 41.5861 43.5141 45.981 42.6309 51.9199C42.5423 52.5173 42.4999 53.1273 42.4974 53.731C42.4812 57.371 42.4862 61.0097 42.4774 64.6497C42.4712 67.2322 42.4438 69.8134 42.4462 72.3959C42.4462 74.3243 42.3851 76.2325 41.5942 78.0437C39.7156 82.3378 36.5296 84.9089 31.904 85.6072C31.2965 85.6992 30.6914 85.7988 30.0141 85.9046H30.0128Z" fill="white"/>
<path d="M111 54.1243C111 54.3953 111 54.5818 111 54.7684C111 65.3076 110.994 75.8469 111 86.3861C111.005 96.9745 104.149 106.499 94.1729 109.769C91.5894 110.616 88.946 111.001 86.234 111C67.7143 110.994 49.1945 110.997 30.676 110.997H30.041V98.4517C30.3254 98.4517 30.6099 98.4517 30.893 98.4517C49.3604 98.4517 67.829 98.453 86.2964 98.4517C91.5669 98.4517 96.0665 95.2793 97.8604 90.2807C98.3132 89.0191 98.514 87.7032 98.514 86.3571C98.514 79.8045 98.4841 73.2518 98.5278 66.7003C98.5602 61.771 100.788 58.1021 105.034 55.6935C106.536 54.8415 108.196 54.486 109.892 54.2869C110.23 54.2478 110.567 54.1886 110.999 54.1256L111 54.1243Z" fill="white"/>
<path d="M77.699 70.0176C75.3176 72.8749 72.9362 75.7334 70.5099 78.6437C68.0811 75.7284 65.6848 72.8522 63.1948 69.8639V85.8959C62.9703 85.911 62.7894 85.9349 62.6085 85.9349C59.7256 85.9374 56.8428 85.9286 53.9599 85.9463C53.5021 85.9488 53.3486 85.8341 53.3486 85.3438C53.3624 75.2053 53.3574 65.0656 53.3574 54.9272C53.3574 54.6701 53.3574 54.4129 53.3574 54.1079C53.5969 54.0966 53.7803 54.0789 53.9636 54.0789C56.6918 54.0777 59.4213 54.0852 62.1495 54.0676C62.5399 54.0651 62.7719 54.205 63.0015 54.5049C65.3916 57.6269 67.7942 60.74 70.1943 63.8544C70.2866 63.9741 70.3889 64.0851 70.5224 64.2439C71.095 63.5053 71.6439 62.8033 72.1878 62.0962C74.1562 59.5401 76.1272 56.9866 78.0845 54.423C78.2853 54.1596 78.4962 54.0676 78.8192 54.0689C81.53 54.0815 84.242 54.0764 86.9539 54.0764C87.4379 54.0764 87.6804 54.3184 87.6812 54.8024C87.6812 62.7062 87.6812 70.6088 87.68 78.5126C87.68 80.7825 87.67 83.0537 87.6899 85.3236C87.6937 85.7887 87.5789 85.9513 87.0899 85.9463C84.1896 85.9236 81.2892 85.9236 78.3901 85.9437C77.9273 85.9475 77.815 85.8001 77.8163 85.3526C77.83 80.4309 77.8263 75.5078 77.8263 70.5861C77.8263 70.4033 77.8263 70.2206 77.8263 70.0366C77.7851 70.029 77.7439 70.0227 77.7028 70.0151L77.699 70.0176Z" fill="white"/>
</g>
<defs>
<clipPath id="clip0_752_3407">
<rect width="81" height="82" fill="white" transform="translate(30 29)"/>
</clipPath>
</defs>
</svg>
