<svg width="140" height="140" viewBox="0 0 140 140" fill="none" xmlns="http://www.w3.org/2000/svg">
<rect width="140" height="140" rx="30" fill="white"/>
<path d="M65.5734 71.5528L74.1356 57.9612H32.2074L15 82.7987H57.0089V67.1015L65.5734 71.5528Z" fill="#006DB6"/>
<path d="M46.0405 82.7988L57.0091 67.0612V82.7988" fill="#04568C"/>
<path d="M74.5179 70.3788L66.2998 82.7987L108.793 82.8795L126 58.042L82.0478 57.9612L82.0549 75.1105L74.5179 70.3788Z" fill="#F8AB00"/>
<path d="M93.016 57.9612L82.0498 74.9299V57.9612" fill="#DC9903"/>
<path d="M68.6301 66.6809L82.0548 75.1105V32.2325L57.2534 15V57.9588L74.1357 57.9612L68.6301 66.6809Z" fill="#83BB29"/>
<path d="M57.2534 46.9744L74.1357 57.9565H57.2534" fill="#75A71D"/>
<path d="M71.6153 74.7684L57.0088 67.0612V108.606L82.7001 126L82.8211 82.8297L66.2995 82.7988L71.6153 74.7684Z" fill="#E92938"/>
<path d="M82.8214 93.7808L66.2998 82.7987H82.8214" fill="#B32628"/>
</svg>
