<svg width="140" height="140" viewBox="0 0 140 140" fill="none" xmlns="http://www.w3.org/2000/svg">
<rect width="140" height="140" rx="30" fill="white"/>
<g clip-path="url(#clip0_752_3365)">
<path d="M104.157 54.9769H75.9034C78.9227 51.3647 81.8956 47.8071 84.9405 44.1638C84.7114 44.1374 84.5845 44.1101 84.4576 44.1101C82.1711 44.1073 79.8846 44.1007 77.5982 44.1214C77.3832 44.1233 77.1039 44.2504 76.9667 44.4132C73.4039 48.6428 69.8591 52.8875 66.2992 57.1181C66.0265 57.4419 66.0142 57.6452 66.285 57.9859C69.8847 62.5082 73.4711 67.0419 77.05 71.5802C77.3047 71.904 77.5688 72.0452 77.9949 72.0414C80.1545 72.0179 82.3151 72.0311 84.4756 72.0311H85.0267C85.0551 71.9896 85.0844 71.9482 85.1128 71.9078C82.2999 68.3492 79.487 64.7896 76.6239 61.1671H104.141C103.649 66.8894 101.812 72.1562 98.5988 76.8894C93.2277 84.8019 85.7973 89.8174 76.3418 91.5511C66.2973 93.3929 57.0737 91.2047 48.9787 84.9854C41.8683 79.5228 37.5264 72.2814 36.1639 63.4334C34.5961 53.2565 37.0643 44.0461 43.7553 36.1685C50.9613 27.6828 60.3326 23.6292 71.4762 24.0264C80.7623 24.3567 88.6746 28.0574 95.0418 34.7718C100.39 40.4122 103.398 47.1821 104.157 54.9769ZM57.6891 58.0725C57.6891 62.5384 57.6958 67.0042 57.6787 71.4701C57.6768 71.9313 57.8169 72.0452 58.2638 72.0386C59.9349 72.0141 61.606 72.0141 63.2761 72.0386C63.7258 72.0452 63.8669 71.9228 63.866 71.4626C63.8537 62.5308 63.8527 53.5991 63.866 44.6673C63.866 44.1958 63.705 44.0932 63.2667 44.0988C61.5956 44.1205 59.9245 44.1233 58.2544 44.0969C57.7952 44.0894 57.6759 44.224 57.6778 44.6748C57.6948 49.1407 57.6882 53.6066 57.6882 58.0725H57.6891Z" fill="#E73221"/>
<path d="M84.1846 112.26V115.999H82.3535V105.63C82.8629 105.63 83.3921 105.618 83.9195 105.642C84.0085 105.646 84.1382 105.797 84.1657 105.901C84.2073 106.06 84.177 106.239 84.177 106.445C84.5188 106.221 84.8104 105.994 85.1314 105.825C86.3537 105.178 87.7691 105.391 88.8693 106.273C90.7241 107.761 90.7998 110.761 89.1543 112.371C87.7729 113.721 85.6625 113.792 84.4014 112.432C84.3607 112.389 84.3086 112.357 84.1855 112.26H84.1846ZM88.5597 109.434C88.7083 108.185 87.4236 107.103 86.2884 107.107C85.0727 107.111 84.0085 108.138 83.9725 109.412C83.9356 110.735 85.2128 111.752 86.2533 111.751C87.5277 111.751 88.6714 110.633 88.5606 109.434H88.5597Z" fill="#E73221"/>
<path d="M52.6806 106.466C52.6948 106.162 52.7062 105.917 52.7185 105.651H54.561C54.561 105.808 54.561 105.971 54.561 106.135C54.561 107.685 54.561 109.236 54.561 110.786C54.561 111.661 54.5666 111.669 55.396 111.902V113.248C53.8499 113.389 53.4153 113.453 52.9666 112.391C52.3549 112.695 51.7689 113.102 51.1184 113.287C49.6149 113.714 48.1124 113.075 47.2177 111.779C46.1734 110.266 46.3182 107.993 47.5235 106.692C48.7695 105.347 50.7719 104.825 52.6806 106.465V106.466ZM50.5324 111.742C51.8333 111.702 52.8615 110.833 52.8681 109.434C52.8747 108.091 51.8939 107.122 50.6006 107.119C49.2173 107.116 48.2904 108.055 48.2298 109.441C48.1768 110.659 49.2883 111.737 50.5324 111.743V111.742Z" fill="#E73221"/>
<path d="M34.9814 106.492C34.9965 106.175 35.0079 105.933 35.0211 105.66H36.8674C36.8674 105.824 36.8674 105.989 36.8674 106.154C36.8674 107.783 36.8664 109.411 36.8674 111.04C36.8674 111.614 37.0861 111.817 37.6958 111.821C37.6958 112.302 37.6958 112.782 37.6958 113.26C35.9338 113.399 35.7682 113.371 35.2919 112.409C34.632 112.718 34.0024 113.124 33.3131 113.314C31.9157 113.7 30.5826 113.089 29.7371 112.058C28.4429 110.481 28.4968 108.131 29.8848 106.654C31.1876 105.269 33.067 104.938 34.7314 106.271C34.7996 106.326 34.863 106.387 34.9823 106.492H34.9814ZM32.8918 111.742C34.1321 111.744 35.1906 110.682 35.1935 109.433C35.1963 108.164 34.134 107.083 32.8606 107.111C31.555 107.138 30.5258 108.136 30.5447 109.441C30.5646 110.788 31.5701 111.72 32.8918 111.743V111.742Z" fill="#E73221"/>
<path d="M104.94 109.833H99.0957C98.9859 110.463 99.3798 111.199 99.9904 111.554C100.962 112.118 102.219 111.908 103.274 111.013C103.614 111.351 103.954 111.688 104.319 112.051C103.348 113.115 102.098 113.565 100.658 113.374C100.065 113.296 99.4839 113.022 98.9329 112.763C97.9492 112.301 97.5222 111.388 97.2921 110.416C97.0043 109.199 97.1936 108.019 97.9236 106.971C98.5011 106.142 99.3277 105.7 100.322 105.528C101.006 105.411 101.667 105.408 102.346 105.611C103.777 106.04 104.465 107.085 104.794 108.428C104.9 108.857 104.89 109.315 104.94 109.832V109.833ZM99.0739 108.589H103.031C102.774 107.387 102.231 107 100.879 107.01C99.9582 107.016 99.2538 107.635 99.073 108.589H99.0739Z" fill="#E73221"/>
<path d="M28.5762 113.216C27.7638 113.216 27.0916 113.3 26.4592 113.18C26.1477 113.122 25.876 112.712 25.6402 112.419C24.7398 111.299 23.8621 110.161 22.903 108.937C22.8841 109.153 22.8652 109.274 22.8642 109.397C22.8614 110.524 22.8548 111.653 22.868 112.78C22.8718 113.097 22.779 113.219 22.4401 113.224C21 113.251 21 113.26 21 111.818C21 109.688 21 107.558 21 105.427V104.9H22.8396V108.811C23.3177 108.266 23.7078 107.841 24.0761 107.398C24.7379 106.6 25.3855 105.79 26.0454 104.991C26.0966 104.929 26.2035 104.883 26.285 104.882C26.9723 104.873 27.6606 104.877 28.4465 104.877C27.3122 106.24 26.2367 107.533 25.1365 108.856C26.2585 110.278 27.3766 111.695 28.5762 113.215V113.216Z" fill="#E73221"/>
<path d="M71.9712 111.546C71.9712 112.036 71.992 112.472 71.957 112.904C71.9475 113.015 71.7657 113.202 71.6606 113.203C69.8683 113.222 68.0751 113.216 66.2563 113.216V104.904H71.9702C71.9702 105.332 71.9721 105.75 71.9702 106.168C71.9683 106.481 71.7354 106.445 71.5318 106.445C70.5235 106.446 69.5152 106.445 68.5059 106.445C68.3525 106.445 68.1992 106.445 67.9994 106.445C67.9994 106.945 68.0022 107.395 67.9994 107.845C67.9965 108.171 68.2181 108.169 68.4519 108.168C69.5067 108.167 70.5614 108.168 71.653 108.168V109.629H68.0297V111.547H71.973L71.9712 111.546Z" fill="#E73221"/>
<path d="M56.7676 105.629C57.3243 105.629 57.8261 105.611 58.3251 105.643C58.433 105.65 58.5807 105.826 58.6167 105.95C58.6669 106.121 58.629 106.318 58.629 106.438C59.0844 106.167 59.5171 105.817 60.0123 105.63C61.5773 105.037 63.3819 106.06 63.5409 107.786C63.6318 108.776 63.6261 109.777 63.6394 110.774C63.6451 111.215 63.7161 111.57 64.2141 111.704C64.2946 111.726 64.34 111.877 64.4006 111.969C64.4082 111.98 64.4035 112 64.4016 112.015C64.3713 112.397 64.341 112.78 64.3107 113.162C63.7748 113.129 63.2247 113.16 62.7078 113.046C62.2031 112.934 61.8803 112.375 61.8774 111.835C61.8727 110.849 61.8916 109.862 61.868 108.876C61.8604 108.545 61.8102 108.192 61.6805 107.891C61.404 107.251 60.5813 106.948 59.8674 107.15C59.1478 107.354 58.5779 107.848 58.6167 108.803C58.6688 110.101 58.6129 111.402 58.6385 112.701C58.647 113.124 58.505 113.26 58.0969 113.224C57.7684 113.194 57.4313 113.247 57.1075 113.202C56.9816 113.184 56.7828 112.997 56.7818 112.885C56.7629 110.49 56.7676 108.095 56.7676 105.629Z" fill="#E73221"/>
<path d="M38.6706 113.091C38.3516 112.296 38.8259 111.801 39.2737 111.301C40.3124 110.14 41.3538 108.983 42.3906 107.82C42.543 107.649 42.6727 107.459 42.8554 107.224H39.1109V105.628H39.5426C41.3406 105.628 43.1385 105.638 44.9355 105.621C45.3294 105.617 45.4714 105.705 45.497 106.135C45.5282 106.664 45.3531 107.058 45.0179 107.427C44.18 108.35 43.343 109.273 42.5127 110.202C42.1434 110.615 41.7903 111.041 41.3652 111.537H45.5377V113.09H38.6716L38.6706 113.091Z" fill="#E73221"/>
<path d="M73.2312 105.629C73.9261 105.629 74.481 105.589 75.0244 105.649C75.246 105.673 75.4827 105.88 75.6446 106.063C76.1956 106.687 76.7163 107.338 77.291 108.029C77.7417 107.511 78.1801 107.016 78.6071 106.512C78.8068 106.277 78.9725 106.013 79.1818 105.787C79.2632 105.699 79.4203 105.64 79.5444 105.636C80.1105 105.62 80.6767 105.629 81.3537 105.629C81.1037 105.954 80.9125 106.224 80.6994 106.475C79.9771 107.328 79.2518 108.178 78.5171 109.021C78.2946 109.277 78.4726 109.451 78.6118 109.628C79.4345 110.674 80.2649 111.713 81.0895 112.757C81.1823 112.874 81.259 113.006 81.3991 113.214C80.7108 113.214 80.0859 113.306 79.5103 113.177C79.2026 113.109 78.9659 112.671 78.7235 112.378C78.253 111.81 77.8013 111.226 77.3071 110.604C76.7277 111.322 76.1738 111.963 75.6767 112.646C75.3851 113.046 75.0841 113.285 74.5586 113.227C74.1458 113.183 73.7235 113.218 73.1611 113.218C74.2499 111.832 75.2469 110.564 76.2609 109.274C75.2829 108.097 74.2982 106.912 73.2331 105.628L73.2312 105.629Z" fill="#E73221"/>
<path d="M112.607 112.017C113.087 111.598 113.365 111.32 113.683 111.101C113.773 111.039 114.026 111.101 114.134 111.192C114.901 111.826 115.764 111.984 116.704 111.711C116.996 111.626 117.366 111.467 117.3 111.106C117.251 110.845 117.027 110.544 116.794 110.407C116.416 110.184 115.962 110.09 115.548 109.921C115.093 109.734 114.634 109.546 114.201 109.315C113.428 108.902 113.264 108.173 113.366 107.399C113.465 106.637 113.852 106.068 114.602 105.697C115.811 105.099 118.07 105.598 118.611 106.556C118.364 106.849 118.133 107.163 117.855 107.427C117.776 107.501 117.504 107.49 117.408 107.412C116.846 106.955 116.217 106.889 115.57 107.106C115.362 107.176 115.097 107.448 115.088 107.637C115.08 107.826 115.32 108.112 115.523 108.209C116.26 108.56 117.035 108.835 117.783 109.167C118.993 109.704 119.375 111.277 118.588 112.346C118.181 112.9 117.559 113.163 116.921 113.294C115.698 113.544 114.507 113.474 113.465 112.663C113.199 112.456 112.926 112.257 112.607 112.019V112.017Z" fill="#E73221"/>
<path d="M111.555 106.535C111.221 106.917 110.935 107.244 110.625 107.601C110.482 107.51 110.345 107.441 110.232 107.345C109.724 106.917 109.12 106.957 108.54 107.058C108.347 107.092 108.081 107.362 108.059 107.548C108.035 107.745 108.211 108.077 108.391 108.166C108.998 108.463 109.648 108.674 110.278 108.924C111.785 109.523 112.305 110.903 111.637 112.131C111.258 112.827 110.578 113.124 109.857 113.287C108.797 113.526 107.743 113.49 106.784 112.913C106.447 112.711 106.172 112.405 105.875 112.138C105.821 112.09 105.751 111.965 105.768 111.946C106.023 111.662 106.277 111.371 106.569 111.126C106.65 111.057 106.892 111.074 106.99 111.145C107.583 111.575 108.207 111.894 108.965 111.831C109.194 111.812 109.452 111.8 109.636 111.687C109.866 111.546 110.191 111.302 110.187 111.107C110.183 110.864 109.937 110.52 109.704 110.408C109.069 110.1 108.39 109.88 107.721 109.645C106.709 109.291 106.154 108.536 106.262 107.541C106.37 106.552 107.026 105.705 108.082 105.526C109.402 105.301 110.579 105.497 111.555 106.533V106.535Z" fill="#E73221"/>
<path d="M91.8717 105.653H93.6336V106.733C94.3504 105.728 95.2441 105.409 96.3547 105.565V107.161C95.9665 107.205 95.5821 107.232 95.2044 107.292C94.3352 107.432 93.645 108.233 93.6422 109.099C93.6374 110.446 93.6412 111.793 93.6412 113.21C93.112 113.21 92.5979 113.23 92.0885 113.191C92.0061 113.184 91.883 112.911 91.8821 112.76C91.8669 111.052 91.8726 109.345 91.8726 107.637C91.8726 106.983 91.8726 106.328 91.8726 105.653H91.8717Z" fill="#E73221"/>
</g>
<defs>
<clipPath id="clip0_752_3365">
<rect width="98" height="92" fill="white" transform="translate(21 24)"/>
</clipPath>
</defs>
</svg>
