<svg width="140" height="140" viewBox="0 0 140 140" fill="none" xmlns="http://www.w3.org/2000/svg">
<rect width="140" height="140" rx="30" fill="white"/>
<g clip-path="url(#clip0_747_3047)">
<path d="M21.0148 67.5167C21.3482 66.2054 21.7242 64.9028 21.9963 63.5788C22.1378 62.8936 22.4881 62.5805 23.1442 62.3809C27.5246 61.0463 32.0763 62.8325 34.5491 66.8896C37.2989 71.4003 36.2658 77.4191 32.1634 80.7871C28.0253 84.1842 21.8736 83.5377 18.4539 79.3391C16.8678 77.391 16.0307 75.1618 16.0228 72.67C16 66.2887 16.0139 59.9075 16 53.5262C16 53.1249 16.1207 52.9883 16.5333 53.0038C17.2745 53.0319 18.0186 53.0387 18.7587 53.0019C19.2386 52.9786 19.3722 53.1356 19.3702 53.6018C19.3544 58.5128 19.3593 63.4237 19.3603 68.3357C19.3603 69.838 19.3019 71.3431 19.3781 72.8425C19.5087 75.4109 20.6289 77.4918 22.9116 78.8303C25.6327 80.4256 28.9426 79.7646 31.0017 77.3067C33.7426 74.0356 33.1697 69.0296 29.7589 66.4496C27.3584 64.6343 23.819 64.8766 21.6589 67.005C21.4749 67.1862 21.2918 67.3684 21.1088 67.5497C21.0781 67.539 21.0464 67.5283 21.0157 67.5167H21.0148Z" fill="#535353"/>
<path d="M98.8644 74.1103C96.3244 74.1103 93.7843 74.1103 91.2443 74.1103C90.6338 74.1103 90.5962 74.1472 90.7862 74.718C91.6411 77.2942 93.3074 79.0707 96.0948 79.5805C98.433 80.008 100.377 79.1783 101.927 77.456C102.24 77.1091 102.463 77.0393 102.868 77.301C103.499 77.71 104.165 78.0705 104.829 78.4272C105.164 78.6075 105.171 78.7674 104.951 79.061C102.365 82.5163 97.6978 83.8955 93.6478 82.3195C90.991 81.2854 89.0911 79.4109 88.0146 76.8299C86.3928 72.9405 86.7896 69.2061 89.3633 65.8246C91.4353 63.1021 94.2969 61.7423 97.7789 61.9749C101.153 62.1997 103.712 63.8871 105.498 66.6707C106.853 68.7807 107.328 71.1077 107.102 73.586C107.063 74.0086 106.896 74.12 106.483 74.1171C103.943 74.1016 101.403 74.1094 98.8634 74.1094L98.8644 74.1103ZM97.1011 70.8073V70.8053C99.0623 70.8053 101.022 70.8053 102.984 70.8053C103.016 70.8053 103.05 70.8034 103.083 70.8053C103.412 70.8189 103.651 70.7578 103.53 70.344C102.8 67.827 100.81 65.7238 98.0401 65.2944C94.8817 64.805 91.7064 66.9392 90.7881 70.155C90.616 70.7588 90.6526 70.8073 91.3175 70.8073C93.245 70.8082 95.1736 70.8073 97.1011 70.8073Z" fill="#535353"/>
<path d="M57.8119 78.6947C56.8491 80.0167 55.7171 81.0721 54.3021 81.8194C49.7713 84.2143 44.1519 82.7537 41.4605 78.3855C38.9818 74.3623 39.0333 70.2693 41.6139 66.3082C44.0668 62.5428 48.6897 60.9892 52.9644 62.5225C56.578 63.8193 58.6935 66.503 59.497 70.1443C59.7305 71.2017 59.6979 72.3231 59.7147 73.4164C59.7256 74.1064 59.6652 74.1093 58.9745 74.1093C54.6376 74.1093 50.3006 74.1093 45.9637 74.1093C45.2216 74.1093 44.4794 74.1181 43.7373 74.1093C43.3544 74.1045 43.2396 74.245 43.3475 74.6143C44.2004 77.5384 46.8364 79.8509 50.0612 79.6726C51.8927 79.5708 53.3799 78.7819 54.5594 77.4357C54.8573 77.0955 55.074 77.0538 55.4579 77.3038C56.0743 77.7061 56.7343 78.0424 57.3745 78.4097C57.5111 78.4882 57.6387 78.5813 57.8109 78.6947H57.8119ZM49.7495 70.8102C51.677 70.8102 53.6046 70.8121 55.5321 70.8092C56.2257 70.8082 56.3079 70.7229 56.0427 70.0803C55.7666 69.4106 55.4777 68.7312 55.0789 68.1284C53.4126 65.6045 50.2739 64.5723 47.5083 65.6511C45.4155 66.4671 44.1123 68.0276 43.4167 70.1007C43.205 70.7326 43.2525 70.8063 43.9164 70.8072C45.8608 70.8111 47.8041 70.8082 49.7485 70.8102H49.7495Z" fill="#535353"/>
<path d="M121.906 77.993C121.915 78.0124 121.972 78.1199 122.012 78.2343C122.312 79.0901 122.578 79.9585 122.919 80.7979C123.1 81.2427 122.973 81.4618 122.594 81.6915C120.453 82.9863 118.16 83.2839 115.748 82.6675C114.035 82.2303 112.599 81.3561 111.608 79.8771C111.06 79.0601 110.788 78.1597 110.788 77.1769C110.791 70.7133 110.794 64.2496 110.779 57.7869C110.778 57.3043 110.903 57.1269 111.414 57.155C112.154 57.1957 112.898 57.1822 113.639 57.1589C114.035 57.1473 114.151 57.2994 114.147 57.6706C114.132 59.1244 114.154 60.5792 114.133 62.033C114.127 62.4711 114.266 62.631 114.727 62.6243C116.31 62.602 117.893 62.6117 119.476 62.6175C120.529 62.6213 120.406 62.5012 120.413 63.5101C120.416 64.0596 120.413 64.6092 120.413 65.1587C120.413 65.6614 120.163 65.9131 119.664 65.9137C118.064 65.9137 116.464 65.9137 114.865 65.9137C114.141 65.9137 114.135 65.9215 114.135 66.6038C114.136 70.0135 114.161 73.4232 114.126 76.8319C114.115 77.9087 114.596 78.6375 115.514 79.0921C117.126 79.8907 118.795 79.9343 120.417 79.1434C120.967 78.8759 121.405 78.3884 121.905 77.993H121.906Z" fill="#535353"/>
<path d="M82.1696 66.155C81.3216 65.0889 80.347 64.141 79.1507 63.4703C76.4068 61.9312 73.4819 61.5135 70.4312 62.3887C68.3444 62.9867 66.5653 64.112 65.176 65.7674C63.4217 67.8579 62.5925 70.248 62.6795 72.9783C62.7557 75.3499 63.5285 77.4221 65.0474 79.251C67.2985 81.9619 70.2561 83.2053 73.7698 83.2829C74.4892 83.2994 75.165 83.405 75.7943 83.5969C77.2588 83.1743 78.6124 82.4998 79.8037 81.6255C79.6177 81.4433 79.7167 81.3677 80.0996 81.0789C82.9246 78.9447 84.2753 76.0923 84.4019 73.1014C84.3831 70.2335 83.6855 68.0595 82.1696 66.155ZM73.4838 79.7017C69.5476 79.6997 66.218 76.4577 66.2882 72.5693C66.3615 68.4821 69.5209 65.6239 73.3077 65.5154C77.5873 65.3913 80.8585 68.865 80.72 72.642C80.8318 76.2474 77.6872 79.7036 73.4838 79.7017Z" fill="#49A4DB"/>
<path d="M81.4928 97.5952C79.9689 99.2331 78.0919 100.33 75.8843 100.754C73.4462 101.223 71.0477 101.056 68.759 99.9397C67.1124 99.1362 65.742 98.0371 64.6753 96.5872C62.9486 94.2388 62.3075 91.62 62.7458 88.7502C62.8685 87.9487 63.0476 87.1646 63.3731 86.4173C63.5423 86.0316 63.4909 85.8106 62.9952 85.7854C62.7725 85.7738 62.4123 85.799 62.3886 85.5014C62.3678 85.2388 62.7122 85.2203 62.915 85.1535C64.2568 84.7076 65.6045 84.2792 66.9482 83.8421C67.3084 83.7258 67.5132 83.814 67.5666 84.2104C67.7675 85.6982 67.9802 87.183 68.19 88.6697C68.2108 88.8171 68.2434 88.978 68.0614 89.041C67.8833 89.103 67.7922 88.9615 67.7111 88.8394C67.5399 88.5825 67.3846 88.315 67.2055 88.065C67.1273 87.9554 67.0877 87.7558 66.9047 87.7936C66.7651 87.8227 66.7631 87.9981 66.7216 88.1163C66.1714 89.6903 66.2061 91.2633 66.7978 92.8121C67.6111 94.9425 69.1577 96.3527 71.3475 97.0747C74.6138 98.1525 78.3798 96.6454 79.9155 93.6137C81.2335 91.0133 81.0613 88.4507 79.309 86.1169C78.3818 84.8811 77.2033 84.0253 75.7943 83.5969C77.2587 83.1743 78.6123 82.4998 79.8037 81.6255C79.8651 81.6856 79.9581 81.7574 80.0817 81.8523C82.2121 83.4855 83.6568 85.5731 84.1703 88.1774C84.8699 91.7257 84.0031 94.8988 81.4928 97.5952Z" fill="url(#paint0_linear_747_3047)"/>
</g>
<defs>
<linearGradient id="paint0_linear_747_3047" x1="64.2479" y1="95.997" x2="83.1044" y2="85.2611" gradientUnits="userSpaceOnUse">
<stop stop-color="#81BF4E"/>
<stop offset="0.51" stop-color="#5CAFA3"/>
<stop offset="1" stop-color="#49A4DB"/>
</linearGradient>
<clipPath id="clip0_747_3047">
<rect width="107" height="48" fill="white" transform="translate(16 53)"/>
</clipPath>
</defs>
</svg>
