<svg width="140" height="140" viewBox="0 0 140 140" fill="none" xmlns="http://www.w3.org/2000/svg">
<rect width="140" height="140" rx="30" fill="white"/>
<g clip-path="url(#clip0_800_9726)">
<path d="M15.9087 97.7666L12 56.4256H13.3482C14.9861 56.4256 16.3139 55.0991 16.3139 53.4628V51.1428C16.3139 50.1678 17.0563 49.3536 18.0277 49.2619L32.3016 47.9183C33.7402 47.7832 35.0125 48.8472 35.132 50.2864L35.9767 62.5898" fill="#C5C7C6"/>
<path d="M78.1655 60.3285H23.9878V85.3459H78.1655V60.3285Z" fill="white"/>
<path d="M80.9619 92.9466C80.3963 92.886 79.813 93.0172 79.2303 93.0666C78.3651 93.1392 77.4967 93.1893 76.6335 93.2947C76.2976 93.3356 75.9564 93.3013 75.6265 93.3448C74.5099 93.4919 73.3808 93.4714 72.2668 93.6231C71.8207 93.6837 71.3786 93.7187 70.9292 93.7332C70.4593 93.7483 69.9915 93.8281 69.5216 93.8729C69.2457 93.8993 68.9679 93.923 68.6908 93.9263C67.9688 93.9356 67.2508 93.9837 66.5408 94.1215C66.4767 94.134 66.4088 94.1281 66.3434 94.1267C65.4103 94.1037 64.4891 94.2632 63.5606 94.3146C62.5173 94.3727 61.4772 94.4828 60.4339 94.548C59.9423 94.5783 59.4242 94.5342 58.9405 94.7109C58.8745 94.7353 58.7934 94.7201 58.7195 94.7194C58.0642 94.7109 57.4029 94.7287 56.7635 94.8394C56.1095 94.9522 55.4502 94.8486 54.8062 94.9845C53.91 95.173 52.9907 95.0702 52.0906 95.2066C51.2505 95.3345 50.3986 95.3213 49.5565 95.4143C48.6967 95.5092 47.8322 95.5402 46.9723 95.6193C46.0121 95.707 45.048 95.7406 44.0878 95.829C43.6351 95.8705 43.1758 95.8593 42.733 95.9239C41.7946 96.0604 40.8503 96.1224 39.9086 96.1824C39.3384 96.2186 38.7729 96.3366 38.1974 96.3056C37.624 96.2753 37.067 96.4184 36.5028 96.4817C36.2817 96.5067 36.0586 96.485 35.8376 96.4916C35.3215 96.508 34.8061 96.5344 34.2954 96.6353C34.0096 96.692 33.71 96.6893 33.4163 96.6933C32.899 96.6999 32.3849 96.7164 31.8768 96.835C31.688 96.8792 31.4881 96.8858 31.2927 96.8871C30.4276 96.8944 29.5704 96.9939 28.7118 97.0842C28.3792 97.1192 28.0446 97.0856 27.7074 97.1343C26.8667 97.2557 26.0134 97.2464 25.1674 97.3315C24.134 97.4363 23.092 97.4574 22.0605 97.5747C21.4567 97.644 20.8483 97.6268 20.2524 97.7086C19.349 97.8332 18.4389 97.8266 17.5348 97.9242C17.1547 97.965 16.7647 97.9288 16.3833 97.994C16.2361 98.0191 16.1906 97.9505 16.2025 97.8147C16.2427 97.3737 16.2823 96.932 16.3199 96.4909C16.4203 95.3207 16.51 94.1492 16.6228 92.9803C16.7786 91.3683 16.9574 89.7584 17.1165 88.1465C17.2253 87.0501 17.2927 85.9498 17.4246 84.856C17.5711 83.643 17.6543 82.4246 17.7638 81.2089C17.9031 79.6623 18.1123 78.1229 18.1967 76.5703C18.235 75.8655 18.2825 75.1502 18.4422 74.4666C18.5472 74.0169 18.497 73.5785 18.5485 73.1368C18.7022 71.8143 18.7887 70.4839 18.916 69.1574C19.0065 68.2173 19.1028 67.2772 19.1972 66.3377C19.3417 64.9012 19.4849 63.4659 19.6142 62.028C19.673 61.3707 19.7244 60.7062 19.8485 60.0535C19.8782 59.8979 19.9369 59.7918 20.0894 59.7127C21.4118 59.0257 22.7284 58.3262 24.0495 57.636C25.6023 56.8251 27.1577 56.0194 28.7131 55.2125C29.2807 54.9184 29.8541 54.6363 30.417 54.3337C31.3851 53.8128 32.3816 53.3461 33.3497 52.8272C34.1337 52.4066 34.913 51.9715 35.7267 51.6175C36.7555 51.1698 37.7427 50.6444 38.7359 50.1295C39.8565 49.5487 40.9724 48.9586 42.0942 48.3798C43.0636 47.8794 44.0403 47.3942 45.0084 46.8911C46.2939 46.2239 47.5728 45.5449 48.8564 44.8751C50.0746 44.2389 51.2954 43.6073 52.5156 42.9737C53.1069 42.6665 53.6995 42.3619 54.2901 42.0527C54.3733 42.0092 54.4445 41.9743 54.5428 42.0198C55.4931 42.4575 56.4784 42.8096 57.4458 43.2038C60.587 44.4848 63.7322 45.7545 66.8767 47.0276C69.9222 48.2604 72.9677 49.492 76.0138 50.7228C76.848 51.0604 77.6913 51.3762 78.5142 51.7394C78.9537 51.9332 79.3979 52.1185 79.8433 52.2958C80.4518 52.5385 81.0595 52.7857 81.6686 53.0257C82.1194 53.203 82.5628 53.412 83.0162 53.5795C83.492 53.7555 83.9678 53.9302 84.437 54.124C84.8514 54.2954 85.2612 54.4774 85.6783 54.6402C85.8393 54.7029 85.8802 54.7952 85.8683 54.958C85.8215 55.585 85.7284 56.2067 85.6737 56.8317C85.6374 57.245 85.6162 57.6617 85.5555 58.0711C85.4691 58.6526 85.4922 59.2426 85.378 59.8228C85.3074 60.1808 85.2949 60.5513 85.2672 60.9172C85.221 61.5349 85.1662 62.1507 85.0797 62.7645C85.0197 63.191 85.0217 63.6261 84.9656 64.0533C84.8837 64.6737 84.8507 65.2987 84.7947 65.9204C84.7584 66.3252 84.6811 66.7267 84.6712 67.1368C84.6613 67.5481 84.5756 67.9569 84.5353 68.3683C84.5142 68.5865 84.4964 68.8054 84.4799 69.0243C84.4284 69.6895 84.3512 70.352 84.2872 71.0159C84.2284 71.6271 84.2047 72.2422 84.138 72.854C84.0437 73.7275 83.9361 74.5991 83.8754 75.4766C83.8239 76.2136 83.7051 76.9461 83.6424 77.6831C83.6226 77.9185 83.591 78.1532 83.5804 78.3899C83.554 78.976 83.4603 79.5555 83.3963 80.1383C83.3494 80.5681 83.3237 80.9993 83.2861 81.4305C83.2326 82.0396 83.166 82.6468 83.1046 83.2553C83.0604 83.6957 83.0716 84.144 83.003 84.5831C82.8981 85.2516 82.8882 85.9287 82.801 86.5978C82.7106 87.2927 82.6809 87.9929 82.5919 88.6864C82.481 89.5501 82.4157 90.417 82.3437 91.2846C82.3081 91.7151 82.2447 92.1436 82.2494 92.5775C82.2513 92.7508 82.1345 92.8029 81.9874 92.8511C81.6587 92.9592 81.3228 92.9361 80.9619 92.9466ZM27.2653 73.533C27.2508 76.4391 27.1993 79.3458 27.291 82.2513C27.3016 82.5895 27.3062 82.6007 27.6414 82.6013C28.6966 82.602 29.7518 82.6 30.8064 82.5961C31.1977 82.5947 31.2188 82.5624 31.2195 82.1781C31.2228 80.2761 31.232 78.3741 31.2314 76.4727C31.2314 76.2782 31.2749 76.1971 31.4894 76.1971C32.3631 76.1971 33.2369 76.1826 34.1106 76.1688C34.2274 76.1668 34.3125 76.1971 34.3785 76.298C34.4669 76.4338 34.5725 76.5578 34.6576 76.6956C35.1717 77.5269 35.6805 78.3622 36.1953 79.1935C36.8519 80.2556 37.4788 81.3362 38.1592 82.3838C38.2733 82.5598 38.4119 82.6158 38.6092 82.6139C39.8043 82.6026 41.0001 82.6013 42.1952 82.5875C42.3503 82.5855 42.5806 82.6706 42.6472 82.5097C42.7126 82.3515 42.5449 82.1853 42.4473 82.0363C42.0276 81.3955 41.6052 80.7567 41.1888 80.1139C40.2933 78.7321 39.4018 77.3482 38.5056 75.9671C38.3532 75.7317 38.3439 75.735 38.6231 75.644C39.3952 75.3915 40.0656 74.9669 40.5758 74.3433C41.4554 73.2667 41.8303 71.991 41.8824 70.6217C41.9002 70.1463 41.8349 69.6697 41.7491 69.1937C41.662 68.7085 41.5571 68.2292 41.365 67.7842C40.7467 66.3509 39.6743 65.3903 38.2014 64.8708C37.3725 64.5788 36.5173 64.4819 35.6442 64.4838C33.023 64.4904 30.4012 64.4931 27.78 64.497C27.2712 64.4977 27.2666 64.497 27.2659 65.0106C27.2646 67.8514 27.2653 70.6916 27.2653 73.5324V73.533ZM73.0053 72.7551V72.7472C71.6531 72.7472 70.3016 72.7531 68.9494 72.7419C68.6941 72.7399 68.6274 72.825 68.6314 73.0682C68.6452 73.9985 68.6393 74.9287 68.6439 75.8589C68.6459 76.2018 68.6498 76.2018 68.9838 76.2011C70.3683 76.1985 71.7534 76.1985 73.1379 76.1906C73.3286 76.1892 73.4019 76.2466 73.3973 76.4437C73.3874 76.8795 73.3834 77.3166 73.4052 77.7524C73.4184 78.0207 73.2989 78.1783 73.0911 78.3154C72.1876 78.9127 71.1951 79.2575 70.1208 79.3702C69.379 79.448 68.6472 79.3893 67.9365 79.1599C66.451 78.68 65.3344 77.7642 64.6455 76.3501C64.3446 75.7324 64.136 75.079 64.0496 74.4026C63.9598 73.7031 63.9935 72.9977 64.1406 72.2995C64.3386 71.3607 64.6692 70.4872 65.2816 69.7336C66.1296 68.69 67.2178 68.0657 68.533 67.7868C69.216 67.6418 69.8885 67.6279 70.5577 67.7716C71.729 68.0241 72.7011 68.6333 73.5055 69.5161C73.6487 69.673 73.7213 69.9354 73.9206 69.9855C74.141 70.0409 74.3013 69.7969 74.4973 69.7013C75.2965 69.3124 76.0719 68.8772 76.8414 68.4329C77.1476 68.2562 77.1588 68.2239 76.9621 67.9226C76.3002 66.9086 75.4041 66.1347 74.4083 65.4695C73.8757 65.1141 73.2851 64.8814 72.6859 64.6559C72.1065 64.4383 71.5139 64.3012 70.9087 64.2472C69.874 64.1542 68.8366 64.2538 67.8012 64.2913C67.656 64.2966 67.5049 64.3098 67.3676 64.354C66.7453 64.5544 66.1112 64.706 65.5027 64.9664C64.7214 65.3013 64.0021 65.7239 63.3098 66.2039C62.9944 66.4228 62.7713 66.7451 62.4849 66.9937C62.219 67.2251 61.9906 67.4954 61.79 67.7664C61.2601 68.4823 60.7843 69.2352 60.5415 70.116C60.2762 71.0792 59.9508 72.0253 59.9634 73.0438C59.9739 73.8963 59.9753 74.7474 60.1653 75.5853C60.3871 76.5604 60.7038 77.5005 61.2146 78.3655C62.3041 80.2108 63.8787 81.5109 65.8591 82.2796C66.779 82.6369 67.7411 82.9204 68.7653 82.9105C69.8647 82.9 70.9609 82.9263 72.0451 82.6884C74.0044 82.2592 75.6258 81.2353 77.0671 79.8838C77.2815 79.6827 77.3667 79.452 77.366 79.1606C77.3607 77.1267 77.3614 75.0935 77.37 73.0597C77.3706 72.823 77.298 72.7485 77.0598 72.7505C75.7083 72.7604 74.3561 72.7551 73.004 72.7551H73.0053ZM45.0665 73.4974C45.0619 73.4974 45.0566 73.4974 45.052 73.4974C45.052 75.5306 45.05 77.5645 45.0526 79.5977C45.0539 80.4706 45.0572 81.3428 45.0764 82.215C45.0843 82.5908 45.1034 82.5908 45.4703 82.6007C45.6353 82.6053 45.7996 82.6099 45.9646 82.6099C49.6654 82.6059 53.3669 82.6013 57.0677 82.5967C57.265 82.5967 57.463 82.5895 57.6603 82.5835C57.8721 82.5769 57.9533 82.4761 57.9506 82.2559C57.9408 81.3256 57.9493 80.3954 57.9474 79.4652C57.9467 79.127 57.9421 79.1217 57.6009 79.1204C56.2408 79.1151 54.8807 79.1131 53.5206 79.1098C52.1526 79.1065 50.784 79.1032 49.416 79.0993C49.0062 79.0979 49.0075 79.0979 49.0108 78.6806C49.0194 77.6106 49.0425 76.54 49.024 75.47C49.0194 75.1891 49.1124 75.1535 49.3427 75.1542C50.0271 75.1575 50.7107 75.141 51.3951 75.1403C53.1181 75.139 54.8405 75.1423 56.5635 75.1423C56.9621 75.1423 56.968 75.1337 56.968 74.7487C56.968 73.8515 56.968 72.9542 56.968 72.0569C56.968 71.6581 56.9654 71.6574 56.5747 71.6574C54.1515 71.6574 51.7277 71.6548 49.3044 71.664C49.0814 71.6646 49.026 71.5974 49.0286 71.3877C49.0411 70.3342 49.0471 69.2801 49.0411 68.2265C49.0398 68.0248 49.1104 67.9734 49.2959 67.974C49.7492 67.9753 50.2026 67.9556 50.6553 67.9549C52.93 67.951 55.2054 67.951 57.4801 67.9483C57.9163 67.9483 57.9408 67.9239 57.9427 67.4842C57.9467 66.6034 57.9474 65.7226 57.948 64.8418C57.948 64.5049 57.9467 64.4977 57.6101 64.4977C53.5959 64.4977 49.5816 64.499 45.5674 64.501C45.0698 64.501 45.0678 64.5036 45.0678 65.002C45.0671 67.8343 45.0678 70.6658 45.0678 73.4981L45.0665 73.4974Z" fill="#026CCB"/>
<path d="M97.8676 81.7548C97.9501 81.9611 97.8933 82.1767 97.8993 82.387C97.9032 82.536 97.7607 82.4978 97.6709 82.4985C96.9622 82.4991 96.2534 82.4952 95.544 82.4932C95.1646 82.4919 94.7851 82.4813 94.4063 82.4945C94.213 82.5011 94.1582 82.4444 94.1582 82.2486C94.1641 79.5067 94.1602 76.7654 94.1615 74.0235C94.1628 70.9526 94.1688 67.8817 94.1655 64.8101C94.1655 64.6269 94.209 64.5748 94.3971 64.5754C96.9688 64.5834 99.5411 64.5649 102.113 64.5946C103.063 64.6058 104.019 64.6262 104.939 64.973C106.679 65.629 107.834 66.8216 108.323 68.6122C108.517 69.3222 108.631 70.0672 108.56 70.8056C108.369 72.7907 107.489 74.3485 105.655 75.2768C105.397 75.4073 105.121 75.4943 104.844 75.5715C104.64 75.6288 104.621 75.7106 104.743 75.8826C105.923 77.5559 107.098 79.2324 108.274 80.9089C108.632 81.4192 108.99 81.9295 109.347 82.4398L109.334 82.4424L109.345 82.449C109.103 82.5202 108.856 82.4694 108.612 82.4721C107.508 82.484 106.404 82.4787 105.3 82.482C105.172 82.482 105.087 82.4378 105.014 82.3297C103.673 80.338 102.326 78.3503 100.988 76.3573C100.864 76.174 100.732 76.089 100.505 76.093C99.7391 76.1061 98.9723 76.1088 98.2061 76.0962C97.9646 76.0923 97.8814 76.151 97.8834 76.4087C97.8979 78.0549 97.8953 79.7012 97.8946 81.3474C97.8946 81.4317 97.9362 81.5293 97.8517 81.6012C97.7369 81.6625 97.8372 81.706 97.8663 81.7555L97.8676 81.7548ZM97.9039 70.3276C97.8993 70.3276 97.8946 70.3276 97.89 70.3276C97.89 71.0765 97.8966 71.8255 97.8854 72.5738C97.8821 72.7821 97.9488 72.8388 98.1527 72.8368C99.3471 72.8249 100.542 72.8216 101.737 72.8236C102.09 72.8243 102.443 72.7893 102.785 72.7247C104.411 72.4162 105.179 70.7199 104.524 69.3024C104.182 68.5608 103.586 68.1144 102.791 67.9344C102.397 67.8454 101.991 67.8632 101.593 67.854C100.449 67.827 99.3029 67.8507 98.1573 67.8408C97.9652 67.8395 97.8979 67.8857 97.8999 68.0808C97.9078 68.8297 97.9032 69.578 97.9032 70.3269L97.9039 70.3276Z" fill="#010101"/>
<path d="M126.988 70.358C126.988 71.9303 126.981 73.5034 126.991 75.0757C126.995 75.648 126.898 76.2051 126.835 76.7687C126.77 77.3581 126.675 77.9324 126.483 78.4908C125.925 80.1165 124.907 81.3276 123.31 82.035C122.433 82.4233 121.525 82.6303 120.572 82.7266C119.942 82.7899 119.318 82.8308 118.688 82.8044C117.546 82.7556 116.443 82.5558 115.377 82.1108C113.937 81.5102 112.937 80.4771 112.262 79.1065C112.071 78.7195 111.959 78.2943 111.851 77.873C111.718 77.3568 111.619 76.8373 111.588 76.3026C111.505 74.8707 111.555 73.4387 111.551 72.0068C111.545 69.7257 111.554 67.4453 111.561 65.1642C111.563 64.5788 111.571 64.5794 112.161 64.5801C113.133 64.5814 114.106 64.5887 115.079 64.5775C115.294 64.5748 115.355 64.6256 115.354 64.8478C115.347 68.1659 115.349 71.4847 115.352 74.8028C115.352 75.3843 115.32 75.9723 115.446 76.5419C115.665 77.5282 116.067 78.4103 116.983 78.9641C117.532 79.2964 118.121 79.4757 118.763 79.5034C119.499 79.5344 120.226 79.5113 120.928 79.2562C122.092 78.8316 122.722 77.9772 122.969 76.7859C123.31 75.1304 123.146 73.4579 123.164 71.7932C123.189 69.4383 123.173 67.0834 123.167 64.7284C123.167 64.5669 123.247 64.5807 123.349 64.5807C124.511 64.5807 125.674 64.584 126.836 64.5768C127.028 64.5755 126.998 64.6876 126.998 64.8009V70.3586C126.995 70.3586 126.991 70.3586 126.988 70.3586V70.358Z" fill="#010101"/>
<path d="M88.8452 82.7602C87.5187 82.7846 86.6899 81.6005 86.7103 80.6143C86.7301 79.6761 87.5682 78.4861 88.9633 78.5481C89.9314 78.591 90.9853 79.4183 90.9925 80.6307C91.0004 81.9935 89.7895 82.8538 88.8452 82.7602Z" fill="#010101"/>
<path d="M97.8676 81.7548C97.8386 81.7054 97.7383 81.6618 97.8531 81.6005C97.9376 81.644 97.9468 81.6948 97.8676 81.7548Z" fill="#026CCB"/>
<path d="M109.347 82.449L109.335 82.4425L109.348 82.4398L109.36 82.4444L109.347 82.449Z" fill="#026CCB"/>
<path d="M31.245 70.3467C31.245 69.6308 31.249 68.9141 31.2417 68.1982C31.2397 68.0281 31.2958 67.9687 31.4674 67.9674C32.778 67.9575 34.0893 67.8955 35.3985 67.976C36.1053 68.0195 36.7685 68.2061 37.2681 68.777C38.3417 70.0032 37.9293 71.6818 36.5923 72.3839C36.2742 72.5507 35.9278 72.5916 35.5747 72.6482C34.4265 72.8322 33.2756 72.7214 32.1267 72.7379C31.9214 72.7412 31.7149 72.7241 31.5103 72.7359C31.3097 72.7478 31.2285 72.6773 31.2305 72.4702C31.2384 71.7622 31.2331 71.0541 31.2331 70.3461C31.2371 70.3461 31.2411 70.3461 31.245 70.3461V70.3467Z" fill="#026CCB"/>
</g>
<defs>
<clipPath id="clip0_800_9726">
<rect width="115" height="56" fill="white" transform="translate(12 42)"/>
</clipPath>
</defs>
</svg>
