<svg width="140" height="140" viewBox="0 0 140 140" fill="none" xmlns="http://www.w3.org/2000/svg">
<rect width="140" height="140" rx="30" fill="#013A91"/>
<g clip-path="url(#clip0_752_3389)">
<path d="M17.1811 66.8173C17.1816 61.1087 21.4347 56.9804 26.6328 57C31.9047 57.0201 36.1702 61.2399 36.0559 66.5725C35.947 71.6751 31.9442 75.3305 27.4447 75.7177C25.6765 75.8699 23.9793 75.5694 22.389 74.7714C20.7898 73.9695 19.5094 72.8108 18.5709 71.2932C17.6368 69.783 17.1648 68.1401 17.1811 66.8168V66.8173ZM26.7579 71.0602C27.9152 71.0455 29.0508 70.6064 29.9573 69.6836C30.9849 68.6369 31.4485 67.3627 31.3076 65.8975C31.1953 64.7289 30.6889 63.7332 29.8267 62.9406C28.901 62.0893 27.7782 61.6698 26.5185 61.6889C25.2656 61.7079 24.1724 62.1745 23.2792 63.0449C22.2348 64.0627 21.8017 65.335 21.8973 66.7649C22.0387 68.8802 23.8847 71.0421 26.7579 71.0602Z" fill="#FDB814"/>
<path d="M119.764 67.9344C119.764 67.4464 119.77 66.9882 119.76 66.5299C119.756 66.3826 119.809 66.3645 119.938 66.365C121.144 66.3694 122.351 66.3704 123.558 66.364C123.702 66.363 123.725 66.408 123.725 66.5383C123.721 68.4509 123.722 70.3636 123.722 72.2757C123.722 73.9558 123.7 75.6369 123.731 77.3165C123.747 78.2188 124.386 78.5923 125.213 78.489C125.44 78.4606 125.659 78.4102 125.858 78.2932C125.967 78.2295 125.999 78.2638 125.998 78.3847C125.992 78.8307 125.996 79.2767 125.996 79.7226C125.996 80.2479 125.988 80.7737 126.001 81.299C126.004 81.4493 125.948 81.5222 125.822 81.5721C125.416 81.7322 124.997 81.8429 124.566 81.9153C124.032 82.0049 123.492 82.0186 122.96 81.9785C122.296 81.928 121.653 81.7626 121.094 81.3665C120.653 81.0537 120.37 80.6229 120.141 80.1476C120.079 80.0198 120.086 79.7892 119.974 79.7785C119.859 79.7672 119.768 79.9679 119.67 80.079C119.296 80.5025 118.851 80.8452 118.376 81.1433C117.878 81.4551 117.324 81.6593 116.756 81.7924C116.071 81.9525 115.369 82.0069 114.663 81.9878C113.917 81.9677 113.192 81.8414 112.492 81.5878C111.726 81.3102 111.032 80.9108 110.409 80.3811C110.091 80.1104 109.784 79.8303 109.51 79.519C108.982 78.9188 108.554 78.253 108.219 77.5266C107.936 76.9136 107.751 76.2714 107.623 75.6134C107.468 74.8169 107.467 74.0058 107.517 73.2034C107.585 72.099 107.875 71.0411 108.394 70.0537C108.664 69.5397 108.983 69.0589 109.368 68.6203C109.539 68.425 109.696 68.2169 109.884 68.0363C110.878 67.0782 112.018 66.3728 113.394 66.1045C115.066 65.7785 116.688 65.9014 118.216 66.7096C118.77 67.0028 119.257 67.3876 119.667 67.864C119.686 67.8855 119.714 67.8992 119.764 67.9354V67.9344ZM115.81 78.2457C116.034 78.2163 116.26 78.2198 116.485 78.1821C117.496 78.0122 118.333 77.5217 118.968 76.7428C119.727 75.8117 120.009 74.7225 119.885 73.5255C119.839 73.0849 119.758 72.661 119.591 72.2488C119.221 71.3397 118.595 70.6524 117.738 70.1942C116.876 69.7335 115.945 69.6018 114.969 69.7423C114.175 69.8569 113.473 70.1589 112.872 70.6774C112.022 71.4097 111.566 72.354 111.467 73.4575C111.421 73.9637 111.429 74.4801 111.54 74.98C111.733 75.8582 112.142 76.6189 112.831 77.2265C113.686 77.9789 114.695 78.2599 115.811 78.2457H115.81Z" fill="white"/>
<path d="M67.6001 81.9843C66.2324 82.0259 64.9722 81.7606 63.7593 81.2838C63.0227 80.994 62.3483 80.5847 61.7236 80.0922C61.0368 79.5508 60.4737 78.9036 60.0224 78.1659C59.6308 77.5256 59.3711 76.826 59.1908 76.0951C58.9563 75.1454 58.9258 74.1786 58.9814 73.2146C59.0484 72.0534 59.3381 70.9383 59.9057 69.9088C60.1599 69.4471 60.4703 69.0246 60.8176 68.6247C61.5403 67.7905 62.4384 67.2006 63.4321 66.7468C64.0839 66.4492 64.7692 66.245 65.4772 66.1158C66.124 65.9973 66.7768 65.9327 67.4321 65.9464C68.1277 65.9611 68.8204 66.0218 69.5086 66.1476C70.2373 66.2808 70.9324 66.4962 71.598 66.8139C72.0783 67.043 72.5148 67.3396 72.8898 67.7117C73.5189 68.3363 73.9209 69.0966 74.0648 69.9655C74.2618 71.1546 74.0431 72.2718 73.313 73.2548C72.7365 74.0302 71.9621 74.5638 71.0782 74.9471C70.4871 75.2037 69.8712 75.3848 69.2382 75.4974C68.8943 75.5586 68.5455 75.5977 68.1947 75.6208C67.8557 75.6428 67.5143 75.6966 67.1774 75.6805C66.4472 75.6457 65.7171 75.608 64.9924 75.4773C64.3554 75.3623 63.7258 75.2291 63.108 75.0411C62.969 74.999 62.9892 75.0901 63.0021 75.1537C63.0981 75.6403 63.2666 76.0985 63.5267 76.5254C63.9268 77.1829 64.4884 77.6563 65.1816 77.9784C65.6279 78.186 66.1038 78.2937 66.5921 78.3681C67.1458 78.4528 67.7015 78.4528 68.2489 78.3901C68.9386 78.3113 69.6067 78.1213 70.2304 77.8012C70.5777 77.623 70.9196 77.437 71.2044 77.1648C71.2827 77.0899 71.3507 77.1006 71.4246 77.1746C72.1764 77.9226 72.9297 78.6701 73.6839 79.4162C73.7406 79.4725 73.7568 79.5033 73.6943 79.5763C73.2203 80.1324 72.6385 80.5558 72.0163 80.9279C71.3453 81.3293 70.6107 81.577 69.855 81.7567C69.4998 81.8414 69.1327 81.8815 68.7677 81.9246C68.3607 81.9726 67.9558 82.0054 67.6006 81.9848L67.6001 81.9843ZM66.429 73.0105C66.728 73.0061 67.0266 73.0154 67.3256 72.9757C68.0237 72.8827 68.6878 72.7241 69.2657 72.2821C70.0407 71.6897 70.0062 70.531 69.2007 69.968C68.7568 69.6581 68.2523 69.5392 67.7286 69.4946C67.002 69.4329 66.2837 69.5098 65.5875 69.7286C64.8278 69.9675 64.1844 70.3763 63.7144 71.0342C63.4223 71.443 63.238 71.8983 63.0843 72.3687C63.0572 72.451 63.0971 72.5146 63.2026 72.5278C63.373 72.5489 63.5366 72.6076 63.7026 72.6492C64.5983 72.872 65.5018 73.0247 66.4285 73.0115L66.429 73.0105Z" fill="white"/>
<path d="M76.4859 73.97C76.4859 71.5017 76.4879 69.033 76.4819 66.5647C76.4819 66.4036 76.5199 66.363 76.6834 66.364C77.8713 66.3718 79.0595 66.3728 80.2474 66.363C80.4218 66.3615 80.442 66.4188 80.4415 66.5686C80.4365 68.2977 80.441 70.0267 80.4341 71.7563C80.4336 71.9242 80.4764 71.9683 80.6459 71.9678C82.8003 71.9619 84.9552 71.9619 87.1096 71.9678C87.2771 71.9678 87.3234 71.9272 87.323 71.7578C87.3165 70.0287 87.3205 68.2996 87.3161 66.5701C87.3161 66.4203 87.3358 66.362 87.5111 66.3635C88.7054 66.3728 89.8996 66.3713 91.0938 66.365C91.2431 66.364 91.2894 66.3958 91.2889 66.5525C91.2844 71.4954 91.2844 76.4388 91.2889 81.3817C91.2889 81.5276 91.2485 81.5628 91.1051 81.5619C89.8986 81.556 88.6921 81.556 87.4855 81.5623C87.3402 81.5633 87.3161 81.5168 87.3161 81.3866C87.32 79.5415 87.317 77.6959 87.322 75.8508C87.322 75.703 87.3037 75.6447 87.1284 75.6452C84.9616 75.6526 82.7944 75.6516 80.6277 75.6467C80.4774 75.6467 80.4336 75.679 80.4341 75.8342C80.44 77.6793 80.436 79.5249 80.4415 81.37C80.4415 81.5183 80.4119 81.5638 80.2538 81.5628C79.0536 81.5555 77.853 81.5565 76.6524 81.5619C76.5179 81.5623 76.481 81.5354 76.4815 81.3939C76.4869 78.9193 76.4854 76.4447 76.4854 73.97H76.4859Z" fill="white"/>
<path d="M40.7681 78.3358C41.2302 78.49 41.6933 78.4743 42.1451 78.3857C42.7186 78.2736 43.0388 77.8501 43.2295 77.342C43.4236 76.8255 43.5389 76.286 43.6157 75.7363C43.6788 75.2859 43.7226 74.8365 43.7576 74.3837C43.8399 73.3219 43.8522 72.2586 43.8714 71.1948C43.8857 70.3773 43.9019 69.5592 43.9192 68.7417C43.9345 68.0035 43.9561 67.2652 43.966 66.5265C43.9675 66.3983 43.999 66.365 44.1291 66.3655C48.2467 66.3689 52.3644 66.3694 56.4816 66.3645C56.6284 66.3645 56.6476 66.4115 56.6476 66.5397C56.6446 71.488 56.6441 76.4363 56.6486 81.3846C56.6486 81.532 56.6057 81.5623 56.4658 81.5619C55.2716 81.5565 54.0779 81.5555 52.8837 81.5628C52.7221 81.5638 52.6822 81.5266 52.6826 81.3641C52.6881 77.6989 52.6851 74.0332 52.6915 70.368C52.6915 70.181 52.6447 70.1393 52.4605 70.1403C50.9647 70.1486 49.469 70.1482 47.9738 70.1403C47.8048 70.1393 47.7792 70.1878 47.7762 70.3425C47.758 71.3549 47.7344 72.3673 47.6984 73.3791C47.6777 73.9602 47.6388 74.5413 47.593 75.1214C47.5309 75.9022 47.4067 76.6738 47.2166 77.4345C47.0481 78.1076 46.8589 78.7729 46.5401 79.3951C45.9933 80.4619 45.173 81.2099 44.001 81.5535C43.6137 81.6671 43.2201 81.7307 42.8196 81.7792C42.4885 81.8194 42.1599 81.8008 41.8298 81.8076C41.5268 81.814 41.2322 81.7518 40.9445 81.6603C40.8302 81.624 40.7622 81.5668 40.7637 81.4179C40.7731 80.4408 40.7686 79.4632 40.7686 78.4856V78.3363L40.7681 78.3358Z" fill="white"/>
<path d="M99.9897 66.3679C102.212 66.3679 104.433 66.3704 106.655 66.3635C106.824 66.363 106.853 66.4115 106.852 66.5662C106.845 67.696 106.846 68.8264 106.852 69.9563C106.853 70.1065 106.815 70.1491 106.66 70.1482C105.177 70.1423 103.694 70.1472 102.211 70.1408C102.047 70.1403 101.999 70.1761 102 70.3464C102.005 74.0175 102.003 77.6886 102.007 81.3602C102.007 81.5114 101.985 81.5648 101.813 81.5638C100.619 81.5545 99.4246 81.5555 98.2309 81.5628C98.0743 81.5638 98.0417 81.5207 98.0422 81.3709C98.0467 77.6999 98.0442 74.0288 98.0501 70.3572C98.0501 70.1766 98.0018 70.1393 97.8274 70.1403C96.3258 70.1477 94.8242 70.1423 93.3225 70.1482C93.1688 70.1486 93.1289 70.108 93.1294 69.9567C93.1358 68.8205 93.1368 67.6843 93.1284 66.5481C93.1274 66.386 93.1807 66.364 93.3255 66.3645C95.5469 66.3689 97.7688 66.3674 99.9907 66.3674L99.9897 66.3679Z" fill="white"/>
<path d="M15 74.4106C15.6779 74.3984 16.2927 74.4561 16.9105 74.5447C17.6185 74.6466 18.3077 74.813 18.9881 75.0186C19.3738 75.1351 19.7433 75.305 20.1173 75.4572C20.8159 75.7417 21.4662 76.1171 22.0904 76.5342C24.0728 77.8585 25.541 79.6154 26.5307 81.7704C26.6184 81.9613 26.611 81.9706 26.4002 81.9716C25.471 81.976 24.5606 81.8458 23.6556 81.6402C22.5643 81.3925 21.5381 80.9783 20.5567 80.4604C19.9788 80.1554 19.4379 79.7838 18.9191 79.3804C18.4097 78.9839 17.922 78.5668 17.4805 78.0988C16.8953 77.4781 16.3632 76.8143 15.9223 76.0829C15.704 75.7206 15.4789 75.3613 15.2981 74.979C15.2118 74.7968 15.1774 74.5917 15.0005 74.4106H15Z" fill="#2AB564"/>
<path d="M35.1833 76.4961C34.8887 77.2216 34.4813 77.8516 34.0064 78.4396C33.1703 79.4744 32.1663 80.3076 30.978 80.9215C30.0705 81.3905 29.1138 81.7043 28.1053 81.8688C27.6806 81.9383 27.254 81.9672 26.8239 81.9741C26.6588 81.9765 26.6362 81.9393 26.7101 81.7915C27.8072 79.5978 29.4975 78.0406 31.7864 77.1276C32.4442 76.8652 33.1275 76.6968 33.832 76.6033C34.2729 76.5445 34.7133 76.5 35.1833 76.4956V76.4961Z" fill="#2AB564"/>
</g>
<defs>
<clipPath id="clip0_752_3389">
<rect width="111" height="25" fill="white" transform="translate(15 57)"/>
</clipPath>
</defs>
</svg>
