<svg width="140" height="140" viewBox="0 0 140 140" fill="none" xmlns="http://www.w3.org/2000/svg">
<rect width="140" height="140" rx="30" fill="#0052FE"/>
<g clip-path="url(#clip0_745_2938)">
<path d="M74.823 120C74.3644 119.895 73.8983 119.813 73.4482 119.679C72.5149 119.4 71.7612 118.833 71.007 117.997C70.9725 118.496 70.92 118.849 70.931 119.201C70.9425 119.562 70.8 119.675 70.4509 119.663C69.8562 119.643 69.2606 119.646 68.6659 119.664C68.3343 119.674 68.2273 119.557 68.2293 119.223C68.2398 117.465 68.2263 115.708 68.2243 113.951C68.2208 110.166 68.2193 106.38 68.2168 102.595C68.2168 102.412 68.2168 102.229 68.2168 102.009H70.979V108.786C71.1621 108.68 71.2571 108.65 71.3151 108.587C73.4452 106.278 77.3507 106.628 79.4232 108.844C81.7498 111.332 81.8363 115.351 79.6013 117.917C78.6195 119.044 77.3657 119.698 75.8653 119.87C75.7187 119.887 75.5782 119.955 75.4352 120H74.823V120ZM78.3279 113.516C78.471 111.259 76.701 109.601 74.7395 109.588C72.3819 109.573 70.9055 111.406 70.911 113.533C70.9165 115.693 72.5039 117.373 74.5895 117.38C76.8015 117.388 78.4109 115.633 78.3274 113.516L78.3279 113.516Z" fill="white"/>
<path d="M114.624 120C113.839 119.808 113.022 119.696 112.274 119.408C110.186 118.604 108.916 117.058 108.483 114.882C108 112.455 108.611 110.325 110.458 108.626C113.139 106.161 118.097 106.465 120.113 109.821C120.857 111.059 121.049 112.404 120.991 113.804C120.986 113.908 120.734 114.079 120.59 114.085C119.895 114.115 119.196 114.099 118.499 114.099C116.306 114.098 114.112 114.096 111.919 114.099C111.708 114.099 111.497 114.131 111.288 114.149C111.385 115.923 112.684 117.251 114.38 117.403C115.622 117.514 116.803 117.388 117.561 116.289C117.929 115.756 118.316 115.631 118.9 115.674C119.519 115.719 120.144 115.683 120.826 115.683C120.656 116.634 120.213 117.361 119.616 117.986C118.521 119.132 117.169 119.771 115.57 119.875C115.389 119.887 115.211 119.957 115.032 120H114.624V120ZM118.037 112.109C117.993 110.736 116.754 109.592 115.176 109.44C113.348 109.263 111.814 110.344 111.44 112.109H118.037Z" fill="white"/>
<path d="M39.3085 120C38.7014 119.867 38.0842 119.768 37.4886 119.596C35.095 118.907 33.359 116.75 33.0999 114.293C32.8704 112.119 33.4915 110.258 35.0609 108.746C36.1697 107.678 37.5391 107.14 39.088 107.038C40.6484 106.936 42.0863 107.263 43.3916 108.136C44.898 109.144 45.7887 110.557 46.0903 112.315C46.5629 115.068 45.4231 117.567 43.0395 119.017C42.2423 119.502 41.3626 119.819 40.4068 119.872C40.2088 119.883 40.0142 119.956 39.8182 120H39.308L39.3085 120ZM39.6716 109.615C37.6016 109.487 35.9262 111.109 35.9402 113.458C35.9542 115.728 37.3075 117.321 39.6371 117.374C41.7572 117.421 43.4416 115.635 43.4021 113.437C43.3586 111.016 41.5436 109.482 39.6721 109.615H39.6716Z" fill="white"/>
<path d="M100.949 120C100.432 119.884 99.9079 119.795 99.4017 119.646C97.8283 119.181 96.6625 118.265 96.1659 116.649C96.0979 116.428 96.0699 116.195 96.0068 115.885C96.9106 115.885 97.7518 115.879 98.5925 115.895C98.6795 115.896 98.8146 116.016 98.8411 116.106C99.1151 117.033 99.8463 117.444 100.701 117.519C101.528 117.592 102.386 117.523 103.209 117.385C103.865 117.276 104.232 116.711 104.213 116.157C104.192 115.564 103.797 115.064 103.127 114.923C102.283 114.746 101.426 114.627 100.572 114.505C99.5938 114.364 98.635 114.184 97.7893 113.626C96.0078 112.449 95.7623 109.937 97.2887 108.446C98.2334 107.522 99.4127 107.145 100.692 107.051C101.849 106.966 102.992 107.035 104.084 107.513C105.475 108.119 106.388 109.277 106.625 110.859C105.78 110.859 104.942 110.866 104.104 110.85C104.016 110.849 103.884 110.735 103.85 110.644C103.521 109.761 102.773 109.417 101.942 109.36C101.25 109.313 100.526 109.429 99.8463 109.596C99.2677 109.737 99.0171 110.193 99.0296 110.736C99.0431 111.31 99.4057 111.661 99.9044 111.791C100.655 111.988 101.427 112.114 102.197 112.226C103.256 112.379 104.306 112.527 105.265 113.06C107.262 114.168 107.566 117.141 105.82 118.63C104.925 119.393 103.87 119.754 102.711 119.864C102.428 119.891 102.147 119.954 101.866 120C101.56 120 101.254 120 100.948 120H100.949Z" fill="white"/>
<path d="M19 113.206C19.1595 112.523 19.2566 111.818 19.4901 111.161C20.1778 109.222 21.5637 107.954 23.5087 107.307C26.1088 106.443 29.0171 107.261 30.6015 109.261C31.2062 110.024 31.6203 110.871 31.8228 111.883C30.8771 111.883 29.9829 111.897 29.0906 111.867C28.9606 111.862 28.7905 111.668 28.719 111.523C28.0118 110.083 26.8305 109.481 24.962 109.633C23.6687 109.738 22.5199 110.755 22.1303 112.126C21.6897 113.677 21.8657 115.126 23.0125 116.314C24.7205 118.083 27.7923 117.616 28.7515 115.267C28.803 115.142 28.9696 114.979 29.0866 114.976C29.9829 114.952 30.8806 114.963 31.8323 114.963C31.5002 116.57 30.7225 117.826 29.4257 118.748C28.471 119.427 27.4052 119.822 26.2239 119.889C26.0598 119.899 25.8983 119.962 25.7357 120H25.3276C25.1496 119.956 24.9731 119.884 24.7925 119.872C22.2338 119.695 19.8992 117.729 19.3136 115.238C19.1946 114.733 19.104 114.221 19 113.713C19 113.544 19 113.375 19 113.206Z" fill="white"/>
<path d="M31.5794 59.1028C31.6989 37.955 48.4347 22.1471 67.5457 21.0721C78.9387 20.4309 88.8422 24.0685 96.9834 32.0247C104.482 39.3536 108.36 48.3878 108.42 58.8235C108.544 80.5046 91.2559 96.7593 71.2497 97.3343C48.8639 97.9775 31.5008 80.0786 31.5794 59.1033V59.1028ZM97.0564 56.9324C96.9984 56.4577 96.9464 56.0427 96.8973 55.6277C96.5808 52.9473 95.8176 50.3892 94.6898 47.9439C93.2394 44.7979 91.2579 42.0216 88.7167 39.6419C83.5174 34.7736 77.3212 32.3373 70.2099 32.1937C68.0383 32.1499 65.8888 32.4342 63.7607 32.9278C60.993 33.5699 58.3963 34.6111 55.9787 36.0708C52.0787 38.4252 48.9484 41.5519 46.6188 45.4653C44.1786 49.5647 42.9643 54.0094 42.8678 58.7489C42.8393 60.1386 43.0138 61.5367 43.1549 62.9253C43.3689 65.0331 43.9351 67.0659 44.7248 69.0241C46.9684 74.5872 50.6448 78.9753 55.7772 82.1422C59.4756 84.4245 63.5127 85.7237 67.8393 86.0452C69.4882 86.1675 71.1611 86.0452 72.8191 85.9543C75.4348 85.8112 77.9409 85.1188 80.341 84.1263C84.6497 82.3445 88.2926 79.6462 91.2109 76.0032C94.5207 71.8715 96.4217 67.1728 97.0209 61.9363C97.0724 61.487 96.9644 61.3488 96.5012 61.3503C92.2721 61.3662 88.043 61.3662 83.8134 61.3558C83.4398 61.3548 83.2778 61.4527 83.2073 61.8364C82.8267 63.9164 81.9555 65.7951 80.6151 67.4228C77.4003 71.3258 73.2542 73.032 68.1954 72.4098C65.1001 72.0291 62.4654 70.6707 60.3353 68.4227C57.223 65.1385 55.9757 61.2186 56.8179 56.7867C57.7797 51.7282 60.7875 48.2839 65.6747 46.527C68.802 45.4027 71.9519 45.4877 75.0086 46.7387C79.4123 48.5413 82.125 51.8291 83.2058 56.4319C83.3023 56.8424 83.4313 56.9681 83.8584 56.9667C88.1101 56.9493 92.3622 56.9557 96.6138 56.9542C96.7298 56.9542 96.8458 56.9428 97.0564 56.9319V56.9324Z" fill="white"/>
<path d="M93.573 117.189C93.9375 117.189 94.2266 117.209 94.5117 117.184C94.8748 117.153 95.0388 117.255 95.0198 117.654C94.9898 118.293 95.0118 118.934 95.0118 119.648C94.0791 119.625 93.1849 119.802 92.3146 119.461C91.5404 119.158 91.2088 118.516 91.0158 117.675C90.8692 117.875 90.7622 118.016 90.6597 118.161C89.8665 119.274 88.7647 119.806 87.4109 119.862C86.5061 119.899 85.6059 119.876 84.7612 119.504C83.4378 118.921 82.6771 117.943 82.6011 116.469C82.5176 114.849 83.2563 113.702 84.7252 113.135C85.7534 112.738 86.8757 112.578 87.96 112.329C88.5026 112.204 89.0648 112.156 89.5979 112.004C90.3421 111.792 90.7027 111.337 90.6712 110.772C90.6377 110.169 90.1571 109.624 89.5044 109.45C88.7152 109.239 87.9235 109.26 87.1463 109.483C86.5071 109.667 86.032 110.077 85.8284 110.715C85.7179 111.062 85.5289 111.152 85.1948 111.141C84.6006 111.121 84.0035 111.111 83.4103 111.143C82.9452 111.169 82.9037 110.979 83.0122 110.602C83.5103 108.867 84.6221 107.713 86.3756 107.273C88.0695 106.848 89.7695 106.846 91.3904 107.634C92.4277 108.138 93.0823 108.974 93.3619 110.07C93.4979 110.603 93.556 111.167 93.5645 111.718C93.5895 113.39 93.5735 115.063 93.573 116.736C93.573 116.867 93.573 117 93.573 117.189ZM90.6702 113.413C89.95 114.118 89.0933 114.245 88.2086 114.339C87.6234 114.402 87.0393 114.537 86.4741 114.705C85.6999 114.934 85.2743 115.504 85.2988 116.168C85.3253 116.878 85.7284 117.334 86.5681 117.524C86.8932 117.598 87.2403 117.598 87.5774 117.595C89.5099 117.579 91.2018 116.132 90.6702 113.413Z" fill="white"/>
<path d="M57.1253 108.753C57.7034 108.314 58.1806 107.85 58.7447 107.544C60.4226 106.639 63.1879 106.84 64.5377 108.381C65.3409 109.298 65.7745 110.379 65.801 111.564C65.8586 114.114 65.828 116.666 65.8421 119.217C65.8441 119.537 65.74 119.676 65.4009 119.667C64.7553 119.649 64.1081 119.645 63.4629 119.666C63.0908 119.678 63.0173 119.524 63.0193 119.183C63.0308 116.92 63.0258 114.656 63.0163 112.391C63.0103 110.956 62.1416 109.817 60.9358 109.64C59.1253 109.373 57.7549 110.129 57.3283 111.667C57.2088 112.099 57.1378 112.557 57.1338 113.005C57.1138 115.032 57.1143 117.059 57.1348 119.087C57.1393 119.527 57.0108 119.698 56.5581 119.669C56.05 119.637 55.5384 119.664 55.0282 119.657C54.3331 119.647 54.3336 119.644 54.3336 118.973C54.3346 116.169 54.3351 113.364 54.3356 110.559C54.3356 109.63 54.3531 108.7 54.3241 107.772C54.3106 107.342 54.4636 107.214 54.8807 107.235C55.4914 107.265 56.105 107.254 56.7167 107.238C57.0303 107.229 57.1418 107.354 57.1283 107.655C57.1123 108.017 57.1243 108.379 57.1243 108.753H57.1253Z" fill="white"/>
<path d="M47.0966 109.729C47.0966 108.934 47.0841 108.227 47.1116 107.522C47.1151 107.428 47.3196 107.265 47.4327 107.263C48.8405 107.245 50.2489 107.251 51.7118 107.251C51.7313 107.488 51.7638 107.699 51.7643 107.911C51.7678 111.675 51.7618 115.439 51.7743 119.203C51.7758 119.613 51.6618 119.784 51.2272 119.761C50.651 119.732 50.0709 119.73 49.4952 119.763C49.0411 119.79 48.9166 119.621 48.9191 119.182C48.9361 116.262 48.9286 113.342 48.9286 110.422C48.9286 109.961 48.6973 109.73 48.2349 109.729C47.8818 109.728 47.5282 109.729 47.0961 109.729L47.0966 109.729Z" fill="white"/>
<path d="M50.4038 102.084C51.4326 102.09 52.2213 102.855 52.2318 103.855C52.2413 104.814 51.3871 105.654 50.4043 105.652C49.3405 105.65 48.5018 104.831 48.5198 103.811C48.5368 102.844 49.3725 102.078 50.4038 102.084Z" fill="white"/>
</g>
<defs>
<clipPath id="clip0_745_2938">
<rect width="102" height="99" fill="white" transform="translate(19 21)"/>
</clipPath>
</defs>
</svg>
