<svg width="140" height="140" viewBox="0 0 140 140" fill="none" xmlns="http://www.w3.org/2000/svg">
<g clip-path="url(#clip0_686_251)">
<rect width="140" height="140" rx="30" fill="white"/>
<path d="M-2.45326 80.4145C-2.8072 79.9951 -2.69004 79.488 -2.69248 79.0126C-2.72665 61.7679 -2.75838 44.5257 -2.78767 27.281C-2.79256 24.643 -2.87067 22.0049 -2.77059 19.3718C-2.56555 14.1689 -0.693339 9.71449 3.49289 6.4255C5.05021 5.20157 6.86139 4.51891 8.76289 3.89231C11.0305 3.14382 13.5081 -1.90491 15.7782 -2C29.3767 -2.56808 12.8661 -9.3781 26.4646 -9.5C28.8104 -9.52194 60.664 -7.19509 63 -7.00005C68.9779 -6.50024 76.2687 -5.83598 82 -4.00009C89.8062 -1.4986 99.9982 -12.0737 106.474 -7.00005C111.285 -3.23075 129.478 -5.02741 133 -4.86374e-05C136.427 4.89078 140.496 -1.68849 142.5 3.89231C143.423 6.45963 153.375 11.3474 154 14C154.571 16.4284 153.668 32.0646 154 34.5173C154.593 38.8888 162.795 34.4905 162.5 38.901C162.317 41.6292 147.364 71.591 147 74.2851C146.656 76.8402 153.152 86.6536 152.5 89.1624C151.453 93.1974 150.355 99.2819 148.5 103C146.406 107.194 157.512 149.909 154.5 153.5C153.004 155.285 115.284 151.976 113.5 153.5C111.53 155.18 101.409 154.996 99.3099 156.5C94.8185 159.718 90.1602 143.452 85 145.5C82.5322 146.48 82.541 143.749 80 144.5C76.4094 145.563 71.7542 144.076 68 144.5C52.0362 146.302 38.4833 141.761 22.5 142C22.1461 142.005 15.7929 138.812 15.5 138.5C15.5195 138.234 19.5568 137.217 19.7764 137.066C23.3744 134.638 27.1237 132.431 30.4776 129.647C33.3554 127.258 36.0893 124.712 38.2569 121.662C38.8061 120.887 39.1429 120.828 39.9436 120.977C42.6823 121.487 45.1525 122.801 47.8571 123.462C50.7667 124.171 53.6617 124.985 56.6348 125.166C61.8999 125.483 67.1601 125.439 72.2031 123.462C78.5032 120.992 83.9685 117.488 87.5079 111.505C88.2353 110.276 89.175 109.223 90.2466 108.265C91.4256 107.209 92.5704 106.11 93.6469 104.952C95.0504 103.442 96.4906 101.85 96.8714 99.7803C97.4962 96.3816 99.1024 93.3901 100.416 90.2717C101.58 87.5045 102.354 84.6836 101.468 81.6628C101.072 80.3121 100.716 80.1414 99.3099 80.5998C97.9283 81.0508 96.6712 81.7579 95.4214 82.4674C90.105 85.4809 84.4762 87.7434 78.5423 89.1624C73.9753 90.2547 69.2935 90.4253 64.6045 90.2644C62.144 90.1791 59.6982 89.9816 57.2474 89.6915C54.3744 89.3501 51.5893 88.7528 48.8848 87.7434C48.2599 87.5094 47.7546 87.0193 47.7473 86.4707C47.7253 84.7641 47.159 83.1622 46.954 81.497C46.6537 79.0857 46.3584 76.6671 45.8799 74.2851C45.404 71.9104 45.0818 69.5357 45.1403 67.1195C45.2184 63.9208 46.9149 62.2311 50.1248 62.1677C52.6292 62.119 55.1116 62.2653 57.6111 62.5993C64.0186 63.4551 69.6645 65.8932 74.566 70.0818C75.5814 70.9498 76.4992 71.9372 77.6733 72.6175C79.3063 73.5659 80.6879 73.0344 81.1956 71.2424C81.5227 70.0891 81.4836 68.875 81.2835 67.7534C80.7074 64.5278 79.875 61.351 78.7107 58.2839C78.3763 57.4037 78.8327 57.3111 79.4137 57.3111C82.9579 57.3232 86.5071 56.6113 90.0465 57.5256C92.3702 58.1254 94.5207 58.908 95.6631 61.234C96.0048 61.9313 96.4857 62.5091 96.9763 63.0942C98.1065 64.4425 99.6003 65.2983 101.292 64.9862C103.457 64.5863 105.505 63.872 106.259 61.2681C107.309 57.6378 107.214 54.0635 106.474 50.421C105.649 46.3518 104.14 42.5898 101.346 39.4886C97.8795 35.6437 93.332 33.8858 88.2792 33.4616C84.4933 33.1446 80.7538 33.8151 77.0386 34.5173C74.0582 35.0805 71.0486 35.3731 68.0218 35.1244C66.7085 35.0171 65.4881 34.5343 64.3774 33.6883C62.349 32.1426 60.7502 30.2116 59.0952 28.3196C57.3622 26.3399 55.6657 24.2699 53.1613 23.2313C51.7797 22.6584 50.8766 21.5783 50.22 20.4616C48.316 17.2336 43.9565 16.468 40.8638 17.6042C39.1429 18.2356 37.4587 18.4014 35.5914 18.0089C33.3554 17.5384 31.6053 17.631 30.231 19.9643C29.4939 21.215 28.6102 21.7709 27.1945 21.5222C26.9602 21.4808 26.7087 21.5222 26.4646 21.5393C23.7845 21.7465 23.0083 22.3317 22.2272 24.6625C21.9879 25.3793 22.0148 26.1253 22.1271 26.8202C22.276 27.7442 21.8781 27.9929 21.0994 28.0563C19.8375 28.1587 18.6585 28.5708 17.5112 29.0754C15.7147 29.8629 14.4601 31.2136 13.6619 32.9666C13.0541 34.3003 14.0329 36.1191 15.7782 37.0846C17.1427 37.838 17.1646 37.9233 15.9905 38.901C14.6187 40.0444 13.6619 41.4951 12.8954 43.0653C12.1119 44.6695 12.5464 46.4176 13.8254 47.6806C15.2046 49.0435 16.9596 49.4677 18.761 49.4531C20.0401 49.4433 20.3013 50.0333 20.3623 51.0378C20.5185 53.6125 21.0824 56.1383 21.4509 58.6813C21.905 61.8288 22.4566 64.9667 22.8496 68.124C23.1547 70.5816 23.0278 73.0246 22.6348 75.4846C21.8757 80.2463 19.6276 82.2553 14.9971 82.8111C10.1982 83.3865 5.50667 82.2406 0.861544 81.0606C-0.224678 80.7851 -1.22058 79.9391 -2.45815 80.4072L-2.45326 80.4145Z" fill="#FF6800"/>
<path d="M-2.45308 80.4145C-1.21552 79.9464 -0.21961 80.7924 0.866612 81.0679C5.51174 82.248 10.2032 83.3939 15.0021 82.8185C19.6351 82.2626 21.8807 80.2536 22.6399 75.492C23.0329 73.0319 23.1598 70.589 22.8547 68.1314C22.4617 64.974 21.91 61.8337 21.456 58.6886C21.0874 56.1457 20.5236 53.6198 20.3673 51.0452C20.3063 50.0407 20.0451 49.4506 18.7661 49.4604C16.9647 49.4726 15.2096 49.0508 13.8305 47.6879C12.5514 46.425 12.1169 44.6768 12.9005 43.0726C13.6669 41.5024 14.6262 40.0518 15.9956 38.9083C17.1697 37.9306 17.1453 37.8453 15.7832 37.0919C14.038 36.1264 13.0616 34.31 13.6669 32.974C14.4651 31.221 15.7198 29.8678 17.5163 29.0828C18.6636 28.5805 19.8425 28.166 21.1045 28.0636C21.8856 28.0002 22.281 27.7516 22.1322 26.8275C22.0223 26.1327 21.993 25.3866 22.2322 24.6698C23.0133 22.339 23.7896 21.7538 26.4697 21.5466C26.7114 21.5271 26.9652 21.4881 27.1996 21.5295C28.6153 21.7782 29.4989 21.2223 30.2361 19.9716C31.6079 17.6383 33.3581 17.5457 35.5964 18.0162C37.4613 18.4088 39.148 18.243 40.8689 17.6115C43.9615 16.4753 48.3211 17.2409 50.225 20.469C50.8816 21.5832 51.7848 22.6657 53.1664 23.2386C55.6708 24.2773 57.3672 26.3472 59.1003 28.3269C60.7577 30.2189 62.3541 32.1499 64.3825 33.6956C65.4931 34.5417 66.7112 35.0244 68.0268 35.1317C71.0512 35.3804 74.0609 35.0878 77.0437 34.5246C80.7588 33.8224 84.4984 33.1495 88.2843 33.4689C93.337 33.8931 97.8845 35.651 101.351 39.4959C104.146 42.5971 105.654 46.3567 106.479 50.4283C107.219 54.0708 107.311 57.6451 106.264 61.2754C105.512 63.8793 103.462 64.5937 101.297 64.9935C99.6054 65.3056 98.1115 64.4498 96.9814 63.1016C96.4907 62.5164 96.0099 61.9361 95.6681 61.2413C94.5258 58.9153 92.3753 58.1327 90.0515 57.5329C86.5146 56.6186 82.963 57.3306 79.4187 57.3184C78.8378 57.3184 78.3813 57.4086 78.7158 58.2912C79.8801 61.3608 80.7124 64.5352 81.2885 67.7608C81.4887 68.8823 81.5253 70.0989 81.2006 71.2497C80.6929 73.0441 79.3113 73.5732 77.6784 72.6248C76.5067 71.9445 75.5889 70.9571 74.571 70.0892C69.6721 65.9005 64.0237 63.4624 57.6162 62.6066C55.1142 62.2726 52.6342 62.1263 50.1298 62.1751C46.9224 62.2385 45.226 63.9281 45.1454 67.1269C45.0844 69.5455 45.409 71.9177 45.885 74.2924C46.3634 76.672 46.6588 79.093 46.959 81.5043C47.1665 83.172 47.7328 84.7714 47.7523 86.4781C47.7597 87.0266 48.2649 87.5167 48.8898 87.7507C51.5944 88.7625 54.3795 89.3575 57.2525 89.6988C59.7032 89.9889 62.149 90.1864 64.6095 90.2717C69.2986 90.4326 73.9803 90.2644 78.5473 89.1697C84.4813 87.7483 90.1077 85.4882 95.4265 82.4747C96.6787 81.7652 97.9333 81.0582 99.3149 80.6071C100.721 80.1487 101.077 80.3194 101.473 81.6701C102.359 84.6934 101.585 87.5143 100.421 90.2791C99.1074 93.3998 97.5013 96.3889 96.8764 99.7876C96.4956 101.858 95.0555 103.45 93.6519 104.959C92.5755 106.117 91.4307 107.217 90.2517 108.272C89.1825 109.23 88.2403 110.281 87.5129 111.512C83.9736 117.496 78.5107 120.999 72.2082 123.469C67.1652 125.446 61.905 125.493 56.6398 125.173C53.6668 124.993 50.7718 124.178 47.8622 123.469C45.1576 122.808 42.6874 121.494 39.9486 120.984C39.148 120.836 38.8111 120.894 38.2619 121.67C36.0968 124.722 33.3605 127.265 30.4826 129.654C27.1288 132.439 23.3795 134.645 19.7815 137.073C19.5594 137.222 17.5195 138.734 17.5 139C14.7808 139.007 13.9501 137.749 11.2358 137.624C9.75899 137.556 8.28953 137.144 6.93725 136.449C6.70048 136.327 6.70292 136.159 6.66875 135.969C6.74686 135.701 6.98607 135.618 7.20087 135.508C10.1788 133.98 13.2837 132.719 16.2031 131.068C21.0191 128.348 25.4225 125.112 29.3818 121.231C31.4907 119.163 33.5192 117.01 35.1473 114.599C38.1179 110.201 40.5735 105.5 41.5841 100.197C42.0942 97.5226 42.5702 94.8432 42.6019 92.1052C42.6264 89.928 42.3285 87.78 42.1333 85.6174C41.7549 81.4044 40.82 77.3132 39.6264 73.2879C38.7379 70.294 37.8543 67.2902 36.7315 64.3596C35.7014 61.6728 34.8837 58.908 33.9634 56.1798C32.306 51.2719 30.9147 46.3128 30.8805 41.0733C30.8415 35.3194 32.9895 30.6456 37.825 27.4078C40.2098 25.8108 43.0364 25.2013 45.7727 24.4333C46.1633 24.3236 46.6954 24.387 46.7223 23.7238C46.7686 22.6511 46.505 21.7221 45.6531 21.0053C44.8037 20.2885 43.7565 20.3982 42.8656 20.6347C42.1992 20.8127 42.6923 21.7002 42.5751 22.2561C42.5189 22.5218 42.6727 22.8754 42.3725 23.0338C41.9917 23.2338 41.8111 22.8193 41.6012 22.6437C40.3978 21.6563 39.0797 21.0785 37.4857 21.2784C35.843 21.4856 35.3694 22.1269 35.8283 23.6482C35.9357 24.0042 36.1749 24.3455 35.8381 24.6283C35.5305 24.8868 35.1668 24.8161 34.7372 24.7112C32.7649 24.2334 30.7804 23.8043 28.7544 24.5528C27.7097 24.938 27.2264 25.7889 27.0677 26.7251C26.9433 27.459 27.5852 28.0197 28.1857 28.4562C28.6861 28.817 29.1889 29.173 29.6918 29.5289C27.4827 29.6679 25.4201 29.9922 23.3551 30.2725C21.7636 30.4895 20.382 31.1332 19.3958 32.4132C18.9125 33.0398 18.4829 33.9711 19.1298 34.5758C19.8865 35.2828 20.7506 36.046 22.0052 35.9094C22.8473 35.8168 23.7066 35.8924 24.5585 35.8924C23.8066 36.7286 23.0597 37.2626 22.303 37.7819C20.6017 38.9497 18.9394 40.1517 17.7189 41.8706C16.8695 43.0677 17.055 44.6159 18.2388 45.4765C19.4007 46.3226 20.4967 45.7374 21.5121 45.2205C22.4812 44.728 23.3453 44.0283 24.2582 43.4237C24.6536 43.1628 25.0125 42.9897 25.0076 43.7333C24.9832 48.2365 25.6715 52.6738 26.211 57.1282C26.6088 60.4196 27.1312 63.694 27.5022 66.9928C28.071 72.0543 28.193 76.9597 26.3111 81.8676C24.6244 86.2611 20.1892 88.5773 16.4984 88.9015C12.3903 89.2648 8.26268 88.9625 4.20583 88.1872C1.90401 87.7483 -0.446619 87.4045 -2.54827 86.2391C-2.57268 84.2984 -2.68497 82.3552 -2.46528 80.4169L-2.45308 80.4145ZM47.2934 100.919C47.2397 101.272 47.0323 101.567 46.9468 101.926C46.444 104.01 46.1999 106.163 45.4359 108.175C44.584 110.42 43.6833 112.651 42.6996 114.843C42.2626 115.813 42.7167 116.177 43.4612 116.398C46.4269 117.286 49.2999 118.541 52.4243 118.827C54.0036 118.971 55.5805 119.509 57.1817 118.941C57.3135 119.014 57.4405 119.149 57.5747 119.153C60.3989 119.297 63.2109 119.112 65.9667 118.524C69.384 117.795 72.7086 116.759 75.7695 114.996C77.942 113.743 79.8288 112.222 81.1176 109.913C78.1909 109.701 75.5816 110.954 72.8062 111.02C71.2513 111.057 69.6989 111.242 68.144 111.354C67.8877 111.373 67.5875 111.31 67.7486 110.971C67.9878 110.464 67.9683 109.757 68.7787 109.645C70.4141 109.418 72.0422 109.13 73.6776 108.899C77.4904 108.362 81.1787 107.412 84.5276 105.461C87.2737 103.862 89.3656 101.66 90.3884 98.5954C90.0979 98.3565 89.9563 98.5369 89.7806 98.6222C85.5821 100.656 81.1909 102.15 76.6629 103.25C74.8688 103.686 73.0381 103.93 71.183 103.779C70.7119 103.74 69.8942 103.771 70.2213 102.999C70.4507 102.457 70.8998 101.877 71.7444 101.826C75.7988 101.585 79.6287 100.37 83.3926 98.9514C87.0174 97.5836 90.3957 95.7404 93.2907 93.1292C94.6942 91.8638 95.8488 90.3839 96.4956 88.5431C95.8805 88.3554 95.551 88.6967 95.1775 88.8869C93.8887 89.5452 92.6267 90.2669 91.311 90.8691C87.6716 92.5392 83.9199 93.9021 80.0558 94.9699C76.7703 95.8769 73.4213 96.3694 70.0431 96.7376C66.7868 97.0911 63.5306 97.0058 60.289 96.6937C59.298 96.5986 58.2875 96.6059 57.3062 96.4206C54.5211 95.8891 51.7408 95.3357 48.9533 94.8115C48.4212 94.7115 47.8744 94.7359 47.8305 95.4844C47.7206 97.3008 47.1763 99.0757 47.2934 100.916V100.919ZM45.4871 41.9145C44.3594 41.9437 43.5441 42.2802 42.6996 42.4192C42.1064 42.5167 42.0601 42.7532 42.0942 43.192C42.2187 44.7646 42.9803 46.0836 44.1617 46.9906C45.7849 48.234 47.6205 49.1288 49.6026 49.7968C52.6977 50.8379 55.8612 51.3743 59.0881 51.7132C61.861 52.0058 64.6242 52.0058 67.38 51.6815C68.4809 51.5523 69.6257 51.2451 70.2457 50.2211C70.7095 49.4555 71.0561 48.5802 71.2611 47.7074C71.8738 45.1011 73.1992 42.8873 74.8127 40.8027C75.1691 40.3419 75.6182 39.8811 75.689 39.2521C74.0633 38.9741 72.5792 39.552 71.0463 39.5349C68.6517 39.5081 66.2523 39.6056 63.8626 39.4959C62.5396 39.4349 61.1922 39.2496 59.9595 38.623C59.6935 38.4865 59.2297 38.5182 59.259 38.1671C59.2761 37.9623 59.5738 37.6307 59.94 37.5795C60.809 37.4576 60.7211 37.0748 60.2109 36.5677C59.6983 36.0557 59.1638 35.5583 58.6975 35.0049C56.8083 32.7667 54.0842 31.3087 52.9027 28.3708C52.2998 26.869 50.2738 26.3692 48.6433 26.7397C47.0274 27.1055 45.6214 27.8271 44.2862 28.7975C43.9005 29.0779 43.571 29.9532 43.0511 29.5704C42.3823 29.0779 43.1975 28.4513 43.2781 27.871C43.2878 27.8052 43.2415 27.7345 43.1902 27.5663C41.2204 27.7394 39.6191 28.7512 38.3132 30.0799C35.4426 32.9983 33.8804 36.4946 33.8511 40.6881C33.8243 44.5988 35.0594 47.8781 37.9373 50.5478C40.0511 52.508 42.5336 53.7661 45.1845 54.8705C48.4358 56.2261 51.858 56.9283 55.2338 57.689C58.7659 58.4838 62.3077 59.2445 65.808 60.171C68.5419 60.8926 71.0536 62.1312 73.3383 63.811C73.5141 63.9403 73.6703 64.2597 73.9315 64.0256C74.1414 63.8403 74.0169 63.6014 73.8949 63.3673C73.3091 62.2433 72.5524 61.2388 71.4832 60.5684C69.5427 59.3518 67.6339 58.0961 65.4199 57.3281C62.4322 56.2919 59.359 55.6142 56.2981 54.8925C53.6399 54.2659 51.0354 53.5028 48.5554 52.4007C45.3871 50.9964 42.8216 48.7387 40.5857 46.1299C40.0267 45.4765 39.873 45.6277 39.541 46.2397C39.3945 46.5103 39.1846 47.0979 38.694 46.6371C37.9178 45.9105 37.8714 43.4042 38.4767 42.5289C39.9901 40.337 43.2 40.3517 45.4798 41.912L45.4871 41.9145ZM102.596 54.7754C102.564 54.3951 102.544 53.7905 102.459 53.1931C102.081 50.5746 101.129 48.1633 100.011 45.7642C98.1799 41.8316 95.3923 39.2106 91.1207 38.1525C88.0304 37.3869 84.967 37.4308 81.95 38.2915C77.0632 39.6861 73.8656 45.2888 73.0601 49.6701C72.8648 50.7258 73.2017 51.2378 74.388 51.1719C77.3025 51.011 80.2194 50.9232 83.1363 50.8233C85.9605 50.7258 88.7456 50.9696 91.5478 51.4036C94.6991 51.8887 97.3036 53.059 99.1367 55.7287C99.5248 56.2944 99.9422 56.8503 100.408 57.3525C101.19 58.1912 102.041 57.9937 102.432 56.9258C102.664 56.2944 102.525 55.641 102.593 54.773L102.596 54.7754Z" fill="#010101"/>
<path d="M-2.53361 86.2368C-0.431949 87.3997 1.91868 87.7435 4.2205 88.1848C8.27979 88.9601 12.405 89.2624 16.5131 88.8992C20.2038 88.5749 24.639 86.2587 26.3257 81.8652C28.2077 76.9598 28.0856 72.0519 27.5169 66.9904C27.1459 63.6916 26.6235 60.4173 26.2256 57.1258C25.6862 52.6714 24.9978 48.2341 25.0223 43.7309C25.0271 42.9873 24.6683 43.1604 24.2729 43.4213C23.36 44.0259 22.4959 44.7232 21.5268 45.2182C20.5114 45.735 19.4154 46.3202 18.2535 45.4742C17.0721 44.6135 16.8841 43.0653 17.7336 41.8682C18.9541 40.1494 20.6163 38.9498 22.3177 37.7795C23.0744 37.2602 23.8189 36.7263 24.5731 35.89C23.7212 35.89 22.862 35.8169 22.0199 35.9071C20.7652 36.0436 19.9011 35.2805 19.1445 34.5734C18.4976 33.9712 18.9272 33.0399 19.4105 32.4108C20.3967 31.1308 21.7782 30.4872 23.3697 30.2702C25.4348 29.9898 27.4949 29.6655 29.7064 29.5266C29.2036 29.1682 28.6983 28.8146 28.2004 28.4538C27.5999 28.0174 26.9555 27.4566 27.0824 26.7227C27.2411 25.7841 27.7244 24.9356 28.7691 24.5504C30.7951 23.8019 32.7796 24.231 34.7519 24.7089C35.1815 24.8137 35.5452 24.8844 35.8527 24.626C36.1896 24.3432 35.9504 24.0018 35.843 23.6459C35.3816 22.1245 35.8576 21.4833 37.5004 21.276C39.0943 21.0761 40.4124 21.6539 41.6158 22.6414C41.8282 22.8145 42.0088 23.2314 42.3872 23.0315C42.6874 22.873 42.5336 22.5195 42.5898 22.2537C42.7045 21.6978 42.2139 20.8079 42.8802 20.6324C43.7712 20.3959 44.8159 20.2862 45.6678 21.003C46.5172 21.7198 46.7809 22.6487 46.7369 23.7214C46.7076 24.3822 46.1779 24.3212 45.7874 24.4309C43.0511 25.1989 40.2245 25.806 37.8397 27.4054C33.0042 30.6432 30.8561 35.317 30.8952 41.071C30.9318 46.3104 32.3231 51.2695 33.9781 56.1774C34.8983 58.9057 35.7185 61.6705 36.7461 64.3573C37.869 67.2854 38.7526 70.2891 39.6411 73.2856C40.8347 77.3109 41.772 81.402 42.1479 85.615C42.3408 87.7776 42.641 89.9256 42.6166 92.1028C42.5849 94.8408 42.1089 97.5203 41.5987 100.195C40.5882 105.498 38.1301 110.198 35.1619 114.597C33.5338 117.008 31.5054 119.161 29.3964 121.228C25.4372 125.112 21.0337 128.345 16.2178 131.066C13.2984 132.717 10.1911 133.977 7.21554 135.506C7.00074 135.616 6.76152 135.698 6.68341 135.967C6.21231 136.347 5.69727 136.147 5.3116 135.918C1.57451 133.677 -1.0373 130.461 -2.18211 126.287C-3.11211 122.933 -2.98762 119.417 -2.99983 115.947C-3.01203 112.639 -2.85337 109.338 -2.70203 106.034C-0.427067 105.863 1.73561 105.052 4.02034 104.883C4.66475 104.835 5.36286 104.847 6.00483 104.518C7.01538 103.998 7.16184 103.033 7.1057 102.158C7.04712 101.229 6.12932 101.724 5.63625 101.714C2.88042 101.658 0.124587 101.689 -2.63124 101.692C-2.88754 99.561 -2.68494 97.4276 -2.66786 95.2967C-2.64101 92.2784 -2.84849 89.2551 -2.53361 86.2392V86.2368Z" fill="#FF6800"/>
<path d="M-2.63138 101.689C0.124448 101.689 2.88028 101.655 5.63611 101.711C6.13162 101.721 7.04942 101.226 7.10556 102.155C7.15926 103.03 7.01524 103.998 6.00469 104.515C5.36272 104.844 4.66461 104.832 4.0202 104.881C1.73547 105.049 -0.427207 105.863 -2.70217 106.032C-2.7339 104.583 -2.79004 103.133 -2.63138 101.687V101.689Z" fill="#010101"/>
<path d="M45.487 41.9121C43.2047 40.3517 39.9973 40.3395 38.4839 42.5289C37.8786 43.4042 37.925 45.9106 38.7012 46.6371C39.1918 47.0979 39.4017 46.5103 39.5482 46.2397C39.8802 45.6278 40.0339 45.4766 40.5929 46.13C42.8288 48.7388 45.3943 50.994 48.5626 52.4008C51.0426 53.5004 53.6471 54.2659 56.3053 54.8925C59.3638 55.6118 62.4394 56.292 65.4271 57.3282C67.6411 58.0962 69.5499 59.3494 71.4904 60.5684C72.5571 61.2389 73.3163 62.241 73.9021 63.3674C74.0241 63.6014 74.1462 63.8404 73.9387 64.0257C73.6751 64.2597 73.5213 63.9403 73.3455 63.8111C71.0608 62.1313 68.5491 60.8927 65.8152 60.171C62.3149 59.247 58.7731 58.4863 55.241 57.689C51.8652 56.9283 48.4406 56.2286 45.1917 54.8706C42.5408 53.7661 40.0583 52.5081 37.9445 50.5478C35.0666 47.8781 33.8315 44.5989 33.8583 40.6882C33.8876 36.4971 35.4498 33.0008 38.3204 30.08C39.6263 28.7512 41.2276 27.7394 43.1974 27.5663C43.2462 27.7345 43.2926 27.8077 43.2853 27.8711C43.2047 28.4538 42.3895 29.0804 43.0583 29.5704C43.5782 29.9532 43.9077 29.0755 44.2934 28.7976C45.631 27.8272 47.0346 27.1055 48.6505 26.7398C50.281 26.3716 52.307 26.869 52.9099 28.3709C54.0914 31.3088 56.8155 32.7643 58.7047 35.005C59.171 35.5584 59.7031 36.0558 60.2181 36.5678C60.7283 37.0749 60.8162 37.4577 59.9472 37.5796C59.581 37.6308 59.2832 37.9624 59.2662 38.1672C59.2369 38.5183 59.7006 38.4866 59.9667 38.6231C61.1994 39.2497 62.5468 39.4374 63.8698 39.4959C66.2595 39.6056 68.6589 39.5081 71.0535 39.5349C72.5864 39.552 74.0705 38.9742 75.6962 39.2521C75.6254 39.8812 75.1763 40.342 74.8199 40.8028C73.2064 42.8898 71.881 45.1011 71.2683 47.7075C71.0633 48.5803 70.7167 49.4556 70.2529 50.2211C69.6329 51.2451 68.4881 51.5523 67.3872 51.6816C64.6289 52.0058 61.8658 52.0058 59.0953 51.7133C55.8684 51.3744 52.7049 50.838 49.6098 49.7969C47.6277 49.1289 45.7921 48.2341 44.1689 46.9907C42.9875 46.0837 42.2259 44.7647 42.1014 43.1921C42.0672 42.7532 42.1136 42.5143 42.7068 42.4192C43.5513 42.2802 44.3666 41.9438 45.4943 41.9145L45.487 41.9121ZM47.3665 35.0147C48.3087 36.7165 49.2265 38.3866 51.1134 39.1619C52.8099 39.8568 54.2183 38.8108 54.294 36.9628C54.3843 34.7465 53.4958 32.935 52.0361 31.3697C51.3258 30.6066 50.4788 30.002 49.3437 30.0288C48.6725 30.0459 47.7791 29.8191 47.5325 30.592C47.347 31.1723 48.1501 31.4697 48.5797 31.8598C49.3486 32.5571 49.6537 33.5397 49.3706 34.4856C49.1313 35.2829 48.2184 34.7392 47.6399 34.9318C47.6009 34.944 47.5618 34.9562 47.3665 35.0171V35.0147Z" fill="white"/>
<path d="M47.2933 100.919C47.1761 99.0806 47.7204 97.3056 47.8303 95.4868C47.8767 94.7383 48.4234 94.7139 48.9531 94.8139C51.7407 95.3381 54.5209 95.8915 57.306 96.423C58.2898 96.6108 59.2979 96.601 60.2889 96.6961C63.5305 97.0106 66.7867 97.0935 70.0429 96.74C73.4212 96.3743 76.7702 95.8818 80.0557 94.9724C83.9197 93.9045 87.6714 92.5416 91.3109 90.8715C92.6266 90.2669 93.8885 89.5476 95.1773 88.8893C95.5508 88.6992 95.8803 88.3554 96.4955 88.5456C95.8486 90.3863 94.694 91.8662 93.2905 93.1316C90.398 95.7428 87.0197 97.586 83.3925 98.9538C79.631 100.373 75.7987 101.587 71.7443 101.828C70.8997 101.88 70.4506 102.46 70.2211 103.001C69.894 103.774 70.7093 103.745 71.1828 103.781C73.038 103.932 74.8687 103.686 76.6628 103.252C81.1907 102.153 85.582 100.658 89.7804 98.6247C89.9537 98.5393 90.0977 98.3613 90.3882 98.5978C89.3655 101.663 87.2736 103.867 84.5275 105.464C81.1785 107.412 77.4902 108.362 73.6775 108.901C72.042 109.133 70.4139 109.421 68.7785 109.647C67.9681 109.759 67.9876 110.466 67.7484 110.974C67.5873 111.313 67.8876 111.373 68.1439 111.356C69.6987 111.244 71.2487 111.059 72.8061 111.022C75.579 110.957 78.1884 109.703 81.1175 109.915C79.8287 112.222 77.9443 113.746 75.7694 114.999C72.7084 116.762 69.3839 117.798 65.9665 118.527C63.2107 119.114 60.3963 119.302 57.5746 119.156C57.4403 119.149 57.3134 119.017 57.1816 118.944C61.3751 114.828 64.4678 110.084 65.6565 104.24C65.7664 103.693 65.842 103.291 65.0634 103.296C61.3971 103.325 57.7649 102.852 54.1572 102.296C51.8579 101.94 49.4901 101.811 47.2908 100.921L47.2933 100.919Z" fill="white"/>
<path d="M102.595 54.773C102.527 55.6385 102.666 56.2944 102.434 56.9259C102.044 57.9938 101.192 58.1912 100.411 57.3525C99.9445 56.8503 99.5296 56.2944 99.139 55.7288C97.3059 53.059 94.7014 51.8888 91.5501 51.4036C88.7455 50.972 85.9603 50.7258 83.1386 50.8233C80.2217 50.9233 77.3047 51.011 74.3902 51.172C73.2015 51.2378 72.8671 50.7282 73.0624 49.6701C73.8679 45.2888 77.0655 39.6836 81.9523 38.2915C84.9693 37.4308 88.0327 37.3869 91.1229 38.1525C95.3922 39.2106 98.1822 41.8316 100.013 45.7642C101.128 48.1633 102.083 50.5746 102.461 53.1931C102.547 53.788 102.566 54.3951 102.598 54.7755L102.595 54.773Z" fill="#FF6800"/>
<path d="M47.2931 100.919C49.4924 101.809 51.8601 101.938 54.1595 102.294C57.7672 102.85 61.3969 103.323 65.0656 103.294C65.8418 103.286 65.7686 103.691 65.6588 104.237C64.47 110.081 61.3773 114.826 57.1838 118.941C55.585 119.509 54.0081 118.973 52.4264 118.827C49.2995 118.542 46.429 117.286 43.4632 116.398C42.7187 116.177 42.2647 115.813 42.7016 114.843C43.6878 112.654 44.5861 110.42 45.4379 108.175C46.202 106.163 46.4461 104.008 46.9489 101.926C47.0343 101.567 47.2418 101.275 47.2955 100.919H47.2931Z" fill="#FF6800"/>
<path d="M47.3667 35.0146C47.562 34.9537 47.601 34.9439 47.6401 34.9293C48.2186 34.7367 49.1315 35.2804 49.3707 34.4831C49.6539 33.5371 49.3487 32.5521 48.5799 31.8573C48.1502 31.4696 47.3472 31.1697 47.5327 30.5895C47.7792 29.8142 48.6726 30.0409 49.3439 30.0263C50.4789 29.9995 51.3259 30.6041 52.0362 31.3672C53.4959 32.9325 54.3844 34.744 54.2941 36.9602C54.2184 38.8083 52.8076 39.8543 51.1136 39.1594C49.2267 38.3841 48.3089 36.7164 47.3667 35.0122V35.0146Z" fill="#010101"/>
</g>
<defs>
<clipPath id="clip0_686_251">
<rect width="140" height="140" rx="30" fill="white"/>
</clipPath>
</defs>
</svg>
