<svg width="140" height="140" viewBox="0 0 140 140" fill="none" xmlns="http://www.w3.org/2000/svg">
<g clip-path="url(#clip0_690_38)">
<rect width="140" height="140" rx="30" fill="white"/>
<g clip-path="url(#clip1_690_38)">
<path d="M135.087 53.802C131.667 52.3164 128.542 50.9634 125.42 49.6044C120.264 47.3594 115.117 45.0903 109.939 42.8935C109.426 42.6766 108.542 42.6796 108.161 42.987C107.784 43.2913 107.594 44.1682 107.721 44.6986C108.481 47.8687 109.351 51.0147 110.196 54.1637C111.784 60.0729 113.336 65.9912 114.999 71.8794C115.781 74.6548 118.124 75.9174 120.702 75.1791C123.066 74.5041 124.246 72.0783 123.519 69.3572C122.459 65.3886 121.384 61.4229 120.219 57.0987C121.143 57.4513 121.813 57.6743 122.459 57.9575C128.479 60.6063 134.474 63.3184 140.53 65.8797C141.762 66.4011 142.009 67.0791 142.006 68.2483C141.973 79.196 142.043 90.1466 141.949 101.094C141.91 105.753 141.916 110.46 141.273 115.058C139.44 128.17 128.717 138.569 115.585 140.187C111.555 140.684 107.473 140.956 103.416 140.983C89.5285 141.076 75.6415 141.034 61.7545 141.001C52.2479 140.977 42.7384 140.989 33.2348 140.787C26.1343 140.636 19.212 139.533 13.1228 135.444C4.8087 129.857 0.488635 121.953 -0.462323 112.099C-0.649496 110.165 -0.803461 108.227 -0.993652 106.039C6.00419 108.293 12.1809 107.142 17.3493 102.221C21.1229 98.6294 22.9192 94.049 22.7562 88.7997C22.572 82.797 20.0572 77.9514 15.227 74.3866C10.436 70.8519 5.11663 69.9569 -0.782328 71.7649C-0.821574 71.0417 -0.875915 70.5113 -0.875915 69.981C-0.881952 57.4754 -0.97252 44.9698 -0.851763 32.4642C-0.782328 25.2682 0.319576 18.253 4.44945 12.0665C9.50312 4.48778 16.6338 0.109309 25.5849 -1.22563C28.9993 -1.73489 32.4891 -1.9398 35.9458 -1.94884C59.6443 -2.00911 83.3428 -2.0302 107.041 -1.94282C113.767 -1.91871 120.385 -1.0629 126.377 2.4236C133.098 6.33499 137.671 11.967 140.077 19.3408C141.523 23.7765 141.886 28.381 141.973 33.0036C142.04 36.5112 141.985 40.0188 141.695 43.5866C141.24 41.9986 140.832 40.3985 140.319 38.8285C139.44 36.1405 137.252 34.9261 134.716 35.6463C132.397 36.3063 131.129 38.7079 131.818 41.3296C132.799 45.0632 133.855 48.7787 134.87 52.5033C134.957 52.8257 134.984 53.1632 135.087 53.799V53.802ZM86.3224 48.9354C84.1368 49.2157 81.9179 49.3482 79.7684 49.8003C72.4566 51.3401 66.1289 54.6398 61.6398 60.7751C57.7967 66.0244 56.5831 71.6655 60.0398 77.6471C62.4036 81.7393 66.295 83.7793 70.606 85.1173C76.2423 86.8681 81.9329 86.6632 87.5572 85.0841C94.389 83.1646 100.116 79.6058 104.185 73.6212C109.888 65.2379 106.679 56.2399 98.9596 52.0874C95.0079 49.963 90.8025 49.0469 86.3224 48.9354ZM39.2334 70.6831C39.0704 71.2074 39.0221 71.4003 38.9496 71.5841C35.5805 80.0156 32.1933 88.438 28.8725 96.8876C28.6159 97.5415 28.5917 98.5088 28.9087 99.0814C29.1261 99.4731 30.1676 99.6419 30.7714 99.5334C32.2446 99.2682 33.6756 98.78 35.1247 98.3853C38.4092 97.4843 41.6908 96.5712 44.9784 95.6883C49.1958 94.5583 53.4434 93.5458 57.6277 92.3042C60.7522 91.3791 61.6398 87.5069 59.4299 85.0992C57.8058 83.3273 55.8374 83.6317 53.8389 84.165C50.026 85.1806 46.2192 86.2081 42.3851 87.2387C42.3731 87.0368 42.3368 86.9283 42.367 86.85C45.8026 78.2829 49.2622 69.7279 52.6495 61.1427C52.9242 60.4466 53.057 59.187 52.6796 58.8706C52.1423 58.4186 51.0162 58.3583 50.2404 58.5451C46.832 59.3648 43.4599 60.3381 40.0757 61.2482C35.5231 62.4746 30.9495 63.6348 26.4211 64.9396C23.5532 65.7652 22.3818 68.7395 23.7584 71.3159C24.7637 73.1963 26.9494 73.9436 29.5608 73.2626C32.7005 72.4399 35.8341 71.5901 39.2304 70.6831H39.2334Z" fill="#0157F8"/>
<path d="M65.0269 67.6457L66.7778 141.043L139.95 166L141.599 112.03L93.7005 54.5163L65.0269 60.0549V67.6457Z" fill="#F11054"/>
<path d="M86.3219 48.9385C90.799 49.05 95.0074 49.966 98.9591 52.0905C106.681 56.243 109.891 65.238 104.185 73.6242C100.115 79.6058 94.3855 83.1677 87.5567 85.0872C81.9324 86.6662 76.2418 86.8711 70.6055 85.1203C66.2945 83.7824 62.4031 81.7393 60.0393 77.6501C56.5826 71.6685 57.7962 66.0275 61.6393 60.7781C66.1284 54.6459 72.4561 51.3432 79.7679 49.8033C81.9173 49.3513 84.1362 49.2187 86.3219 48.9385ZM72.9089 76.719C76.4622 77.7586 80.2328 77.8129 83.8404 76.9842C85.1838 76.6768 86.5091 76.3273 87.7861 75.8572C92.0669 74.2872 95.7228 71.7288 97.7576 67.4257C99.0799 64.6262 98.3101 62.0437 95.7228 60.3683C94.9681 59.8801 94.1681 59.4372 93.3349 59.1087C89.1567 57.4543 84.8668 57.5658 80.6041 58.6115C75.9127 59.7596 71.7889 61.9654 68.7549 65.8497C65.4008 70.1408 66.3428 74.1787 71.3783 76.1947C71.8764 76.3936 72.3866 76.5653 72.9089 76.719Z" fill="white"/>
<path d="M39.2329 70.6862C35.8366 71.5932 32.7029 72.443 29.5633 73.2657C26.9519 73.9497 24.7632 73.2024 23.7609 71.319C22.3843 68.7396 23.5556 65.7653 26.4236 64.9427C30.955 63.6409 35.5256 62.4777 40.0782 61.2513C43.4654 60.3412 46.8345 59.3679 50.2429 58.5482C51.0187 58.3614 52.1448 58.4217 52.6821 58.8737C53.0595 59.1901 52.9236 60.4527 52.6519 61.1458C49.2617 69.731 45.805 78.286 42.3695 86.8531C42.3393 86.9314 42.3756 87.0399 42.3876 87.2418C46.2217 86.2112 50.0315 85.1837 53.8414 84.1682C55.8429 83.6348 57.8083 83.3304 59.4324 85.1023C61.6423 87.51 60.7547 91.3822 57.6301 92.3073C53.4459 93.5458 49.1953 94.5584 44.9809 95.6914C41.6933 96.5743 38.4117 97.4874 35.1271 98.3884C33.6781 98.7862 32.2471 99.2713 30.7739 99.5365C30.1701 99.645 29.1286 99.4732 28.9112 99.0845C28.5942 98.5119 28.6184 97.5416 28.875 96.8907C32.1958 88.4412 35.583 80.0187 38.9521 71.5872C39.0246 71.4064 39.0698 71.2136 39.2359 70.6862H39.2329Z" fill="white"/>
<ellipse cx="4.5" cy="89.5" rx="11.5" ry="10.5" fill="#0157F8"/>
</g>
</g>
<defs>
<clipPath id="clip0_690_38">
<rect width="140" height="140" rx="30" fill="white"/>
</clipPath>
<clipPath id="clip1_690_38">
<rect width="143" height="168" fill="white" transform="translate(-1 -2)"/>
</clipPath>
</defs>
</svg>
