<svg width="140" height="140" viewBox="0 0 140 140" fill="none" xmlns="http://www.w3.org/2000/svg">
<rect width="140" height="140" rx="30" fill="white"/>
<g clip-path="url(#clip0_747_3030)">
<path d="M75.5698 86.2203C77.1245 85.1665 78.5979 84.0091 79.9368 82.687C81.5071 81.1368 82.8977 79.4376 84.1927 77.6476C84.994 76.542 85.7914 75.4221 86.4015 74.2193C87.1239 72.7922 87.9252 71.3911 88.4525 69.8668C88.5249 69.6568 88.5934 69.4391 88.4797 69.2485C88.4099 69.1319 88.2509 69.1669 88.1617 69.3017C87.8658 69.0139 87.659 69.2265 87.4664 69.4391C87.3242 69.5959 87.2196 69.789 87.0671 69.9342C84.9643 71.9393 82.8073 73.8628 80.3349 75.4312C79.4367 76.0015 78.5695 76.5938 77.6247 77.1032C76.5701 77.6722 75.478 78.1751 74.435 78.7791C73.3416 79.4129 72.0053 79.7473 70.7349 79.912C69.7552 80.039 68.8415 80.3747 67.9019 80.5808C66.2424 80.945 64.5701 81.2651 62.899 81.3053C58.2786 81.4168 53.6543 81.3598 49.0327 81.361C48.7509 81.361 48.4007 81.4907 48.2172 81.1498C48.0143 80.7726 48.2534 80.4576 48.411 80.1336C48.6811 79.5775 49.3338 79.3222 49.529 78.7208C49.666 78.2983 49.9296 77.9703 50.1933 77.6346C51.2647 76.2737 52.5351 75.0942 53.4114 73.5479C54.0744 72.3761 55.1729 71.4753 56.0324 70.4086C56.928 69.2965 57.9594 68.279 58.8731 67.1669C59.9083 65.9071 61.1206 64.8118 62.2166 63.6051C63.9742 61.6713 65.8082 59.7931 67.7985 58.0835C68.7071 57.3032 69.5807 56.4815 70.4738 55.6843C70.5759 55.5936 70.5539 55.499 70.541 55.394C71.5775 54.1497 72.8945 53.21 74.1119 52.1744C75.8916 50.6605 77.701 49.1751 79.5388 47.7273C80.6438 46.8576 81.7436 45.9749 82.8564 45.1156C84.4448 43.8868 86.1094 42.7371 87.9782 41.9776C89.3327 41.4267 90.775 41.1195 92.216 40.8499C93.6584 40.5803 95.1227 40.5868 96.5715 40.697C98.0823 40.8123 99.544 41.1312 100.968 41.7754C102.456 42.4481 103.843 43.2504 105.055 44.3016C105.866 45.0054 106.63 45.809 107.202 46.7513C107.225 46.7902 107.181 46.8705 107.168 46.9315C107.207 47.135 107.054 47.2386 106.95 47.3747C106.444 48.0345 105.741 48.5154 105.284 49.2179C105.015 49.63 104.982 50.1083 105.437 50.3287C106.24 50.7149 107.08 51.0377 107.955 51.2424C107.865 52.9365 107.504 54.5865 107.151 56.2378C106.904 57.3927 106.749 58.567 106.479 59.7154C106.319 60.3997 106.192 61.0945 105.961 61.7685C105.623 62.7522 105.445 63.7866 105.185 64.7937C104.873 66.0134 104.398 67.189 104.025 68.3944C103.364 70.5291 102.403 72.5421 101.564 74.6042C101.178 75.5556 100.752 76.4849 100.256 77.3922C99.4613 78.8465 98.5876 80.2464 97.6739 81.6229C97.2771 81.6462 96.9643 81.9054 96.6994 82.1232C95.7249 82.9268 94.6716 83.5749 93.586 84.2229C92.3285 84.9747 90.9947 85.4037 89.6364 85.7381C88.291 86.0687 86.8732 86.2112 85.4839 86.2359C82.1792 86.2929 78.8719 86.232 75.5646 86.2177L75.5698 86.2203ZM98.3408 47.4123C98.2464 47.3255 98.1663 47.1959 98.0551 47.1583C96.7136 46.7124 95.3398 46.8239 94.2102 47.5692C92.4344 48.7422 92.0002 50.864 92.8454 52.733C93.312 53.766 94.0861 54.4712 95.27 54.7887C96.45 55.105 97.4916 55.0376 98.523 54.4076C99.6112 53.7427 100.29 52.7888 100.438 51.5263C100.542 50.6436 100.641 49.7247 100.043 48.9327C99.5194 48.3767 99.1033 47.7001 98.3408 47.4123Z" fill="#E3000B"/>
<path d="M70.9236 38.3406C70.5682 38.6219 70.3808 38.8837 70.2567 39.2505C70.0486 39.8688 69.7268 40.4481 69.4735 41.0521C68.8234 42.6062 68.2069 44.1746 67.5349 45.7183C67.0128 46.9159 66.5707 48.1485 66.1042 49.3643C65.6971 50.4259 65.3068 51.5069 64.941 52.5904C64.6502 53.4537 64.2237 54.2767 63.9859 55.1529C63.8127 55.7919 63.5879 56.37 63.0709 56.7576C62.0538 57.5197 61.0935 58.3479 60.1164 59.1567C59.1097 59.9889 58.0912 60.8054 57.0896 61.6428C55.6072 62.8806 54.1571 64.1599 52.6489 65.3666C51.686 66.1365 50.603 66.6342 49.3041 66.6213C46.2721 66.5914 43.2388 66.6161 40.2068 66.6316C39.7377 66.6342 39.6046 66.4359 39.801 66.0471C40.6734 64.3193 41.1606 62.4321 42.0537 60.7043C42.7787 59.3019 43.2065 57.7491 43.8799 56.3156C44.4628 55.0739 45.1141 53.8425 45.604 52.5801C46.0938 51.3163 46.7038 50.1044 47.1587 48.8238C47.6162 47.5355 48.234 46.3041 48.8078 45.0598C49.6828 43.1636 50.6599 41.3101 51.4405 39.3762C51.9316 38.1604 52.4718 36.9589 53.0095 35.7742C53.7565 34.1242 54.5642 32.4924 55.3242 30.845C56.2547 28.8308 57.3016 26.8684 58.1636 24.8295C58.4583 24.1322 58.753 24.0078 59.3824 24.0078C67.0166 24.0194 74.6522 24.0233 82.2865 24C82.8513 23.9987 83.133 24.2035 83.3475 24.6766C84.0894 26.3149 84.7912 27.9753 85.6209 29.567C86.3291 30.9253 86.9146 32.3355 87.5505 33.7224C88.0855 34.8902 88.6451 36.049 89.1505 37.2324C89.2745 37.524 89.0652 37.5279 88.9023 37.629C88.2703 38.0217 87.5375 38.1449 86.8694 38.4274C85.1505 39.152 83.5091 40.0334 82.0021 41.1519C81.1427 41.7896 80.229 42.3587 79.3889 43.021C77.9582 44.1473 76.5533 45.3087 75.1614 46.483C74.5514 46.9976 74.4803 46.9678 74.2167 46.2043C73.9517 45.437 73.5627 44.7138 73.2486 43.9633C72.5805 42.3625 71.9278 40.7566 71.2674 39.1533C71.164 38.9031 71.0554 38.6543 70.9223 38.3419L70.9236 38.3406Z" fill="#E3000B"/>
<path d="M107.188 114.953C103.854 114.953 100.521 114.933 97.1876 114.971C96.5505 114.979 96.3372 114.651 96.1886 114.177C95.6057 112.308 94.9208 110.474 94.2616 108.632C93.8532 107.491 93.4797 106.339 93.0713 105.2C92.588 103.852 92.0723 102.514 91.5902 101.166C91.0022 99.5253 90.48 97.8559 89.8842 96.224C89.5805 95.3945 89.366 94.517 88.9873 93.7056C88.8568 93.4256 88.88 93.0873 89.2742 92.9214C90.7747 92.2915 92.1356 91.4075 93.5379 90.5922C95.0435 89.7173 96.4006 88.6467 97.6477 87.4698C98.8717 86.3149 99.9625 85.0201 100.924 83.6008C101.812 82.2904 102.467 80.8465 103.413 79.5763C103.682 79.2146 103.846 78.7662 104.008 78.3372C104.084 78.135 104.264 78.0403 104.373 78.0468C104.514 78.0533 104.649 78.2257 104.698 78.4033C105.056 79.7266 105.758 80.9087 106.244 82.1789C106.82 83.6864 107.358 85.208 107.925 86.7194C108.349 87.8509 108.856 88.9552 109.21 90.1075C109.49 91.0213 109.953 91.8573 110.209 92.7775C110.55 94.0011 111.161 95.1378 111.517 96.3471C112.001 97.9997 112.884 99.4981 113.261 101.188C113.431 101.945 113.928 102.602 114.067 103.387C114.268 104.527 114.92 105.501 115.276 106.585C115.586 107.526 115.871 108.478 116.199 109.412C116.633 110.645 117.036 111.889 117.528 113.104C117.711 113.559 117.795 114.069 117.97 114.541C118.068 114.806 117.927 114.904 117.709 114.938C117.561 114.961 117.409 114.948 117.258 114.948C113.901 114.948 110.546 114.948 107.19 114.948V114.955L107.188 114.953Z" fill="#E3000B"/>
<path d="M70.5434 55.394C70.5563 55.499 70.5783 55.5923 70.4762 55.6844C69.5819 56.4815 68.7095 57.3033 67.8009 58.0835C65.8106 59.7932 63.9767 61.6713 62.219 63.6051C61.1217 64.8118 59.9107 65.9071 58.8755 67.1669C57.9618 68.279 56.9304 69.2965 56.0348 70.4086C55.1753 71.4753 54.0781 72.3762 53.4138 73.5479C52.5388 75.0942 51.2671 76.2737 50.1957 77.6346C49.932 77.9703 49.6684 78.2983 49.5314 78.7208C49.3362 79.3209 48.6836 79.5776 48.4134 80.1336C48.2558 80.4577 48.0167 80.7726 48.2196 81.1498C48.4031 81.4907 48.7534 81.3611 49.0351 81.3611C53.6581 81.3598 58.2823 81.4168 62.9014 81.3053C64.5712 81.2652 66.2449 80.9437 67.9043 80.5808C68.8439 80.3747 69.7576 80.039 70.7373 79.912C72.0064 79.7474 73.3428 79.4117 74.4374 78.7791C75.4804 78.1751 76.5725 77.6722 77.6271 77.1032C78.5706 76.5938 79.4391 76.0015 80.3373 75.4312C82.8084 73.8628 84.9667 71.9394 87.0695 69.9342C87.222 69.7891 87.3254 69.5959 87.4688 69.4391C87.6614 69.2278 87.8682 69.0153 88.1641 69.3017C88.0995 69.9874 87.6188 70.5032 87.2633 70.9932C86.7347 71.7203 86.325 72.5317 85.7215 73.2083C84.5273 74.5472 83.5709 76.087 82.2979 77.356C80.2662 79.3793 78.1001 81.2418 75.6368 82.735C74.0911 83.6721 72.4937 84.5107 70.8497 85.2508C69.6878 85.7745 68.4407 86.0765 67.218 86.4407C66.1285 86.766 65.0636 87.173 63.9392 87.3674C63.1909 87.497 62.4309 87.6396 61.6852 87.6902C59.5398 87.8353 57.3996 88.0751 55.2387 88.0453C52.2131 88.0038 49.1863 88.0816 46.1595 88.092C41.9501 88.1062 37.7407 88.1101 33.5313 88.0997C33.247 88.0997 32.8386 88.2657 32.6926 87.8379C32.5711 87.4828 32.8218 87.2689 33.0557 87.0265C34.5898 85.4336 36.0709 83.7913 37.6877 82.28C37.9191 82.0636 38.2977 81.794 38.1892 81.4946C38.0935 81.2289 37.6451 81.3624 37.362 81.3701C35.4842 81.4233 33.7368 80.8167 32.0373 80.1673C31.2127 79.8524 30.4089 79.3507 29.6412 78.8336C26.9181 76.9982 25.1823 74.463 24.1691 71.382C23.9326 70.6627 24.1174 70.4436 24.9601 70.4449C30.2719 70.4488 35.5824 70.4605 40.8942 70.4631C43.4532 70.4631 46.0147 70.3944 48.5711 70.4605C51.0694 70.5253 53.2109 69.7359 55.1004 68.1339C57.5172 66.0847 59.9495 64.0536 62.3792 62.0212C64.4652 60.2766 66.5589 58.5398 68.65 56.7991C69.2562 56.2949 69.8106 55.7207 70.5447 55.3927L70.5434 55.394ZM52.5156 74.879C52.5298 74.8401 52.5479 74.8026 52.5556 74.7637C52.5582 74.752 52.5285 74.7339 52.513 74.7196C52.5001 74.7559 52.482 74.7922 52.4755 74.8298C52.4729 74.8427 52.5001 74.8609 52.5156 74.879Z" fill="#029656"/>
<path d="M33.9451 114.978C30.5913 114.978 27.2375 114.978 23.8837 114.978C22.8808 114.978 22.8213 114.92 23.2595 114.049C23.6136 113.345 23.7157 112.57 24.0013 111.845C24.4381 110.74 24.8026 109.599 25.1024 108.449C25.5871 106.589 26.3522 104.83 26.9661 103.017C27.5309 101.349 28.1525 99.7003 28.7419 98.0399C29.1115 96.9991 29.463 95.9505 29.8327 94.9097C30.1726 93.9531 30.5241 93.0005 30.8757 92.0491C30.9765 91.7782 31.2414 91.8456 31.4301 91.8456C36.9707 91.843 42.5112 91.8521 48.0531 91.8586C49.2783 91.8586 50.5035 91.8871 51.7274 91.8365C52.2534 91.8145 52.2328 92.005 52.1009 92.3731C51.7778 93.2778 51.5529 94.2124 51.1148 95.0821C50.815 95.6783 50.6935 96.3692 50.5332 97.012C50.2799 98.0334 49.8146 98.9757 49.6143 100.028C49.4605 100.834 49.0573 101.643 48.813 102.465C48.4318 103.748 48.0182 105.024 47.5982 106.29C47.2195 107.433 46.9209 108.606 46.4544 109.727C46.0718 110.648 45.8521 111.636 45.5898 112.603C45.4088 113.271 45.1452 113.911 44.9965 114.592C44.9138 114.971 44.5041 114.984 44.1384 114.983C40.7419 114.974 37.3442 114.978 33.9477 114.979L33.9451 114.978Z" fill="#E3000B"/>
<path d="M75.5699 86.2203C78.8759 86.2333 82.1832 86.2955 85.4892 86.2385C86.8785 86.2139 88.2963 86.0713 89.6417 85.7408C90.9987 85.4076 92.3325 84.9773 93.5913 84.2256C94.6769 83.5775 95.7289 82.9294 96.7047 82.1258C96.9684 81.9081 97.2824 81.6488 97.6792 81.6255C96.8921 82.8166 95.8401 83.7577 94.8462 84.7661C93.2191 86.4174 91.2456 87.5281 89.316 88.7349C87.9435 89.5942 86.4262 90.031 84.9373 90.5884C83.1499 91.2572 81.2798 91.4633 79.4562 91.9091C77.8717 92.2967 76.2937 92.2267 74.7079 92.2941C74.3951 92.3071 74.1961 92.3589 74.3305 92.7426C74.9741 94.5831 75.5945 96.4327 76.2562 98.2667C76.9941 100.309 77.7967 102.33 78.5218 104.378C79.199 106.287 79.6901 108.272 80.4927 110.123C81.0937 111.508 81.4026 112.995 82.103 114.335C82.3176 114.746 82.2491 115.012 81.6714 114.999C80.3816 114.969 79.0917 114.979 77.8019 114.995C77.2655 115.001 77.0678 114.817 76.9218 114.247C76.6323 113.117 76.0869 112.055 75.7638 110.931C75.2455 109.131 74.5347 107.398 73.9182 105.635C73.3793 104.097 72.8804 102.535 72.2587 101.021C71.4975 99.1637 70.8655 97.2583 70.2245 95.3569C69.7036 93.8093 69.1259 92.2811 68.5599 90.7504C68.2872 90.0155 68.4371 89.5929 69.197 89.3441C70.7983 88.8217 72.2471 87.9766 73.7399 87.2274C74.3628 86.9151 74.9612 86.556 75.5712 86.2177L75.5699 86.2203Z" fill="#029656"/>
<path d="M89.3805 114.987C88.693 114.987 88.0054 114.983 87.3178 114.988C86.9766 114.991 86.8319 114.891 86.7246 114.504C86.5088 113.719 86.134 112.981 85.8509 112.213C85.4813 111.211 85.1052 110.209 84.7925 109.189C84.5702 108.464 84.1734 107.809 83.9718 107.088C83.5853 105.698 83.0206 104.369 82.6483 102.969C82.4144 102.09 81.9853 101.215 81.6248 100.347C81.0315 98.9174 80.7084 97.3892 80.0596 95.9777C79.9097 95.6511 80.0803 95.4865 80.4164 95.4904C81.7023 95.5021 82.9146 95.0821 84.1579 94.8449C84.4513 94.7892 84.7356 94.8047 84.795 95.1689C84.9101 95.8689 85.3353 96.4418 85.5537 97.0989C85.8652 98.0373 86.2581 98.9485 86.5605 99.8895C86.9379 101.066 87.3308 102.243 87.734 103.407C88.0442 104.303 88.4228 105.187 88.7511 106.085C89.3107 107.616 89.9233 109.138 90.4041 110.685C90.7957 111.945 91.3489 113.13 91.7689 114.37C91.9369 114.869 91.8452 115.026 91.314 114.996C90.6716 114.96 90.0254 114.987 89.3805 114.986V114.987Z" fill="#029656"/>
<path d="M107.956 51.2438C107.081 51.039 106.241 50.7149 105.439 50.33C104.982 50.1109 105.016 49.6314 105.285 49.2192C105.742 48.5167 106.445 48.0358 106.951 47.3761C107.054 47.24 107.207 47.1363 107.169 46.9328C109.678 46.9431 112.185 46.9535 114.694 46.9639C114.886 46.9639 115.081 46.9522 115.271 46.9768C115.496 47.0054 115.755 46.9963 115.8 47.3255C115.842 47.6366 115.687 47.7947 115.429 47.914C113.533 48.794 111.637 49.6715 109.749 50.5659C109.167 50.8407 108.589 51.1116 107.956 51.2438Z" fill="#029656"/>
<path d="M99.7341 48.4013C100.492 49.0559 100.676 50.6488 100.506 51.5121C100.26 52.759 99.6101 53.7414 98.5219 54.4064C97.4905 55.0363 96.4488 55.1037 95.2689 54.7874C94.085 54.4712 93.3122 53.7648 92.8443 52.7317C91.9991 50.864 92.4333 48.7409 94.2091 47.5679C95.3387 46.8213 96.7125 46.7111 98.054 47.157C98.1652 47.1933 98.7287 47.4512 98.8217 47.5368C98.4973 47.6353 97.6753 47.5744 97.369 47.7157C96.9749 47.8971 96.5897 48.0501 96.3933 48.553C96.1102 49.2801 96.1012 50.0656 96.5574 50.6177C97.0434 51.2088 97.9752 51.4693 98.6989 51.2165C99.402 50.9716 99.8841 50.2704 99.9099 49.4629C99.9164 49.2788 99.5338 48.5387 99.7329 48.4L99.7341 48.4013Z" fill="#029656"/>
<path d="M52.5144 74.879C52.4988 74.8609 52.4717 74.8427 52.4743 74.8298C52.4808 74.7922 52.4989 74.7559 52.5118 74.7196C52.5273 74.7352 52.557 74.752 52.5544 74.7637C52.548 74.8026 52.5299 74.8401 52.5144 74.879Z" fill="#E3000B"/>
<path d="M97.9804 51.3449C99.0803 51.3449 99.972 50.4506 99.972 49.3475C99.972 48.2444 99.0803 47.3501 97.9804 47.3501C96.8804 47.3501 95.9888 48.2444 95.9888 49.3475C95.9888 50.4506 96.8804 51.3449 97.9804 51.3449Z" fill="white"/>
</g>
<defs>
<clipPath id="clip0_747_3030">
<rect width="95" height="91" fill="white" transform="translate(23 24)"/>
</clipPath>
</defs>
</svg>
