<svg width="140" height="140" viewBox="0 0 140 140" fill="none" xmlns="http://www.w3.org/2000/svg">
<rect width="140" height="140" rx="30" fill="#FF3E80"/>
<g clip-path="url(#clip0_1642_18673)">
<path d="M12.0097 69.8798C12.0097 67.4797 12.0215 65.0795 12.0001 62.6794C11.9958 62.2261 12.1427 62.0952 12.6111 62.1054C14.7324 62.1504 16.8601 62.089 18.976 62.2057C23.1865 62.4379 26.1535 65.4877 26.2274 69.5156C26.2521 70.8589 26.1085 72.1685 25.5253 73.4033C24.328 75.9365 22.1735 77.2941 19.363 77.5427C17.0627 77.7453 14.7313 77.6389 12.4149 77.6819C11.954 77.69 12.0108 77.4015 12.0108 77.1325C12.0097 74.7149 12.0108 72.2974 12.0108 69.8808L12.0097 69.8798ZM15.3069 69.9054C15.3069 71.4543 15.3133 73.0023 15.3015 74.5512C15.2983 74.9298 15.4109 75.1119 15.8493 75.0975C16.6511 75.0699 17.455 75.1098 18.2568 75.0771C20.5378 74.985 22.1542 73.7624 22.6912 71.7388C23.0128 70.5305 23.0171 69.3171 22.6998 68.1058C22.2121 66.2468 20.8176 65.0273 18.8163 64.8074C17.8645 64.703 16.8955 64.7531 15.9372 64.6948C15.4291 64.6641 15.293 64.8555 15.2983 65.3107C15.3187 66.8423 15.3058 68.3738 15.3069 69.9054Z" fill="white"/>
<path d="M34.5797 66.3747C36.2733 66.346 37.7857 66.6867 39.0548 67.6791C40.7559 69.0101 41.3348 70.7893 41.1107 72.8252C40.831 75.3727 39.3539 77.0454 36.7985 77.6859C35.1799 78.091 33.5453 78.0695 31.9578 77.5365C29.7732 76.803 28.5063 75.2929 28.1643 73.1281C27.7731 70.6512 28.7571 68.252 31.1892 67.0653C32.2751 66.5353 33.4434 66.3368 34.5818 66.3747H34.5797ZM34.6536 68.7523C32.632 68.7339 31.3007 70.0578 31.2761 72.1132C31.2514 74.1327 32.5891 75.5742 34.5775 75.5589C36.6013 75.5436 37.8811 74.4622 37.9379 72.2656C37.9947 70.0864 36.7406 68.7707 34.6536 68.7513V68.7523Z" fill="white"/>
<path d="M123.66 71.0083C123.904 70.0742 123.445 69.1862 122.471 68.7677C121.391 68.3032 120.27 68.4158 119.167 68.6531C118.476 68.8015 117.81 69.0511 117.044 69.2823C116.821 68.7513 116.587 68.1938 116.332 67.5912C117.259 67.0766 118.234 66.7768 119.244 66.5793C120.765 66.2837 122.289 66.2356 123.792 66.6786C125.907 67.3027 126.985 68.7043 126.987 70.8098C126.989 72.904 126.971 74.9993 127 77.0925C127.006 77.5816 126.836 77.7136 126.357 77.6839C125.806 77.6501 125.249 77.6481 124.698 77.6839C124.242 77.7136 124.095 77.5151 124.073 77.1294C124.059 76.8859 124.014 76.6455 123.967 76.2812C123.721 76.494 123.58 76.6148 123.44 76.7375C121.867 78.1197 119.302 78.3939 117.46 77.3616C115.964 76.5227 115.393 75.2234 115.626 73.6355C115.851 72.0968 116.941 71.2385 118.428 70.7944C119.993 70.3269 121.555 70.3883 123.103 70.8906C123.254 70.9397 123.406 70.9878 123.559 71.0297C123.588 71.0379 123.626 71.0154 123.66 71.0062V71.0083ZM120.911 75.8147C121.903 75.7738 122.732 75.4822 123.439 74.8694C123.728 74.6197 123.886 73.2324 123.663 72.947C123.622 72.8948 123.559 72.8519 123.497 72.8242C122.164 72.2349 120.795 72.0303 119.44 72.6943C118.261 73.2723 118.252 74.765 119.417 75.3666C119.868 75.5999 120.411 75.6705 120.912 75.8147H120.911Z" fill="white"/>
<path d="M71.6352 77.6777C71.5644 77.2102 71.5065 76.8265 71.4326 76.3313C71.2343 76.4879 71.0949 76.5922 70.9599 76.7037C69.3198 78.0552 67.4644 78.3366 65.4696 77.6112C63.8617 77.027 62.9592 75.6387 63.0567 74.1041C63.1618 72.4477 64.1147 71.3223 65.8394 70.8097C67.444 70.333 69.0347 70.3933 70.6158 70.9069C70.7508 70.9509 70.8827 71.0011 71.0188 71.043C71.0478 71.0522 71.0863 71.0328 71.1196 71.0266C71.4894 69.4061 70.1216 68.5559 68.7185 68.4781C67.429 68.4065 66.2038 68.6684 65.0215 69.1421C64.8757 69.2004 64.73 69.2577 64.537 69.3355C64.3248 68.8301 64.0997 68.3523 63.9335 67.8561C63.896 67.7425 64.0204 67.4847 64.1372 67.4336C66.6154 66.3389 69.1666 65.9214 71.8013 66.875C73.5013 67.4898 74.4157 68.8198 74.42 70.5468C74.4253 72.7423 74.4114 74.9389 74.4296 77.1344C74.4328 77.5519 74.3128 77.7074 73.8593 77.6879C73.1326 77.6562 72.4026 77.6797 71.6352 77.6797V77.6777ZM68.3873 75.8157C69.3767 75.7625 70.2149 75.4863 70.9159 74.8663C71.052 74.7455 71.1828 74.5757 71.2214 74.4079C71.513 73.1485 71.2482 72.7618 69.9287 72.461C69.8419 72.4416 69.7572 72.416 69.6704 72.3986C68.7582 72.2226 67.8621 72.2431 67.0088 72.638C66.4407 72.9009 66.0849 73.3214 66.0505 73.9465C66.0152 74.589 66.3078 75.0985 66.8899 75.3727C67.3529 75.5906 67.8856 75.6735 68.3884 75.8157H68.3873Z" fill="white"/>
<path d="M95.7487 74.4612C97.0393 75.2029 98.3684 75.5641 99.778 75.6142C100.284 75.6316 100.809 75.5538 101.302 75.4311C101.878 75.2868 102.209 74.8377 102.199 74.3527C102.189 73.7952 101.838 73.4545 101.314 73.3358C100.346 73.1158 99.3599 72.9665 98.3866 72.7639C97.9364 72.6698 97.4948 72.5296 97.0543 72.3976C94.6768 71.6856 94.7561 68.5938 96.365 67.5052C97.2794 66.8863 98.2902 66.5517 99.3867 66.4412C101.136 66.2663 102.833 66.4382 104.451 67.1553C104.833 67.3242 104.901 67.5001 104.712 67.851C104.47 68.3022 104.279 68.779 104.074 69.2271C103.18 69.0245 102.33 68.7739 101.46 68.6552C100.837 68.5703 100.176 68.5928 99.5518 68.69C98.7661 68.8117 98.3877 69.2291 98.392 69.756C98.3963 70.2921 98.7854 70.6379 99.585 70.7883C100.51 70.9633 101.439 71.1147 102.362 71.2968C102.71 71.3653 103.047 71.4809 103.383 71.5945C104.664 72.0273 105.262 72.944 105.34 74.1942C105.409 75.2756 104.983 76.1534 104.054 76.7918C103.283 77.3207 102.404 77.6051 101.477 77.7146C99.4371 77.956 97.4551 77.7678 95.6093 76.8255C94.8311 76.4286 94.8354 76.4153 95.1816 75.6633C95.3585 75.2776 95.5439 74.895 95.7487 74.4632V74.4612Z" fill="white"/>
<path d="M51.6862 69.1432C50.3817 68.9427 49.1822 68.7248 47.971 68.5907C47.5669 68.5467 47.1242 68.6818 46.7222 68.8035C46.2666 68.9416 45.9515 69.2619 45.9558 69.7448C45.9601 70.2532 46.287 70.5735 46.7865 70.6799C47.6891 70.8732 48.6045 71.0113 49.507 71.2027C50.0269 71.3132 50.5392 71.4635 51.0441 71.6262C53.3498 72.371 53.4709 75.5988 51.6701 76.7641C50.8362 77.3033 49.9186 77.6276 48.941 77.731C46.9591 77.9397 45.0232 77.7637 43.2246 76.845C43.037 76.7488 42.8323 76.6567 42.6886 76.5145C42.5943 76.4214 42.5214 76.2137 42.5654 76.1043C42.7808 75.5682 43.0391 75.0464 43.2621 74.5645C44.1679 74.8663 45.02 75.2009 45.9033 75.429C46.8176 75.6643 47.7641 75.7411 48.7031 75.4924C49.3977 75.3083 49.7342 74.941 49.7375 74.366C49.7407 73.7962 49.4706 73.4545 48.7384 73.2897C47.6998 73.0555 46.6461 72.8877 45.5999 72.682C45.3212 72.6268 45.0479 72.546 44.7778 72.458C43.6759 72.0999 42.9437 71.4308 42.8001 70.2798C42.6554 69.1227 43.0252 68.1631 44.0146 67.4531C44.9439 66.786 46.0319 66.5118 47.1606 66.4197C48.7792 66.2867 50.3602 66.4484 51.8695 67.0899C52.3218 67.2822 52.5458 67.4531 52.2425 67.9452C51.9917 68.3513 51.8373 68.8107 51.6851 69.1452L51.6862 69.1432Z" fill="white"/>
<path d="M75.3923 66.6019C76.4031 66.6019 77.3474 66.5804 78.2886 66.6213C78.4568 66.6285 78.6927 66.8658 78.7634 67.0449C79.6499 69.2864 80.5106 71.5382 81.381 73.7859C81.4603 73.9895 81.5525 74.189 81.6983 74.5277C81.8548 74.2187 81.9716 74.0274 82.0509 73.8218C82.9235 71.574 83.7992 69.3284 84.6492 67.0735C84.7875 66.7083 84.9729 66.5773 85.3792 66.5916C86.2496 66.6213 87.1221 66.6008 88.0922 66.6008C87.8242 67.2566 87.5884 67.8521 87.3376 68.4414C86.0984 71.3561 84.8497 74.2658 83.6234 77.1846C83.4658 77.5601 83.2654 77.7044 82.8377 77.687C82.0359 77.6532 81.232 77.6951 80.4302 77.6624C80.2523 77.6552 79.9854 77.5069 79.9211 77.3596C78.4215 73.8862 76.9433 70.4036 75.4641 66.9221C75.4319 66.8464 75.4255 66.7604 75.3901 66.6008L75.3923 66.6019Z" fill="white"/>
<path d="M111.246 63.6329C111.246 64.4953 111.267 65.2759 111.239 66.0545C111.224 66.4791 111.379 66.6264 111.822 66.607C112.478 66.5783 113.136 66.5998 113.86 66.5998C113.86 67.2781 113.881 67.9196 113.839 68.557C113.832 68.6705 113.57 68.8475 113.415 68.8577C112.865 68.8946 112.31 68.8864 111.757 68.868C111.405 68.8567 111.236 68.9498 111.241 69.3222C111.258 70.6502 111.228 71.9781 111.257 73.3051C111.283 74.5113 112.013 75.2622 113.305 75.4883C113.856 75.5852 114.132 75.8966 114.132 76.4224C114.132 76.7631 114.163 77.1069 114.115 77.4414C114.095 77.5744 113.907 77.7882 113.79 77.7913C112.048 77.8445 110.403 77.5836 109.131 76.3007C108.162 75.3226 108.044 74.0806 108.018 72.8263C107.994 71.6866 108.001 70.5448 108.018 69.4051C108.024 69.0265 107.929 68.8618 107.484 68.8618C106.19 68.8639 106.19 68.8455 106.19 67.5922C106.19 66.9306 106.541 66.5995 107.242 66.5988C107.754 66.5981 108.011 66.3601 108.012 65.8847C108.012 65.2544 107.996 64.6242 108.027 63.996C108.034 63.8702 108.219 63.6502 108.328 63.6472C109.27 63.6196 110.213 63.6308 111.247 63.6308L111.246 63.6329Z" fill="white"/>
<path d="M55.6134 63.6349C56.6242 63.6349 57.5654 63.6226 58.5054 63.6523C58.603 63.6554 58.767 63.8999 58.7734 64.037C58.8023 64.7173 58.8023 65.3987 58.7841 66.0801C58.7734 66.477 58.931 66.6264 59.3511 66.607C59.9214 66.5804 60.4938 66.609 61.064 66.5978C61.3352 66.5926 61.4564 66.6868 61.451 66.9528C61.4414 67.4633 61.4403 67.9748 61.4531 68.4853C61.4606 68.7708 61.3395 68.8823 61.0415 68.8762C60.4531 68.8649 59.8635 68.8874 59.275 68.869C58.9299 68.8577 58.7841 68.9856 58.7905 69.311C58.8216 70.773 58.8163 72.237 58.8838 73.698C58.9256 74.5942 59.722 75.2827 60.81 75.4822C61.0715 75.5303 61.3331 75.5712 61.63 75.6213V77.7514C59.1239 78.0307 56.4259 77.1058 55.8128 74.6975C55.696 74.2392 55.6327 73.7583 55.6241 73.2867C55.5984 71.9925 55.6049 70.6983 55.6209 69.4041C55.6263 69.0173 55.5116 68.8649 55.0743 68.8649C53.7837 68.867 53.7837 68.8496 53.7837 67.6393C53.7837 66.9483 54.1378 66.6022 54.8459 66.6008C55.3569 66.6001 55.6131 66.3587 55.6145 65.8765C55.6145 65.1491 55.6145 64.4217 55.6145 63.6349H55.6134Z" fill="white"/>
<path d="M93.0144 77.6767C92.0304 77.6767 91.1042 77.6705 90.1792 77.6798C89.7515 77.6838 89.8083 77.4025 89.8083 77.1508C89.8072 75.3983 89.8083 73.6468 89.8083 71.8942C89.8083 70.2951 89.818 68.6961 89.8019 67.097C89.7976 66.7266 89.9069 66.5824 90.3153 66.5936C91.2018 66.6182 92.0893 66.6018 93.0144 66.6018V77.6777V77.6767Z" fill="white"/>
<path d="M91.4483 62C92.4344 62.001 93.1719 62.6497 93.1665 63.5111C93.1612 64.3551 92.3862 65.0191 91.4204 65.0038C90.4835 64.9895 89.7161 64.3193 89.7086 63.508C89.7 62.6722 90.4771 61.999 91.4483 62Z" fill="white"/>
</g>
<defs>
<clipPath id="clip0_1642_18673">
<rect width="115" height="16" fill="white" transform="translate(12 62)"/>
</clipPath>
</defs>
</svg>
