<svg width="140" height="140" viewBox="0 0 140 140" fill="none" xmlns="http://www.w3.org/2000/svg">
<rect width="140" height="140" rx="30" fill="#D13539"/>
<g clip-path="url(#clip0_752_3451)">
<path d="M37.8626 82.3655C37.3707 84.2687 36.8825 86.0653 36.4572 87.8745C36.3365 88.3896 36.3329 88.9553 36.3888 89.4867C36.4608 90.1772 36.9257 90.4609 37.5401 90.1193C38.1095 89.803 38.659 89.4018 39.113 88.9373C41.6013 86.3906 43.331 83.3342 44.9364 80.1839C50.9038 68.4699 55.792 56.3059 60.0478 43.8762C60.9739 41.1723 61.9721 38.4919 62.9126 35.7916C63.0928 35.2746 63.318 35.009 63.9216 35.0108C69.1773 35.0325 74.4313 35.0234 79.6871 35.027C79.8889 35.027 80.0907 35.074 80.4114 35.1156C80.1069 36.1187 79.8384 37.0676 79.5339 38.0039C76.0583 48.7472 72.8205 59.5557 70.707 70.6678C70.0494 74.1254 69.5269 77.6101 68.9954 81.0912C68.9377 81.469 69.217 81.9009 69.3395 82.3076C69.7053 82.1468 70.208 82.0853 70.4152 81.8051C71.489 80.361 72.6458 78.944 73.4836 77.3625C76.4727 71.7287 79.451 66.0859 82.2348 60.3509C86.1374 52.3133 89.8743 44.1925 93.649 36.0916C94.0165 35.3018 94.4399 34.9909 95.3354 34.9999C100.319 35.0469 105.305 35.0234 110.29 35.0234C110.638 35.0234 110.987 35.0234 111.467 35.0234C111.33 35.4933 111.249 35.806 111.148 36.1115C108.009 45.5644 104.78 54.9883 101.753 64.4773C99.5407 71.4142 97.4939 78.4108 96.2777 85.6116C96.0633 86.8804 96.0399 88.1836 95.9714 89.4741C95.9534 89.8229 96.0381 90.1989 96.166 90.5278C96.5858 91.6177 97.3966 91.8255 98.139 90.9399C99.0038 89.9079 99.7245 88.7529 100.506 87.6522C100.833 87.1931 101.157 86.7322 101.618 86.0779C102.506 87.0214 103.317 87.851 104.079 88.724C104.189 88.8487 104.153 89.2608 104.029 89.4072C100.725 93.3004 97.9246 97.6328 94.0868 101.065C91.9067 103.014 89.5355 104.61 86.5122 104.924C82.1194 105.383 78.588 102.71 77.7231 98.3305C76.9736 94.5331 77.5682 90.826 78.388 87.1443C79.8384 80.6285 82.323 74.4471 84.6041 68.2006C85.078 66.9029 85.4671 65.5726 85.8653 64.246C85.9824 63.8537 85.9951 63.429 86.0545 63.0187C85.968 62.9735 85.8833 62.9265 85.7969 62.8813C85.5698 63.2175 85.2942 63.5302 85.123 63.8917C83.3843 67.5626 81.6708 71.2461 79.9339 74.917C76.8727 81.3949 73.7286 87.8293 69.862 93.8752C67.8476 97.0255 65.6909 100.069 62.8387 102.535C61.5793 103.623 60.2208 104.581 58.5343 104.873C54.8155 105.519 51.2335 103.142 49.9453 99.1601C48.9957 96.2212 49.1147 93.2028 49.5381 90.2079C50.1327 86.0074 50.8516 81.8232 51.5146 77.6318C51.5416 77.4565 51.5561 77.2811 51.4227 77.0245C51.257 77.3119 51.0894 77.5993 50.929 77.8884C48.2156 82.745 45.612 87.6703 42.7526 92.4383C40.459 96.2628 37.7311 99.8017 34.178 102.589C32.7006 103.747 31.1024 104.684 29.1799 104.92C25.6628 105.351 22.4809 103.473 21.135 100.134C20.0611 97.472 19.7729 94.665 20.1693 91.8762C20.5909 88.9102 21.3692 85.9948 21.9981 83.0595C22.1116 82.5263 22.3944 82.2697 23.0016 82.2715C27.7457 82.295 32.4915 82.2841 37.2356 82.2877C37.4374 82.2877 37.6392 82.3365 37.8626 82.3655Z" fill="white"/>
<path d="M110.776 94.4518C113.703 94.4482 116.011 96.7834 116 99.7367C115.989 102.654 113.719 104.966 110.831 104.998C107.949 105.031 105.551 102.654 105.533 99.7458C105.514 96.843 107.879 94.4554 110.776 94.4518Z" fill="white"/>
</g>
<defs>
<clipPath id="clip0_752_3451">
<rect width="96" height="70" fill="white" transform="translate(20 35)"/>
</clipPath>
</defs>
</svg>
