<svg width="140" height="140" viewBox="0 0 140 140" fill="none" xmlns="http://www.w3.org/2000/svg">
<rect width="140" height="140" rx="30" fill="#F60100"/>
<path d="M104.715 25.0187C104.374 23.9422 103.626 23.9629 102.775 24.0247C88.4333 25.0558 77.3635 31.7002 69.5862 43.7598C68.0776 46.0983 67.1815 48.8328 66.01 51.361C65.7345 50.8743 65.381 50.2557 65.0316 49.6329C62.964 45.9746 60.1441 43.0545 56.5514 40.8769C53.0821 38.7735 52.486 38.7198 50.4924 42.3369C45.8597 50.7547 45.2514 59.486 49.7402 68.1513C52.9711 74.3832 58.2779 78.5901 64.4233 81.7658C64.8919 82.0051 65.5167 82.0793 66.0511 82.0257C68.9038 81.7452 71.7771 81.5225 74.6011 81.0482C84.7091 79.349 93.3784 74.9194 99.4457 66.4727C108.629 53.6872 109.36 39.6602 104.715 25.0187ZM99.717 46.5355C99.6964 46.882 99.6677 47.2284 99.6348 47.5707C99.606 47.9131 99.5731 48.2554 99.5279 48.5977C99.458 49.2328 99.3676 49.8639 99.2607 50.4908C99.2484 50.5691 99.236 50.6434 99.2196 50.7217C99.1127 51.3569 98.9853 51.9879 98.8414 52.6148C98.8373 52.6272 98.8373 52.6396 98.8332 52.6561C98.7592 52.9695 98.6852 53.283 98.603 53.5964C98.5208 53.9181 98.4345 54.2398 98.344 54.5615C98.3358 54.5739 98.3317 54.5863 98.3317 54.5986C98.2577 54.8585 98.1755 55.1224 98.0933 55.3823C98.0727 55.4565 98.0481 55.5266 98.0275 55.5967C97.9371 55.8854 97.8384 56.17 97.7398 56.4546C97.5055 57.1269 97.2506 57.795 96.9793 58.4549C96.8642 58.723 96.7491 58.9911 96.6299 59.2592C96.4778 59.6015 96.3216 59.9356 96.1613 60.2738C96.0215 60.5625 95.8777 60.8512 95.7297 61.1358C95.6187 61.3502 95.5077 61.5647 95.3885 61.7792C95.3433 61.8658 95.2981 61.9524 95.2487 62.039C95.2364 62.0596 95.2241 62.0802 95.2118 62.1009C95.109 62.2865 95.0062 62.4762 94.8952 62.6618V62.6659C94.8623 62.7319 94.8254 62.7938 94.7842 62.8598C94.5746 63.2186 94.3609 63.5733 94.1389 63.928C94.1307 63.9445 94.1183 63.961 94.106 63.9775C87.8743 74.0492 78.1733 79.716 65.007 80.9946C60.1934 78.9901 56.1609 74.8452 53.0615 68.1554C52.9752 67.9245 52.8889 67.6894 52.8067 67.4584C52.7984 67.4295 52.7861 67.3966 52.7738 67.3677C52.6957 67.145 52.6217 66.9181 52.5518 66.6954C52.4532 66.382 52.3586 66.0685 52.2682 65.7551C52.1777 65.4416 52.0955 65.1323 52.0215 64.8188C51.9845 64.6621 51.9476 64.5054 51.9147 64.3486C51.8777 64.1919 51.8448 64.0393 51.816 63.8826C51.779 63.7259 51.7502 63.5691 51.7256 63.4124C51.6927 63.2598 51.6639 63.1031 51.6434 62.9464C51.5653 62.4803 51.5036 62.0143 51.4584 61.5523C51.4255 61.2512 51.3967 60.9502 51.3803 60.6491V60.5914C51.3597 60.2944 51.3474 59.9933 51.3433 59.6964C51.3227 58.7395 51.3638 57.7868 51.4666 56.8341C51.5242 56.302 51.5982 55.77 51.6968 55.242C51.8407 54.4419 52.0257 53.6459 52.26 52.854C52.8766 50.73 53.8055 48.6101 55.0552 46.4819C56.9091 47.8141 58.6396 49.0473 60.3538 50.2969C60.6826 50.5361 60.9662 50.8455 61.2663 51.1259C65.0481 54.6894 65.1344 54.9946 64.2424 60.0469C64.0697 61.0244 64.041 62.0266 64.1684 63.1567C68.949 45.6776 80.2779 36.1009 98.1426 33.9562C99.4991 38.2497 99.9883 42.3617 99.7211 46.5355H99.717Z" fill="white"/>
<path d="M53.0576 68.1555C52.9712 67.9245 52.8849 67.6894 52.8027 67.4584C52.7945 67.4296 52.7822 67.3966 52.7698 67.3677C52.6958 67.145 52.6177 66.9182 52.5479 66.6954L53.0576 68.1555Z" fill="black"/>
<path d="M65.0028 80.9946C60.1893 78.9902 56.1568 74.8452 53.0574 68.1555L52.5476 66.6954C52.449 66.382 52.3544 66.0685 52.264 65.7551C52.1777 65.4416 52.0955 65.1282 52.0174 64.8189C51.9804 64.6621 51.9434 64.5054 51.9105 64.3487C51.8735 64.192 51.8406 64.0352 51.8118 63.8826C51.779 63.7259 51.7502 63.5692 51.7214 63.4125C51.6926 63.2599 51.6639 63.1031 51.6392 62.9464C51.5652 62.4803 51.5035 62.0184 51.4542 61.5524C51.4213 61.2513 51.3967 60.9502 51.3761 60.6491V60.5914C51.3597 60.2944 51.3473 59.9934 51.3391 59.6964C51.3186 58.7396 51.3597 57.7868 51.4624 56.8341C51.52 56.302 51.5981 55.77 51.6926 55.2421C51.8365 54.442 52.0256 53.646 52.2558 52.8541C52.8724 50.73 53.8014 48.6101 55.051 46.4819C56.9049 47.8141 58.6355 49.0473 60.3496 50.297C60.6784 50.5362 60.9621 50.8455 61.2621 51.126C65.0439 54.6894 65.1302 54.9946 64.2382 60.047C64.0656 61.0244 64.0368 62.0267 64.1642 63.1567C63.079 70.5765 63.3175 76.5692 65.0028 80.9946Z" fill="url(#paint0_linear_836_1046)"/>
<path d="M65.0029 80.9946C67.7118 80.7101 70.3467 80.2605 72.8912 79.5841C70.4166 80.2564 67.7858 80.7266 65.0029 80.9946Z" fill="black"/>
<path d="M99.7169 46.5356C99.6922 46.882 99.6676 47.2284 99.6347 47.5708C99.6059 47.9131 99.5689 48.2554 99.5278 48.5977C99.4538 49.2329 99.3634 49.8639 99.2606 50.4908C99.2483 50.5692 99.236 50.6434 99.2195 50.7218C99.1085 51.3569 98.9852 51.988 98.8413 52.6149C98.8372 52.6272 98.8372 52.6396 98.8331 52.6561C98.7591 52.9696 98.6851 53.283 98.6029 53.5965C98.5207 53.9182 98.4344 54.2399 98.344 54.5616C98.3357 54.5739 98.3316 54.5863 98.3316 54.5987C98.2576 54.8626 98.1754 55.1225 98.0932 55.3823C98.0727 55.4566 98.048 55.5267 98.0274 55.5968C97.937 55.8855 97.8425 56.1701 97.7397 56.4547C97.5054 57.1269 97.2505 57.7951 96.9792 58.455C96.8641 58.7272 96.749 58.9953 96.6298 59.2592C96.4777 59.6015 96.3215 59.9356 96.1612 60.2738C96.0215 60.5625 95.8776 60.8512 95.7296 61.1358C95.6186 61.3544 95.5035 61.5689 95.3884 61.7792C95.3432 61.8658 95.298 61.9524 95.2487 62.039C95.2363 62.0597 95.224 62.0803 95.2117 62.1009C95.1089 62.2906 95.0061 62.4762 94.8951 62.6618V62.6659C94.8623 62.7319 94.8253 62.7938 94.7842 62.8598C94.6814 63.0413 94.5745 63.2186 94.4635 63.396C94.3567 63.5733 94.2498 63.7507 94.1388 63.928C94.1306 63.9445 94.1182 63.961 94.1059 63.9775C91.2655 68.572 87.7016 72.2468 83.4142 75.0102C83.2416 75.1215 83.073 75.2329 82.8963 75.3401C82.6537 75.4927 82.4071 75.6412 82.1564 75.7855C81.8522 75.9629 81.548 76.1361 81.2356 76.3052C80.9766 76.4454 80.7176 76.5816 80.4546 76.7177C79.5585 77.1755 78.6336 77.6003 77.684 77.988C77.273 78.1571 76.8619 78.3179 76.4426 78.4705C76.1795 78.5695 75.9164 78.6602 75.6534 78.7468C75.5136 78.8005 75.3738 78.8458 75.2341 78.8912C75.0368 78.9572 74.8395 79.0191 74.6422 79.0809C74.3462 79.1758 74.0502 79.2624 73.7502 79.349C73.4665 79.4315 73.1829 79.5099 72.8951 79.5841C70.3507 80.2605 67.7158 80.71 65.0069 80.9946C63.3215 76.5692 63.0831 70.5765 64.1683 63.1567C68.949 45.6777 80.2778 36.1009 98.1425 33.9562C99.499 38.2497 99.9882 42.3617 99.721 46.5356H99.7169Z" fill="url(#paint1_linear_836_1046)"/>
<path d="M80.4507 76.7177C79.5464 77.1837 78.6215 77.6085 77.6802 77.988C78.6297 77.6003 79.5546 77.1755 80.4507 76.7177Z" fill="black"/>
<g clip-path="url(#clip0_836_1046)">
<path d="M97.4717 106.157C97.5858 106.028 97.6565 105.954 97.7216 105.875C100.351 102.671 102.977 99.4635 105.617 96.2697C105.775 96.0792 106.049 95.8888 106.281 95.8735C107.536 95.7897 108.794 95.7374 110.052 95.724C110.575 95.7183 111.102 95.824 111.624 95.9059C111.939 95.9554 112.048 96.123 111.982 96.4877C110.899 102.405 109.835 108.325 108.766 114.244C108.749 114.337 108.725 114.43 108.709 114.523C108.587 115.241 108.575 115.297 107.838 115.401C106.234 115.626 104.623 115.624 103.017 115.399C102.902 115.383 102.788 115.344 102.678 115.303C102.49 115.232 102.42 115.123 102.461 114.893C103.011 111.762 103.551 108.628 104.091 105.495C104.103 105.431 104.101 105.365 104.109 105.22C103.968 105.382 103.873 105.483 103.786 105.588C101.225 108.68 98.6609 111.768 96.1108 114.869C95.8505 115.185 95.5581 115.366 95.1658 115.412C93.4984 115.606 91.832 115.625 90.1655 115.399C90.0392 115.382 89.9137 115.339 89.793 115.294C89.6204 115.23 89.545 115.127 89.5836 114.913C90.3475 110.747 91.102 106.58 91.8584 102.412C92.2224 100.403 92.5902 98.397 92.9439 96.3868C92.9873 96.1392 93.0929 95.9859 93.323 95.9392C93.7257 95.8583 94.1322 95.7421 94.5387 95.7383C95.7618 95.7278 96.986 95.765 98.2101 95.784C98.245 95.784 98.2808 95.7878 98.3157 95.7936C99.1343 95.9126 99.2088 96.0297 99.0646 96.8467C98.5308 99.8729 98.0026 102.9 97.4745 105.927C97.4651 105.979 97.4736 106.033 97.4736 106.157H97.4717Z" fill="white"/>
<path d="M39.0505 95.0603C40.3662 95.0613 41.661 95.2098 42.9087 95.6431C45.8559 96.6658 47.5884 98.7797 48.0873 101.839C49.0077 107.477 45.5569 113.338 40.2313 115.267C37.7434 116.168 35.1971 116.231 32.663 115.496C29.3744 114.542 27.3449 112.133 27.0563 108.672C26.7319 104.795 27.7985 101.321 30.5448 98.5064C32.8676 96.1249 35.7535 95.0479 39.0515 95.0613L39.0505 95.0603ZM33.4448 107.348C33.4759 107.688 33.4938 108.08 33.5514 108.467C33.8041 110.17 34.8943 111.115 36.5966 111.123C37.8255 111.128 38.8195 110.598 39.5843 109.674C41.2574 107.654 41.9176 105.299 41.5997 102.702C41.3734 100.853 40.1615 99.8739 38.3234 99.91C37.0059 99.9358 36.0204 100.595 35.2508 101.618C33.9899 103.295 33.5627 105.244 33.4448 107.349V107.348Z" fill="white"/>
<path d="M58.8991 103.178C59.8157 102.191 60.7324 101.202 61.6491 100.215C62.7601 99.0169 63.8984 97.8437 64.9688 96.6096C65.4404 96.0659 65.9921 95.8107 66.656 95.7993C68.2083 95.7717 69.7616 95.7821 71.3149 95.7926C71.545 95.7945 71.7808 95.864 72.0024 95.9383C72.2966 96.0364 72.324 96.1678 72.1118 96.4011C71.4639 97.1086 70.8113 97.8104 70.1605 98.515C68.4648 100.349 66.7729 102.187 65.0678 104.012C64.8764 104.218 64.8471 104.366 64.966 104.626C66.4825 107.946 67.9858 111.272 69.4909 114.596C69.6814 115.016 69.6513 115.149 69.1957 115.256C68.6374 115.389 68.0612 115.504 67.4916 115.511C66.009 115.53 64.5256 115.485 63.0421 115.464C62.9836 115.464 62.9251 115.454 62.8657 115.451C62.2452 115.415 61.8773 115.142 61.6321 114.51C60.6098 111.868 59.5243 109.252 58.4605 106.627C58.4181 106.521 58.369 106.419 58.2521 106.321C58.1267 107.012 57.9975 107.702 57.8749 108.394C57.4939 110.543 57.111 112.693 56.7394 114.844C56.6932 115.113 56.5347 115.252 56.3093 115.301C55.8736 115.394 55.4304 115.508 54.989 115.512C53.73 115.524 52.4691 115.515 51.2119 115.456C50.2518 115.412 50.1556 115.261 50.3197 114.335C51.0582 110.165 51.8042 105.995 52.5473 101.825C52.8652 100.038 53.1915 98.2522 53.4895 96.4611C53.548 96.1106 53.7017 95.9288 54.0299 95.8745C54.3081 95.8288 54.5891 95.7545 54.8673 95.7583C56.3131 95.7793 57.7589 95.8212 59.2037 95.8574C59.2725 95.8593 59.3423 95.8831 59.4102 95.9021C59.9968 96.0602 60.0506 96.1554 59.944 96.7505C59.58 98.7826 59.2216 100.816 58.8623 102.849C58.8444 102.951 58.8387 103.055 58.8274 103.159C58.851 103.167 58.8745 103.174 58.8981 103.182L58.8991 103.178Z" fill="white"/>
<path d="M79.6304 103.084H80.1066C82.0852 103.084 84.0648 103.084 86.0434 103.084C86.5461 103.084 86.7356 103.208 86.7356 103.72C86.7356 104.903 86.5744 106.063 86.0208 107.132C85.8369 107.487 85.5615 107.65 85.1361 107.646C83.1575 107.627 81.178 107.645 79.1994 107.63C78.8985 107.628 78.7938 107.724 78.7476 108.013C78.6184 108.821 78.46 109.624 78.3166 110.43C78.3006 110.522 78.3044 110.616 78.2968 110.756C78.4562 110.756 78.5939 110.756 78.7316 110.756C81.1817 110.756 83.6319 110.756 86.0821 110.756C86.629 110.756 86.8365 110.901 86.8299 111.455C86.8167 112.647 86.6639 113.822 86.166 114.924C85.9689 115.36 85.6756 115.567 85.1493 115.563C81.1799 115.532 77.2104 115.545 73.2409 115.521C72.6581 115.517 72.0686 115.423 71.4943 115.312C71.0435 115.224 70.9869 115.07 71.0661 114.626C71.8112 110.445 72.5543 106.263 73.2965 102.082C73.6323 100.19 73.9709 98.298 74.2934 96.404C74.3453 96.0973 74.5065 95.9136 74.7791 95.8736C75.394 95.785 76.0145 95.6831 76.6332 95.6803C80.7206 95.6631 84.8079 95.6707 88.8953 95.6717C89.3074 95.6717 89.464 95.7898 89.4744 96.2088C89.5036 97.361 89.3235 98.4798 88.8529 99.5378C88.6416 100.013 88.3068 100.238 87.7466 100.231C85.3436 100.202 82.9406 100.224 80.5376 100.212C80.2302 100.21 80.1095 100.298 80.0632 100.609C79.9425 101.417 79.785 102.219 79.6313 103.084H79.6304Z" fill="white"/>
<path d="M49.7396 97.638C48.5834 97.6361 48.4947 97.5342 48.6909 96.6001C49.0342 94.9632 49.3954 93.3301 49.7255 91.6903C49.7887 91.3752 49.9603 91.2218 50.2281 91.179C50.6686 91.1085 51.1156 91.0428 51.5598 91.0438C52.1577 91.0438 52.7575 91.1019 53.3545 91.1514C53.4894 91.1628 53.6252 91.2295 53.7506 91.2914C53.9666 91.399 54.026 91.5418 53.8826 91.777C52.7792 93.5881 51.6814 95.4031 50.5931 97.2238C50.3385 97.6494 49.9471 97.6418 49.7396 97.639V97.638Z" fill="white"/>
<path d="M104.375 91C104.896 91.0514 105.388 91.0905 105.878 91.1533C106.026 91.1724 106.174 91.239 106.305 91.3133C106.48 91.4123 106.541 91.5456 106.416 91.7523C105.302 93.5844 104.199 95.4241 103.08 97.2533C102.994 97.3933 102.827 97.5571 102.684 97.5704C102.267 97.6114 101.842 97.6095 101.425 97.5685C101.152 97.5419 101.047 97.3419 101.11 97.0448C101.489 95.2822 101.867 93.5196 102.223 91.7523C102.297 91.3895 102.49 91.2028 102.821 91.159C103.345 91.0895 103.873 91.0495 104.376 91H104.375Z" fill="white"/>
</g>
<defs>
<linearGradient id="paint0_linear_836_1046" x1="58.1684" y1="46.4819" x2="58.1684" y2="80.9946" gradientUnits="userSpaceOnUse">
<stop stop-color="#26933A"/>
<stop offset="1" stop-color="#8FBB1E"/>
</linearGradient>
<linearGradient id="paint1_linear_836_1046" x1="81.6502" y1="33.9562" x2="81.6502" y2="80.9946" gradientUnits="userSpaceOnUse">
<stop stop-color="#009C37"/>
<stop offset="1" stop-color="#8FBB1E"/>
</linearGradient>
<clipPath id="clip0_836_1046">
<rect width="85" height="25" fill="white" transform="translate(27 91)"/>
</clipPath>
</defs>
</svg>
