<svg width="140" height="140" viewBox="0 0 140 140" fill="none" xmlns="http://www.w3.org/2000/svg">
<rect width="140" height="140" rx="30" fill="#2CB8F6"/>
<g clip-path="url(#clip0_686_223)">
<path d="M61.1487 82.3745C55.6808 83.5034 50.9782 82.004 46.979 78.465C41.4357 74.0289 39.4873 64.196 41.9154 51.9275C41.9733 51.6311 42.0339 51.3347 42.0986 51.0357C42.1027 51.0155 42.1067 50.9953 42.1107 50.975C43.4097 44.9479 45.3594 39.1309 47.8225 33.4782C47.8845 33.3368 47.964 33.2021 48.0691 33C51.2356 33.5577 54.4047 34.1154 57.6507 34.6866C56.7654 39.7277 55.8923 44.7 55.0017 49.7653C55.3399 49.7478 55.5797 49.7491 55.8142 49.7195C64.3434 48.6135 72.5089 54.5517 74.0665 62.9984C75.7319 72.0189 70.1401 80.5154 61.1487 82.3745Z" fill="white"/>
<path d="M32.885 98.3275C33.4671 98.7949 34.0842 99.1587 34.5262 99.6719C35.8736 101.236 36.0151 103.057 35.3077 104.915C34.634 106.684 33.1976 107.605 31.357 107.692C29.0731 107.799 26.7798 107.729 24.4919 107.745C23.9111 107.749 24.0081 107.343 24.0068 106.995C24.0041 102.327 24.0054 97.6606 24.0041 92.9927C24.0041 91.7579 24.6239 91.1409 25.8635 91.1418C27.1652 91.1445 28.4776 91.0475 29.7657 91.1849C34.2971 91.6671 34.9911 96.0346 32.885 98.3261V98.3275ZM26.5022 105.387C28.0733 105.387 29.6013 105.484 31.1105 105.358C32.5253 105.241 33.2758 104.243 33.2812 102.831C33.2866 101.535 32.4781 100.39 31.2438 100.296C29.6889 100.176 28.1178 100.266 26.5022 100.266V105.387ZM26.4497 95.6399H26.4524C26.4524 96.2219 26.4591 96.8025 26.4497 97.3845C26.4443 97.7145 26.5602 97.8721 26.9172 97.864C27.789 97.8452 28.6635 97.891 29.534 97.8398C30.7884 97.7657 31.5309 96.9359 31.5389 95.6897C31.547 94.418 30.8531 93.6097 29.5798 93.5101C28.712 93.4427 27.8362 93.4912 26.9644 93.4602C26.5319 93.4454 26.4322 93.6515 26.4443 94.0301C26.4618 94.5662 26.4483 95.1037 26.4483 95.6399H26.4497Z" fill="#05454F"/>
<path d="M53.4764 91.0703C55.6956 91.1458 57.8003 91.0447 59.8511 91.329C62.6093 91.7116 64.0685 94.2712 63.1833 96.8307C62.9973 97.3683 62.6416 97.8478 62.3303 98.415C62.4678 98.5012 62.6645 98.6265 62.8653 98.7491C64.6722 99.847 65.4807 101.857 65.0212 104.113C64.6264 106.051 63.0701 107.541 60.9694 107.666C58.6222 107.806 56.2602 107.733 53.9062 107.721C53.7634 107.721 53.5855 107.458 53.4912 107.283C53.4265 107.161 53.4764 106.976 53.4764 106.819C53.4764 101.883 53.4764 96.9479 53.4764 92.012V91.069V91.0703ZM55.9031 105.405C57.458 105.405 58.9362 105.478 60.4049 105.385C61.8641 105.294 62.6281 104.383 62.7009 102.905C62.7629 101.643 61.98 100.432 60.7431 100.319C59.1544 100.173 57.5416 100.283 55.9017 100.283V105.407L55.9031 105.405ZM55.9085 93.576V97.7845C57.0861 97.7845 58.2315 97.8829 59.3525 97.7562C60.3954 97.639 60.9923 96.7607 61.0045 95.6884C61.0166 94.6362 60.4642 93.7296 59.467 93.6084C58.3042 93.4682 57.1131 93.576 55.9085 93.576Z" fill="#05454F"/>
<path d="M82.709 99.7258C82.7494 97.0153 83.2547 94.81 84.9296 93.0008C88.1176 89.5575 95.2428 90.3348 96.76 95.551C97.1724 96.9682 97.1899 96.9277 95.7239 96.9776C94.9882 97.0018 94.5772 96.8469 94.3158 96.0588C93.7539 94.3655 92.4698 93.4467 90.7047 93.2662C88.7994 93.0709 87.2512 93.7256 86.2312 95.392C85.2516 96.9938 85.0495 98.7801 85.319 100.584C85.4672 101.581 85.7731 102.613 86.2581 103.491C87.1676 105.139 88.7051 105.804 90.5686 105.651C92.3634 105.502 93.7068 104.621 94.2835 102.901C94.5799 102.017 95.0461 101.877 95.8505 101.915C97.1454 101.974 97.1481 101.932 96.8126 103.193C96.0055 106.22 93.1314 108.151 89.6981 107.972C86.0533 107.782 83.473 105.353 82.8855 101.535C82.7764 100.828 82.7467 100.11 82.7103 99.7285L82.709 99.7258Z" fill="#05454F"/>
<path d="M78.9916 107.745C78.9499 107.36 78.9189 107.081 78.8812 106.731C78.6912 106.841 78.5551 106.902 78.4392 106.99C77.0635 108.039 75.4937 108.183 73.8903 107.821C71.888 107.368 70.806 105.896 70.872 103.932C70.934 102.108 72.214 100.601 74.188 100.34C75.3846 100.181 76.6269 100.345 77.8477 100.391C78.1724 100.403 78.4944 100.519 78.8151 100.587C79.0321 99.6625 78.6642 98.6669 77.9568 98.1658C76.7684 97.3265 74.9103 97.6445 74.021 98.7963C73.8687 98.993 73.517 99.1452 73.265 99.1331C72.7112 99.1075 72.1628 98.9647 71.5376 98.8569C71.5861 98.6589 71.6023 98.4864 71.6683 98.3369C72.051 97.4666 72.6466 96.7648 73.486 96.3242C75.3199 95.3624 77.2049 95.3489 79.0482 96.2542C80.5264 96.9803 81.1448 98.3207 81.1799 99.8942C81.2324 102.295 81.1866 104.698 81.2014 107.1C81.2041 107.549 81.0788 107.771 80.5964 107.749C80.0844 107.725 79.571 107.744 78.9916 107.744V107.745ZM76.0205 102.145C75.4317 102.285 74.7661 102.337 74.1988 102.601C73.0279 103.144 72.9551 104.78 74.0277 105.458C75.3617 106.301 78.5497 105.725 78.8488 103.228C78.8933 102.853 78.807 102.676 78.4581 102.609C77.6725 102.456 76.8856 102.31 76.0205 102.145Z" fill="#05454F"/>
<path d="M49.4006 106.746C49.2106 106.864 49.0772 106.934 48.9573 107.023C47.5951 108.042 46.0455 108.175 44.4677 107.826C42.4856 107.388 41.4184 105.96 41.4669 104.012C41.5141 102.11 42.7497 100.715 44.7331 100.305C45.9849 100.046 47.2245 100.1 48.4615 100.395C48.7417 100.463 49.0247 100.519 49.3009 100.58C49.6822 99.5358 49.1379 98.3733 48.0896 97.9327C46.7947 97.3898 45.4176 97.7657 44.5377 98.8677C44.4124 99.0253 44.1375 99.1681 43.9475 99.1519C43.3506 99.1007 42.7605 98.97 42.0692 98.8528C42.336 97.8223 42.9289 97.0988 43.7185 96.5317C45.3799 95.3408 48.2795 95.3112 49.9719 96.4536C51.0485 97.1797 51.6562 98.2237 51.6859 99.5022C51.7465 102.081 51.7142 104.66 51.7317 107.24C51.7357 107.873 51.256 107.815 50.9353 107.725C50.4395 107.585 49.6701 108.248 49.4545 107.259C49.4235 107.115 49.4222 106.965 49.4006 106.746ZM46.5804 102.152C45.9943 102.287 45.3691 102.361 44.7978 102.579C44.2224 102.799 43.8977 103.281 43.8707 103.936C43.8438 104.592 44.0432 105.124 44.6199 105.475C46.3527 106.534 49.1203 105.265 49.4316 103.277C49.4895 102.905 49.3844 102.668 48.9937 102.597C48.2068 102.452 47.4212 102.307 46.5791 102.152H46.5804Z" fill="#05454F"/>
<path d="M106.465 106.73C105.124 107.817 103.704 108.077 102.18 107.943C100.102 107.76 98.5862 106.351 98.4878 104.511C98.3692 102.288 99.6021 100.732 101.796 100.3C103.05 100.053 104.287 100.108 105.523 100.403C105.8 100.469 106.081 100.521 106.358 100.579C106.73 99.1021 105.777 98.0729 104.803 97.8169C103.526 97.4828 102.37 97.8533 101.568 98.8636C101.443 99.0226 101.168 99.1681 100.977 99.1519C100.38 99.1007 99.7894 98.9687 99.1036 98.8515C99.2114 98.5511 99.2693 98.2965 99.3879 98.0742C99.9875 96.9439 100.915 96.1357 102.149 95.8905C103.139 95.6924 104.212 95.6183 105.205 95.7719C107.452 96.1195 108.704 97.6377 108.761 99.9818C108.819 102.358 108.769 104.736 108.781 107.114C108.784 107.572 108.619 107.783 108.152 107.748C107.929 107.731 107.703 107.739 107.479 107.748C106.851 107.775 106.203 107.833 106.465 106.728V106.73ZM103.658 102.168C103.653 102.202 103.647 102.234 103.643 102.268C103.352 102.268 103.057 102.24 102.769 102.273C101.253 102.451 100.447 103.664 101.069 104.854C101.503 105.684 102.304 105.815 103.147 105.81C104.772 105.799 106.105 104.853 106.4 103.506C106.509 103.005 106.463 102.632 105.831 102.547C105.102 102.448 104.381 102.299 103.658 102.171V102.168Z" fill="#05454F"/>
<path d="M39.7015 99.4618C39.7015 101.994 39.688 104.527 39.7123 107.06C39.7177 107.592 39.5452 107.755 39.0224 107.758C37.454 107.764 37.454 107.783 37.454 106.208C37.454 101.569 37.4661 96.9291 37.4405 92.2895C37.4365 91.6819 37.5833 91.4327 38.2166 91.3438C39.7082 91.135 39.7029 91.0986 39.7029 92.6021C39.7029 94.8882 39.7029 97.1743 39.7029 99.4604L39.7015 99.4618Z" fill="#05454F"/>
<path d="M69.1591 99.4308C69.1591 101.919 69.1362 104.407 69.174 106.894C69.1847 107.588 68.9503 107.782 68.2833 107.76C66.5545 107.705 66.8375 107.927 66.8335 106.28C66.8213 101.619 66.8402 96.9561 66.8159 92.2949C66.8133 91.6712 66.9952 91.3735 67.6244 91.3627C67.8467 91.3586 68.0664 91.2967 68.2873 91.2603C69.1551 91.1202 69.1578 91.1202 69.1578 92.0349C69.1591 94.5002 69.1578 96.9655 69.1578 99.4308H69.1591Z" fill="#05454F"/>
<path d="M112.859 96.8955C113.083 96.7244 113.238 96.6045 113.394 96.4859C114.173 95.8972 115.052 95.6103 116.026 95.6237C116.969 95.6372 116.996 95.6696 117 96.6166C117 96.6395 117 96.6611 117 96.684C117.001 97.4653 116.613 97.8744 115.835 97.9112C114.006 97.9974 112.811 99.2718 112.775 101.24C112.742 102.966 112.775 104.691 112.762 106.417C112.753 107.9 112.969 107.736 111.443 107.747C110.485 107.754 110.485 107.747 110.485 106.804C110.485 103.397 110.5 99.9912 110.472 96.5843C110.466 95.9834 110.646 95.7558 111.233 95.8433C111.365 95.8635 111.501 95.846 111.636 95.846C112.326 95.846 112.734 96.1963 112.859 96.8968V96.8955Z" fill="#05454F"/>
<path d="M42.0988 51.0356C42.0341 51.3347 41.9735 51.6311 41.9155 51.9275C41.9209 51.8884 41.9277 51.848 41.9357 51.8062C41.9883 51.5489 42.0422 51.2916 42.0988 51.0356Z" fill="black"/>
<path d="M67.2255 51.8063C64.9457 61.1892 64.66 69.9888 70.8636 77.0788L81.0152 68.938L73.7673 54.7673L67.2242 51.8063H67.2255Z" fill="#99EF66"/>
<path d="M73.359 33C76.5255 33.5577 79.6947 34.1154 82.9406 34.688C82.0554 39.729 81.1822 44.7014 80.2916 49.7667C80.6284 49.7478 80.8683 49.7505 81.1041 49.7195C89.6334 48.6135 97.7988 54.5531 99.3564 62.9984C101.021 72.0189 95.43 80.5154 86.4372 82.3731C80.4048 83.6192 75.3047 81.6645 71.0509 77.3038C70.8393 77.0869 70.5806 76.7488 70.5806 76.7488C70.5806 76.7488 70.8339 76.3285 71.0239 76.0752C73.2687 72.6413 74.5582 69.2707 74.3171 65.3034C74.0044 60.1599 71.7542 55.9851 67.6311 52.8611C67.4384 52.7156 67.0732 52.4408 67.0732 52.4408C67.0732 52.4408 67.1541 52.0959 67.2242 51.8062C68.519 45.4814 70.5348 39.3909 73.1111 33.4782C73.1731 33.3368 73.2526 33.2021 73.3563 32.9987L73.359 33Z" fill="#05454F"/>
</g>
<defs>
<clipPath id="clip0_686_223">
<rect width="93" height="75" fill="white" transform="translate(24 33)"/>
</clipPath>
</defs>
</svg>
