<svg width="140" height="140" viewBox="0 0 140 140" fill="none" xmlns="http://www.w3.org/2000/svg">
<g clip-path="url(#clip0_812_398)">
<rect width="140" height="140" rx="30" fill="white"/>
<rect x="-6" width="151" height="142" fill="url(#paint0_radial_812_398)"/>
<path fill-rule="evenodd" clip-rule="evenodd" d="M89.5124 61.88C92.8367 59.6993 96.7326 58.4314 101.044 58.4314C112.575 58.4314 121.769 67.2557 121.769 78.5649C121.769 89.8743 112.368 98.8 100.992 98.8C89.6162 98.8 80.3183 89.8235 80.3183 78.6663V42H89.5124V61.88ZM89.5124 78.6157C89.5124 84.9549 94.7587 89.8234 100.992 89.8234C107.329 89.8234 112.575 84.7522 112.575 78.6157C112.575 72.4793 107.641 67.4586 101.044 67.4586C94.447 67.4586 89.5124 72.2764 89.5124 78.6157ZM52.3999 59.8512L60.8148 81.2526L69.2818 59.8512H79.255L64.5029 97.4812H58.0619L49.1274 75.0655L40.2451 97.4812H33.804L19 59.8512H29.0252L37.492 81.2526L45.959 59.8512H52.3999Z" fill="white"/>
</g>
<defs>
<radialGradient id="paint0_radial_812_398" cx="0" cy="0" r="1" gradientUnits="userSpaceOnUse" gradientTransform="translate(-6 30.175) rotate(28.9199) scale(172.513 167.192)">
<stop offset="0.747349" stop-color="#DC1FBA"/>
<stop offset="1" stop-color="#9C09C8"/>
</radialGradient>
<clipPath id="clip0_812_398">
<rect width="140" height="140" rx="30" fill="white"/>
</clipPath>
</defs>
</svg>
