<svg width="140" height="140" viewBox="0 0 140 140" fill="none" xmlns="http://www.w3.org/2000/svg">
<rect width="140" height="140" rx="30" fill="white"/>
<g clip-path="url(#clip0_1558_22043)">
<path d="M71.2244 30.0061C79.6908 30.0061 88.1566 30.0047 96.623 30.0074C97.4511 30.0074 98.2791 30.0169 99.1065 30.0459C100.405 30.0917 101.303 30.7999 101.989 31.8339C102.136 32.0558 102.3 32.2655 102.405 32.5164C102.578 32.9245 102.703 33.3386 102.704 33.7858C102.71 35.6224 102.718 37.4583 102.724 39.2948C102.729 41.1146 102.726 42.9336 102.745 44.7533C102.748 45.0872 102.645 45.3266 102.406 45.5512C101.693 46.225 100.907 46.8057 100.099 47.3581C98.5132 48.4433 96.8564 49.4125 95.1415 50.2786C93.5429 51.0859 91.8672 51.7105 90.1584 52.2433C88.6904 52.7012 87.1865 53.0149 85.6793 53.3184C82.3177 53.9956 78.921 54.1176 75.5094 53.9895C73.8898 53.9288 72.2872 53.692 70.6893 53.4115C68.8749 53.0931 67.0802 52.7053 65.3294 52.132C63.3858 51.496 61.4997 50.7251 59.6711 49.8044C58.5535 49.2419 57.4894 48.5944 56.4489 47.9125C54.6054 46.7045 52.9311 45.2841 51.3751 43.7214C50.5654 42.908 49.7556 42.0919 49.0642 41.18C48.3329 40.2162 47.5827 39.2665 46.9122 38.2535C45.8305 36.6192 44.8861 34.9108 43.9999 33.17C43.5432 32.2716 43.1976 31.3166 42.8106 30.3838C42.6827 30.0755 42.7159 30.0297 43.0372 30.0101C43.2564 29.9966 43.4763 30.0007 43.6961 30.0007C52.8729 30 62.049 30 71.2244 30V30.0061ZM74.3323 45.2086C74.3627 41.9691 71.7934 39.2186 68.3499 39.2591C65.3185 39.2948 62.4968 41.7991 62.4968 45.3853C62.4968 48.0872 64.9106 51.1796 68.3608 51.1776C71.7453 51.1756 74.3695 48.6113 74.3323 45.2086Z" fill="#FC6E06"/>
<path d="M106.05 98.5678C103.65 98.5678 101.251 98.5678 98.8503 98.5678C98.7488 98.5678 98.6473 98.5678 98.5458 98.5637C98.0588 98.5442 98.031 98.5273 98.0425 98.0309C98.0574 97.3922 97.9985 96.7508 98.1108 96.1147C98.2184 95.5104 98.351 95.3937 98.9788 95.3829C99.0634 95.3816 99.1479 95.3843 99.2318 95.3775C99.4293 95.3627 99.4862 95.242 99.4625 95.0632C99.4436 94.9223 99.3576 94.8164 99.2731 94.7118C98.3199 93.5349 97.3782 92.3485 96.4067 91.1864C95.8676 90.5416 95.3453 89.884 94.8224 89.2271C94.6972 89.0699 94.5565 88.8359 94.359 88.8966C94.135 88.9647 94.2074 89.2419 94.2061 89.4361C94.1973 91.1041 94.1946 92.7727 94.1898 94.4407C94.1898 94.5756 94.1892 94.7105 94.1986 94.8447C94.2277 95.2352 94.3407 95.3533 94.7229 95.3769C94.9421 95.3903 95.1626 95.3755 95.3818 95.3843C96.034 95.4099 96.2342 95.6028 96.2451 96.2402C96.2552 96.8465 96.2566 97.4535 96.2451 98.0599C96.2369 98.4828 96.1659 98.5421 95.7343 98.5678C95.6335 98.5738 95.5313 98.5711 95.4299 98.5705C92.895 98.5671 90.3595 98.563 87.8246 98.559C87.7231 98.559 87.6217 98.557 87.5202 98.555C87.3159 98.5502 87.2009 98.4416 87.2029 98.2413C87.2097 97.4832 87.2178 96.7251 87.2408 95.9677C87.2489 95.6993 87.4207 95.5596 87.6832 95.4895C88.0526 95.3917 88.4233 95.451 88.7927 95.4389C89.2541 95.4234 89.3217 95.3674 89.3515 94.9189C89.3616 94.7678 89.3603 94.6161 89.3603 94.4643C89.3535 90.4876 89.3467 86.511 89.34 82.5343C89.34 82.4669 89.342 82.3994 89.34 82.332C89.3231 81.8895 89.1668 81.731 88.7257 81.7135C88.3726 81.6993 88.0181 81.7364 87.6738 81.6062C87.2618 81.4504 87.2293 81.4376 87.2219 80.9979C87.211 80.3409 87.2103 79.6833 87.2246 79.0264C87.234 78.5914 87.2489 78.5873 87.6947 78.5873C89.8582 78.5873 92.0216 78.5893 94.1844 78.5907C94.7419 78.5907 95.3 78.5867 95.8574 78.5927C96.2173 78.5968 96.2322 78.6042 96.2396 78.9596C96.2538 79.5997 96.2606 80.2404 96.2471 80.8805C96.2369 81.3553 95.8824 81.6838 95.4014 81.7C95.1823 81.7074 94.961 81.6899 94.7425 81.7094C94.2778 81.7519 94.154 81.8814 94.1479 82.3495C94.1377 83.057 94.1438 83.7645 94.1438 84.4727C94.1438 85.3489 94.1432 86.225 94.1459 87.1011C94.1459 87.2131 94.1073 87.35 94.2352 87.4188C94.3617 87.4869 94.4658 87.3932 94.5545 87.3244C94.7134 87.2003 94.865 87.0647 95.0084 86.9231C96.3533 85.595 97.6948 84.2636 99.0404 82.9363C99.2562 82.7232 99.4875 82.5262 99.7067 82.3165C99.8292 82.1991 99.9591 82.0669 99.8968 81.8794C99.8292 81.675 99.6309 81.6852 99.4679 81.6966C99.0647 81.7249 98.7704 81.586 98.6372 81.1941C98.5952 81.07 98.5918 80.9298 98.5891 80.7962C98.5797 80.3254 98.6169 79.8526 98.537 79.3839C98.5289 79.3346 98.533 79.2827 98.5357 79.2328C98.5709 78.6325 98.6263 78.5826 99.2217 78.5826C101.504 78.5826 103.785 78.5806 106.067 78.5799C106.202 78.5799 106.337 78.5759 106.472 78.5819C106.842 78.5988 107 78.7377 107.006 79.1006C107.015 79.6732 107.016 80.2472 106.992 80.8191C106.964 81.4639 106.592 81.8052 105.941 81.762C104.865 81.6906 105.022 81.669 104.282 82.4318C102.992 83.7605 101.727 85.1135 100.448 86.4536C100.192 86.7221 99.9164 86.9723 99.6641 87.2441C99.3049 87.6313 99.3015 87.8478 99.6316 88.2545C100.48 89.2992 101.363 90.3177 102.17 91.3935C102.926 92.4025 103.775 93.3319 104.573 94.3045C104.783 94.5601 105.027 94.7948 105.241 95.0531C105.421 95.2716 105.659 95.3823 105.952 95.3782C106.391 95.3728 106.831 95.3667 107.269 95.3836C107.609 95.3964 107.816 95.2305 107.933 94.9418C108.066 94.614 108.187 94.2808 108.295 93.9443C108.965 91.8609 109.656 89.7835 110.291 87.6893C110.803 85.9977 111.376 84.3264 111.903 82.6402C111.939 82.5282 111.975 82.4143 111.991 82.2983C112.047 81.9044 111.949 81.7857 111.539 81.758C111.118 81.7297 110.696 81.7155 110.275 81.6872C109.769 81.6528 109.551 81.4241 109.545 80.9142C109.539 80.3416 109.54 79.7683 109.548 79.1957C109.556 78.671 109.642 78.5826 110.18 78.5813C112.749 78.5745 115.318 78.5752 117.887 78.5725C119.29 78.5705 120.693 78.5651 122.096 78.5644C122.598 78.5644 122.639 78.6069 122.643 79.1121C122.646 79.651 122.657 80.1905 122.637 80.7294C122.61 81.4599 122.2 81.8018 121.481 81.7155C121.28 81.6912 121.08 81.6427 120.877 81.6663C120.515 81.7088 120.392 81.8652 120.492 82.2153C120.703 82.9592 120.923 83.7018 121.161 84.437C121.632 85.8945 122.1 87.3534 122.609 88.7974C122.804 89.3512 122.992 89.9076 123.177 90.4647C123.617 91.79 124.043 93.1208 124.474 94.4495C124.516 94.5776 124.56 94.7051 124.603 94.8326C124.727 95.2069 124.94 95.4457 125.381 95.389C125.511 95.3721 125.651 95.3964 125.782 95.4254C126.389 95.5617 126.471 95.6628 126.475 96.2773C126.479 96.833 126.485 97.3895 126.475 97.9452C126.463 98.5462 126.431 98.5738 125.836 98.5732C123.571 98.5705 121.307 98.5651 119.042 98.5597C118.704 98.559 118.366 98.5509 118.028 98.5556C117.793 98.559 117.698 98.4605 117.702 98.2224C117.713 97.4475 117.715 96.6725 117.71 95.8976C117.709 95.71 117.8 95.6278 117.96 95.5711C118.329 95.4416 118.697 95.356 119.097 95.3688C119.769 95.391 119.826 95.2824 119.63 94.6329C119.402 93.8755 119.194 93.112 118.977 92.3512C118.949 92.2541 118.922 92.1569 118.889 92.0612C118.737 91.6194 118.618 91.5263 118.156 91.5256C117.006 91.5243 115.857 91.531 114.708 91.531C114.353 91.531 113.999 91.5169 113.643 91.5162C113.204 91.5162 113.076 91.6005 112.948 92.02C112.782 92.5663 112.629 93.1174 112.483 93.6691C112.376 94.0751 112.215 94.4663 112.15 94.8838C112.092 95.2507 112.173 95.3924 112.539 95.4268C112.858 95.4564 113.181 95.4349 113.502 95.4477C113.965 95.4652 114.068 95.5401 114.145 95.992C114.266 96.7103 114.224 97.4367 114.191 98.1597C114.179 98.4133 114.016 98.5489 113.756 98.5556C113.536 98.561 113.317 98.5691 113.097 98.5691C110.748 98.5698 108.399 98.5691 106.05 98.5691V98.5664L106.05 98.5678ZM115.872 88.9701C115.872 88.9701 115.872 88.9654 115.872 88.9627C116.396 88.9627 116.921 88.9876 117.443 88.9552C117.936 88.9249 118.012 88.7698 117.857 88.2983C117.303 86.6202 116.856 84.9105 116.37 83.2128C116.314 83.0186 116.256 82.825 116.196 82.6321C116.161 82.5174 116.114 82.3987 115.978 82.3819C115.826 82.363 115.792 82.4986 115.738 82.6004C115.723 82.6301 115.712 82.6625 115.703 82.6948C115.447 83.6823 115.095 84.6407 114.794 85.6139C114.521 86.4968 114.262 87.3851 113.996 88.2707C113.843 88.7826 113.961 88.9532 114.505 88.9674C114.961 88.9795 115.416 88.9701 115.872 88.9701Z" fill="#FC6E06"/>
<g filter="url(#filter0_i_1558_22043)">
<path d="M102.752 50.0863C102.752 50.5814 102.784 51.0845 102.746 51.5823C102.639 52.9447 102.691 54.3092 102.689 55.6716C102.68 60.7247 102.692 65.7778 102.696 70.8309C102.697 71.7657 102.696 71.7536 101.761 71.7529C95.8642 71.7475 89.9684 71.7475 84.072 71.7455C80.2031 71.7442 76.3342 71.7421 72.4653 71.7401C72.0736 71.7401 72.0668 71.7374 72.1189 71.3482C72.2312 70.5106 72.5214 69.714 72.7007 68.8918C72.8468 68.2194 73.0593 67.5645 73.2074 66.8907C73.338 66.2978 73.5477 65.7097 73.6823 65.1135C73.9299 64.0168 74.2289 62.9329 74.4941 61.8409C74.5692 61.5307 74.691 61.2306 74.7539 60.9176C74.8127 60.6249 74.9636 60.5487 75.2477 60.5541C76.1935 60.5729 77.1386 60.5412 78.0843 60.4988C81.0542 60.3645 83.9564 59.8256 86.7902 58.9623C88.4788 58.4477 90.1342 57.8157 91.7422 57.0725C92.8747 56.5491 93.995 56.0001 95.0788 55.3876C96.015 54.8582 96.9087 54.2498 97.8024 53.6489C99.1046 52.7727 100.365 51.8393 101.565 50.8276C101.759 50.6643 101.939 50.4863 102.136 50.3278C102.302 50.1942 102.455 50.0155 102.752 50.087L102.752 50.0863Z" fill="#0190A4"/>
</g>
<g filter="url(#filter1_i_1558_22043)">
<path d="M42.8532 38.0862C43.0311 38.8261 43.4796 39.4446 43.6927 40.1622C43.8179 40.5851 44.0966 40.9614 44.2901 41.3661C45.016 42.8877 45.7899 44.3857 46.6754 45.8196C48.0406 48.0299 49.5614 50.1322 51.2648 52.0983C51.7255 52.6297 52.2092 53.1423 52.7024 53.6441C53.2078 54.1588 53.5974 54.7847 54.2056 55.2015C54.324 55.2824 54.3571 55.422 54.3741 55.5569C54.4031 55.791 54.4451 56.025 54.4478 56.2597C54.4728 58.1968 53.772 69.884 53.6915 70.7729C53.6766 70.9409 53.6718 71.1102 53.6455 71.2761C53.569 71.761 53.5656 71.761 53.0731 71.7617C49.9132 71.7644 46.7539 71.7664 43.594 71.7684C42.7226 71.7684 42.7186 71.7684 42.7179 70.8727C42.7165 62.1964 42.7179 53.5207 42.7152 44.8444C42.7152 43.0752 42.7023 41.3068 42.6983 39.5376C42.6969 39.0547 42.6942 38.5711 42.8532 38.0869V38.0862Z" fill="#0190A4"/>
</g>
<path d="M32.5691 88.7482C32.6388 89.7754 32.4852 90.8963 32.1409 91.9741C31.6924 93.3777 31.0287 94.6788 29.9788 95.7491C29.5769 96.1586 29.1805 96.5774 28.7124 96.9113C27.8336 97.5372 26.8831 98.0275 25.8582 98.3762C24.0249 99.0001 22.1604 99.0716 20.2601 98.76C19.4517 98.6271 18.694 98.3533 17.9323 98.0794C17.1097 97.784 16.4027 97.2876 15.7384 96.742C13.9673 95.2871 12.8964 93.4013 12.3383 91.1965C12.113 90.3075 11.9885 89.4098 12.0014 88.5006C12.0257 86.7281 12.3782 85.0298 13.2874 83.4779C13.466 83.1737 13.5668 82.8317 13.7738 82.5397C14.6573 81.2966 15.7709 80.2991 17.0948 79.5558C18.5127 78.7593 20.0531 78.3661 21.6822 78.2609C22.7368 78.1927 23.7705 78.24 24.7954 78.4855C26.0131 78.7775 27.1889 79.1647 28.2266 79.9018C30.0979 81.2312 31.4279 82.9343 32.101 85.1539C32.4487 86.2992 32.5745 87.4532 32.5691 88.7475V88.7482ZM17.3059 88.6497C17.2409 89.8192 17.4993 90.9645 17.9242 92.0733C18.37 93.2374 19.1013 94.181 20.1952 94.8224C20.7161 95.128 21.2871 95.2615 21.8777 95.3317C23.2855 95.4989 24.4808 95.0464 25.4381 94.0286C26.1965 93.2219 26.7005 92.2804 26.9589 91.1736C27.1246 90.4654 27.2586 89.7673 27.2856 89.0476C27.3303 87.8815 27.2308 86.7275 26.9007 85.6018C26.369 83.7895 25.3948 82.3879 23.4458 81.872C22.3316 81.5766 21.256 81.7101 20.2588 82.2288C18.8003 82.9869 18.0994 84.3695 17.617 85.8338C17.3262 86.7167 17.2659 87.6751 17.3052 88.6497H17.3059Z" fill="#FC6E06"/>
<path d="M77.3306 98.5658C74.948 98.5658 72.5653 98.5658 70.1833 98.5658C69.9466 98.5658 69.7098 98.5671 69.4737 98.5563C69.0759 98.5381 69.0306 98.499 69.0285 98.1166C69.0252 97.5102 69.0218 96.9032 69.0448 96.2975C69.0718 95.6001 69.2701 95.4174 69.979 95.387C70.1982 95.3776 70.4188 95.3951 70.6379 95.387C70.9938 95.3742 71.1122 95.2575 71.1446 94.898C71.1555 94.7807 71.1514 94.6626 71.1514 94.5446C71.1474 90.4843 71.1433 86.4247 71.1392 82.3644C71.1392 82.3138 71.1413 82.2632 71.1392 82.2126C71.1271 81.7627 71.0871 81.7162 70.6481 81.7047C70.3782 81.6973 70.1076 81.7155 69.8376 81.7108C69.4947 81.7047 69.2626 81.5449 69.1726 81.2023C69.1253 81.0235 69.0725 80.8475 69.0732 80.658C69.0752 80.2034 69.0617 79.7481 69.0651 79.2935C69.0698 78.6737 69.1564 78.5853 69.7619 78.5853C72.685 78.5826 75.6082 78.5806 78.5314 78.584C80.728 78.5867 82.9246 78.5968 85.1212 78.6062C85.6144 78.6083 85.6103 78.613 85.6299 79.1087C85.6766 80.287 85.6969 81.4653 85.6759 82.6443C85.6685 83.0645 85.6448 83.4847 85.6164 83.9042C85.5954 84.2131 85.5143 84.3163 85.2186 84.3102C84.5286 84.2974 83.8379 84.3965 83.1478 84.3028C82.7961 84.2549 82.6114 84.0809 82.5931 83.7113C82.5708 83.2574 82.5816 82.8021 82.5681 82.3475C82.5532 81.8417 82.4362 81.7196 81.9308 81.7182C80.1563 81.7142 78.3826 81.7155 76.6081 81.7203C76.1109 81.7216 76.004 81.8241 76.0013 82.3064C75.9945 83.5528 75.9945 84.7999 75.9986 86.0463C75.9999 86.4908 76.0479 86.5474 76.4924 86.5521C77.7595 86.5656 79.0273 86.5629 80.2944 86.5677C80.4297 86.5677 80.565 86.5683 80.6996 86.5764C80.8734 86.5865 80.9749 86.6918 81.0216 86.8516C81.0399 86.9157 81.0514 86.9845 81.0514 87.0513C81.0493 87.8572 81.0514 88.6639 81.0372 89.4699C81.0324 89.7262 80.8734 89.8658 80.6096 89.8705C80.4574 89.8732 80.3052 89.8752 80.1536 89.8752C79.0049 89.8752 77.8556 89.8726 76.7069 89.8752C76.169 89.8766 76.0669 89.9643 76.0628 90.4735C76.05 91.9391 76.0432 93.4047 76.0419 94.8704C76.0419 95.3634 76.0953 95.4234 76.5986 95.4254C78.4231 95.4322 80.2484 95.4295 82.0729 95.4227C82.518 95.4214 82.5627 95.3674 82.5708 94.923C82.5782 94.5358 82.5708 94.148 82.5762 93.7609C82.5782 93.5929 82.5809 93.423 82.608 93.2577C82.7088 92.6365 82.8813 92.4895 83.5145 92.4834C84.0043 92.4787 84.4948 92.4854 84.9846 92.4868C85.6002 92.4881 85.6184 92.5016 85.6245 93.0985C85.6374 94.345 85.6455 95.592 85.655 96.8385C85.6577 97.2256 85.6678 97.6134 85.659 98.0006C85.6468 98.5543 85.6326 98.5631 85.0867 98.5631C82.5011 98.5631 79.9162 98.5631 77.3306 98.5631V98.5658Z" fill="#FC6E06"/>
<path d="M35.0877 88.9019C35.0877 86.9986 35.0904 85.0952 35.085 83.1919C35.0843 82.856 35.0545 82.5208 35.0336 82.1849C35.0133 81.8551 34.9382 81.7782 34.602 81.758C34.2657 81.7377 33.9268 81.7688 33.5926 81.6946C33.1346 81.5927 32.9547 81.4126 32.9391 80.9385C32.9188 80.316 32.9188 79.6921 32.9269 79.0689C32.9323 78.6601 33.0169 78.5866 33.4526 78.5812C34.1961 78.5718 34.9395 78.5704 35.6823 78.5704C37.7944 78.5718 39.9064 78.5839 42.0178 78.5752C43.429 78.5691 44.8097 78.7417 46.1607 79.1545C47.1585 79.4594 47.9805 80.0226 48.657 80.8043C48.8478 81.0248 48.8985 81.3182 49.0284 81.5718C49.2631 82.0291 49.5588 82.45 49.644 82.9882C49.8754 84.4491 49.9735 85.9127 49.5493 87.3412C49.2104 88.4831 48.6198 89.4867 47.5448 90.147C47.0368 90.4593 46.5057 90.6603 45.9503 90.8653C45.2075 91.1391 44.4505 91.2241 43.6908 91.3489C43.1205 91.4427 42.5448 91.388 41.9711 91.3988C41.3968 91.4096 40.8224 91.417 40.2481 91.4103C39.9869 91.4076 39.8909 91.5088 39.8922 91.7684C39.9003 92.8631 39.8969 93.9577 39.8929 95.0531C39.8922 95.3013 40.0005 95.4348 40.2514 95.4375C40.5552 95.4402 40.8596 95.4308 41.1634 95.4375C41.6254 95.447 41.8135 95.5758 41.9339 96.0095C42.1409 96.7548 42.0733 97.5088 41.9691 98.2615C41.944 98.4409 41.8054 98.5165 41.6545 98.5462C41.507 98.5752 41.3521 98.5704 41.2006 98.5704C38.6833 98.5704 36.166 98.5684 33.6481 98.5657C32.9641 98.565 32.929 98.5293 32.9249 97.8562C32.9222 97.3679 32.9141 96.8789 32.9249 96.3906C32.9418 95.6446 33.1854 95.4065 33.939 95.3789C34.1582 95.3708 34.3787 95.3883 34.5979 95.3816C34.9483 95.3701 35.0221 95.2952 35.0363 94.9162C35.0566 94.3611 35.0748 93.8053 35.0769 93.2496C35.0823 91.8008 35.0789 90.352 35.0789 88.904H35.0843L35.0877 88.9019ZM39.8929 84.9435H39.8942C39.8942 85.8682 39.8909 86.7929 39.8963 87.7176C39.8983 88.0663 39.9463 88.1391 40.2467 88.1438C41.3108 88.1614 42.3702 88.1452 43.3566 87.6481C44.0317 87.3082 44.4674 86.7848 44.6413 86.0557C44.8354 85.2389 44.83 84.4235 44.5513 83.6215C44.2935 82.8803 43.799 82.369 43.065 82.0756C42.2146 81.7364 41.3223 81.7222 40.43 81.7094C39.9342 81.702 39.8969 81.7526 39.8949 82.2692C39.8915 83.1602 39.8942 84.0512 39.8942 84.9428L39.8929 84.9435Z" fill="#FC6E06"/>
<path d="M59.5284 78.5826C62.0626 78.5826 64.5975 78.5826 67.1317 78.5826C67.2162 78.5826 67.3008 78.5826 67.3853 78.5839C67.8609 78.5961 67.9293 78.6602 67.9468 79.1518C67.9583 79.4715 67.9583 79.7919 67.9583 80.1116C67.957 81.3243 67.9563 82.537 67.9489 83.7497C67.9455 84.327 67.8345 84.4336 67.273 84.4403C66.834 84.4457 66.3956 84.4282 65.9572 84.4815C65.8098 84.499 65.6535 84.4747 65.5053 84.4478C65.0311 84.3614 64.8383 84.1368 64.8342 83.6532C64.8302 83.2324 64.8491 82.8115 64.8491 82.3906C64.8491 81.8619 64.7341 81.7344 64.2017 81.7128C63.5942 81.6885 62.986 81.7128 62.3806 81.7688C62.0741 81.7971 61.995 81.8733 61.9841 82.1775C61.9693 82.5815 61.976 82.9862 61.976 83.3902C61.9733 87.18 61.9706 90.9705 61.9679 94.7604C61.9679 95.3209 62.0011 95.3458 62.5713 95.3768C63.076 95.4045 63.5847 95.3337 64.0854 95.4524C64.5616 95.565 64.682 95.6817 64.6949 96.172C64.7111 96.7946 64.7064 97.4185 64.6949 98.0417C64.6874 98.4376 64.5738 98.5529 64.1767 98.5657C63.7207 98.5799 63.2648 98.5657 62.8081 98.5657C60.2232 98.5637 57.6376 98.5678 55.0527 98.557C54.364 98.5543 54.3884 98.646 54.3884 97.9047C54.3884 97.3827 54.3945 96.86 54.4093 96.3386C54.4303 95.6291 54.6508 95.4085 55.3619 95.3863C55.8009 95.3721 56.2406 95.3809 56.6797 95.3681C57.0491 95.3573 57.1275 95.2851 57.1424 94.9229C57.1573 94.5695 57.1478 94.2154 57.1471 93.862C57.1431 90.0553 57.139 86.2479 57.135 82.4412C57.135 81.8605 57.0423 81.7634 56.4625 81.758C55.922 81.7533 55.3808 81.7485 54.8409 81.7614C54.4567 81.7708 54.4364 81.8106 54.3397 82.1856C54.2321 82.6017 54.295 83.024 54.2794 83.4428C54.2504 84.2333 53.9933 84.4882 53.1903 84.4889C52.7005 84.4896 52.21 84.499 51.7202 84.493C51.2866 84.4869 51.1811 84.3965 51.1723 83.9541C51.1567 83.1292 51.1675 82.3036 51.1669 81.4781C51.1669 80.72 51.1655 79.9619 51.1669 79.2038C51.1669 78.59 51.1682 78.5839 51.7737 78.5833C54.3586 78.5806 56.9442 78.5819 59.5291 78.5819V78.5806L59.5284 78.5826Z" fill="#FC6E06"/>
<path d="M72.3792 104.988C72.3386 105.628 72.3643 106.197 72.3894 106.767C72.411 107.255 72.432 107.743 72.4347 108.232C72.4374 108.642 72.3779 108.696 71.9713 108.717C71.7879 108.727 71.5992 108.751 71.4017 108.642C71.4017 107.499 71.4017 106.345 71.4017 105.191C71.4017 104.921 71.3922 104.651 71.4057 104.383C71.4226 104.038 71.4747 103.993 71.8279 103.945C71.9117 103.933 71.9963 103.928 72.0802 103.923C72.961 103.879 73.1234 103.981 73.4291 104.793C73.5475 105.108 73.6449 105.431 73.7566 105.749C73.8066 105.891 73.8905 106.026 73.9189 106.172C73.9514 106.34 74.2105 106.386 74.1828 106.417C74.0508 106.559 74.0766 106.688 74.1388 106.835C74.1713 106.912 74.2031 106.991 74.2998 107.018C74.4561 106.976 74.4662 106.827 74.5143 106.708C74.8288 105.928 75.1529 105.151 75.4465 104.362C75.5588 104.06 75.7482 103.929 76.0486 103.936C76.3489 103.943 76.6466 103.905 76.9483 104.013C77.1479 104.084 77.2061 104.171 77.2054 104.365C77.2013 105.679 77.2081 106.993 77.2047 108.306C77.204 108.666 77.1939 108.667 76.8468 108.703C76.746 108.714 76.6446 108.723 76.5438 108.721C76.3699 108.718 76.2529 108.642 76.2481 108.451C76.2434 108.267 76.2353 108.081 76.24 107.896C76.261 106.972 76.2853 106.047 76.311 105.022C76.0208 105.435 75.8037 105.774 75.6772 106.187C75.4458 106.941 75.1718 107.682 74.8972 108.421C74.7984 108.688 74.5373 108.801 74.2437 108.762C73.9379 108.721 73.6003 108.487 73.5901 108.231C73.5719 107.779 73.3662 107.388 73.2363 106.975C73.0692 106.446 72.867 105.928 72.6694 105.409C72.6187 105.276 72.5795 105.126 72.3806 104.989L72.3792 104.988Z" fill="#0190A4"/>
<path d="M47.6652 104.845C47.2586 105.944 46.8811 106.964 46.5036 107.983C46.4745 108.062 46.4488 108.142 46.417 108.22C46.302 108.504 46.2032 108.785 45.7926 108.75C45.388 108.715 45.2927 108.657 45.1208 108.195C44.7372 107.164 44.3591 106.131 44.0377 105.079C44.029 105.05 43.9999 105.027 43.9694 104.987C43.8226 105.205 43.8598 105.447 43.8619 105.675C43.8673 106.533 43.8849 107.392 43.9004 108.25C43.9052 108.49 43.8686 108.671 43.5696 108.715C43.0595 108.789 42.9344 108.707 42.9303 108.179C42.9215 106.966 42.9242 105.754 42.9242 104.542C42.9242 104.424 42.9364 104.306 42.9513 104.189C42.9702 104.034 43.0602 103.95 43.2192 103.943C43.253 103.942 43.2868 103.941 43.3207 103.937C44.3469 103.836 44.5519 103.955 44.9267 104.914C45.1533 105.495 45.3576 106.083 45.5802 106.664C45.6323 106.8 45.6438 106.964 45.7912 107.053C45.9448 106.997 45.9556 106.852 45.9962 106.732C46.2452 106 46.6159 105.316 46.8439 104.575C46.8994 104.396 47.0692 104.254 47.1456 104.069C47.1896 103.964 47.2904 103.936 47.3966 103.933C47.6834 103.927 47.9716 103.905 48.2571 103.922C48.6244 103.943 48.6833 104.011 48.6887 104.394C48.6989 105.135 48.6968 105.876 48.6989 106.618C48.7002 107.173 48.707 107.729 48.6968 108.285C48.6894 108.706 48.6772 108.708 48.2706 108.728C47.7463 108.754 47.7186 108.733 47.7098 108.222C47.699 107.599 47.7375 106.978 47.7734 106.355C47.8011 105.879 47.8505 105.393 47.6652 104.844V104.845Z" fill="#0190A4"/>
<path d="M61.6709 106.001C61.6709 106.523 61.6763 107.045 61.6682 107.567C61.6648 107.794 61.702 107.973 61.9753 107.991C62.1789 108.005 62.2148 108.153 62.2216 108.312C62.2385 108.732 62.2351 109.154 62.2642 109.574C62.2824 109.841 62.1668 109.94 61.9198 109.942C61.8353 109.943 61.7514 109.955 61.6675 109.961C61.4828 109.972 61.3847 109.895 61.3827 109.7C61.3807 109.464 61.3671 109.228 61.3556 108.993C61.3475 108.83 61.2582 108.751 61.0945 108.752C60.1995 108.758 59.3038 108.764 58.4088 108.768C58.2457 108.769 58.1571 108.843 58.1504 109.009C58.1429 109.176 58.1436 109.346 58.1253 109.513C58.1084 109.672 58.1747 109.891 57.9772 109.955C57.7539 110.027 57.5077 110.009 57.2804 109.926C57.1654 109.883 57.1694 109.764 57.1701 109.665C57.1721 109.211 57.1816 108.756 57.1843 108.302C57.1857 108.132 57.2696 108.022 57.4076 107.933C57.8771 107.629 58.1057 107.189 58.193 106.64C58.3202 105.843 58.4825 105.049 58.5454 104.243C58.5637 104.009 58.6388 103.921 58.8742 103.914C59.6177 103.891 60.3605 103.869 61.1033 103.914C61.5985 103.943 61.6519 104.001 61.6587 104.486C61.6661 104.991 61.6601 105.497 61.6601 106.002H61.6716L61.6709 106.001ZM58.8485 107.886C59.3505 107.886 59.8037 107.892 60.257 107.885C60.6189 107.879 60.6318 107.871 60.6385 107.517C60.6507 106.845 60.6527 106.173 60.6554 105.501C60.6573 104.955 60.388 104.702 59.8477 104.744C59.8139 104.747 59.7807 104.749 59.7469 104.749C59.5365 104.751 59.4506 104.868 59.4371 105.066C59.3735 106 59.1069 106.893 58.8485 107.887V107.886Z" fill="#0190A4"/>
<path d="M92.023 108.8C91.6428 108.864 91.243 108.669 90.8303 108.555C90.6362 108.501 90.5103 108.337 90.4001 108.155C89.9394 107.39 89.8961 106.562 90.0111 105.713C90.051 105.422 90.0544 105.122 90.2303 104.851C90.7552 104.043 91.8613 103.592 92.8362 103.813C93.9754 104.072 94.5321 104.737 94.5802 105.903C94.5883 106.104 94.5781 106.307 94.5822 106.509C94.6093 107.811 93.717 108.962 92.0216 108.8H92.023ZM93.5796 106.28C93.6033 105.904 93.4484 105.566 93.3334 105.224C93.1994 104.826 92.3497 104.419 91.8701 104.649C91.4419 104.854 91.1239 105.149 91.0421 105.644C90.9562 106.166 90.9954 106.682 91.0908 107.197C91.1023 107.26 91.1212 107.327 91.1557 107.38C91.6719 108.177 92.8734 108.132 93.3483 107.299C93.5289 106.982 93.5756 106.636 93.5803 106.279L93.5796 106.28Z" fill="#0190A4"/>
<path d="M84.4291 106.143C84.4183 106.904 84.3276 107.558 83.8459 108.101C83.2574 108.762 82.5044 108.902 81.6784 108.786C81.2184 108.721 80.7536 108.661 80.4093 108.274C80.0602 107.882 79.8573 107.431 79.7822 106.92C79.6855 106.26 79.7348 105.614 80.0136 104.995C80.2395 104.492 80.6014 104.148 81.1359 103.984C81.7089 103.81 82.2744 103.734 82.8772 103.875C83.8527 104.103 84.3033 104.875 84.3986 105.615C84.4244 105.814 84.4223 106.017 84.4291 106.143V106.143ZM80.8071 106.19C80.8335 106.44 80.8402 106.694 80.8896 106.941C81.0094 107.54 81.4423 107.944 81.972 107.976C82.5511 108.011 83.1072 107.645 83.3129 107.096C83.459 106.706 83.4867 106.294 83.3873 105.904C83.2905 105.525 83.2067 105.091 82.8589 104.854C82.0329 104.293 81.1508 104.764 80.9126 105.492C80.8389 105.717 80.8084 105.951 80.8084 106.19H80.8071Z" fill="#0190A4"/>
<path d="M85.2722 106.323C85.2722 105.667 85.2647 105.01 85.2749 104.354C85.2803 103.982 85.3155 103.945 85.6781 103.93C86.6908 103.886 87.7035 103.901 88.7162 103.927C89.0633 103.936 89.1005 103.971 89.0944 104.31C89.0714 105.623 89.0646 106.936 89.0958 108.248C89.0998 108.425 89.0788 108.612 88.8982 108.676C88.6756 108.756 88.4253 108.766 88.2082 108.664C88.0465 108.588 88.0979 108.397 88.0972 108.252C88.0898 107.393 88.0905 106.535 88.0844 105.677C88.0769 104.633 88.1892 104.74 87.1237 104.751C86.1902 104.759 86.2998 104.717 86.2998 105.565C86.2998 106.475 86.3032 107.383 86.2977 108.292C86.2964 108.45 86.3404 108.667 86.1158 108.709C85.8695 108.756 85.603 108.788 85.3723 108.665C85.2458 108.598 85.287 108.422 85.2864 108.292C85.2837 107.635 85.285 106.979 85.285 106.322C85.2816 106.322 85.2776 106.322 85.2742 106.322L85.2722 106.323Z" fill="#0190A4"/>
<path d="M64.7768 103.856C65.2761 103.837 65.3045 103.855 65.5 104.346C65.8856 105.317 66.259 106.291 66.5682 107.29C66.6561 107.573 66.8219 107.834 66.9031 108.119C66.9599 108.319 67.1134 108.592 66.8023 108.727C66.4153 108.895 66.0013 108.745 65.8565 108.421C65.7949 108.283 65.7726 108.139 65.7598 107.99C65.7408 107.776 65.6373 107.665 65.3972 107.675C64.9595 107.693 64.5197 107.691 64.0814 107.685C63.8202 107.681 63.6633 107.788 63.6349 108.048C63.62 108.187 63.5679 108.306 63.5036 108.425C63.3568 108.696 62.9699 108.833 62.6884 108.714C62.5694 108.663 62.547 108.556 62.5768 108.466C62.6952 108.109 62.6708 107.726 62.8873 107.376C63.0943 107.042 63.2107 106.632 63.2844 106.24C63.4184 105.53 63.7553 104.896 63.9833 104.223C64.0956 103.892 64.1707 103.88 64.7754 103.858L64.7768 103.856ZM64.6801 104.919C64.467 105.605 64.1747 106.148 64.0563 106.792C64.5272 106.886 64.9588 106.865 65.431 106.774C65.1536 106.156 65.0521 105.55 64.6801 104.919Z" fill="#0190A4"/>
<path d="M49.7191 106.259C49.7191 105.619 49.7164 104.978 49.7205 104.338C49.7232 103.913 49.7279 103.913 50.1386 103.899C50.2062 103.897 50.2739 103.895 50.3415 103.899C50.7001 103.917 50.7312 103.943 50.7427 104.325C50.7528 104.662 50.7569 104.999 50.7393 105.335C50.7265 105.582 50.8252 105.665 51.0607 105.657C51.2968 105.65 51.5335 105.678 51.7696 105.673C52.1045 105.665 52.392 105.812 52.6531 105.976C53.1368 106.28 53.3635 106.737 53.2627 107.315C53.1578 107.915 52.8804 108.399 52.2614 108.594C51.7223 108.765 51.1614 108.758 50.6027 108.742C50.4843 108.739 50.3666 108.718 50.2488 108.716C49.7949 108.71 49.7496 108.677 49.7442 108.23C49.7361 107.573 49.7421 106.915 49.7421 106.258C49.734 106.258 49.7266 106.258 49.7185 106.258L49.7191 106.259ZM50.7583 107.208C50.8049 107.405 50.6541 107.728 50.9362 107.856C51.2129 107.982 51.5301 107.947 51.817 107.801C52.0707 107.673 52.2635 107.509 52.2614 107.189C52.2594 106.882 52.0943 106.683 51.8474 106.545C51.2291 106.199 50.7495 106.478 50.7583 107.208Z" fill="#0190A4"/>
<path d="M95.4326 106.292C95.4326 105.671 95.4272 105.048 95.4346 104.426C95.44 103.969 95.4549 103.958 95.9244 103.928C96.4135 103.897 96.9026 103.901 97.3904 103.937C98.0459 103.986 98.5885 104.402 98.7583 104.964C98.9301 105.532 98.6879 106.244 98.2184 106.647C97.8226 106.986 97.3423 107.055 96.8593 107.134C96.427 107.204 96.425 107.202 96.4412 107.629C96.4487 107.83 96.4886 108.033 96.473 108.232C96.4392 108.679 95.9582 108.907 95.5753 108.673C95.4725 108.609 95.4657 108.507 95.4617 108.411C95.4529 108.209 95.4556 108.008 95.4556 107.806C95.4556 107.301 95.4556 106.797 95.4556 106.292H95.4326ZM97.0068 104.678C96.5786 104.673 96.448 104.787 96.4372 105.148C96.4297 105.4 96.4561 105.653 96.45 105.905C96.4446 106.141 96.5704 106.225 96.7815 106.265C97.1225 106.331 97.366 106.172 97.5696 105.939C97.753 105.73 97.8774 105.474 97.7286 105.205C97.5635 104.908 97.3444 104.645 97.0068 104.678V104.678Z" fill="#0190A4"/>
<path d="M69.1016 103.907C69.4561 103.907 69.8113 103.897 70.1651 103.91C70.4492 103.92 70.5162 104.002 70.5263 104.28C70.5365 104.559 70.4756 104.656 70.1948 104.676C69.8086 104.705 69.4189 104.695 69.0313 104.709C68.691 104.722 68.668 104.751 68.6558 105.097C68.6531 105.165 68.6558 105.232 68.6599 105.299C68.6835 105.744 68.7262 105.79 69.1679 105.793C69.4209 105.795 69.6739 105.774 69.927 105.777C70.1658 105.78 70.3017 105.903 70.3132 106.149C70.3241 106.383 70.2348 106.537 69.9939 106.591C69.6936 106.658 69.3885 106.626 69.0861 106.644C68.7099 106.667 68.6734 106.69 68.6788 107.06C68.693 108.002 68.534 107.897 69.4947 107.91C69.7477 107.914 70.0014 107.913 70.2544 107.906C70.4837 107.899 70.5487 108.035 70.5412 108.227C70.5338 108.42 70.5892 108.656 70.3078 108.713C70.1773 108.739 70.0392 108.736 69.9046 108.734C69.314 108.728 68.7228 108.725 68.1329 108.706C67.6918 108.692 67.6742 108.682 67.6674 108.25C67.6512 107.274 67.6539 106.298 67.6505 105.322C67.6492 104.968 67.6593 104.615 67.6546 104.262C67.6512 104.027 67.7574 103.927 67.9901 103.931C68.3615 103.937 68.7329 103.932 69.1036 103.932C69.1036 103.924 69.1036 103.915 69.1036 103.906L69.1016 103.907Z" fill="#0190A4"/>
<path d="M100.439 108.795C100.218 108.797 100.019 108.768 99.8379 108.665C99.5795 108.518 99.4631 108.211 99.5531 107.927C99.5835 107.83 99.6485 107.79 99.7391 107.798C99.8731 107.809 100.006 107.838 100.14 107.85C100.496 107.883 100.718 107.643 100.65 107.301C100.637 107.236 100.615 107.167 100.579 107.113C100.032 106.297 99.7655 105.338 99.2392 104.511C99.1945 104.441 99.1566 104.363 99.1316 104.284C99.0565 104.045 99.1262 103.913 99.363 103.885C99.6999 103.845 100.016 103.906 100.198 104.228C100.488 104.741 100.749 105.269 100.93 105.831C100.951 105.894 100.933 105.984 100.972 106.023C101.051 106.104 101.091 106.247 101.223 106.253C101.382 106.259 101.386 106.106 101.425 106.002C101.622 105.465 101.801 104.921 102.013 104.39C102.187 103.954 102.373 103.848 102.774 103.877C103.163 103.906 103.26 104.036 103.118 104.399C102.885 104.995 102.633 105.583 102.385 106.172C102.178 106.664 101.954 107.149 101.757 107.644C101.623 107.981 101.418 108.261 101.158 108.505C100.953 108.698 100.712 108.806 100.441 108.795L100.439 108.795Z" fill="#0190A4"/>
<path d="M128 76.6799C127.983 77.9938 127.339 78.6258 126.206 78.9077C125.54 79.0729 124.952 78.822 124.458 78.3607C124.237 78.1543 124.031 77.9358 123.855 77.6835C123.455 77.1102 123.444 76.2179 123.86 75.6642C123.921 75.5832 123.995 75.5117 124.05 75.4274C124.869 74.1513 126.397 74.407 127.232 74.9594C127.749 75.3013 127.998 75.8793 128.001 76.6799H128ZM127.466 76.7346C127.459 75.7633 126.694 74.9175 125.844 74.9411C124.994 74.9648 124.184 75.8233 124.189 76.6759C124.195 77.7793 125.203 78.3169 125.872 78.3877C126.56 78.4598 127.538 77.5122 127.466 76.7352V76.7346Z" fill="#FC6E06"/>
<path d="M53.881 106.268C53.881 105.611 53.8728 104.954 53.8843 104.297C53.8904 103.916 53.9067 103.914 54.3011 103.915C54.4025 103.915 54.504 103.918 54.6048 103.926C54.7618 103.937 54.849 104.03 54.8714 104.181C54.8835 104.264 54.8849 104.349 54.8856 104.433C54.8883 105.714 54.893 106.994 54.8896 108.275C54.8883 108.708 54.8761 108.71 54.4269 108.721C54.3931 108.721 54.3592 108.723 54.3254 108.722C53.9276 108.713 53.8891 108.685 53.8843 108.29C53.8762 107.616 53.8823 106.943 53.8823 106.268C53.8823 106.268 53.8823 106.268 53.8816 106.268H53.881Z" fill="#0190A4"/>
<path d="M124.908 77.1035C124.968 76.8452 124.963 76.5606 124.972 76.2759C124.985 75.8632 125.243 75.5934 125.656 75.5455C126.007 75.505 126.322 75.6298 126.61 75.8058C126.821 75.934 126.897 76.226 126.718 76.4216C126.41 76.7595 126.545 77.0179 126.775 77.2897C126.886 77.4212 126.95 77.5493 126.79 77.6761C126.642 77.7921 126.475 77.7989 126.331 77.6707C126.258 77.606 126.208 77.5122 126.154 77.4273C126.101 77.3423 126.057 77.2512 126.008 77.1629C125.956 77.0671 125.877 77.0071 125.765 77.0206C125.644 77.0347 125.608 77.1298 125.591 77.2337C125.583 77.2829 125.584 77.3349 125.572 77.3834C125.532 77.5487 125.49 77.7207 125.277 77.7368C125.101 77.7503 124.939 77.5662 124.909 77.3274C124.901 77.2613 124.908 77.1939 124.908 77.1042V77.1035ZM125.809 76.5295C126.015 76.5376 126.108 76.4661 126.1 76.2935C126.095 76.1748 126.065 76.0594 125.914 76.0527C125.783 76.0466 125.595 76.2456 125.6 76.3805C125.606 76.5161 125.709 76.5235 125.81 76.5295H125.809Z" fill="#FC6E06"/>
</g>
<defs>
<filter id="filter0_i_1558_22043" x="72.0959" y="50.0707" width="30.6685" height="25.6823" filterUnits="userSpaceOnUse" color-interpolation-filters="sRGB">
<feFlood flood-opacity="0" result="BackgroundImageFix"/>
<feBlend mode="normal" in="SourceGraphic" in2="BackgroundImageFix" result="shape"/>
<feColorMatrix in="SourceAlpha" type="matrix" values="0 0 0 0 0 0 0 0 0 0 0 0 0 0 0 0 0 0 127 0" result="hardAlpha"/>
<feOffset dy="4"/>
<feGaussianBlur stdDeviation="2"/>
<feComposite in2="hardAlpha" operator="arithmetic" k2="-1" k3="1"/>
<feColorMatrix type="matrix" values="0 0 0 0 0 0 0 0 0 0 0 0 0 0 0 0 0 0 0.25 0"/>
<feBlend mode="normal" in2="shape" result="effect1_innerShadow_1558_22043"/>
</filter>
<filter id="filter1_i_1558_22043" x="42.698" y="38.0862" width="11.7505" height="37.6823" filterUnits="userSpaceOnUse" color-interpolation-filters="sRGB">
<feFlood flood-opacity="0" result="BackgroundImageFix"/>
<feBlend mode="normal" in="SourceGraphic" in2="BackgroundImageFix" result="shape"/>
<feColorMatrix in="SourceAlpha" type="matrix" values="0 0 0 0 0 0 0 0 0 0 0 0 0 0 0 0 0 0 127 0" result="hardAlpha"/>
<feOffset dy="4"/>
<feGaussianBlur stdDeviation="2"/>
<feComposite in2="hardAlpha" operator="arithmetic" k2="-1" k3="1"/>
<feColorMatrix type="matrix" values="0 0 0 0 0 0 0 0 0 0 0 0 0 0 0 0 0 0 0.25 0"/>
<feBlend mode="normal" in2="shape" result="effect1_innerShadow_1558_22043"/>
</filter>
<clipPath id="clip0_1558_22043">
<rect width="116" height="80" fill="white" transform="translate(12 30)"/>
</clipPath>
</defs>
</svg>
