<svg width="140" height="140" viewBox="0 0 140 140" fill="none" xmlns="http://www.w3.org/2000/svg">
<rect width="140" height="140" rx="30" fill="white"/>
<g clip-path="url(#clip0_2492_1260)">
<path d="M113 56.8607V71.3325C111.241 72.1925 109.428 72.9782 107.573 73.6153C107.467 73.6578 107.351 73.7002 107.245 73.7427C107.117 73.7746 107.001 73.8064 106.874 73.8383C106.81 73.8595 106.746 73.8807 106.683 73.902C106.63 73.8701 106.577 73.8807 106.545 73.9338C106.354 73.9126 106.163 73.9232 106.015 74.0719C105.909 74.0931 105.792 74.1143 105.676 74.1356C105.538 74.1037 105.422 74.1249 105.326 74.2524C105.157 74.2736 104.976 74.3054 104.807 74.3267C104.701 74.3692 104.595 74.401 104.478 74.4329C104.362 74.4541 104.245 74.4647 104.118 74.4859C103.991 74.5178 103.863 74.5497 103.736 74.5921C103.577 74.6134 103.418 74.6346 103.259 74.6558C103.068 74.624 102.899 74.6664 102.729 74.7726C102.507 74.7939 102.274 74.8151 102.051 74.8469C101.86 74.7939 101.691 74.8257 101.532 74.9425C101.245 74.9744 100.959 75.0062 100.662 75.0274C100.546 75.0593 100.429 75.0912 100.313 75.1124C99.9205 75.1442 99.5177 75.1655 99.115 75.1867C98.8712 75.1336 98.6486 75.1867 98.426 75.2929C97.9066 75.3141 97.3873 75.3354 96.8785 75.3566C96.4439 75.3035 96.0306 75.3035 95.6172 75.4522C95.3098 75.4203 95.3098 75.6433 95.3204 75.845C95.3204 76.8112 95.3416 77.788 95.3628 78.7542C95.2886 79.678 95.278 80.6017 95.3628 81.5254C95.278 82.5023 95.278 83.4791 95.3628 84.4559C95.2886 85.3266 95.2886 86.1866 95.3628 87.0572C95.278 88.0341 95.278 89.0109 95.3628 89.9983C95.2886 90.9114 95.278 91.8352 95.3628 92.7589C95.278 93.7463 95.278 94.7232 95.3628 95.7C95.2886 96.6237 95.278 97.5475 95.3628 98.4712C95.278 99.448 95.278 100.425 95.3628 101.402C95.2886 102.325 95.278 103.249 95.3628 104.173C95.278 105.097 95.278 106.02 95.3628 106.944C95.2886 107.921 95.2886 108.898 95.3628 109.885C95.1932 110.225 95.49 110.66 95.1508 110.968C93.6033 110.968 92.0453 110.947 90.4978 110.947C87.6254 110.958 84.7424 110.979 81.87 111C81.1598 110.745 81.711 110.108 81.4778 109.705C81.552 108.781 81.552 107.868 81.4778 106.944C81.5626 106.02 81.5626 105.097 81.4778 104.173C81.552 103.249 81.552 102.336 81.4778 101.412C81.5626 100.425 81.5626 99.448 81.4778 98.4606C81.552 97.5475 81.552 96.6237 81.4778 95.7C81.5626 94.7232 81.5626 93.7357 81.4778 92.7589C81.552 91.8352 81.552 90.922 81.4778 89.9983C81.5626 89.0109 81.5626 88.0341 81.4778 87.0572C81.552 86.1866 81.552 85.3266 81.4778 84.4665C81.5626 83.4791 81.5626 82.5023 81.4778 81.5148C81.552 80.6017 81.552 79.678 81.4778 78.7542C81.5626 77.8305 81.5626 76.9068 81.4778 75.983C81.4778 75.8662 81.4778 75.7601 81.4778 75.6433C81.5308 75.5052 81.4566 75.484 81.3506 75.4946C79.7501 75.4734 78.139 75.4522 76.5385 75.4522C72.161 75.4415 67.7729 75.4522 63.3954 75.4628C63.0563 75.4628 62.7171 75.5052 62.3673 75.5371C61.9645 75.4946 61.5512 75.5159 61.159 75.6433C60.9258 75.6645 60.6926 75.6857 60.4594 75.707C60.1627 75.6433 59.8765 75.7282 59.6009 75.8344C59.4313 75.8556 59.2511 75.8769 59.0815 75.8981C59.0179 75.9299 58.9543 75.9512 58.8907 75.9724C58.7212 76.0043 58.5516 76.0255 58.3926 76.0574C58.2866 76.0892 58.1806 76.1317 58.064 76.1635C57.9474 76.1954 57.8202 76.2166 57.7036 76.2379C57.64 76.2697 57.5764 76.2909 57.5128 76.3228C57.3115 76.3228 57.1313 76.344 56.9723 76.4821L56.9087 76.4502L56.8557 76.5139H56.8451C56.7285 76.5564 56.6013 76.5882 56.4847 76.6201C56.4317 76.6413 56.3787 76.6626 56.3363 76.6838C56.2727 76.6944 56.2091 76.7157 56.1561 76.7369C56.0819 76.7687 56.0183 76.8006 55.9547 76.8431C55.2658 77.0342 54.6616 77.3846 54.0787 77.788C54.0363 77.8199 53.9939 77.8624 53.9515 77.8942C52.4888 78.8498 51.2805 80.0284 50.6445 81.6953C50.4643 82.0457 50.2947 82.3855 50.1146 82.7359C50.0722 82.842 50.0404 82.9588 49.998 83.0756C49.9768 83.1287 49.9556 83.1818 49.9344 83.2455C49.68 83.6702 49.5316 84.1374 49.5316 84.647C49.5104 84.7638 49.4786 84.87 49.4574 84.9868C49.362 85.093 49.3196 85.1991 49.3832 85.3372C49.2666 85.4858 49.256 85.6663 49.2772 85.8574C49.1712 86.0061 49.1394 86.1653 49.203 86.3458C49.0758 86.5688 49.0546 86.8024 49.0758 87.0572C48.938 87.3227 48.9168 87.6093 48.9698 87.9066C48.9592 88.0341 48.9486 88.1508 48.938 88.2783C48.7366 89.1808 48.8002 90.1045 48.8002 91.0176C48.779 97.6536 48.779 104.29 48.7684 110.926C48.6943 110.947 48.6307 110.968 48.5565 110.989C44.1366 110.936 39.7061 110.904 35.2862 110.989C35.1908 110.958 35.106 110.936 35.0106 110.915V64.5691C35.0106 52.7623 35 40.9448 35 29.1274C35.0954 29.0849 35.2014 29.0425 35.2968 29C36.8761 29.0212 38.4448 29.0637 40.0241 29.0637C42.8541 29.0637 45.6947 29.0319 48.5353 29.0106C48.6201 29.0425 48.7049 29.0743 48.7896 29.1062C48.8108 29.6264 48.832 30.1467 48.8638 30.667C48.7684 31.5907 48.7578 32.5144 48.8638 33.4382C48.7472 34.415 48.7578 35.3918 48.8638 36.3686C48.7684 37.2924 48.7578 38.2161 48.8638 39.1398C48.7472 40.1167 48.7578 41.0935 48.8638 42.0703C48.7684 43.0047 48.7578 43.9284 48.8638 44.8521C48.7472 45.829 48.7578 46.8058 48.8638 47.7826C48.7684 48.6532 48.7684 49.5133 48.8638 50.3839C48.7472 51.3607 48.7578 52.3376 48.8638 53.3144C48.7684 54.2381 48.7578 55.1619 48.8638 56.0856C48.7472 57.0624 48.7578 58.0392 48.8638 59.0267C48.7684 59.9504 48.7578 60.8741 48.8638 61.7979C48.7472 62.7853 48.7578 63.7728 48.8532 64.7602C48.7684 65.3229 48.7578 65.8963 48.8638 66.4696C48.7684 66.5546 48.8002 66.6289 48.8956 66.6501C49.0546 66.6926 49.1606 66.6183 49.2242 66.4696C50.8035 65.3123 52.5948 64.516 54.2695 63.5392C54.3861 63.5285 54.4921 63.5073 54.6086 63.4861C55.2022 63.3162 55.7958 63.1569 56.3469 62.849C56.5589 62.9127 56.6649 62.6898 56.8451 62.6473C57.7884 62.5305 58.7 62.2651 59.6009 61.9784C60.523 61.851 61.4452 61.7342 62.3673 61.6068C62.4203 61.5961 62.4839 61.5749 62.5475 61.5643C62.6535 61.5324 62.7701 61.5006 62.8867 61.4687C63.353 61.4263 63.8194 61.3944 64.2858 61.3626C64.519 61.4156 64.7415 61.3732 64.9641 61.2882C65.0701 61.2882 65.1867 61.2882 65.3033 61.2882C66.2148 61.2776 67.137 61.267 68.0591 61.2564H79.2731C79.9621 61.2564 80.6616 61.2458 81.3506 61.2458C81.446 61.2564 81.5202 61.2564 81.4566 61.129C81.5626 60.3751 81.5414 59.6319 81.4778 58.878C81.552 57.9543 81.5626 57.0306 81.4778 56.1174C81.5626 55.13 81.5626 54.1532 81.4778 53.1657C81.552 52.2526 81.552 51.3289 81.4778 50.4052C81.5626 49.4814 81.5626 48.5577 81.4778 47.6339C81.552 46.7102 81.5626 45.7971 81.4778 44.8734C81.5626 43.8965 81.5626 42.9091 81.4778 41.9323C81.552 41.0085 81.552 40.0848 81.4778 39.1717C81.5626 38.1843 81.5626 37.2074 81.4778 36.22C81.552 35.3069 81.552 34.3831 81.4778 33.4594C81.5626 32.4826 81.5626 31.4951 81.4778 30.5183C81.658 30.0405 81.3082 29.4778 81.7004 29.0425C84.17 29.0425 86.6396 29.0743 89.0987 29.0637C91.0489 29.0637 92.9992 29.1593 94.9495 29.0106C95.6914 29.3504 95.1084 30.0511 95.3628 30.5183C95.278 31.4951 95.278 32.4826 95.3628 33.4594C95.2886 34.3831 95.278 35.3069 95.3628 36.2306C95.278 37.2074 95.278 38.1843 95.3628 39.1611C95.2886 40.0848 95.278 41.0085 95.3628 41.9323C95.278 42.9091 95.278 43.8859 95.3628 44.8734C95.2886 45.7971 95.278 46.7208 95.3628 47.6446C95.278 48.5577 95.278 49.4814 95.3628 50.4052C95.2886 51.3289 95.278 52.2526 95.3628 53.1764C95.278 54.1532 95.278 55.13 95.3628 56.1068C95.2886 57.0306 95.278 57.9543 95.3628 58.878C95.278 59.6319 95.278 60.3751 95.3628 61.129C95.3204 61.2564 95.3946 61.267 95.5006 61.2458C95.7232 61.2564 95.9564 61.2564 96.1896 61.2564H99.1256C99.4117 61.2458 99.6979 61.2458 99.9841 61.2458C100.567 61.2988 101.15 61.2882 101.722 61.1396H101.712C101.881 61.1183 102.051 61.1183 102.231 61.1077C102.994 61.1714 103.726 61.0228 104.478 60.8848C105.538 60.8104 106.577 60.5981 107.573 60.2158C107.679 60.1734 107.785 60.1203 107.891 60.0778C108.135 59.9823 108.379 59.8867 108.633 59.8018C108.707 59.8548 108.75 59.8124 108.771 59.7381C108.834 59.7168 108.898 59.7062 108.962 59.685C109.025 59.6425 109.089 59.6106 109.152 59.5788C109.417 59.5469 109.64 59.4195 109.82 59.2178C109.884 59.1966 109.947 59.1647 110 59.1435C110.075 59.1647 110.117 59.1435 110.106 59.0585C110.181 58.9948 110.265 58.9311 110.34 58.8674C110.393 58.9523 110.435 58.9842 110.477 58.8674C111.431 58.3047 112.279 57.6358 113 56.8713V56.8607Z" fill="#040505"/>
</g>
<defs>
<clipPath id="clip0_2492_1260">
<rect width="78" height="82" fill="white" transform="translate(35 29)"/>
</clipPath>
</defs>
</svg>
