<svg width="140" height="140" viewBox="0 0 140 140" fill="none" xmlns="http://www.w3.org/2000/svg">
<rect width="140" height="140" rx="30" fill="url(#paint0_linear_748_3142)"/>
<g clip-path="url(#clip0_748_3142)">
<path d="M110.769 83.0959C107.665 86.2965 103.842 87.6586 99.4865 87.7152C95.1692 87.7717 90.8491 87.769 86.5317 87.7044C85.2214 87.6855 84.8134 88.1459 84.8269 89.4164C84.8783 94.3856 84.8648 99.3602 84.8404 104.332C84.8053 111.918 78.9885 118.378 71.7181 118.946C63.3887 119.595 56.3885 114.456 55.3051 106.566C54.8945 103.578 55.2376 100.488 55.2376 97.4436H55.1268C55.1268 94.8001 55.1349 92.1567 55.1241 89.516C55.1187 87.7932 55.0539 87.7313 53.2761 87.7313C48.9561 87.7259 44.636 87.7609 40.3187 87.7179C33.0348 87.6479 27.0748 83.069 25.4348 76.342C23.1465 66.9663 30.1737 58.0051 39.8594 57.9593C42.3341 57.9458 44.8089 57.9754 47.2837 57.9458C48.078 57.9351 48.6022 58.2258 49.0966 58.853C53.9651 65.0389 60.3817 68.4737 68.2464 68.6298C76.3705 68.7887 83.0951 65.5127 88.2122 59.176C88.9038 58.3227 89.5982 57.9162 90.7032 57.9351C93.8966 57.9916 97.0928 57.8758 100.284 57.9754C106.668 58.172 111.207 61.2703 113.776 67.0416C116.216 72.525 114.9 78.8347 110.769 83.0959Z" fill="white"/>
<path d="M90.5276 42.761C90.3439 54.5083 80.8446 63.8975 68.8651 63.8787C57.9367 64.0698 47.4296 55.2809 47.4404 42.3869C47.4512 30.5938 56.7398 20.9704 69.0273 21C81.7713 21.0296 90.7032 31.5117 90.5276 42.761Z" fill="white"/>
</g>
<defs>
<linearGradient id="paint0_linear_748_3142" x1="70" y1="0" x2="70" y2="140" gradientUnits="userSpaceOnUse">
<stop stop-color="#14DA85"/>
<stop offset="1" stop-color="#1EBE76"/>
</linearGradient>
<clipPath id="clip0_748_3142">
<rect width="90" height="98" fill="white" transform="translate(25 21)"/>
</clipPath>
</defs>
</svg>
