<svg width="140" height="140" viewBox="0 0 140 140" fill="none" xmlns="http://www.w3.org/2000/svg">
<rect width="140" height="140" rx="30" fill="white"/>
<g clip-path="url(#clip0_683_102)">
<path d="M107.091 55.0072C109.086 55.0072 111.079 54.9875 113.075 55.0108C117.126 55.0592 120.254 56.743 122.409 60.055C123.469 61.685 123.966 63.4979 123.976 65.4202C123.991 68.4435 124.028 71.4668 123.968 74.4884C123.89 78.5481 122.025 81.6485 118.38 83.6982C116.805 84.584 115.075 84.9857 113.256 84.991C109.298 85 105.339 85.0018 101.38 84.991C96.5367 84.9803 92.3109 81.8117 91.0333 77.2499C90.7978 76.4106 90.6662 75.5553 90.6662 74.6838C90.6662 71.474 90.5939 68.2642 90.6903 65.058C90.7886 61.7334 92.3127 59.0472 95.0589 57.0407C96.9687 55.6456 99.1567 55 101.552 55.0072C103.399 55.0108 105.244 55.0072 107.091 55.0072ZM106.236 64.7047C106.236 63.9731 106.24 63.2505 106.231 62.5278C106.231 62.465 106.173 62.3772 106.118 62.3449C105.884 62.2086 105.648 62.067 105.396 61.9683C103.705 61.3031 101.96 61.1883 100.186 61.5649C98.5411 61.9145 97.2469 62.7806 96.316 64.1381C95.4705 65.3718 95.0755 66.7561 94.8994 68.2068C94.7492 69.4352 94.7603 70.6653 94.8994 71.8936C95.0366 73.1022 95.3166 74.2768 95.8784 75.3742C96.5571 76.7011 97.5547 77.7071 99.0177 78.2289C100.101 78.6145 101.219 78.6647 102.348 78.5069C104.143 78.2558 105.519 77.4059 106.366 75.8261C106.868 74.89 107.119 73.8787 107.165 72.835C107.217 71.6623 107.202 70.4878 107.213 69.3132C107.213 69.2738 107.199 69.2325 107.191 69.2002H101.093V71.4615H104.226C104.221 72.5965 104.23 73.7083 103.776 74.7573C103.65 75.0496 103.459 75.3258 103.251 75.5714C102.431 76.5469 100.05 76.728 98.9694 75.2236C98.5133 74.587 98.2611 73.8751 98.0998 73.1273C97.7957 71.7143 97.7809 70.2833 97.8513 68.8506C97.8977 67.9271 98.0368 67.0144 98.3687 66.1375C98.9194 64.6778 99.9652 63.8063 101.589 63.6521C102.706 63.5463 103.794 63.7005 104.84 64.0915C105.305 64.2654 105.752 64.4913 106.234 64.7047H106.236ZM119.935 72.2989L119.998 72.2899C119.891 71.5547 119.837 70.8069 119.663 70.0879C119.034 67.5021 117.122 66.0156 114.475 65.9976C112.034 65.9815 110.176 67.2367 109.405 69.4728C108.797 71.2319 108.791 73.0179 109.296 74.8022C109.607 75.8978 110.186 76.8446 111.124 77.5547C112.175 78.3527 113.394 78.6485 114.706 78.5876C116.798 78.4907 118.331 77.5475 119.234 75.7023C119.761 74.6264 119.917 73.4752 119.935 72.2989Z" fill="black"/>
<path d="M19.8715 72.7293C19.2875 72.2326 18.7015 71.7717 18.1601 71.266C16.0963 69.3402 16.0463 66.4818 16.8732 64.6904C17.4777 63.385 18.5421 62.5673 19.9105 62.0867C20.9044 61.7371 21.9353 61.6115 22.9867 61.6097C24.3959 61.6097 25.8032 61.6097 27.2125 61.6097C27.2699 61.6097 27.3274 61.6169 27.3979 61.6223V78.3366H24.4293V63.8441C23.6931 63.8709 22.9792 63.853 22.2783 63.9355C21.8092 63.9893 21.3327 64.131 20.9062 64.3282C19.9049 64.7891 19.4321 65.6139 19.3653 66.6665C19.2671 68.2481 19.9049 69.4962 21.2177 70.425C21.9112 70.9146 22.6251 71.379 23.3278 71.8542C23.4057 71.9062 23.4855 71.96 23.5763 72.021C23.5374 72.0837 23.5077 72.1375 23.4725 72.1877C22.1003 74.1854 20.7282 76.183 19.3598 78.1824C19.2726 78.3097 19.1799 78.3617 19.0205 78.3599C18.1008 78.3527 17.1829 78.3563 16.2632 78.3563C16.1909 78.3563 16.1204 78.3563 15.998 78.3563C17.3127 76.4466 18.6014 74.5727 19.8697 72.7311L19.8715 72.7293Z" fill="#FF0000"/>
<path d="M51.6737 66.2451C51.6737 66.3545 51.6737 66.4459 51.6737 66.5374C51.6737 69.6306 51.6756 72.7257 51.6682 75.8189C51.6682 76.0341 51.7182 76.1076 51.9482 76.0933C52.2856 76.0735 52.625 76.0879 52.9773 76.0879V81.1052H50.2719V78.3545H43.6653V81.107H40.9507V76.0879C41.1454 76.0879 41.3438 76.0664 41.5366 76.0933C41.8018 76.1291 41.913 76.0126 42.0039 75.7902C42.3247 75.0066 42.5268 74.1961 42.6714 73.3694C43.0423 71.2499 43.0905 69.1106 43.0997 66.9677C43.0997 66.7328 43.0997 66.4961 43.0997 66.2433H51.6737V66.2451ZM48.7162 76.0843V68.5135H45.6326C45.5918 71.0849 45.5065 73.6348 44.6072 76.0843H48.7162Z" fill="black"/>
<path d="M63.7079 75.2343C63.7097 75.2827 63.7153 75.3365 63.7153 75.3903C63.7153 76.043 63.7116 76.6939 63.719 77.3448C63.7209 77.4865 63.6727 77.5654 63.5503 77.6371C62.7604 78.1034 61.8944 78.3634 60.984 78.4889C59.8585 78.6431 58.7367 78.6377 57.6297 78.3616C55.8496 77.9169 54.6574 76.8356 54.127 75.1446C53.4836 73.1004 53.5077 71.04 54.2976 69.0334C54.9392 67.4034 56.1537 66.3688 57.9672 66.0711C58.8832 65.9205 59.7992 65.9491 60.6966 66.2074C62.2115 66.6431 63.0793 67.6796 63.4835 69.1016C63.6467 69.6772 63.7542 70.2779 63.7932 70.8732C63.8451 71.6712 63.8062 72.4745 63.8062 73.3012H56.7526C56.8046 74.0759 56.914 74.8057 57.4035 75.4243C57.8318 75.9659 58.4381 76.199 59.1149 76.2743C60.6892 76.4482 62.1411 76.0717 63.5021 75.3221C63.5595 75.2899 63.617 75.2558 63.6745 75.2235C63.6782 75.2217 63.6875 75.2271 63.7116 75.2343H63.7079ZM60.8542 71.1835C60.8542 70.5558 60.8301 69.9569 60.6095 69.3831C60.3814 68.7896 59.9753 68.3789 59.3078 68.2893C58.5735 68.1906 57.8949 68.3162 57.4146 68.924C56.8917 69.5857 56.7953 70.3693 56.7508 71.1817H60.8542V71.1835Z" fill="black"/>
<path d="M32.8345 71.0275H36.7618V66.2487H39.6952V78.3401H36.7747V73.3192H32.8475V78.3419H29.9141V66.2487H32.8326V71.0275H32.8345Z" fill="black"/>
<path d="M76.4405 78.3347C76.3645 78.3401 76.3144 78.3437 76.2662 78.3437C75.2723 78.3437 74.2803 78.3419 73.2865 78.3473C73.1474 78.3473 73.0769 78.2935 73.0028 78.1913C71.6547 76.3425 70.3011 74.4973 68.9494 72.6503C68.9067 72.593 68.8622 72.5374 68.7788 72.4298V78.3401H65.8306V66.2505H68.764V71.7358C68.7807 71.7394 68.7973 71.743 68.8159 71.7448C68.8641 71.6856 68.9142 71.6282 68.9587 71.5655C70.2399 69.8458 71.5212 68.1261 72.7969 66.4029C72.8952 66.272 72.9935 66.2218 73.1604 66.2236C73.9836 66.2325 74.8051 66.2271 75.6284 66.2271H75.8935C75.823 66.3276 75.7823 66.3885 75.7359 66.4495C74.4528 68.1763 73.1696 69.9032 71.8809 71.6264C71.7734 71.7699 71.7678 71.8649 71.8754 72.0138C73.3532 74.0454 74.8236 76.0825 76.2959 78.1178C76.3404 78.1805 76.383 78.2451 76.4405 78.3311V78.3347Z" fill="black"/>
<path d="M85.1667 75.5247C85.1667 76.1846 85.1389 76.8087 85.1778 77.4273C85.2001 77.7895 85.0517 77.9671 84.7402 78.1123C84.1079 78.4064 83.4385 78.5337 82.7469 78.5767C81.6715 78.6431 80.6127 78.5606 79.5966 78.1912C78.2801 77.7124 77.3437 76.8302 76.8671 75.5624C76.0531 73.3909 76.0235 71.1906 76.9432 69.0442C77.7071 67.2635 79.1534 66.2737 81.1356 66.0478C82.2778 65.9169 83.4144 65.9868 84.5233 66.306C85.1667 66.4907 85.1667 66.4943 85.1667 67.1273C85.1667 67.7602 85.1667 68.343 85.1667 68.9832C85.0851 68.9455 85.0295 68.9186 84.9739 68.8918C84.0078 68.4273 82.9935 68.1727 81.9069 68.2785C81.0076 68.3663 80.3401 68.8039 79.9044 69.566C79.5317 70.2205 79.4 70.936 79.3555 71.6694C79.298 72.6036 79.3444 73.5325 79.6485 74.4291C79.973 75.3813 80.5756 76.0932 81.6473 76.2653C82.8248 76.4536 83.9485 76.2617 84.9739 75.6395C85.0239 75.609 85.074 75.5803 85.1685 75.5247H85.1667Z" fill="black"/>
<path d="M111.994 72.4908C112.012 71.5171 112.044 70.7299 112.285 69.9696C112.329 69.8261 112.383 69.6844 112.442 69.5464C113.039 68.1728 114.367 68.0993 115.279 68.3987C115.808 68.5727 116.151 68.951 116.39 69.4226C116.685 70.0036 116.8 70.6295 116.846 71.2678C116.926 72.385 116.93 73.4986 116.613 74.5906C116.574 74.7287 116.524 74.8632 116.468 74.9959C115.971 76.1668 114.957 76.5111 113.789 76.2493C113.255 76.1292 112.873 75.7992 112.6 75.3473C112.283 74.8237 112.151 74.2445 112.079 73.6528C112.025 73.2063 112.012 72.7544 111.994 72.4908Z" fill="black"/>
</g>
<defs>
<clipPath id="clip0_683_102">
<rect width="108" height="30" fill="white" transform="translate(16 55)"/>
</clipPath>
</defs>
</svg>
