<svg width="140" height="140" viewBox="0 0 140 140" fill="none" xmlns="http://www.w3.org/2000/svg">
<rect width="140" height="140" rx="30" fill="white"/>
<path d="M100.031 26.3292C102 23.3258 105.406 21.3287 108.985 21.0475C112.035 20.7663 115.159 21.7462 117.543 23.6598C116.772 24.2288 115.992 24.7847 115.232 25.3647C113.1 23.9608 110.404 23.4005 107.911 24.0157C105.313 24.6067 103.024 26.3951 101.826 28.7702C100.741 30.8574 100.497 33.3708 101.196 35.6206C101.998 38.4284 104.256 40.7551 107.018 41.6889C109.457 42.5457 112.25 42.2887 114.504 41.0276C117.477 39.4193 119.323 36.082 119.248 32.7161C120.114 32.1031 120.964 31.4682 121.819 30.8376C122.265 33.4411 121.892 36.1984 120.641 38.5361C119.075 41.6186 116.089 43.9255 112.718 44.6879C109.833 45.3733 106.702 44.9142 104.12 43.4641C101.22 41.8383 99.0446 38.9711 98.3151 35.7217C97.5571 32.5359 98.1811 29.036 100.031 26.3292ZM110.02 32.6436C113.177 30.3015 116.363 28.0012 119.525 25.6635C120.077 26.4105 120.573 27.2015 120.964 28.0451C117.328 30.7277 113.663 33.373 110.042 36.0776C108.506 35.1526 107.01 34.1683 105.48 33.2368C105.454 32.0833 105.472 30.9321 105.467 29.7786C106.988 30.7299 108.495 31.6988 110.02 32.6436Z" fill="#ACB2B6"/>
<mask id="mask0_812_103" style="mask-type:luminance" maskUnits="userSpaceOnUse" x="18" y="33" width="97" height="87">
<path d="M18.1037 33.4719H19.1366C21.4781 33.4851 23.8219 33.4476 26.1612 33.4896C31.5174 33.6686 36.7544 36.0225 40.44 39.9169C41.7575 41.2916 42.861 42.8609 43.7724 44.5318C44.4853 45.9 45.0613 47.3432 45.4629 48.8329C45.5534 49.191 45.6329 49.5512 45.7167 49.9115C46.7474 49.9115 47.778 49.9115 48.8064 49.9115C50.2034 49.9049 51.6004 49.9115 52.9974 49.9115C55.3345 49.9049 57.6694 49.9115 60.0044 49.9115C62.2135 49.9071 64.4248 49.9115 66.634 49.9115C68.8431 49.9115 71.0368 49.9115 73.2393 49.9115C74.4178 49.9115 75.5985 49.9115 76.7792 49.9115C77.8054 49.9115 78.8316 49.9115 79.8601 49.9115C81.0386 49.9115 82.217 49.9071 83.3978 49.9115C84.6402 49.9115 85.8805 49.9071 87.123 49.9115C88.3986 49.9115 89.672 49.9071 90.9454 49.9115C92.1769 49.9115 93.4084 49.9049 94.6398 49.9115C95.772 49.9115 96.9019 49.9071 98.0341 49.9159C100.058 49.9115 102.084 49.9071 104.11 49.9115C104.291 49.9115 104.657 49.9115 104.84 49.9159C104.196 52.5881 103.571 55.2669 102.938 57.9435C102.587 59.4 102.249 60.8587 101.898 62.3153C100.605 62.3153 99.3119 62.3153 98.0186 62.3153C96.1758 62.3219 94.3353 62.3153 92.4947 62.3153C90.738 62.3219 88.9813 62.3131 87.2268 62.3153C86.1939 62.3197 85.1633 62.3153 84.1327 62.3153C82.9519 62.3153 81.7712 62.3153 80.5905 62.3153C79.2686 62.3197 77.9489 62.3153 76.6269 62.3153C75.3844 62.3153 74.1419 62.3153 72.8994 62.3153C71.7231 62.3197 70.5446 62.3153 69.3661 62.3153C68.3355 62.3153 67.3049 62.3153 66.2742 62.3153C65.0935 62.3197 63.9128 62.3153 62.7343 62.3153H55.937C53.7742 62.3153 51.6114 62.3153 49.4487 62.3153C49.1794 62.3153 48.9102 62.3153 48.6409 62.3153C48.663 62.4147 48.7071 62.6092 48.7292 62.7065C49.0426 64.037 49.3714 65.3632 49.6892 66.6915C50.2321 68.915 50.7684 71.1385 51.3047 73.362C51.7041 74.9909 52.097 76.622 52.4898 78.2532C52.7899 79.4975 53.0989 80.7375 53.3902 81.9818C53.4189 82.0879 53.4741 82.3001 53.5028 82.4062C53.975 82.4349 54.4495 82.4305 54.9218 82.4327C55.7296 82.4283 56.5373 82.4261 57.345 82.4283C58.23 82.4283 59.115 82.4261 59.9999 82.4283C61.3859 82.4283 62.7718 82.4217 64.1578 82.4283C65.6408 82.4327 67.1217 82.4239 68.6047 82.4283C70.0988 82.4283 71.5929 82.4217 73.0892 82.4283C75.6316 82.4239 78.174 82.4283 80.7185 82.4283C82.206 82.4283 83.6935 82.4283 85.1809 82.4283C86.6684 82.4283 88.1559 82.4239 89.6433 82.4283C92.1063 82.4195 94.5692 82.4283 97.0321 82.4239C97.3676 80.9872 97.7251 79.555 98.0716 78.1206C98.7491 75.3357 99.4156 72.5464 100.098 69.7615C100.693 67.2772 101.303 64.7951 101.903 62.3131C106.156 62.3131 110.41 62.3175 114.663 62.3086C114.425 63.3231 114.178 64.3354 113.937 65.3499C113.279 68.084 112.62 70.818 111.966 73.552C111.627 74.96 111.287 76.3701 110.953 77.7824C110.587 79.3075 110.214 80.8303 109.852 82.3576C109.444 84.0705 109.031 85.7834 108.614 87.4941C108.243 89.0744 107.861 90.6525 107.48 92.2306C107.272 93.097 107.063 93.9612 106.86 94.8276C105.299 94.8321 103.741 94.8321 102.183 94.8276C100.135 94.8321 98.0848 94.8321 96.0346 94.8276C94.1168 94.8299 92.1967 94.8343 90.2767 94.8276C88.6701 94.8299 87.0612 94.8321 85.4546 94.8276C83.3271 94.8299 81.1974 94.8343 79.07 94.8299C77.7348 94.8299 76.3996 94.8299 75.0644 94.8299C73.6851 94.8299 72.3035 94.8299 70.9242 94.8299C68.1214 94.8299 65.3164 94.8299 62.5136 94.8299C61.2756 94.8343 60.0397 94.8276 58.806 94.8299C57.4576 94.8299 56.1114 94.8254 54.7651 94.8299C53.5955 94.8343 52.4258 94.8276 51.2561 94.8299C50.4506 94.8299 49.6451 94.8299 48.8395 94.8299C48.1135 94.8299 47.3852 94.8276 46.6591 94.8299C45.986 94.8276 45.3151 94.8343 44.642 94.8299C44.3153 94.8276 43.9887 94.8276 43.6643 94.821C43.2626 93.0926 42.8411 91.3709 42.4306 89.6447C42.0268 87.9649 41.6251 86.2851 41.2257 84.6076C40.696 82.3797 40.1531 80.1562 39.6278 77.9283C39.3277 76.6884 39.0298 75.4484 38.734 74.2085C38.2463 72.1707 37.752 70.1373 37.2731 68.0972C36.9729 66.8573 36.675 65.6151 36.3793 64.373C36.0659 63.0668 35.7547 61.7605 35.4391 60.4565C35.0595 58.8519 34.6689 57.2517 34.2893 55.647C33.7287 53.5982 33.5323 51.3769 32.2898 49.5866C30.8134 47.4493 28.3571 46.006 25.7485 45.9C23.5195 45.8425 21.2883 45.8823 19.0593 45.8801C18.7062 45.8801 18.3531 45.8845 18 45.8867V34.787C18.0331 34.3471 18.0684 33.9095 18.1037 33.4697V33.4719ZM59.7859 118.654V118.68C58.6493 119.246 57.4068 119.564 56.1423 119.673C54.9947 119.713 53.8448 119.569 52.748 119.229C50.8302 118.576 49.1551 117.303 47.9899 115.65C47.2991 114.541 46.7694 113.325 46.5399 112.034C45.8602 108.144 48.0164 103.978 51.6092 102.34C52.8892 101.679 54.3348 101.407 55.7649 101.396C56.6212 101.438 57.4664 101.587 58.3028 101.777L58.2874 101.812C59.8411 102.269 61.2336 103.173 62.3547 104.334C63.8466 105.983 64.7868 108.151 64.789 110.39C64.8927 113.805 62.8336 117.144 59.7859 118.654ZM100.254 105.605C101.881 108.082 102.174 111.362 100.994 114.085C100.7 114.715 100.382 115.339 99.9431 115.882L99.9673 115.913C98.9433 117.277 97.5574 118.344 95.9905 119.01C94.247 119.693 92.327 119.839 90.4952 119.467L90.482 119.416C87.741 118.853 85.3531 116.881 84.1922 114.344C83.3139 112.496 83.1131 110.341 83.6162 108.361C84.4196 104.984 87.3195 102.225 90.7269 101.591V101.569C92.3292 101.281 93.9932 101.379 95.5358 101.903C96.8401 102.373 98.0539 103.114 99.0272 104.106C99.484 104.564 99.8945 105.065 100.254 105.605Z" fill="white"/>
</mask>
<g mask="url(#mask0_812_103)">
<path d="M139.756 84.5015L71.4315 139.368L-11.4893 57.234L56.8349 2.36743L139.756 84.5015Z" fill="#018792"/>
<path d="M108.987 102.25C109.406 102.665 110.121 102.698 110.587 102.325C111.052 101.951 111.09 101.312 110.671 100.897C110.251 100.481 109.536 100.448 109.071 100.822C108.605 101.195 108.567 101.834 108.987 102.25Z" fill="#FF1A56"/>
<path d="M109.267 102.026C108.989 101.75 109.013 101.323 109.322 101.076C109.631 100.826 110.11 100.85 110.388 101.127C110.666 101.403 110.642 101.83 110.333 102.077C110.024 102.327 109.545 102.305 109.267 102.026ZM108.426 102.703C109.123 103.394 110.317 103.45 111.092 102.826C111.867 102.203 111.928 101.14 111.231 100.448C110.534 99.7564 109.34 99.7011 108.565 100.324C107.79 100.948 107.729 102.011 108.426 102.703Z" fill="#FF1E54"/>
<path d="M108.706 102.475C108.148 101.923 108.199 101.072 108.819 100.572C109.439 100.075 110.395 100.119 110.953 100.672C111.511 101.224 111.46 102.075 110.84 102.575C110.22 103.072 109.265 103.028 108.706 102.475ZM107.865 103.151C108.843 104.119 110.514 104.197 111.597 103.326C112.683 102.455 112.769 100.963 111.794 99.9974C110.816 99.0293 109.145 98.952 108.062 99.8228C106.976 100.694 106.89 102.186 107.865 103.151Z" fill="#FE2252"/>
<path d="M108.146 102.926C107.309 102.097 107.384 100.82 108.314 100.073C109.243 99.3255 110.675 99.3918 111.514 100.223C112.35 101.052 112.275 102.329 111.346 103.076C110.417 103.823 108.984 103.757 108.146 102.926ZM107.305 103.602C108.561 104.847 110.71 104.946 112.105 103.826C113.5 102.705 113.612 100.789 112.357 99.5443C111.101 98.3 108.951 98.2005 107.557 99.3189C106.162 100.439 106.049 102.356 107.305 103.6V103.602Z" fill="#FE2551"/>
<path d="M107.585 103.377C106.468 102.272 106.57 100.568 107.808 99.573C109.048 98.5784 110.957 98.6669 112.074 99.772C113.19 100.877 113.089 102.581 111.851 103.576C110.611 104.57 108.702 104.482 107.585 103.377ZM106.744 104.053C108.28 105.574 110.906 105.695 112.61 104.327C114.314 102.959 114.453 100.616 112.917 99.0956C111.381 97.575 108.755 97.4534 107.051 98.8216C105.347 100.19 105.208 102.533 106.744 104.053Z" fill="#FD294F"/>
<path d="M107.022 103.828C105.628 102.446 105.751 100.316 107.303 99.0713C108.852 97.827 111.24 97.9375 112.635 99.3211C114.029 100.702 113.906 102.833 112.354 104.077C110.805 105.322 108.417 105.211 107.022 103.828ZM106.182 104.504C107.996 106.301 111.099 106.447 113.113 104.829C115.128 103.211 115.292 100.444 113.478 98.647C111.664 96.85 108.561 96.7042 106.546 98.3221C104.531 99.9399 104.367 102.707 106.182 104.504Z" fill="#FD2D4D"/>
<path d="M106.462 104.279C104.786 102.621 104.937 100.064 106.797 98.5718C108.657 97.0777 111.522 97.2125 113.197 98.8702C114.872 100.528 114.722 103.083 112.862 104.577C111.001 106.071 108.137 105.936 106.462 104.279ZM105.621 104.955C107.713 107.028 111.295 107.196 113.619 105.328C115.942 103.461 116.13 100.267 114.038 98.1939C111.946 96.1207 108.364 95.9527 106.04 97.8204C103.716 99.688 103.529 102.882 105.621 104.955Z" fill="#FC314B"/>
<path d="M105.901 104.729C103.948 102.796 104.123 99.8139 106.292 98.0701C108.461 96.3284 111.805 96.4831 113.758 98.4193C115.711 100.355 115.537 103.335 113.367 105.079C111.198 106.82 107.854 106.666 105.901 104.729ZM105.061 105.406C107.433 107.755 111.491 107.945 114.127 105.83C116.762 103.715 116.973 100.095 114.601 97.7452C112.229 95.3957 108.17 95.2056 105.535 97.3208C102.9 99.436 102.688 103.056 105.061 105.406Z" fill="#FC3549"/>
<path d="M105.339 105.18C103.105 102.968 103.306 99.562 105.787 97.5706C108.267 95.5792 112.085 95.7582 114.319 97.9684C116.552 100.181 116.351 103.587 113.871 105.578C111.39 107.57 107.572 107.391 105.339 105.18ZM104.498 105.857C107.148 108.482 111.686 108.695 114.63 106.33C117.574 103.965 117.812 99.92 115.162 97.2943C112.511 94.6686 107.974 94.4564 105.03 96.8213C102.086 99.1863 101.847 103.231 104.498 105.857Z" fill="#FC3847"/>
<path d="M104.778 105.631C102.266 103.143 102.492 99.31 105.281 97.0711C108.071 94.8321 112.368 95.031 114.879 97.5197C117.39 100.008 117.165 103.841 114.376 106.08C111.586 108.321 107.289 108.12 104.778 105.631ZM103.937 106.308C106.868 109.21 111.882 109.444 115.135 106.831C118.39 104.219 118.653 99.7454 115.722 96.8434C112.791 93.9414 107.777 93.7071 104.524 96.3196C101.269 98.9321 101.006 103.406 103.937 106.308Z" fill="#FB3C46"/>
<path d="M104.217 106.082C101.426 103.317 101.677 99.0603 104.776 96.5693C107.874 94.0806 112.65 94.3039 115.442 97.0689C118.234 99.8338 117.982 104.091 114.884 106.582C111.785 109.07 107.009 108.847 104.217 106.082ZM103.377 106.758C106.585 109.937 112.076 110.193 115.643 107.331C119.207 104.469 119.494 99.5708 116.285 96.3925C113.076 93.2142 107.585 92.9578 104.019 95.8201C100.455 98.6823 100.166 103.58 103.377 106.758Z" fill="#FB4044"/>
<path d="M103.655 106.533C100.585 103.492 100.861 98.8083 104.271 96.0698C107.68 93.3314 112.933 93.5767 116.003 96.618C119.073 99.6592 118.797 104.343 115.387 107.081C111.977 109.82 106.725 109.574 103.655 106.533ZM102.814 107.209C106.303 110.664 112.271 110.945 116.146 107.833C120.022 104.721 120.333 99.3984 116.846 95.9416C113.357 92.4871 107.389 92.2064 103.514 95.3184C99.6384 98.4304 99.3273 103.753 102.814 107.209Z" fill="#FA4442"/>
<path d="M103.094 106.982C99.7457 103.664 100.046 98.5542 103.765 95.5681C107.483 92.5821 113.215 92.8496 116.562 96.1671C119.91 99.4847 119.61 104.595 115.892 107.581C112.173 110.567 106.442 110.299 103.094 106.982ZM102.253 107.658C106.02 111.389 112.466 111.692 116.651 108.33C120.835 104.97 121.173 99.2216 117.406 95.4886C113.638 91.7577 107.192 91.4549 103.008 94.8167C98.8232 98.1762 98.4856 103.925 102.253 107.658Z" fill="#FA4840"/>
<path d="M102.533 107.433C98.905 103.839 99.2294 98.3022 103.259 95.0664C107.289 91.8306 113.497 92.1202 117.123 95.714C120.751 99.3078 120.427 104.844 116.397 108.08C112.367 111.316 106.159 111.026 102.533 107.433ZM101.692 108.109C105.74 112.118 112.663 112.441 117.156 108.832C121.65 105.222 122.014 99.047 117.966 95.0399C113.919 91.0327 106.996 90.7078 102.502 94.3171C98.009 97.9264 97.6448 104.102 101.692 108.109Z" fill="#F94B3E"/>
<path d="M101.973 107.883C98.0664 104.013 98.415 98.0524 102.756 94.5669C107.095 91.0814 113.78 91.3952 117.688 95.2653C121.594 99.1354 121.246 105.096 116.905 108.582C112.566 112.067 105.881 111.754 101.973 107.883ZM101.132 108.56C105.457 112.845 112.859 113.19 117.664 109.333C122.468 105.477 122.857 98.8746 118.531 94.589C114.206 90.3034 106.804 89.9586 101.999 93.8154C97.1946 97.6723 96.8062 104.274 101.132 108.56Z" fill="#F94F3D"/>
<path d="M101.41 108.334C97.2238 104.188 97.599 97.8003 102.249 94.0673C106.899 90.3342 114.06 90.668 118.247 94.8143C122.433 98.9607 122.058 105.348 117.408 109.081C112.758 112.814 105.597 112.481 101.41 108.334ZM100.569 109.011C105.175 113.572 113.054 113.939 118.167 109.833C123.281 105.726 123.694 98.6999 119.09 94.138C114.486 89.5761 106.605 89.2092 101.492 93.3158C96.3785 97.4224 95.9658 104.449 100.569 109.011Z" fill="#F8533B"/>
<path d="M100.85 108.785C96.3855 104.363 96.785 97.5485 101.744 93.5656C106.703 89.5828 114.343 89.9409 118.808 94.3635C123.272 98.7862 122.873 105.6 117.914 109.583C112.955 113.566 105.315 113.208 100.85 108.785ZM100.009 109.462C104.893 114.3 113.249 114.689 118.673 110.335C124.098 105.978 124.535 98.5254 119.651 93.6894C114.767 88.8512 106.412 88.4622 100.987 92.8164C95.5624 97.1727 95.1254 104.626 100.009 109.462Z" fill="#F85739"/>
<path d="M100.289 109.236C95.5444 104.537 95.9704 97.2964 101.24 93.0661C106.511 88.8357 114.628 89.2136 119.37 93.9126C124.115 98.6115 123.689 105.852 118.419 110.083C113.149 114.313 105.032 113.935 100.289 109.236ZM99.4485 109.912C104.61 115.027 113.445 115.44 119.178 110.834C124.912 106.23 125.375 98.3507 120.213 93.2363C115.051 88.1218 106.217 87.7085 100.484 92.3146C94.7499 96.9185 94.2865 104.798 99.4485 109.912Z" fill="#F85B37"/>
<path d="M99.7262 109.687C94.7033 104.712 95.1535 97.0468 100.733 92.5666C106.312 88.0865 114.908 88.4888 119.931 93.464C124.954 98.4392 124.503 106.104 118.924 110.584C113.345 115.064 104.749 114.662 99.7262 109.687ZM98.8854 110.363C104.328 115.754 113.639 116.19 119.683 111.336C125.728 106.482 126.216 98.1784 120.774 92.7877C115.331 87.3969 106.02 86.9615 99.9756 91.8152C93.9308 96.6688 93.4431 104.973 98.8854 110.363Z" fill="#F75E35"/>
<path d="M99.1658 110.138C93.8625 104.886 94.3392 96.7948 100.227 92.0649C106.115 87.3351 115.188 87.7594 120.491 93.0131C125.795 98.2646 125.318 106.356 119.43 111.086C113.542 115.816 104.469 115.392 99.1658 110.138ZM98.3249 110.814C104.045 116.481 113.835 116.939 120.189 111.835C126.543 106.732 127.057 98.0038 121.334 92.3368C115.614 86.6698 105.824 86.2123 99.4703 91.3157C93.1166 96.4191 92.6024 105.147 98.3249 110.814Z" fill="#F76233"/>
<path d="M98.6053 110.589C93.024 105.061 93.525 96.5428 99.7242 91.5654C105.923 86.588 115.473 87.0344 121.054 92.5622C126.635 98.09 126.134 106.608 119.935 111.586C113.736 116.563 104.187 116.117 98.6053 110.589ZM97.7645 111.265C103.765 117.208 114.032 117.688 120.694 112.337C127.359 106.986 127.896 97.8292 121.897 91.8859C115.897 85.9426 105.63 85.463 98.9672 90.8139C92.3023 96.1649 91.766 105.322 97.7645 111.265Z" fill="#F66632"/>
<path d="M98.0449 111.04C92.1833 105.236 92.7107 96.2907 99.2189 91.0636C105.727 85.8364 115.755 86.305 121.617 92.1112C127.479 97.9153 126.951 106.86 120.443 112.087C113.935 117.314 103.906 116.846 98.0449 111.04ZM97.204 111.716C103.483 117.935 114.226 118.437 121.2 112.836C128.174 107.236 128.737 97.6545 122.458 91.4349C116.179 85.2153 105.436 84.7136 98.462 90.3143C91.4881 95.915 90.9253 105.496 97.204 111.716Z" fill="#F66A30"/>
<path d="M97.482 111.491C91.3423 105.408 91.8918 96.0411 98.7112 90.5642C105.531 85.0894 116.036 85.5801 122.175 91.6604C128.315 97.743 127.765 107.11 120.946 112.587C114.127 118.062 103.622 117.571 97.482 111.491ZM96.6411 112.167C103.2 118.663 114.42 119.187 121.705 113.338C128.988 107.49 129.577 97.4822 123.018 90.9863C116.459 84.4905 105.239 83.9666 97.9543 89.8149C90.6714 95.6631 90.0822 105.671 96.6411 112.167Z" fill="#F56E2E"/>
<path d="M96.9209 111.939C90.5032 105.58 91.077 95.7869 98.2053 90.0625C105.334 84.338 116.318 84.8508 122.735 91.2096C129.153 97.5684 128.579 107.362 121.449 113.086C114.32 118.811 103.336 118.298 96.9187 111.939H96.9209ZM96.0801 112.616C102.917 119.388 114.616 119.936 122.21 113.838C129.804 107.74 130.418 97.3054 123.581 90.5332C116.744 83.7611 105.045 83.213 97.4506 89.311C89.8566 95.409 89.243 105.843 96.0801 112.616Z" fill="#F5712C"/>
<path d="M96.3606 112.39C89.6626 105.755 90.2628 95.535 97.7024 89.5608C105.142 83.5865 116.6 84.1236 123.298 90.7565C129.996 97.3916 129.396 107.612 121.956 113.586C114.517 119.56 103.059 119.023 96.3606 112.39ZM95.5197 113.066C102.637 120.115 114.813 120.685 122.716 114.337C130.619 107.99 131.256 97.1308 124.141 90.0824C117.024 83.034 104.848 82.4637 96.9454 88.8115C89.0424 95.1592 88.4046 106.018 95.5197 113.066Z" fill="#F5752A"/>
<path d="M95.798 112.841C88.8219 105.93 89.4464 95.283 97.195 89.0612C104.943 82.8394 116.881 83.3964 123.859 90.3078C130.835 97.2192 130.211 107.866 122.462 114.088C114.714 120.309 102.776 119.752 95.798 112.841ZM94.9571 113.517C102.353 120.842 115.007 121.434 123.219 114.839C131.433 108.244 132.095 96.9583 124.7 89.6315C117.304 82.3068 104.65 81.7144 96.438 88.3097C88.2238 94.905 87.5617 106.19 94.9571 113.517Z" fill="#F47929"/>
<path d="M95.2374 113.292C87.981 106.104 88.6321 95.0333 96.6895 88.5617C104.749 82.0902 117.163 82.6715 124.42 89.8569C131.676 97.0446 131.025 108.116 122.965 114.587C114.905 121.059 102.492 120.477 95.2352 113.292H95.2374ZM94.3965 113.968C102.072 121.569 115.203 122.184 123.727 115.339C132.25 108.494 132.938 96.7815 125.263 89.1806C117.587 81.5796 104.456 80.9652 95.9326 87.8102C87.4094 94.6553 86.7209 106.367 94.3943 113.968H94.3965Z" fill="#F47D27"/>
<path d="M94.677 113.743C87.1425 106.279 87.8178 94.7813 96.1865 88.06C104.555 81.3387 117.448 81.9421 124.982 89.406C132.517 96.8699 131.842 108.367 123.473 115.089C115.104 121.81 102.211 121.207 94.677 113.743ZM93.8361 114.419C101.79 122.296 115.398 122.933 124.232 115.84C133.066 108.748 133.779 96.6091 125.825 88.7319C117.872 80.8546 104.264 80.2181 95.4295 87.3107C86.5952 94.4033 85.8824 106.542 93.8361 114.419Z" fill="#F38125"/>
<path d="M94.1141 114.194C86.2994 106.453 87.0012 94.5292 95.6788 87.5604C104.356 80.5916 117.728 81.2171 125.541 88.9573C133.355 96.6975 132.654 108.622 123.976 115.59C115.298 122.559 101.927 121.934 94.1141 114.194ZM93.2732 114.87C101.505 123.026 115.592 123.682 124.735 116.34C133.878 108.997 134.618 96.4344 126.384 88.2787C118.152 80.123 104.065 79.4666 94.9218 86.8089C85.7785 94.1513 85.0392 106.714 93.2732 114.87Z" fill="#F38423"/>
<path d="M93.5535 114.644C85.4607 106.628 86.1868 94.2773 95.1734 87.0609C104.162 79.8423 118.008 80.4899 126.103 88.5064C134.196 96.5228 133.47 108.874 124.484 116.09C115.497 123.306 101.649 122.661 93.5535 114.644ZM92.7127 115.321C101.225 123.753 115.788 124.434 125.243 116.841C134.697 109.249 135.459 96.262 126.946 87.83C118.434 79.398 103.871 78.7173 94.4164 86.3094C84.962 93.9015 84.2006 106.889 92.7127 115.321Z" fill="#F28821"/>
<path d="M92.9927 115.095C84.6196 106.803 85.37 94.0275 94.6699 86.5592C103.968 79.093 118.293 79.7627 126.666 88.0555C135.039 96.3482 134.289 109.123 124.989 116.592C115.691 124.058 101.366 123.388 92.9927 115.095ZM92.1518 115.772C100.942 124.48 115.984 125.183 125.748 117.341C135.511 109.501 136.299 96.0852 127.509 87.3792C118.719 78.6709 103.676 77.968 93.913 85.8099C84.1495 93.6496 83.3617 107.066 92.1518 115.772Z" fill="#F28C1F"/>
<path d="M92.4322 115.546C83.7811 106.977 84.5557 93.7757 94.1647 86.0598C103.774 78.3439 118.575 79.0357 127.227 87.6047C135.878 96.1737 135.103 109.375 125.494 117.091C115.885 124.807 101.083 124.115 92.4322 115.546ZM91.5914 116.223C100.662 125.207 116.181 125.932 126.253 117.843C136.326 109.753 137.14 95.9129 128.07 86.9284C118.999 77.9438 103.48 77.2189 93.4077 85.3083C83.3353 93.3977 82.5209 107.238 91.5914 116.223Z" fill="#F2901E"/>
<path d="M91.8701 115.997C82.9387 107.152 83.7398 93.5237 93.6577 85.558C103.576 77.5924 118.856 78.3085 127.786 87.1538C136.717 95.9991 135.916 109.627 125.998 117.593C116.08 125.559 100.799 124.843 91.8701 115.997ZM91.0293 116.674C100.378 125.934 116.374 126.681 126.757 118.344C137.141 110.005 137.979 95.7405 128.629 86.4797C119.28 77.2188 103.284 76.4718 92.9008 84.8087C82.5172 93.1479 81.6785 107.413 91.0293 116.674Z" fill="#F1941C"/>
<path d="M91.3094 116.446C82.0999 107.324 82.9253 93.2694 93.1544 85.0562C103.383 76.843 119.141 77.579 128.35 86.7006C137.56 95.8222 136.734 109.877 126.505 118.09C116.276 126.303 100.519 125.567 91.3094 116.446ZM90.4685 117.122C100.097 126.659 116.57 127.428 127.265 118.842C137.959 110.255 138.82 95.5614 129.193 86.0265C119.565 76.4894 103.092 75.7202 92.3974 84.3069C81.7048 92.8936 80.8419 107.587 90.4685 117.122Z" fill="#F1971A"/>
<path d="M90.7487 116.897C81.2612 107.499 82.1108 93.0197 92.6489 84.5568C103.187 76.0938 119.421 76.8542 128.911 86.252C138.401 95.6499 137.549 110.129 127.011 118.592C116.473 127.055 100.238 126.297 90.7487 116.897ZM89.9079 117.573C99.8148 127.386 116.766 128.178 127.77 119.343C138.774 110.507 139.661 95.3891 129.754 85.5757C119.847 75.7623 102.896 74.9711 91.8919 83.8053C80.8882 92.6418 80.001 107.76 89.9079 117.573Z" fill="#F09B18"/>
<path d="M90.1858 117.348C80.418 107.674 81.2941 92.7678 92.1412 84.0551C102.99 75.3446 119.701 76.1248 129.469 85.799C139.237 95.4731 138.361 110.379 127.514 119.092C116.664 127.802 99.9537 127.022 90.1858 117.348ZM89.345 118.024C99.5321 128.114 116.96 128.929 128.273 119.843C139.586 110.759 140.499 95.2145 130.312 85.1249C120.125 75.0352 102.697 74.2196 91.3842 83.3058C80.0715 92.3921 79.1578 107.934 89.345 118.024Z" fill="#F09F16"/>
<path d="M89.6253 117.798C79.5794 107.848 80.4798 92.5157 91.638 83.5555C102.796 74.5952 119.986 75.3975 130.032 85.3502C140.078 95.3006 139.177 110.633 128.019 119.593C116.861 128.553 99.6712 127.751 89.6253 117.798ZM88.7844 118.475C99.2497 128.841 117.157 129.678 128.778 120.345C140.402 111.011 141.34 95.042 130.875 84.6738C120.41 74.3079 102.503 73.4702 90.881 82.804C79.2571 92.1377 78.3192 108.107 88.7844 118.475Z" fill="#EFA315"/>
<path d="M89.0648 118.249C78.7386 108.02 79.6655 92.2637 91.1327 83.056C102.6 73.846 120.269 74.6726 130.595 84.9015C140.921 95.1304 139.994 110.887 128.527 120.095C117.06 129.305 99.391 128.478 89.0648 118.249ZM88.224 118.926C98.9695 129.568 117.353 130.428 129.286 120.844C141.219 111.261 142.183 94.8652 131.438 84.223C120.692 73.5807 102.309 72.721 90.3757 82.3045C78.4429 91.888 77.4785 108.283 88.224 118.926Z" fill="#EFA613"/>
<path d="M88.5043 118.7C77.9 108.195 78.8512 92.014 90.6273 82.5543C102.406 73.0967 120.551 73.9432 131.155 84.4484C141.76 94.9536 140.808 111.135 129.032 120.594C117.254 130.052 99.1085 129.205 88.5043 118.7ZM87.6634 119.377C98.687 130.295 117.547 131.177 129.791 121.346C142.035 111.515 143.022 94.6928 131.998 83.7743C120.975 72.8558 102.114 71.9739 89.8704 81.805C77.6263 91.6361 76.6399 108.458 87.6634 119.377Z" fill="#EFA712"/>
<path d="M87.941 119.151C77.0564 108.37 78.0319 91.7621 90.1214 82.0548C102.209 72.3475 120.831 73.2183 131.715 83.9998C142.6 94.7812 141.624 111.389 129.535 121.096C117.448 130.803 98.8233 129.933 87.941 119.151ZM87.1001 119.827C98.4018 131.022 117.741 131.926 130.294 121.845C142.847 111.765 143.86 94.5182 132.558 83.3212C121.257 72.1265 101.917 71.2225 89.3644 81.3033C76.8115 91.3841 75.7985 108.63 87.1001 119.827Z" fill="#EFA812"/>
<path d="M87.381 119.602C76.2184 108.544 77.2181 91.5101 89.6166 81.5553C102.015 71.5982 121.114 72.4912 132.279 83.5489C143.441 94.6067 142.442 111.641 130.043 121.596C117.645 131.553 98.5458 130.66 87.381 119.602ZM86.5402 120.278C98.1221 131.749 117.938 132.676 130.8 122.347C143.662 112.019 144.701 94.3436 133.12 82.8726C121.538 71.4015 101.722 70.4755 88.8597 80.8038C75.9977 91.1322 74.9583 108.807 86.5402 120.278Z" fill="#EFA911"/>
<path d="M86.8204 120.053C75.3775 108.719 76.4037 91.2582 89.1112 81.0536C101.819 70.849 121.396 71.764 132.839 83.098C144.282 94.4321 143.256 111.893 130.548 122.097C117.841 132.302 98.2633 131.387 86.8204 120.053ZM85.9795 120.729C97.8395 132.477 118.134 133.427 131.308 122.849C144.481 112.271 145.544 94.1712 133.682 82.4239C121.822 70.6766 101.527 69.7262 88.3542 80.3043C75.1811 90.8824 74.1173 108.982 85.9795 120.729Z" fill="#EEAB11"/>
<path d="M86.2576 120.504C74.5366 108.894 75.5871 91.0084 88.6057 80.5541C101.624 70.0997 121.679 71.0368 133.4 82.6471C145.121 94.2574 144.07 112.143 131.051 122.597C118.033 133.051 97.9785 132.114 86.2576 120.504ZM85.4167 121.18C97.557 133.204 118.329 134.176 131.811 123.348C145.293 112.521 146.383 93.9966 134.243 81.9708C122.102 69.945 101.331 68.9747 87.8488 79.8026C74.3667 90.6305 73.2765 109.154 85.4167 121.18Z" fill="#EEAC10"/>
<path d="M85.697 120.952C73.6958 109.066 74.7728 90.7542 88.1004 80.0501C101.428 69.3482 121.961 70.3075 133.96 82.194C145.961 94.0806 144.884 112.392 131.557 123.094C118.229 133.796 97.6961 132.837 85.697 120.95V120.952ZM84.8562 121.629C97.2745 133.931 118.523 134.923 132.316 123.848C146.109 112.772 147.222 93.822 134.803 81.5199C122.385 69.2178 101.137 68.2254 87.3434 79.3008C73.5501 90.3763 72.4378 109.327 84.8562 121.629Z" fill="#EEAD10"/>
<path d="M85.1361 121.403C72.8568 109.241 73.958 90.5023 87.5946 79.5506C101.233 68.599 122.243 69.5803 134.523 81.7432C146.802 93.906 145.701 112.644 132.064 123.596C118.425 134.548 97.4154 133.566 85.1361 121.403ZM84.2953 122.08C96.9939 134.658 118.719 135.673 132.821 124.347C146.923 113.022 148.062 93.6452 135.363 81.069C122.665 68.4907 100.94 67.4762 86.8376 78.8013C72.7354 90.1265 71.5966 109.504 84.2953 122.08Z" fill="#EEAE0F"/>
<path d="M84.5736 121.854C72.0162 109.415 73.1417 90.2503 87.0895 79.0511C101.037 67.8497 122.524 68.8553 135.083 81.2945C147.643 93.7336 146.515 112.898 132.568 124.098C118.62 135.299 97.1332 134.293 84.5736 121.854ZM83.7327 122.531C96.7094 135.385 118.913 136.422 133.327 124.849C147.74 113.276 148.903 93.4728 135.926 80.6181C122.95 67.7635 100.746 66.7269 86.3325 78.2996C71.9191 89.8723 70.756 109.676 83.7327 122.531Z" fill="#EEAF0F"/>
<path d="M84.0131 122.305C71.1755 109.59 72.3275 90.0005 86.5842 78.5494C100.841 67.1004 122.806 68.126 135.644 80.8436C148.482 93.559 147.33 113.148 133.073 124.599C118.816 136.048 96.8508 135.023 84.0131 122.307V122.305ZM83.1723 122.981C96.4293 136.112 119.11 137.171 133.832 125.349C148.555 113.526 149.744 93.2982 136.487 80.1673C123.23 67.0363 100.55 65.9776 85.8272 77.8001C71.1048 89.6226 69.9153 109.851 83.1723 122.981Z" fill="#EEB00E"/>
<path d="M83.4528 122.756C70.337 109.764 71.5133 89.7486 86.079 78.0499C100.647 66.3512 123.089 67.401 136.205 80.3927C149.321 93.3844 148.144 113.4 133.579 125.099C119.011 136.798 96.5685 135.748 83.4528 122.756ZM82.6119 123.432C96.147 136.84 119.306 137.923 134.338 125.85C149.369 113.778 150.583 93.1236 137.048 79.7186C123.513 66.3114 100.353 65.2284 85.322 77.3006C70.2907 89.3728 69.0769 110.027 82.6119 123.432Z" fill="#EDB10D"/>
<path d="M82.8917 123.207C69.4957 109.939 70.6963 89.4966 85.5753 77.5504C100.452 65.6041 123.373 66.6739 136.769 79.944C150.165 93.212 148.965 113.654 134.086 125.601C119.209 137.547 96.2877 136.477 82.8917 123.207ZM82.0509 123.883C95.8662 137.567 119.502 138.672 134.845 126.35C150.187 114.03 151.426 92.949 137.612 79.2655C123.797 65.582 100.161 64.4769 84.8184 76.7989C69.4758 89.1187 68.2378 110.2 82.0509 123.883Z" fill="#EDB20D"/>
<path d="M82.3293 123.658C68.6552 110.114 69.8801 89.2446 85.0681 77.0486C100.256 64.8526 123.654 65.9467 137.328 79.4909C151.002 93.0352 149.777 113.904 134.589 126.1C119.401 138.296 96.0034 137.202 82.3293 123.658ZM81.4885 124.334C95.5819 138.294 119.695 139.421 135.348 126.852C151 114.282 152.265 92.7766 138.171 78.8168C124.078 64.857 99.9649 63.7298 84.3112 76.2994C68.6597 88.8689 67.3951 110.374 81.4885 124.334Z" fill="#EDB30C"/>
<path d="M81.7687 124.109C67.8143 110.288 69.0656 88.9949 84.5626 76.5491C100.06 64.1033 123.934 65.2195 137.889 79.0422C151.843 92.8627 150.592 114.156 135.095 126.602C119.598 139.048 95.7231 137.931 81.7687 124.109ZM80.9278 124.785C95.2993 139.021 119.891 140.17 135.854 127.353C151.816 114.534 153.105 92.6019 138.732 78.3659C124.36 64.1299 99.7683 62.9805 83.8057 75.7976C67.843 88.6169 66.5542 110.549 80.9278 124.785Z" fill="#EDB40C"/>
<path d="M81.2083 124.56C66.9759 110.461 68.2515 88.7429 84.0597 76.0496C99.8679 63.3563 124.219 64.4945 138.451 78.5913C152.684 92.6881 151.408 114.408 135.6 127.101C119.792 139.795 95.4408 138.656 81.2083 124.56ZM80.3675 125.236C95.0192 139.748 120.088 140.92 136.359 127.853C152.631 114.786 153.946 92.4273 139.295 77.915C124.643 63.4027 99.5743 62.2313 83.3027 75.2981C67.031 88.365 65.7157 110.724 80.3675 125.236Z" fill="#EDB50B"/>
<path d="M80.6453 125.01C66.1326 110.635 67.4347 88.491 83.5518 75.5479C99.669 62.6048 124.499 63.7652 139.012 78.1405C153.525 92.5158 152.222 114.66 136.105 127.603C119.988 140.546 95.1581 139.386 80.6453 125.01ZM79.8045 125.687C94.7343 140.475 120.282 141.669 136.864 128.355C153.447 115.038 154.785 92.255 139.855 77.4664C124.925 62.6778 99.3777 61.4843 82.7949 74.7986C66.2121 88.1152 64.8747 110.898 79.8045 125.687Z" fill="#EDB60B"/>
<path d="M80.0844 125.459C65.2936 110.808 66.62 88.2368 83.0461 75.0462C99.4722 61.8556 124.781 63.038 139.572 77.6874C154.363 92.339 153.036 114.91 136.61 128.1C120.184 141.291 94.8752 140.108 80.0844 125.459ZM79.2436 126.135C94.4537 141.2 120.478 142.418 137.37 128.852C154.261 115.288 155.625 92.0782 140.415 77.0111C125.205 61.9462 99.1809 60.7284 82.2891 74.2947C65.3973 87.8588 64.0335 111.068 79.2436 126.135Z" fill="#EDB80A"/>
<path d="M79.5243 125.91C64.4532 110.982 65.8061 87.987 82.5434 74.5466C99.2807 61.1063 125.066 62.3108 140.135 77.2387C155.206 92.1665 153.853 115.162 137.116 128.602C120.379 142.042 94.5932 140.838 79.5243 125.91ZM78.6835 126.586C94.1717 141.927 120.675 143.167 137.875 129.354C155.078 115.54 156.466 91.9035 140.978 76.5624C125.49 61.2212 98.9872 59.9813 81.7864 73.7952C64.5835 87.6091 63.1953 111.245 78.6835 126.586Z" fill="#ECB90A"/>
<path d="M78.9634 126.361C63.6142 111.157 64.9914 87.735 82.0376 74.0449C99.0839 60.3548 125.346 61.5837 140.695 76.7856C156.045 91.9897 154.667 115.411 137.621 129.102C120.575 142.792 94.3125 141.563 78.9634 126.361ZM78.1226 127.037C93.891 142.655 120.868 143.917 138.38 129.853C155.892 115.789 157.307 91.7289 141.538 76.1115C125.77 60.4941 98.7926 59.232 81.2807 73.2957C63.7687 87.3593 62.3541 111.42 78.1226 127.037Z" fill="#ECBA09"/>
<path d="M78.4006 126.812C62.7712 111.331 64.1726 87.4831 81.53 73.5454C98.8875 59.6077 125.627 60.8565 141.256 76.3369C156.885 91.8173 155.484 115.666 138.127 129.603C120.769 143.541 94.03 142.292 78.4006 126.812ZM77.5598 127.488C93.6063 143.382 121.063 144.666 138.886 130.355C156.707 116.044 158.148 91.5565 142.099 75.6606C126.052 59.7669 98.5962 58.4827 80.773 72.7939C62.9521 87.1051 61.5132 111.592 77.5598 127.488Z" fill="#ECBB09"/>
<path d="M77.84 127.263C61.9325 111.506 63.3582 87.2311 81.0268 73.0437C98.6933 58.8563 125.911 60.1294 141.819 75.8861C157.726 91.6428 156.301 115.918 138.632 130.105C120.966 144.292 93.7475 143.019 77.84 127.263ZM76.9992 127.939C93.326 144.111 121.259 145.415 139.391 130.854C157.523 116.293 158.986 91.3797 142.662 75.2097C126.335 59.0376 98.4019 57.7335 80.2699 72.2945C62.1378 86.8554 60.6746 111.769 76.9992 127.939Z" fill="#ECBC08"/>
<path d="M77.2796 127.714C61.094 111.681 62.544 86.9814 80.5216 72.5442C98.4992 58.107 126.194 59.4022 142.379 75.4352C158.565 91.4681 157.115 116.167 139.137 130.605C121.16 145.042 93.4652 143.747 77.2796 127.714ZM76.4388 128.39C93.0436 144.838 121.456 146.164 139.897 131.356C158.338 116.548 159.827 91.2073 143.222 74.761C126.618 58.3126 98.2056 56.9864 79.7646 71.7949C61.3235 86.6034 59.8339 111.944 76.4388 128.39Z" fill="#E8BC09"/>
<path d="M76.717 128.164C60.2511 111.855 61.7276 86.7294 80.0141 72.0447C98.3007 57.36 126.474 58.6773 142.94 74.9865C159.406 91.2957 157.93 116.422 139.643 131.106C121.356 145.791 93.1828 144.474 76.717 128.164ZM75.8762 128.841C92.7613 145.566 121.65 146.916 140.4 131.858C159.152 116.799 160.666 91.0349 143.781 74.3102C126.896 57.5854 98.0072 56.235 79.2572 71.2932C60.5049 86.3515 58.991 112.116 75.8762 128.841Z" fill="#E3BC0A"/>
<path d="M76.1566 128.615C59.4127 112.03 60.9134 86.4774 79.5112 71.5429C98.1089 56.6084 126.757 57.9478 143.503 74.5334C160.247 91.1189 158.746 116.671 140.149 131.606C121.551 146.54 92.9028 145.201 76.1566 128.615ZM75.3158 129.292C92.479 146.293 121.844 147.665 140.908 132.357C159.969 117.049 161.509 90.8603 144.346 73.8592C127.183 56.8582 97.8176 55.4857 78.7542 70.7937C59.693 86.1017 58.1526 112.291 75.3158 129.292Z" fill="#DEBB0C"/>
<path d="M75.5956 129.066C58.5714 112.204 60.0986 86.2255 79.0053 71.0434C97.912 55.8614 127.039 57.2229 144.063 74.0847C161.087 90.9465 159.56 116.925 140.653 132.107C121.747 147.289 92.6198 145.928 75.5956 129.066ZM74.7548 129.743C92.1961 147.02 122.04 148.415 141.413 132.859C160.785 117.303 162.348 90.6857 144.906 73.4084C127.465 56.1311 97.6207 54.7364 78.2483 70.292C58.8759 85.8475 57.3134 112.465 74.7548 129.743Z" fill="#D9BB0D"/>
<path d="M75.0332 129.517C57.7309 112.379 59.2824 85.9757 78.4981 70.5439C97.7137 55.1122 127.32 56.4958 144.622 73.6338C161.924 90.7719 160.373 117.175 141.157 132.607C121.941 148.039 92.3355 146.655 75.0332 129.517ZM74.1924 130.193C91.9139 147.747 122.235 149.164 141.916 133.358C161.598 117.553 163.187 90.5111 145.465 72.9575C127.743 55.4039 97.4224 53.9872 77.7411 69.7925C58.0598 85.5978 56.4708 112.64 74.1924 130.193Z" fill="#D5BB0E"/>
<path d="M74.4726 129.968C56.8901 112.554 58.468 85.7238 77.9949 70.0423C97.5217 54.3607 127.604 55.7686 145.187 73.183C162.769 90.5973 161.191 117.427 141.665 133.109C122.138 148.79 92.0552 147.382 74.4726 129.968ZM73.6318 130.644C91.6314 148.474 122.431 149.913 142.422 133.86C162.414 117.805 164.027 90.3387 146.028 72.5089C128.028 54.679 97.2282 53.2401 77.2379 69.293C57.2454 85.348 55.6321 112.814 73.6318 130.644Z" fill="#D0BB10"/>
<path d="M73.9122 130.417C56.0516 112.726 57.6538 85.4696 77.4896 69.5405C97.3254 53.6114 127.887 55.0392 145.748 72.7299C163.608 90.4205 162.006 117.677 142.17 133.606C122.334 149.535 91.7728 148.107 73.9122 130.417ZM73.0713 131.093C91.3513 149.199 122.628 150.66 142.929 134.358C163.231 118.055 164.871 90.1597 146.591 72.0535C128.311 53.9474 97.0341 52.4864 76.7326 68.789C56.4311 85.0916 54.7914 112.987 73.0713 131.093Z" fill="#CBBA11"/>
<path d="M73.3513 130.868C55.2104 112.901 56.8369 85.2176 76.9839 69.041C97.1308 52.8622 128.167 54.3143 146.308 72.2812C164.449 90.2481 162.822 117.931 142.675 134.108C122.528 150.287 91.4922 148.834 73.3513 130.868ZM72.5104 131.544C91.0684 149.926 122.824 151.412 143.434 134.859C164.045 118.307 165.711 89.9873 147.151 71.6049C128.593 53.2224 96.8373 51.7372 76.2269 68.2895C55.6164 84.8419 53.9502 113.161 72.5104 131.544Z" fill="#C6BA12"/>
<path d="M72.7883 131.318C54.3694 113.073 56.0201 84.9678 76.4783 68.5392C96.9343 52.1129 128.449 53.5849 146.868 71.8302C165.287 90.0756 163.636 118.181 143.178 134.609C122.722 151.036 91.2073 149.564 72.7883 131.318ZM71.9475 131.995C90.7858 150.653 123.016 152.161 143.937 135.359C164.859 118.559 166.547 89.8126 147.711 71.1539C128.873 52.4952 96.643 50.9879 75.7213 67.79C54.7997 84.5899 53.1114 113.336 71.9475 131.995Z" fill="#C1BA14"/>
<path d="M72.2284 131.769C53.5291 113.248 55.2064 84.7159 75.9735 68.0398C96.7407 51.3636 128.732 52.8599 147.431 71.3794C166.131 89.9011 164.453 118.433 143.686 135.109C122.919 151.785 90.9276 150.289 72.2284 131.769ZM71.3876 132.446C90.5039 151.381 123.213 152.91 144.446 135.86C165.676 118.811 167.391 89.6403 148.275 70.7031C129.158 51.7681 96.4494 50.2386 75.2166 67.2883C53.986 84.3379 52.2712 113.508 71.3876 132.446Z" fill="#BDBA15"/>
<path d="M71.6677 132.22C52.6904 113.422 54.3919 84.4639 75.4681 67.538C96.5442 50.6121 129.015 52.1306 147.992 70.9285C166.969 89.7265 165.268 118.685 144.192 135.611C123.116 152.537 90.6451 151.018 71.6677 132.22ZM70.8269 132.897C90.2235 152.108 123.409 153.659 144.951 136.362C166.493 119.063 168.232 89.4657 148.835 70.2544C129.438 51.0431 96.2529 49.4916 74.7111 66.791C53.1693 84.0904 51.4303 113.687 70.8269 132.899V132.897Z" fill="#B8B916"/>
<path d="M71.1045 132.671C51.849 113.597 53.5749 84.2119 74.9622 67.0385C96.3494 49.8651 129.297 51.4034 148.552 70.4776C167.807 89.5518 166.082 118.937 144.694 136.11C123.307 153.284 90.3599 151.745 71.1045 132.671ZM70.2636 133.347C89.9383 152.835 123.603 154.409 145.453 136.862C167.304 119.315 169.07 89.291 149.395 69.8035C129.72 50.316 96.0559 48.7423 74.2052 66.2892C52.3544 83.8362 50.5889 113.86 70.2636 133.347Z" fill="#B3B918"/>
<path d="M70.5439 133.122C51.0082 113.771 52.7605 83.9622 74.4568 66.539C96.153 49.1159 129.579 50.6785 149.113 70.029C168.648 89.3795 166.896 119.189 145.2 136.612C123.503 154.035 90.0774 152.472 70.5439 133.122ZM69.7031 133.798C89.6581 153.562 123.799 155.158 145.959 137.363C168.121 119.567 169.908 89.1187 149.956 69.3527C130.001 49.5888 95.8595 47.9931 73.6998 65.7876C51.5379 83.5843 49.7503 114.032 69.7031 133.798Z" fill="#AEB919"/>
<path d="M69.9835 133.573C50.1697 113.946 51.9463 83.7102 73.9515 66.0373C95.9567 48.3644 129.859 49.9491 149.675 69.5759C169.489 89.2026 167.713 119.438 145.707 137.111C123.702 154.782 89.7994 153.2 69.9835 133.573ZM69.1426 134.249C89.3757 154.289 123.993 155.909 146.467 137.863C168.937 119.819 170.752 88.9418 150.518 68.9017C130.285 48.8617 95.6676 47.2416 73.1945 65.288C50.7236 83.3323 48.9095 114.209 69.1426 134.249Z" fill="#A9B91A"/>
<path d="M69.4229 134.024C49.3289 114.121 51.1319 83.4583 73.4461 65.5378C95.7625 47.6173 130.142 49.2241 150.236 69.1272C170.33 89.0302 168.527 119.693 146.211 137.613C123.894 155.534 89.5147 153.927 69.4207 134.024H69.4229ZM68.582 134.7C89.0932 155.019 124.19 156.659 146.972 138.365C169.754 120.071 171.592 88.7694 151.081 68.4531C130.57 48.1345 95.4734 46.4945 72.6913 64.7885C49.9093 83.0825 48.0709 114.384 68.582 134.7Z" fill="#A5B91B"/>
<path d="M68.8605 134.475C48.4884 114.295 50.3135 83.2063 72.9411 65.0383C95.5665 46.8681 130.425 48.497 150.797 68.6763C171.169 88.8557 169.344 119.945 146.716 138.113C124.091 156.283 89.2326 154.654 68.8605 134.475ZM68.0197 135.151C88.8111 155.746 124.384 157.408 147.475 138.864C170.567 120.32 172.431 88.5949 151.64 68C130.849 47.4052 95.2752 45.7431 72.1841 64.2868C49.0931 82.8306 47.2282 114.556 68.0197 135.151Z" fill="#A0B81D"/>
<path d="M68.2996 134.923C47.6472 114.468 49.4988 82.9543 72.4353 64.5344C95.3719 46.1166 130.707 47.7676 151.357 68.2232C172.009 88.6788 170.158 120.192 147.221 138.612C124.285 157.03 88.9497 155.379 68.2996 134.923ZM67.4587 135.6C88.5282 156.471 124.581 158.155 147.981 139.364C171.381 120.572 173.272 88.4202 152.2 67.5491C131.131 46.678 95.0784 44.9938 71.6784 63.7851C48.2784 82.5764 46.387 114.731 67.4587 135.6Z" fill="#9BB81E"/>
<path d="M67.7389 135.374C46.8084 114.642 48.6843 82.7024 71.9298 64.0348C95.1753 45.3673 130.989 47.0404 151.92 67.7745C172.85 88.5064 170.974 120.446 147.727 139.114C124.481 157.781 88.6671 156.108 67.7366 135.374H67.7389ZM66.898 136.05C88.2478 157.198 124.777 158.904 148.488 139.863C172.199 120.822 174.113 88.2434 152.763 67.096C131.413 45.9486 94.884 44.2423 71.1728 63.2833C47.4616 82.3244 45.5482 114.903 66.8958 136.05H66.898Z" fill="#96B81F"/>
<path d="M67.1767 135.825C45.966 114.817 47.8683 82.4504 71.425 63.5353C94.9817 44.618 131.27 46.3155 152.481 67.3237C173.692 88.3318 171.789 120.698 148.233 139.613C124.676 158.531 88.3874 156.833 67.1767 135.825ZM66.3359 136.501C87.9637 157.925 124.972 159.653 148.992 140.365C173.012 121.076 174.952 88.071 153.324 66.6473C131.696 45.2236 94.6882 43.4952 70.668 62.7839C46.6479 82.0725 44.708 115.078 66.3359 136.501Z" fill="#91B821"/>
<path d="M66.616 136.276C45.1272 114.991 47.0539 82.1984 70.9195 63.0336C94.7852 43.8687 131.553 45.5861 153.041 66.8727C174.53 88.1572 172.604 120.95 148.738 140.115C124.872 159.28 88.1049 157.563 66.616 136.276ZM65.7752 136.952C87.6833 158.652 125.166 160.405 149.497 140.867C173.828 121.328 175.793 87.8986 153.884 66.1986C131.976 44.4986 94.4939 42.7459 70.1626 62.2865C45.8312 81.8249 43.8671 115.254 65.7752 136.954V136.952Z" fill="#8CB722"/>
<path d="M66.0551 136.727C44.286 115.166 46.2392 81.9487 70.4138 62.5341C94.5906 43.1195 131.835 44.8612 153.604 66.4219C175.373 87.9826 173.42 121.2 149.245 140.615C125.068 160.029 87.8242 158.288 66.0551 136.727ZM65.2143 137.403C87.4005 159.379 125.362 161.154 150.002 141.366C174.642 121.578 176.633 87.7218 154.445 65.7456C132.258 43.7693 94.2971 41.9945 69.6568 61.7826C45.0165 81.5708 43.0259 115.427 65.2143 137.403Z" fill="#88B723"/>
<path d="M65.4922 137.178C43.445 115.341 45.4224 81.6967 69.9082 62.0346C94.3941 42.3724 132.117 44.134 154.164 65.9732C176.211 87.8102 174.234 121.454 149.748 141.116C125.262 160.778 87.5394 159.017 65.4922 137.178ZM64.6514 137.854C87.1178 160.107 125.556 161.903 150.507 141.868C175.459 121.832 177.471 87.5494 155.007 65.2969C132.541 43.0443 94.1027 41.2474 69.1513 61.2831C44.1998 81.3188 42.1871 115.602 64.6514 137.854Z" fill="#83B725"/>
<path d="M64.9318 137.629C42.6065 115.513 44.6082 81.4448 69.403 61.5329C94.1978 41.621 132.4 43.4068 154.725 65.5201C177.05 87.6356 175.048 121.704 150.254 141.616C125.459 161.528 87.257 159.742 64.9318 137.629ZM64.0909 138.305C86.8355 160.834 125.752 162.653 151.013 142.367C176.273 122.082 178.312 87.3748 155.568 64.846C132.823 42.3172 93.9064 40.4982 68.646 60.7836C43.3856 81.069 41.3464 115.776 64.0909 138.305Z" fill="#7EB726"/>
<path d="M64.3721 138.08C41.7666 115.688 43.7947 81.1928 68.8985 61.0334C94.0044 40.8717 132.681 42.6797 155.286 65.0715C177.892 87.4632 175.864 121.958 150.76 142.118C125.654 162.279 86.9776 160.471 64.3721 138.08ZM63.5312 138.756C86.5561 161.561 125.95 163.402 151.519 142.869C177.091 122.334 179.154 87.2002 156.129 64.3952C133.104 41.5901 93.7109 39.749 68.1415 60.2819C42.5699 80.8171 40.5064 115.951 63.5312 138.756Z" fill="#79B627"/>
<path d="M63.8108 138.53C40.9272 115.862 42.9774 80.943 68.3945 60.5316C93.8095 40.1224 132.965 41.9525 155.85 64.6183C178.734 87.2864 176.684 122.206 151.267 142.617C125.852 163.026 86.6965 161.196 63.8108 138.53ZM62.9699 139.207C86.2728 162.288 126.143 164.151 152.024 143.369C177.904 122.586 179.994 87.0256 156.691 63.9442C133.388 40.8629 93.5181 38.9996 67.6376 59.7824C41.757 80.5651 39.667 116.125 62.9699 139.207Z" fill="#74B629"/>
<path d="M63.2479 138.981C40.084 116.037 42.1607 80.6911 67.8868 60.0321C93.6129 39.3732 133.245 41.2253 156.409 64.1696C179.573 87.114 177.496 122.46 151.77 143.119C126.044 163.778 86.4117 161.926 63.2479 138.981ZM62.407 139.658C85.988 163.015 126.337 164.903 152.529 143.87C178.719 122.838 180.835 86.8532 157.252 63.4955C133.669 40.1379 93.3216 38.2504 67.1298 59.2828C40.9403 80.3153 38.8239 116.3 62.407 139.658Z" fill="#70B62A"/>
<path d="M62.6873 139.43C39.2454 116.209 41.3464 80.4369 67.3814 59.5304C93.4165 38.6239 133.527 40.4981 156.969 63.7187C180.411 86.9393 178.31 122.712 152.275 143.618C126.24 164.525 86.1292 162.651 62.6873 139.43ZM61.8465 140.106C85.7077 163.74 126.534 165.65 153.034 144.368C179.535 123.088 181.674 86.6763 157.812 63.0402C133.951 39.4063 93.1252 37.4967 66.6245 58.7789C40.1237 80.0589 37.9852 116.47 61.8465 140.106Z" fill="#6BB62B"/>
<path d="M62.127 139.881C38.4047 116.384 40.5322 80.1849 66.8785 59.0287C93.2247 37.8724 133.812 39.7688 157.532 63.2657C181.254 86.7626 179.127 122.962 152.781 144.118C126.434 165.274 85.847 163.378 62.127 139.881ZM61.2861 140.557C85.4254 164.467 126.73 166.399 153.54 144.869C180.35 123.34 182.515 86.5017 158.375 62.5916C134.236 38.6814 92.9312 36.7496 66.1215 58.2794C39.3118 79.8092 37.1468 116.647 61.2861 140.557Z" fill="#66B62D"/>
<path d="M61.5639 140.332C37.5636 116.559 39.7153 79.9352 66.3705 58.5292C93.0258 37.1232 134.09 39.0439 158.092 62.817C182.093 86.5902 179.941 123.214 153.286 144.62C126.631 166.026 85.5664 164.105 61.5639 140.332ZM60.723 141.008C85.1426 165.197 126.924 167.148 154.045 145.371C181.166 123.592 183.355 86.3294 158.935 62.1407C134.516 37.952 92.7344 36.0004 65.6136 57.7777C38.4927 79.5572 36.3034 116.819 60.723 141.008Z" fill="#61B52E"/>
<path d="M61.0039 140.783C36.7233 116.733 38.9016 79.6832 65.8658 58.0296C92.8322 36.3761 134.373 38.3167 158.654 62.3661C182.934 86.4155 180.756 123.465 153.792 145.119C126.825 166.773 85.2845 164.832 61.0039 140.783ZM60.1631 141.459C84.8608 165.924 127.121 167.898 154.551 145.87C181.981 123.843 184.197 86.1547 159.497 61.6898C134.799 37.2248 92.5386 35.2511 65.1088 57.2782C37.6789 79.3052 35.4632 116.994 60.1631 141.459Z" fill="#5CB52F"/>
<path d="M60.443 141.233C35.8843 116.908 38.0868 79.4312 65.3622 57.5279C92.6375 35.6246 134.657 37.5895 159.216 61.9152C183.775 86.2409 181.572 123.717 154.297 145.621C127.021 167.524 85.0016 165.559 60.443 141.233ZM59.6021 141.91C84.5801 166.651 127.315 168.647 155.056 146.372C182.797 124.095 185.037 85.9801 160.059 61.2411C135.081 36.4999 92.3462 34.504 64.6052 56.7787C36.8642 79.0555 34.6264 117.171 59.6021 141.91Z" fill="#58B530"/>
<path d="M59.8806 141.684C35.0416 117.082 37.2706 79.1793 64.855 57.0284C92.4393 34.8754 134.938 36.8623 159.775 61.4643C184.614 86.0663 182.385 123.969 154.8 146.12C127.216 168.273 84.7173 166.286 59.8806 141.684ZM59.0397 142.361C84.2957 167.378 127.509 169.398 155.559 146.872C183.609 124.347 185.874 85.8055 160.618 60.788C135.362 35.7705 92.148 33.7504 64.098 56.2769C36.048 78.8013 33.7837 117.343 59.0397 142.361Z" fill="#53B532"/>
<path d="M59.3194 142.135C34.2024 117.257 36.4557 78.9295 64.349 56.5289C92.2445 34.1283 135.22 36.1374 160.337 61.0156C185.454 85.8939 183.201 124.221 155.307 146.622C127.412 169.023 84.4364 167.013 59.3194 142.135ZM58.4786 142.812C84.0149 168.105 127.705 170.148 156.067 147.373C184.428 124.599 186.716 85.6331 161.18 60.3393C135.644 35.0455 91.9532 33.0033 63.592 55.7774C35.2309 78.5515 32.9423 117.518 58.4786 142.812Z" fill="#4EB433"/>
<path d="M58.7595 142.586C33.3645 117.432 35.6398 78.6776 63.8465 56.0272C92.051 33.3769 135.503 35.4081 160.9 60.5626C186.295 85.7171 184.02 124.471 155.813 147.122C127.609 169.772 84.1568 167.741 58.7595 142.586ZM57.9187 143.262C83.7331 168.833 127.902 170.897 156.573 147.873C185.243 124.849 187.558 85.4585 161.743 59.8885C135.929 34.3184 91.7597 32.2541 63.0895 55.278C34.4194 78.3018 32.1043 117.692 57.9187 143.262Z" fill="#49B434"/>
<path d="M58.1981 143.037C32.5228 117.606 34.8246 78.4256 63.3403 55.5277C91.8559 32.6298 135.785 34.6831 161.46 60.1139C187.135 85.5447 184.834 124.725 156.318 147.623C127.802 170.521 83.8735 168.468 58.1981 143.037ZM57.3573 143.713C83.4519 169.56 128.098 171.646 157.077 148.375C186.056 125.103 188.398 85.2839 162.303 59.4376C136.208 33.5912 91.5624 31.5048 62.5833 54.7762C33.6042 78.0477 31.2626 117.867 57.3573 143.713Z" fill="#44B436"/>
<path d="M57.6361 143.488C31.6827 117.781 34.0088 78.1736 62.8334 55.026C91.658 31.8783 136.066 33.9537 162.019 59.663C187.973 85.3701 185.646 124.977 156.822 148.125C127.997 171.273 83.5895 169.197 57.6361 143.488ZM56.7953 144.164C83.168 170.287 128.291 172.395 157.581 148.874C186.871 125.353 189.235 85.1093 162.862 58.9867C136.489 32.8641 91.3667 30.7555 62.0764 54.2767C32.7862 77.7979 30.4225 118.042 56.7953 144.164Z" fill="#40B437"/>
<path d="M57.0748 143.939C30.8411 117.955 33.1937 77.9239 62.3295 54.5264C91.4653 31.129 136.35 33.2287 162.583 59.2121C188.817 85.1955 186.464 125.227 157.329 148.624C128.193 172.022 83.3085 169.922 57.0748 143.939ZM56.2339 144.615C82.8869 171.014 128.486 173.145 158.088 149.376C187.687 125.605 190.077 84.9369 163.426 58.538C136.773 32.1391 91.1739 30.0084 61.5725 53.7772C31.9732 77.5481 29.5831 118.216 56.2339 144.615Z" fill="#3BB338"/>
<path d="M56.5151 144.387C30.0033 118.126 32.3802 77.6697 61.825 54.0247C91.2697 30.3798 136.633 32.4994 163.145 58.7612C189.657 85.0231 187.28 125.479 157.835 149.124C128.39 172.769 83.0269 170.649 56.5151 144.387ZM55.6743 145.064C82.6053 171.739 128.684 173.894 158.594 149.873C188.505 125.855 190.919 84.7579 163.988 58.0827C137.057 31.4075 90.9784 29.2526 61.068 53.2733C31.1576 77.2917 28.7432 118.389 55.6743 145.064Z" fill="#36B339"/>
<path d="M55.9517 144.838C29.1597 118.3 31.563 77.4178 61.3168 53.523C91.0727 29.6283 136.913 31.7722 163.703 58.3082C190.495 84.8463 188.091 125.729 158.337 149.624C128.582 173.518 82.7416 171.374 55.9517 144.838ZM55.1109 145.515C82.32 172.466 128.877 174.643 159.097 150.375C189.316 126.107 191.757 84.5855 164.546 57.6341C137.336 30.6826 90.7792 28.5055 60.5598 52.7738C30.3404 77.042 27.8995 118.563 55.1109 145.515Z" fill="#31B33B"/>
<path d="M55.3902 145.289C28.3201 118.475 30.7477 77.1658 60.8126 53.0235C90.8775 28.8812 137.194 31.0451 164.267 57.8595C191.337 84.6739 188.909 125.983 158.844 150.125C128.779 174.267 82.4625 172.104 55.3902 145.289ZM54.5493 145.966C82.0388 173.193 129.073 175.392 159.601 150.877C190.132 126.361 192.597 84.4131 165.107 57.1831C137.618 29.9554 90.584 27.7562 60.0556 52.272C29.525 76.7878 27.0599 118.736 54.5493 145.966Z" fill="#2DB33C"/>
<path d="M54.8308 145.74C27.4804 118.649 29.9345 76.916 60.3084 52.524C90.6823 28.132 137.478 30.3201 164.828 57.4086C192.179 84.4993 189.725 126.233 159.351 150.625C128.977 175.017 82.1812 172.829 54.8308 145.74ZM53.99 146.416C81.7575 173.92 129.27 176.142 160.11 151.376C190.949 126.611 193.439 84.2363 165.671 56.7323C137.904 29.2283 90.391 27.007 59.5514 51.7725C28.7119 76.5381 26.2225 118.91 53.99 146.416Z" fill="#28B33D"/>
<path d="M54.2702 146.191C26.6417 118.824 29.1179 76.664 59.8029 52.0223C90.488 27.3805 137.76 29.5907 165.389 56.9577C193.017 84.3247 190.541 126.485 159.856 151.126C129.171 175.768 81.8986 173.558 54.2702 146.191ZM53.4293 146.867C81.4771 174.648 129.464 176.891 160.615 151.878C191.766 126.863 194.28 84.0639 166.232 56.2836C138.184 28.5033 90.1967 26.2599 59.0459 51.273C27.8952 76.2883 25.3815 119.087 53.4293 146.867Z" fill="#23B23E"/>
<path d="M53.7079 146.642C25.7991 118.999 28.3018 76.4121 59.298 51.5227C90.292 26.6334 138.043 28.8658 165.95 56.5068C193.858 84.1501 191.356 126.737 160.36 151.626C129.366 176.515 81.6144 174.283 53.7079 146.642ZM52.867 147.318C81.1929 175.377 129.659 177.64 161.119 152.377C192.578 127.115 195.119 83.8892 166.793 55.8305C138.467 27.7717 90.0007 25.5084 58.541 50.7713C27.0813 76.0341 24.5412 119.259 52.867 147.318Z" fill="#1FB240"/>
<path d="M53.1474 147.093C24.9606 119.173 27.4875 76.1601 58.7927 51.0233C90.0979 25.8842 138.326 28.1386 166.513 56.0582C194.699 83.9777 192.173 126.991 160.867 152.128C129.562 177.267 81.3342 175.012 53.1474 147.093ZM52.3066 147.769C80.9127 176.104 129.856 178.392 161.624 152.879C193.393 127.367 195.96 83.7169 167.353 55.3818C138.747 27.0468 89.8044 24.7592 58.0357 50.2718C26.2671 75.7844 23.7004 119.434 52.3066 147.769Z" fill="#1CB144"/>
<path d="M52.5859 147.544C24.121 119.348 26.6722 75.9103 58.2864 50.5215C89.9005 25.1349 138.605 27.4114 167.072 55.6072C195.537 83.8031 192.986 127.241 161.372 152.629C129.758 178.016 81.053 175.739 52.5859 147.544ZM51.745 148.22C80.6292 176.831 130.051 179.141 162.131 153.379C194.211 127.618 196.799 83.54 167.915 54.9309C139.031 26.3196 89.6092 24.0099 57.5294 49.7723C25.4496 75.5324 22.8608 119.611 51.745 148.22Z" fill="#1AB04A"/>
<path d="M52.0236 147.995C23.2784 119.522 25.8561 75.6584 57.7814 50.022C89.7068 24.3856 138.888 26.6842 167.633 55.1563C196.378 83.6284 193.801 127.493 161.875 153.129C129.95 178.765 80.7687 176.467 52.0236 147.995ZM51.1827 148.671C80.3472 177.558 130.246 179.89 162.635 153.88C195.023 127.87 197.639 83.3676 168.476 54.48C139.312 25.5924 89.4133 23.2606 57.0245 49.2705C24.6357 75.2804 22.0205 119.783 51.1827 148.671Z" fill="#19AF50"/>
<path d="M51.4629 148.445C22.4397 119.697 25.0416 75.4064 57.276 49.5225C89.5103 23.6364 139.17 25.9571 168.194 54.7077C197.217 83.456 194.615 127.747 162.381 153.631C130.146 179.517 80.4862 177.196 51.4629 148.445ZM50.6221 149.122C80.0646 178.286 130.44 180.64 163.14 154.38C195.84 128.12 198.479 83.193 169.037 54.0291C139.594 24.8653 89.2167 22.5114 56.519 48.771C23.819 75.0307 21.1795 119.958 50.6221 149.122Z" fill="#17AE56"/>
<path d="M50.9025 148.894C21.599 119.869 24.2274 75.1523 56.7707 49.0186C89.3162 22.8849 139.453 25.2278 168.757 54.2524C198.06 83.2771 195.432 127.994 162.888 154.128C130.343 180.262 80.206 177.919 50.9025 148.894ZM50.0616 149.57C79.7845 179.011 130.636 181.387 163.648 154.879C196.656 128.372 199.322 83.0162 169.6 53.5783C139.877 24.1381 89.0249 21.7621 56.0137 48.2693C23.0048 74.7765 20.3388 120.133 50.0616 149.57Z" fill="#16AD5C"/>
<path d="M50.34 149.345C20.7584 120.044 23.4111 74.9025 56.2655 48.5191C89.12 22.1356 139.736 24.5006 169.317 53.8037C198.899 83.1046 196.246 128.246 163.392 154.63C130.537 181.013 79.9216 178.648 50.34 149.345ZM49.4991 150.021C79.5 179.738 130.831 182.136 164.151 155.381C197.471 128.624 200.161 82.8438 170.16 53.1274C140.16 23.4109 88.8287 21.0129 55.5086 47.7676C22.1884 74.5245 19.4982 120.305 49.4991 150.021Z" fill="#14AC62"/>
<path d="M49.7786 149.796C19.9168 120.219 22.596 74.6506 55.7594 48.0174C88.9228 21.3842 140.015 23.7735 169.877 53.3507C199.739 82.9279 197.06 128.496 163.896 155.129C130.733 181.762 79.6405 179.373 49.7786 149.796ZM48.9378 150.472C79.2168 180.465 131.027 182.887 164.656 155.881C198.285 128.876 200.999 82.6693 170.72 52.6765C140.441 22.6838 88.6315 20.2614 55.0024 47.2681C21.3733 74.2726 18.6588 120.48 48.9378 150.472Z" fill="#12AB69"/>
<path d="M49.219 150.247C19.079 120.393 21.7803 74.3986 55.2549 47.5179C88.7295 20.6371 140.299 23.0463 170.439 52.902C200.579 82.7554 197.877 128.75 164.403 155.631C130.928 182.512 79.3589 180.102 49.219 150.247ZM48.3781 150.923C78.9374 181.192 131.224 183.637 165.162 156.382C199.102 129.128 201.841 82.4968 171.282 52.2278C140.722 21.9588 88.436 19.5143 54.4979 46.7686C20.5577 74.0228 17.8189 120.654 48.3781 150.923Z" fill="#11AA6F"/>
<path d="M48.6576 150.698C18.2374 120.566 20.9652 74.1466 54.7509 47.0183C88.5345 19.8878 140.583 22.3213 171.003 52.451C201.423 82.583 198.695 129.002 164.91 156.13C131.126 183.261 79.0779 180.827 48.6576 150.698ZM47.8168 151.374C78.6541 181.919 131.419 184.386 165.669 156.882C199.918 129.378 202.683 82.32 171.846 51.7747C141.009 21.2294 88.2432 18.7628 53.994 46.2668C19.7447 73.7708 16.9795 120.829 47.8168 151.374Z" fill="#0FA975"/>
<path d="M48.0942 151.149C17.396 120.74 20.148 73.8969 54.2427 46.5166C88.3375 19.1386 140.862 21.5919 171.561 52.0002C202.259 82.4084 199.507 129.252 165.412 156.632C131.317 184.01 78.7925 181.557 48.0942 151.149ZM47.2534 151.825C78.371 182.646 131.611 185.135 166.171 157.384C200.729 129.632 203.521 82.1476 172.404 51.3261C141.286 20.5045 88.0462 18.0158 53.4858 45.7673C18.9276 73.5189 16.1358 121.003 47.2534 151.825Z" fill="#0EA87B"/>
<path d="M47.5346 151.599C16.556 120.915 19.3345 73.6448 53.7382 46.0171C88.142 18.3893 141.146 20.8669 172.122 51.5515C203.101 82.236 200.322 129.506 165.918 157.134C131.515 184.762 78.511 182.284 47.5346 151.599ZM46.6937 152.276C78.0894 183.374 131.808 185.884 166.678 157.883C201.547 129.882 204.363 81.973 172.965 50.8729C141.569 19.7751 87.8506 17.2643 52.9813 45.2656C18.1119 73.2669 15.2958 121.176 46.6937 152.276Z" fill="#0CA781"/>
<path d="M46.9743 152.05C15.7177 121.09 18.5205 73.3929 53.2354 45.5176C87.9503 17.64 141.428 20.1398 172.685 51.1006C203.942 82.0614 201.139 129.758 166.424 157.633C131.709 185.511 78.231 183.011 46.9743 152.05ZM46.1335 152.727C77.8094 184.101 132.005 186.634 167.183 158.385C202.362 130.134 205.202 81.7984 173.528 50.4243C141.852 19.0502 87.6567 16.5173 52.4784 44.7661C17.3 73.0172 14.4597 121.353 46.1335 152.727Z" fill="#0BA687"/>
<path d="M46.4117 152.501C14.877 121.264 17.7041 73.1431 52.7279 45.0158C87.7518 16.8908 141.709 19.4126 173.246 50.6497C204.78 81.8868 201.953 130.01 166.93 158.135C131.906 186.26 77.9486 183.738 46.4117 152.501ZM45.5709 153.177C77.5249 184.828 132.199 187.385 167.689 158.884C203.178 130.386 206.043 81.6238 174.089 49.9734C142.135 18.323 87.4605 15.7658 51.971 44.2666C16.4814 72.7652 13.6168 121.527 45.5709 153.177Z" fill="#09A48D"/>
<path d="M45.8513 152.952C14.0363 121.439 16.8898 72.8912 52.2227 44.5164C87.5577 16.1415 141.991 18.6855 173.806 50.1989C205.621 81.7122 202.768 130.26 167.435 158.635C132.102 187.009 77.6663 184.465 45.8513 152.952ZM45.0104 153.628C77.2447 185.555 132.396 188.134 168.194 159.386C203.993 130.638 206.884 81.4514 174.649 49.5225C142.415 17.5959 87.2642 15.0165 51.4657 43.7649C15.6672 72.5133 12.7761 121.7 45.0104 153.628Z" fill="#07A393"/>
<path d="M45.2907 153.401C13.1976 121.611 16.0755 72.637 51.7195 44.0146C87.3635 15.3922 142.276 17.9583 174.369 49.7479C206.462 81.5376 203.584 130.512 167.94 159.134C132.296 187.756 77.3838 185.19 45.2907 153.401ZM44.4499 154.077C76.9623 186.282 132.592 188.881 168.7 159.886C204.809 130.89 207.725 81.2768 175.212 49.0716C142.7 16.8664 87.07 14.2672 50.9625 43.2631C14.8528 72.259 11.9375 121.872 44.4499 154.077Z" fill="#06A299"/>
<path d="M44.7294 153.852C12.356 121.786 15.2581 72.385 51.2133 43.5129C87.1663 14.6408 142.558 17.2289 174.931 49.2948C207.305 81.3608 204.402 130.761 168.447 159.634C132.494 188.506 77.1027 185.918 44.7294 153.852ZM43.8885 154.528C76.6812 187.009 132.786 189.631 169.204 160.385C205.623 131.139 208.563 81.0999 175.772 48.6207C142.979 16.1393 86.875 13.518 50.4563 42.7636C14.0377 72.0093 11.0981 122.049 43.8885 154.528Z" fill="#04A19F"/>
<path d="M44.1668 154.302C11.5154 121.96 14.4417 72.1353 50.7059 43.0134C86.97 13.8915 142.836 16.504 175.49 48.8461C208.141 81.1883 205.215 131.013 168.951 160.135C132.686 189.257 76.8204 186.645 44.1668 154.302ZM43.3259 154.979C76.3967 187.737 132.98 190.38 169.71 160.887C206.44 131.391 209.404 80.9275 176.333 48.1698C143.262 15.4121 86.6787 12.7687 49.9489 42.2619C13.2191 71.7573 10.2552 122.221 43.3259 154.979Z" fill="#03A0A5"/>
<path d="M43.6074 154.753C10.6757 122.135 13.6286 71.8833 50.2039 42.5117C86.777 13.1422 143.122 15.7746 176.054 48.3931C208.985 81.0115 206.033 131.263 169.457 160.635C132.884 190.004 76.5391 187.372 43.6074 154.753ZM42.7666 155.43C76.1154 188.464 133.178 191.129 170.216 161.386C207.255 131.643 210.246 80.7529 176.897 47.7189C143.548 14.685 86.4857 12.0194 49.4469 41.7624C12.4081 71.5054 9.41775 122.396 42.7666 155.43Z" fill="#019FAB"/>
<path d="M43.046 155.204C9.8362 122.31 12.8133 71.6313 49.6976 42.0121C86.5819 12.393 143.404 15.0496 176.613 47.9444C209.823 80.8391 206.846 131.517 169.962 161.137C133.077 190.756 76.2558 188.099 43.046 155.204ZM42.2051 155.881C75.8342 189.191 133.373 191.881 170.721 161.888C208.069 131.895 211.086 80.5783 177.456 47.2703C143.827 13.96 86.2884 11.2702 48.9407 41.2629C11.5929 71.2556 8.57605 122.573 42.2051 155.881Z" fill="#019DA9"/>
<path d="M42.4824 155.655C8.99234 122.484 11.996 71.3794 49.1892 41.5127C86.3825 11.6437 143.683 14.3225 177.173 47.4935C210.663 80.6645 207.66 131.769 170.466 161.636C133.273 191.503 75.9725 188.826 42.4824 155.653V155.655ZM41.6416 156.331C75.5487 189.918 133.567 192.63 171.223 162.388C208.882 132.147 211.923 80.4037 178.014 46.8172C144.107 13.2307 86.089 10.5187 48.4323 40.7612C10.7733 71.0015 7.73219 122.745 41.6416 156.331Z" fill="#019AA6"/>
<path d="M41.9221 156.106C8.15401 122.659 11.1819 71.1297 48.6864 41.011C86.1908 10.8945 143.968 13.5954 177.736 47.0427C211.504 80.49 208.476 132.021 170.972 162.138C133.468 192.254 75.6903 189.553 41.9221 156.106ZM41.0813 156.782C75.2687 190.645 133.761 193.379 171.731 162.889C209.699 132.399 212.764 80.2314 178.579 46.3685C144.392 12.5057 85.8995 9.77169 47.9294 40.2617C9.96148 70.7517 6.89606 122.92 41.0813 156.782Z" fill="#0197A4"/>
<path d="M41.3617 156.557C7.31333 122.833 10.3677 70.8777 48.1811 40.5114C85.9945 10.1452 144.251 12.8682 178.297 46.594C212.345 80.3176 209.291 132.273 171.477 162.639C133.664 193.006 75.4101 190.283 41.3617 156.557ZM40.5209 157.233C74.9864 191.372 133.958 194.129 172.237 163.389C210.516 132.649 213.605 80.0545 179.14 45.9154C144.672 11.7786 85.701 9.0202 47.4219 39.76C9.14287 70.4997 6.05318 123.092 40.5187 157.231L40.5209 157.233Z" fill="#0194A1"/>
<path d="M40.8001 157.008C6.47359 123.008 9.55224 70.6257 47.6746 40.0119C85.797 9.39812 144.53 12.1432 178.856 46.1431C213.183 80.1429 210.104 132.525 171.982 163.139C133.857 193.753 75.1265 191.008 40.8001 157.008ZM39.9592 157.684C74.705 192.1 134.153 194.878 172.741 163.89C211.329 132.903 214.445 79.8821 179.699 45.4667C144.956 11.0514 85.5057 8.2709 46.9177 39.2604C8.32961 70.2478 5.21343 123.269 39.9592 157.684Z" fill="#01929E"/>
<path d="M40.2388 157.459C5.63202 123.18 8.73716 70.3737 47.1707 39.5102C85.6043 8.64664 144.814 11.4138 179.421 45.6922C214.025 79.9705 210.922 132.777 172.489 163.641C134.055 194.504 74.8455 191.737 40.2388 157.459ZM39.3979 158.135C74.4218 192.827 134.349 195.627 173.248 164.392C212.147 133.155 215.287 79.7097 180.264 45.0181C145.238 10.3242 85.3108 7.52164 46.4115 38.7587C7.51231 69.9958 4.37187 123.441 39.3957 158.133L39.3979 158.135Z" fill="#018F9B"/>
<path d="M39.6775 157.91C4.79262 123.355 7.91984 70.124 46.6646 39.0107C85.4071 7.89737 145.096 10.6889 179.98 45.2413C214.865 79.7959 211.738 133.027 172.993 164.14C134.251 195.253 74.5623 192.462 39.6775 157.91ZM38.8366 158.586C74.1408 193.554 134.544 196.378 173.752 164.892C212.961 133.405 216.125 79.5351 180.823 44.565C145.517 9.59703 85.1136 6.77237 45.9054 38.2592C6.6972 69.7438 3.53247 123.616 38.8344 158.586H38.8366Z" fill="#018C98"/>
<path d="M39.1178 158.358C3.95488 123.527 7.10636 69.8698 46.1601 38.509C85.2138 7.14815 145.379 9.95955 180.542 44.7904C215.705 79.6213 212.553 133.279 173.499 164.64C134.446 196.001 74.2807 193.189 39.1178 158.358ZM38.2769 159.035C73.8591 194.279 134.742 197.126 174.259 165.391C213.778 133.657 216.967 79.3583 181.385 44.1141C145.8 8.86991 84.9202 6.02314 45.4009 37.7575C5.88152 69.4919 2.69252 123.79 38.2747 159.035H38.2769Z" fill="#018A95"/>
<path d="M38.5546 158.809C3.11144 123.702 6.28941 69.6178 45.6543 38.0072C85.017 6.39883 145.659 9.23233 181.102 44.3395C216.545 79.4467 213.367 133.531 174.002 165.141C134.64 196.752 73.9956 193.916 38.5546 158.811V158.809ZM37.9941 159.26C73.7153 194.643 134.836 197.499 174.51 165.641C214.184 133.783 217.386 79.2721 181.665 43.8886C145.941 8.50517 84.8228 5.64956 45.1489 37.5077C5.47506 69.3659 2.27281 123.877 37.9941 159.26Z" fill="#018792"/>
</g>
</svg>
