<svg width="140" height="140" viewBox="0 0 140 140" fill="none" xmlns="http://www.w3.org/2000/svg">
<rect width="140" height="140" rx="30" fill="#E00000"/>
<path d="M58.6882 83.7715C55.8702 81.3695 53.0433 79.141 50.431 76.6956C40.4741 67.3825 40.2326 53.5603 44.2225 44.8975C47.1389 38.5847 52.2739 34.6305 58.8761 32.3066C63.6711 30.6157 68.6451 30.0087 73.7175 30C80.5164 30 87.3064 30 94.1054 30C94.3827 30 94.66 30.0347 95 30.0607V110.887H80.6775V40.8046C77.1259 40.9347 73.6817 40.848 70.3001 41.2468C68.0368 41.507 65.7376 42.192 63.6801 43.1459C58.8492 45.3744 56.568 49.3633 56.2459 54.4534C55.7718 62.1016 58.8492 68.1369 65.183 72.6287C68.5288 74.996 71.973 77.2419 75.3635 79.5398C75.7393 79.7913 76.1239 80.0515 76.5623 80.3463C76.3744 80.6498 76.2313 80.9099 76.0613 81.1527C69.4413 90.8127 62.8212 100.473 56.2191 110.141C55.7986 110.757 55.3513 111.008 54.582 111C50.1448 110.965 45.7165 110.982 41.2793 110.982C40.9304 110.982 40.5904 110.982 40 110.982C46.3427 101.747 52.5602 92.6857 58.6792 83.7802L58.6882 83.7715Z" fill="white"/>
</svg>
