<svg width="140" height="140" viewBox="0 0 140 140" fill="none" xmlns="http://www.w3.org/2000/svg">
<rect width="140" height="140" rx="30" fill="#014D99"/>
<path d="M19 106.816C19.9844 105.701 20.9639 104.585 21.9515 103.473C28.7404 95.8299 35.5309 88.1885 42.3214 80.5471C45.3358 77.1544 48.3567 73.7696 51.3566 70.364C51.7261 69.9449 52.023 69.9049 52.5217 70.156C61.6408 74.7437 70.7679 79.3138 79.8951 83.8855C90.4343 89.1643 100.973 94.4398 111.513 99.7201C115.92 101.928 120.323 104.143 124.727 106.354C124.835 106.408 124.94 106.469 125 106.704C124.501 106.614 123.999 106.538 123.502 106.435C111.551 103.95 99.6018 101.462 87.6522 98.9731C79.4852 97.2727 71.3198 95.5723 63.1528 93.8687C60.8952 93.3969 58.6409 92.9058 56.3784 92.4499C56.1106 92.3955 55.7862 92.4451 55.528 92.5475C49.6977 94.8605 43.8722 97.1864 38.0467 99.5106C31.9226 101.953 25.7986 104.394 19.6745 106.834C19.4906 106.907 19.2905 106.946 19.0984 107C19.0662 106.938 19.0339 106.877 19 106.814V106.816Z" fill="white"/>
<path d="M105 45.161C104.155 46.1254 103.314 47.0913 102.466 48.0525C96.6371 54.6614 90.8072 61.2702 84.9772 67.8791C82.3895 70.8125 79.7953 73.741 77.2205 76.6856C76.9029 77.0478 76.6482 77.0817 76.2209 76.8659C68.3933 72.899 60.5577 68.9465 52.722 64.9925C43.6755 60.4266 34.6258 55.8656 25.5794 51.2998C21.7953 49.3904 18.0162 47.4761 14.2338 45.5619C14.1419 45.5152 14.0516 45.4621 14 45.2576C14.4289 45.3349 14.8593 45.4009 15.285 45.4894C25.5439 47.6387 35.8028 49.7896 46.0617 51.9421C53.0719 53.412 60.0836 54.8835 67.0938 56.3566C69.0334 56.764 70.9681 57.189 72.9093 57.5834C73.1382 57.6301 73.4188 57.5867 73.6397 57.4981C78.6458 55.4985 83.6454 53.4861 88.6467 51.4769C93.9043 49.3646 99.1603 47.2523 104.42 45.1433C104.578 45.0789 104.748 45.0467 104.915 45C104.942 45.0531 104.971 45.1063 104.998 45.161H105Z" fill="#DC000A"/>
<path d="M71.0826 33C76.6139 33.0065 81.0081 37.4556 81 43.0388C80.9919 48.5407 76.4487 53.0516 70.9676 52.9996C65.4445 52.9475 60.9887 48.4984 61 43.047C61.0114 37.3726 65.4072 32.9935 71.0826 33Z" fill="white"/>
</svg>
